**ABCDEFGHIJKLMNOPQRSTUVWXYZabcdefghijklmnopqrstuvwxyz**************************
**PARASOLID !"#$%&'()*+,-./:;<=>?@[\]^_`{|}~0123456789**************************
**PART1;
MC=unknown;
MC_MODEL=unknown;
MC_ID=unknown;
OS=unknown;
OS_RELEASE=unknown;
FRU=Parasolid 33.1.200;
APPL=Onshape;
SITE=unknown;
USER=unknown;
FORMAT=text;
GUISE=transmit;
KEY=BTGapi::writeModels_.xmt;
FILE=BTGapi::writeModels_.xmt;
DATE=2021-07-17T16:27:55 (UTC);
**PART2;
SCH=SCH_3301200_33103;
USFLD_SIZE=0;
**PART3;
**END_OF_HEADER*****************************************************************
T51 : TRANSMIT FILE created by modeller version 330120023 SCH_3301200_33103_1300
6230 0 12 35 CCCI7 lattice222 0 CCCI4 mesh1006 0 I8 polyline1008 0 CCCCCCCDI5 ow
ner1040 0 CCCCCCI13 boundary_mesh1006 0 I17 boundary_polyline1008 0 CCCA16 index
_map_offset0 0 1 dA9 index_map82 0 A17 node_id_index_map82 0 A20 schema_embeddin
g_map82 0 A5 child12 0 A14 lowest_node_id0 0 1 dA16 mesh_offset_data206 0 Z1 264
2 2 3 0 0 0 0 0 0 0 1e3 1e-8 0 4 5 1 0 1 1 6 7 8 9 0 0 10 11 12 0 0 0 0 0 0 0 81
 255 1 2 2617 13 1 14 0 0 0 15 70 11 CI9 list_type0 0 1 uI10 notransmit0 0 1 lCC
CDCCDI12 finger_index0 0 1 dI12 finger_block1012 0 CZ3 0 4 T1 0 0 6 20 1 16 16 1
3 255 6 9 0 1 0 17 0 0 18 0 50 255 7 2366 0 19 20 0 0 +-.01425030595642404 -.142
1458548958584 -.023774768686447 .2137630061562305 .975094662210942 -.05912509557
52404 -.976803500517336 .2141376225166375 0 30 255 8 2386 0 21 22 0 0 +-.0142503
0595642404 -.1421458548958584 -.023774768686447 .266582526692913 -12484583123477
02e-32 .963812096034296 29 255 9 2374 0 23 24 0 -.01283741856495162 -.1421458548
958584 -.0186665645774652 19 8 CCCCCCCA5 owner12 0 Z10 1 0 1 18 0 25 V0 16 255 1
1 896 26 ?27 0 28 29 0 0 1 18 255 12 1504 30 31 0 32 33 ?1 81 1 30 1864 34 12 0
 0 35 36 37 17 255 31 0 38 39 40 12 41 42 0 43 +18 32 540 44 45 12 46 47 ?1 29 3
3 1508 0 12 48 49 -.01335747117858688 -.147801403936682 -.0157213463638362 29 48
 1003 0 50 51 33 -.01149813336515626 -.1470259194540196 -.01312298405024382 29 4
9 2367 0 52 33 53 -.01095780250451686 -.1425894330726334 -.01918645097509915 18
 52 2148 54 55 56 57 49 ?1 29 53 2368 0 58 49 59 -.01378357728746174 -.142589433
0726334 -.0294028591930627 18 58 2152 60 61 62 0 53 ?1 29 59 2369 0 62 53 63 -.0
1604946515271775 -.1529254364920695 -.02877613317996515 18 62 2156 64 65 57 58 5
9 ?1 29 63 2370 0 57 59 66 -.0132236903697729 -.1529254364920695 -.0185597249620
016 18 57 2160 67 68 52 62 63 ?1 29 66 2371 0 69 63 70 -.01510330643020765 -.152
4818583152945 -.01803983856436765 18 69 1739 71 72 73 23 66 ?1 29 70 2372 0 73 6
6 24 -.01792908121315255 -.1524818583152945 -.0282562467823312 18 73 1733 74 75
 76 69 70 ?1 29 24 2373 0 77 70 9 -.0156631933478965 -.1421458548958584 -.028882
97279542875 18 77 1709 78 79 23 80 24 ?1 81 1 78 1710 34 77 0 0 81 82 83 17 79 0
 84 85 86 77 61 87 0 88 -18 23 1715 82 89 69 77 9 ?1 18 80 1729 36 90 77 91 92 ?
1 81 1 36 1865 34 80 0 0 30 93 94 17 90 0 95 96 97 80 40 98 0 99 +18 91 1724 35
 39 80 56 100 ?1 29 92 1835 0 80 100 101 -.01252046071108488 -.146826309274471 -
.01352716007580494 29 100 1836 0 91 102 92 -.01314370817243064 -.146826309274471
 -.01578047145941145 29 101 1822 0 76 92 103 -.01188839649004546 -.1480010141162
306 -.013701983859165 18 76 1717 104 105 106 73 101 ?1 29 103 1821 0 106 101 107
 -.01167463348388922 -.1470259194540196 -.01376110895474022 18 106 1728 108 96 5
0 76 103 ?1 29 107 614 0 109 103 110 -.01408351620264802 -.1466045201860834 -.01
55205282605945 18 109 550 111 112 113 114 107 ?1 29 110 613 0 113 107 115 -.0142
9727920880426 -.1475796148482944 -.01546140316501925 18 113 552 116 117 46 109 1
10 ?1 29 115 612 0 46 110 47 -.0132837686225693 -.1466045201860834 -.01262909197
24916 18 46 542 118 119 32 113 115 ?1 29 47 611 0 32 115 51 -.01349753162872552
 -.1475796148482944 -.01256996687691636 29 51 1002 0 114 47 48 -.011711896371312
5 -.1480010141162306 -.0130638589546686 18 114 544 120 121 109 50 51 ?1 81 1 120
 545 34 114 0 0 118 122 123 17 121 0 124 125 126 114 45 127 0 128 +18 50 548 122
 129 114 106 48 ?1 81 1 122 549 34 50 0 0 120 111 130 17 129 0 131 132 133 50 11
9 134 0 135 +15 255 131 572 0 132 136 0 17 132 0 131 137 129 106 135 138 0 139 +
17 133 0 131 129 140 46 112 141 0 142 -17 119 0 124 126 125 46 129 134 0 133 -16
 134 514 143 ?129 127 144 145 0 0 1 17 135 0 146 147 139 50 132 138 0 125 -15 14
6 560 0 139 148 0 17 147 0 146 149 135 114 125 150 0 0 +17 139 0 146 135 149 106
 151 152 0 0 -16 138 506 153 ?132 154 155 156 0 0 1 17 125 0 124 119 121 50 147
 150 0 0 -15 124 568 0 125 157 0 16 150 488 158 ?147 141 154 159 0 0 1 81 1 158
 490 34 150 0 0 160 161 162 16 141 525 163 ?112 164 150 165 0 0 1 16 154 491 166
 ?149 150 138 167 0 0 1 30 159 1009 0 150 167 156 0 +-.01160501486823438 -.14751
34667851252 -.0130934215024562 -.21376300615623 -.975094662210942 .0591250955752
413 30 167 1008 0 154 168 159 0 +-.01218000349434748 -.1480010141162306 -.014756
27035543772 -.266582526692913 137211857897248e-30 -.963812096034296 30 156 1010
 0 138 159 169 0 +-.01196624048819124 -.1470259194540196 -.01481539545101296 -.2
66582526692913 -2914878029996635e-32 -.963812096034296 30 169 2375 0 170 156 171
 0 +-.01283741856495162 -.1421458548958584 -.0186665645774652 .939808030217381 -
.221789088387436 -.259943198816965 16 170 1616 172 ?55 87 173 169 0 0 1 30 171 2
376 0 173 169 174 0 +-.01510330643020765 -.1524818583152945 -.01803983856436765
 .939808030217381 -.221789088387436 -.259943198816965 16 173 1670 175 ?68 170 17
6 171 0 0 1 30 174 2377 0 176 171 177 0 +-.01792908121315255 -.1524818583152945
 -.0282562467823312 .939808030217381 -.221789088387436 -.259943198816965 16 176
 1600 178 ?65 173 179 174 0 0 1 30 177 2378 0 87 174 180 0 +-.0156631933478965 -
.1421458548958584 -.02888297279542875 .939808030217381 -.221789088387436 -.25994
3198816965 16 87 1608 181 ?61 182 170 177 0 0 1 30 180 2379 0 183 177 184 0 +-.0
120907464371449 -.1477574347823514 -.01887308796855035 -.2137630061562305 -.9750
94662210942 .0591250955752404 16 183 2130 185 ?186 187 188 180 0 0 1 30 184 2380
 0 189 180 190 0 +-.01237068989598928 -.1425894330726334 -.02429465508408085 .26
65825266929125 -554568921956979e-32 .963812096034296 16 189 2127 191 ?192 193 19
4 184 0 0 1 30 190 2381 0 193 184 195 0 +-.01491652122008978 -.1477574347823514
 -.0290894961865139 -.2137630061562305 -.975094662210942 .0591250955752404 16 19
3 2102 196 ?197 188 189 190 0 0 1 30 195 2382 0 188 190 198 0 +-.014636577761245
32 -.1529254364920695 -.0236679290709833 .2665825266929125 -554568921956979e-32
 .963812096034296 16 188 2108 199 ?200 183 193 195 0 0 1 30 198 2383 0 201 195 2
02 0 +-.01397036249757962 -.1473138566055764 -.01835320157091645 -.2137630061562
305 -.975094662210942 .0591250955752404 16 201 1681 81 ?72 203 21 198 0 0 1 30 2
02 2384 0 203 198 22 0 +-.0165161938216801 -.1524818583152945 -.0231480426733494
5 .266582526692913 -1248458312347702e-32 .963812096034296 16 203 1667 204 ?205 2
06 201 202 0 0 1 30 22 2385 0 207 202 8 0 +-.0167961372805245 -.1473138566055764
 -.02856960978888 -.2137630061562305 -.975094662210942 .0591250955752404 16 207
 1597 208 ?85 21 209 22 0 0 1 81 1 208 1599 34 207 0 0 210 211 212 17 85 0 84 65
 79 73 213 207 0 214 +16 21 1678 215 ?216 201 207 8 0 0 1 16 209 1657 217 ?218 2
07 219 220 0 0 1 81 1 217 1873 34 209 0 0 221 222 223 17 218 0 131 140 137 91 99
 209 0 224 +16 219 1647 225 ?43 209 42 226 0 0 1 30 220 1817 0 209 226 227 0 +-.
0128120677153869 -.146826309274471 -.0145814465720777 -.266582526692913 -3693530
28807533e-31 -.963812096034296 30 226 1818 0 219 228 220 0 +-.01325058967550876
 -.1473138566055764 -.01575090891162385 -.21376300615623 -.975094662210942 .0591
250955752413 30 227 1800 0 206 220 229 0 +-.01252046071108488 -.146826309274471
 -.01352716007580494 .939808030217381 -.221789088387436 -.259943198816965 16 206
 1622 221 ?96 179 203 227 0 0 1 30 229 1797 0 179 227 230 0 +-.0127342237172411
 -.147801403936682 -.01346803498022972 .939808030217381 -.221789088387436 -.2599
43198816965 16 179 1637 222 ?105 176 206 229 0 0 1 31 255 230 953 0 182 229 231
 0 +-.0073948816322044 -.1491990638568696 -.0256709228698424 .939808030217381 -.
221789088387436 -.259943198816965 -.2665825266929125 0 -.963812096034296 .0105 1
6 182 908 232 ?233 234 87 230 0 0 1 31 231 952 0 234 230 29 0 +-.007394881632204
41 -.1491990638568696 -.0256709228698424 .939808030217381 -.221789088387436 -.25
9943198816965 -.2665825266929125 0 -.963812096034296 .0115 16 234 916 235 ?236 2
37 182 231 0 0 1 31 29 950 0 11 231 238 0 +-.00833468966242179 -.148977274768482
2 -.0254109796710254 .939808030217381 -.221789088387436 -.259943198816965 -.2665
825266929125 0 -.963812096034296 .0115 31 238 793 0 155 29 239 0 +-.008334689662
42178 -.1489772747684822 -.0254109796710254 .939808030217381 -.221789088387436 -
.259943198816965 -.2665825266929125 0 -.963812096034296 .0125 16 155 752 240 ?24
1 138 242 238 0 0 1 31 239 792 0 237 238 165 0 +-.0120939217832913 -.14809011841
49324 -.02437120687575755 .939808030217381 -.221789088387436 -.259943198816965 -
.2665825266929125 0 -.963812096034296 .0105 16 237 755 243 ?244 242 234 239 0 0
 1 30 165 604 0 141 239 245 0 +-.01375187574560426 -.1466045201860834 -.01432150
337326072 -.266582526692913 -369353028807533e-31 -.963812096034296 30 245 603 0
 164 165 246 0 +-.01419039770572614 -.147092067517189 -.01549096571280685 -.2137
6300615623 -.975094662210942 .0591250955752413 16 164 528 247 ?117 248 141 245 0
 0 1 30 246 602 0 248 245 249 0 +-.0139656387517605 -.1475796148482944 -.0142623
7827768548 -.266582526692913 1477412115230132e-31 -.963812096034296 16 248 494 1
61 ?250 251 164 246 0 0 1 30 249 601 0 251 246 252 0 +-.0133906501256474 -.14709
2067517189 -.01259952942470398 -.21376300615623 -.975094662210942 .0591250955752
413 16 251 500 253 ?126 254 248 249 0 0 1 30 252 596 0 127 249 145 0 +-.01349753
162872552 -.1475796148482944 -.01256996687691636 .939808030217381 -.221789088387
436 -.259943198816965 16 127 503 255 ?121 256 134 252 0 0 1 30 145 595 0 134 252
 257 0 +-.0132837686225693 -.1466045201860834 -.0126290919724916 .93980803021738
1 -.221789088387436 -.259943198816965 30 257 594 0 254 145 258 0 +-.014297279208
80426 -.1475796148482944 -.01546140316501925 .939808030217381 -.221789088387436
 -.259943198816965 16 254 497 259 ?260 144 251 257 0 0 1 30 258 593 0 144 257 26
1 0 +-.01408351620264802 -.1466045201860834 -.0155205282605945 .939808030217381
 -.221789088387436 -.259943198816965 16 144 522 262 ?224 134 254 258 0 0 1 31 26
1 412 0 256 258 263 0 +-.0120939217832913 -.1480901184149324 -.02437120687575755
 .939808030217381 -.221789088387436 -.259943198816965 -.2665825266929125 0 -.963
812096034296 .004 16 256 384 160 ?264 152 127 261 0 0 1 31 263 984 0 242 261 265
 0 +-.0119529505787587 -.1481233867781906 -.0244101983555801 .939808030217381 -.
221789088387436 -.259943198816965 -.2665825266929125 0 -.963812096034296 .0125 1
6 242 749 266 ?267 155 237 263 0 0 1 31 265 985 0 268 263 269 0 +-.0119529505787
5866 -.1481233867781904 -.0244101983555801 .939808030217381 -.221789088387436 -.
259943198816965 -.2665825266929125 0 -.963812096034296 .01135 16 268 40 270 ?271
 272 152 265 0 0 1 31 269 986 0 28 265 273 0 --.01289275860897582 -.147901597689
803 -.0241502551567632 .939808030217382 -.221789088387434 -.259943198816965 -.26
65825266929125 0 -.963812096034296 .01035 16 28 84 274 ?275 11 272 269 0 0 1 31
 273 987 0 272 269 168 0 +-.01289275860897582 -.147901597689803 -.02415025515676
32 .939808030217382 -.221789088387434 -.259943198816965 -.2665825266929125 0 -.9
63812096034296 .01135 16 272 29 276 ?277 28 268 273 0 0 1 31 168 1007 0 152 273
 167 0 --.0145374226618564 -.147513466785125 -.02369535455883345 -.9398080302173
81 .221789088387436 .259943198816965 .2665825266929125 0 .963812096034296 .01035
 16 152 95 278 ?151 268 256 168 0 0 1 81 1 278 622 34 152 0 0 279 153 280 17 151
 0 95 97 96 76 139 152 0 149 +15 95 1858 0 151 281 282 17 97 0 95 90 151 56 105
 179 0 40 -17 96 0 95 151 90 106 137 206 0 132 +17 149 0 146 139 147 76 128 154
 0 0 +17 128 0 283 45 105 114 149 154 0 147 -15 283 1535 0 105 284 0 17 45 0 283
 250 128 32 121 127 0 285 -17 105 0 283 128 41 76 97 179 0 151 +17 41 0 283 105
 260 56 31 42 0 0 -17 260 0 283 41 250 12 286 254 0 0 +18 56 1718 93 97 91 52 10
2 ?1 16 42 1673 287 ?31 219 98 228 0 0 1 81 1 287 1875 34 42 0 0 222 262 288 16
 98 1619 211 ?90 42 187 289 0 0 1 30 228 1819 0 42 289 226 0 +-.0130258307215431
2 -.147801403936682 -.01452232147650244 -.266582526692913 1477412115230132e-31 -
.963812096034296 31 289 1820 0 98 290 228 0 +-.01538324988905205 -.1473138566055
764 -.0234614056798982 .939808030217381 -.221789088387436 -.259943198816965 -.26
65825266929125 0 -.963812096034296 .01035 31 290 2213 0 187 291 289 0 +-.0135036
338286173 -.1477574347823512 -.0239812920775321 .939808030217381 -.2217890883874
36 -.259943198816965 -.2665825266929125 0 -.963812096034296 .004 16 187 2122 292
 ?293 98 183 290 0 0 1 31 291 2596 0 194 294 290 0 --.01064033334142894 -.141459
474711898 -.0247732575256692 .939808030217381 -.221789088387436 -.25994319881696
5 -.2665825266929125 0 -.963812096034296 .00125 16 194 2529 295 ?296 189 297 291
 0 0 1 31 294 2597 0 297 298 291 0 --.01354751022515366 -.154720762117967 -.0239
6915622584595 .939808030217381 -.221789088387436 -.259943198816965 -.26658252669
29125 0 -.963812096034296 .00125 16 297 2562 299 ?300 194 301 294 0 0 1 31 298 2
599 0 302 303 294 0 +-.01683683833091445 -.153944500308611 -.02305935502998655 -
.93980803021738 .2217890883874395 .259943198816965 .266582526692913 0 .963812096
034296 .00125 16 302 2557 304 ?305 301 0 298 0 0 1 31 303 2601 0 301 0 298 0 +-.
0139296614471897 -.140683212902542 -.02386345632980985 -.93980803021738 .2217890
883874395 .259943198816965 .266582526692913 0 .963812096034296 .00125 16 301 252
4 306 ?307 297 302 303 0 0 1 81 1 306 2609 34 301 0 0 299 304 308 17 307 0 309 3
07 307 0 310 301 0 0 +15 309 2552 0 307 311 0 17 310 0 312 310 310 0 307 301 0 0
 -15 312 2494 0 310 313 314 14 255 313 1775 315 ?316 317 312 6 318 +0 0 316 317
 25 15 314 2487 0 319 313 38 17 319 0 314 319 319 0 305 302 0 0 -15 38 1778 0 40
 313 320 17 40 0 38 31 99 56 90 98 0 41 -15 320 1779 0 213 313 0 17 213 0 320 21
6 214 77 85 207 0 0 -17 216 0 320 72 213 23 88 21 0 321 +17 214 0 320 213 72 73
 205 203 0 0 -17 72 0 320 214 216 69 89 201 0 322 +17 205 0 323 68 75 69 214 203
 0 0 +15 323 1774 0 68 317 0 17 68 0 323 324 205 57 322 173 0 200 +17 75 0 323 2
05 324 73 65 176 0 85 -17 324 0 323 75 68 62 200 188 0 0 -17 65 0 84 86 85 62 75
 176 0 197 +15 84 1746 0 65 325 0 17 86 0 84 79 65 58 197 193 0 326 -17 197 0 32
7 200 326 62 86 193 0 324 +15 327 2188 0 326 316 328 17 200 0 327 329 197 57 324
 188 0 186 +17 326 0 327 197 329 58 192 189 0 0 -17 329 0 327 326 200 52 186 183
 0 192 -17 192 0 330 321 61 52 326 189 0 0 +15 330 1750 0 61 19 0 17 321 0 330 8
8 192 23 55 170 0 0 -17 61 0 330 192 88 58 79 87 0 86 +17 88 0 330 61 321 77 216
 21 0 213 -17 55 0 331 186 89 52 321 170 0 329 +15 331 1754 0 55 332 0 17 186 0
 331 322 55 57 329 183 0 0 +17 89 0 331 55 322 23 72 201 0 216 -17 322 0 331 89
 186 69 68 173 0 205 -14 332 1751 333 ?317 19 331 6 334 -0 0 317 19 25 81 1 333
 2637 335 332 336 0 337 338 339 14 317 1771 338 ?313 332 323 6 340 +0 0 313 332
 25 14 19 1747 337 ?332 325 330 6 7 -0 0 332 325 25 50 334 2363 0 332 341 340 0
 +-.01397036249757962 -.1473138566055764 -.01835320157091645 .2665825266929125 -
542101086242752e-31 .963812096034296 .963812096034296 0 -.2665825266929125 13 25
 7 0 0 0 0 0 0 10 17 14 17 10 342 ?343 0 344 6 345 +0 0 343 0 25 81 1 342 2618 3
35 17 346 0 0 347 348 14 343 14 347 ?349 17 350 6 351 -0 0 349 17 25 15 344 2507
 0 296 17 352 50 345 44 0 17 353 354 0 +-.0120939217832912 -.148090118414932 -.0
243712068757576 .939808030217381 -.221789088387436 -.259943198816965 .2665825266
92912 0 .963812096034296 51 255 353 409 0 355 356 345 0 +-.0355891225387258 -.14
25453912052464 -.01787262690533345 .939808030217381 -.221789088387436 -.25994319
8816965 .004 -.2665825266929125 0 -.963812096034296 51 354 969 0 281 345 357 0 -
-.0144453214748951 -.147535202115787 -.0237208289923175 .939808030217382 -.22178
9088387434 -.259943198816965 .01035 -.2665825266929125 0 -.963812096034296 14 28
1 111 358 ?355 349 95 6 354 -0 0 355 349 25 51 357 970 0 349 354 359 0 --.012092
04216723084 -.1480905619931092 -.0243717267621552 -.939808030217382 .22178908838
7434 .259943198816965 .01135 .2665825266929125 0 .963812096034296 14 349 25 360
 ?281 343 361 6 357 -0 0 281 343 25 50 359 982 0 362 357 351 0 +-.01195295057875
872 -.1481233867781906 -.0244101983555801 .939808030217381 -.221789088387436 -.2
59943198816965 .2137630061562305 .975094662210942 -.0591250955752404 14 362 780
 363 ?364 365 366 6 359 -0 0 364 365 25 50 351 983 0 343 359 341 0 +-.0152441516
766945 -.158627638974124 -.02349987910543555 .939808030217382 -.221789088387434
 -.259943198816965 .266582526692912 0 .963812096034296 50 341 992 0 148 351 334
 0 +-.01417407043552366 -.1475951230309782 -.02231200694262215 -.939808030217381
 .221789088387436 .259943198816965 -.2137630061562305 -.975094662210942 .0591250
955752404 14 148 581 367 ?284 355 146 6 341 -0 0 284 355 25 81 1 367 2623 335 14
8 210 0 368 369 370 14 284 561 369 ?157 148 283 6 371 +0 0 157 148 25 14 355 394
 368 ?148 281 372 6 353 -0 0 148 281 25 81 1 368 2622 335 355 373 0 358 367 374
 15 372 2075 0 375 355 376 17 375 0 372 375 375 0 293 187 0 0 -15 376 398 0 264
 355 0 17 264 0 376 264 264 0 377 256 0 0 +17 377 0 378 377 377 0 264 256 0 0 -1
5 378 368 0 377 17 379 15 379 732 0 244 17 0 17 244 0 379 244 244 0 380 237 0 0
 +17 380 0 381 380 380 0 244 237 0 0 -15 381 769 0 380 364 382 14 364 765 383 ?3
84 362 381 6 385 +0 0 384 362 25 15 382 927 0 233 364 0 17 233 0 382 233 233 0 3
86 182 0 0 +17 386 0 387 386 386 0 233 182 0 0 -15 387 937 0 386 388 389 14 388
 934 390 ?325 391 387 6 392 +0 0 325 391 25 15 389 938 0 236 388 0 17 236 0 389
 236 236 0 393 234 0 0 +17 393 0 394 393 393 0 236 234 0 0 -15 394 932 0 393 391
 395 14 391 929 396 ?388 397 394 6 398 -0 0 388 397 25 15 395 933 0 27 391 0 17
 27 0 395 27 27 0 399 11 0 0 +17 399 0 400 399 399 0 27 11 0 0 -15 400 898 0 399
 397 401 14 397 775 402 ?391 384 400 6 403 +0 0 391 384 25 15 401 779 0 241 397
 0 17 241 0 401 241 241 0 404 155 0 0 +17 404 0 405 404 404 0 241 155 0 0 -15 40
5 773 0 404 384 406 14 384 770 407 ?397 364 405 6 408 -0 0 397 364 25 15 406 774
 0 267 384 0 17 267 0 406 267 267 0 409 242 0 0 +17 409 0 366 409 409 0 267 242
 0 0 -15 366 763 0 409 362 410 15 410 764 0 271 362 0 17 271 0 410 271 271 0 411
 268 0 0 +17 411 0 412 411 411 0 271 268 0 0 -15 412 28 0 411 349 0 81 1 407 263
1 335 384 413 0 383 402 414 51 408 788 0 384 403 385 0 --.00833468966242178 -.14
89772747684822 -.0254109796710254 -.939808030217381 .221789088387436 .2599431988
16965 .0125 .266582526692913 0 .963812096034296 50 403 790 0 397 398 408 0 +-.00
83346896624218 -.1489772747684822 -.0254109796710254 .939808030217381 -.22178908
8387436 -.259943198816965 .2137630061562305 .975094662210942 -.0591250955752404
 51 385 787 0 364 408 415 0 --.00833468966242178 -.1489772747684822 -.0254109796
710254 -.939808030217381 .221789088387436 .259943198816965 .0105 .26658252669291
3 0 .963812096034296 50 415 592 0 365 385 416 0 +-.0159597056929367 -.1471737237
63042 -.0218181148648699 -.939808030217381 .221789088387436 .259943198816965 -.2
137630061562305 -.975094662210942 .0591250955752404 14 365 577 417 ?362 418 419
 6 415 +0 0 362 418 25 50 416 590 0 157 415 371 0 +-.0133906501256474 -.14709206
7517189 -.01259952942470398 .266582526692913 813151629364128e-30 .96381209603429
6 .963812096034296 0 -.266582526692913 14 157 565 420 ?136 284 124 6 416 +0 0 13
6 284 25 50 371 589 0 284 416 421 0 +-.0139656387517605 -.1475796148482944 -.014
26237827768548 -.2137630061562305 -.975094662210942 .0591250955752403 .976803500
517336 -.2141376225166375 0 50 421 588 0 418 371 356 0 +-.01419039770572614 -.14
7092067517189 -.01549096571280685 .266582526692913 813151629364128e-30 .96381209
6034296 .963812096034296 0 -.266582526692913 14 418 573 422 ?365 136 423 6 421 -
0 0 365 136 25 50 356 587 0 136 421 353 0 +-.01375187574560426 -.146604520186083
4 -.01432150337326072 -.2137630061562305 -.975094662210942 .0591250955752405 .97
6803500517336 -.2141376225166375 0 14 136 569 424 ?418 157 131 6 356 -0 0 418 15
7 25 81 1 424 2626 335 136 425 0 420 422 426 80 255 1 335 0 427 8001 0 0 0 0 3 5
 0 0 0 FFFFTFTFFFFFFF2 81 1 425 1884 34 136 0 424 428 429 430 81 1 420 2625 335
 157 431 0 369 424 432 81 1 422 2627 335 418 428 0 424 417 433 83 255 3 426 .866
666666666667 .3215686274509805 .156862745098039 81 1 428 1883 34 418 0 422 434 4
25 435 81 1 417 2628 335 365 279 0 422 363 436 83 3 433 .866666666666667 .321568
6274509805 .156862745098039 81 1 279 579 34 365 0 417 431 278 437 81 1 363 2629
 335 362 438 0 417 383 439 83 3 436 .866666666666667 .3215686274509805 .15686274
5098039 81 1 438 989 34 362 0 363 440 210 441 81 1 383 2630 335 364 442 0 363 40
7 443 83 3 439 .866666666666667 .3215686274509805 .156862745098039 81 1 442 965
 34 364 0 383 26 444 445 83 3 443 .866666666666667 .3215686274509805 .1568627450
98039 80 1 34 446 447 9000 0 0 0 0 3 6 0 0 0 FFTFTFTTFFFFFF1 81 1 26 964 34 11 0
 0 448 442 449 81 1 444 966 34 397 0 402 442 450 451 82 255 3 445 73 0 2 81 1 40
2 2632 335 397 444 0 407 396 452 81 1 450 978 34 349 0 360 444 440 453 82 3 451
 73 1 2 81 1 360 2620 335 349 450 0 347 358 454 81 1 440 988 34 343 455 347 450
 438 456 82 3 453 74 0 2 81 1 455 16 457 343 0 440 0 458 459 81 1 347 2619 335 3
43 440 0 342 360 460 82 3 456 75 0 2 83 3 460 .866666666666667 .3215686274509805
 .156862745098039 80 1 457 461 462 9000 0 0 0 0 3 5 0 0 0 FFTFTFTTFFFFFF2 81 1 4
58 31 457 272 0 276 455 0 463 83 1 459 826 81 1 276 54 34 272 458 0 0 274 464 83
 1 463 681 81 1 274 126 34 28 0 0 276 160 465 82 3 464 48 2 1 81 1 160 415 34 25
6 0 0 274 158 466 82 3 465 53 0 1 82 3 466 61 0 1 79 255 13 462 BTI/importTag81
 1 358 2621 335 281 434 0 360 368 467 83 3 454 .866666666666667 .321568627450980
5 .156862745098039 81 1 434 1882 34 281 0 358 259 428 468 83 3 467 .866666666666
667 .3215686274509805 .156862745098039 81 1 259 1881 34 254 0 0 262 434 469 82 3
 468 133 0 2 81 1 262 1880 34 144 0 0 287 259 470 82 3 469 133 10 1 82 3 470 133
 9 1 81 1 396 2633 335 391 471 0 402 390 472 83 3 452 .866666666666667 .32156862
74509805 .156862745098039 81 1 471 931 34 391 0 396 235 448 473 81 1 390 2634 33
5 388 448 0 396 474 475 83 3 472 .866666666666667 .3215686274509805 .15686274509
8039 81 1 448 936 34 388 0 390 471 26 476 81 1 474 2635 335 325 477 0 390 337 47
8 83 3 475 .866666666666667 .3215686274509805 .156862745098039 14 325 1743 474 ?
19 388 84 6 20 +0 0 19 388 25 81 1 477 2387 34 325 0 474 373 336 479 81 1 337 26
36 335 19 480 0 474 333 481 83 3 478 .866666666666667 .3215686274509805 .1568627
45098039 81 1 480 2389 34 19 0 337 336 482 483 83 3 481 .866666666666667 .321568
6274509805 .156862745098039 81 1 336 2388 34 332 0 333 477 480 484 81 1 482 2390
 34 317 0 338 480 295 485 82 3 483 184 2 2 81 1 338 2638 335 317 482 0 333 315 4
86 81 1 295 2607 34 194 0 0 482 299 487 82 3 485 184 3 2 81 1 299 2608 34 297 0
 0 295 306 488 82 3 487 195 0 1 82 3 488 195 1 1 81 1 315 2639 335 313 489 0 338
 490 491 83 3 486 .866666666666667 .3215686274509805 .156862745098039 81 1 489 2
614 34 313 0 315 346 0 492 81 1 490 2640 335 316 493 0 315 494 495 83 3 491 .866
666666666667 .3215686274509805 .156862745098039 14 316 2185 490 ?496 313 327 6 4
97 -0 0 496 313 25 81 1 493 2275 34 316 0 490 199 373 498 81 1 494 2641 335 496
 499 0 490 500 501 83 3 495 .866666666666667 .3215686274509805 .156862745098039
 14 496 2581 494 ?311 316 502 6 503 +0 0 311 316 25 81 1 499 2612 34 496 0 494 5
04 346 505 81 1 500 2642 335 311 504 0 494 0 506 83 3 501 .866666666666667 .3215
686274509805 .156862745098039 14 311 2548 500 ?0 496 507 6 508 +0 0 0 496 25 81
 1 504 2611 34 311 0 500 304 499 509 83 3 506 .866666666666667 .3215686274509805
 .156862745098039 81 1 304 2610 34 302 0 0 306 504 510 82 3 509 195 0 2 82 3 510
 195 3 1 15 507 2551 0 511 311 309 51 508 2595 0 311 0 503 0 --.0112272078498940
8 -.1413209758290994 -.024610932846448 -.93980803021738 .2217890883874395 .25994
3198816965 .00125 .266582526692913 0 .963812096034296 51 503 2592 0 496 508 497
 0 --.0141343847336188 -.154582263235168 -.0238068315466247 -.93980803021738 .22
17890883874395 .259943198816965 .00125 .266582526692913 0 .963812096034296 50 49
7 2203 0 316 503 318 0 +-.01350363382861732 -.1477574347823514 -.023981292077532
05 .939808030217381 -.221789088387436 -.259943198816965 .266582526692912 0 .9638
12096034296 50 318 1796 0 313 497 392 0 +-.01538324988905205 -.1473138566055764
 -.0234614056798982 -.939808030217381 .221789088387436 .259943198816965 -.213763
0061562305 -.975094662210942 .0591250955752404 50 392 949 0 388 318 398 0 +-.007
39488163220442 -.1491990638568698 -.0256709228698424 .939808030217381 -.22178908
8387436 -.259943198816965 .2137630061562305 .975094662210942 -.0591250955752404
 51 398 947 0 391 392 403 0 --.00739488163220441 -.1491990638568696 -.0256709228
698424 -.939808030217381 .221789088387436 .259943198816965 .0115 .26658252669291
3 0 .963812096034296 17 511 0 507 511 511 0 296 194 0 0 -17 296 0 344 296 296 0
 511 194 0 0 +81 1 346 2613 34 17 0 342 499 489 512 82 3 505 195 1 2 82 3 512 19
5 2 2 15 502 2584 0 513 496 514 17 513 0 502 513 513 0 300 297 0 0 -15 514 2585
 0 305 496 0 17 305 0 514 305 305 0 319 302 0 0 +17 300 0 352 300 300 0 513 297
 0 0 +15 352 2501 0 300 17 378 81 1 199 2270 34 188 0 0 191 493 515 81 1 373 227
6 34 355 0 368 493 477 516 82 3 498 180 4 2 82 3 516 180 5 2 81 1 191 2269 34 18
9 0 0 185 199 517 82 3 515 180 8 1 81 1 185 2268 34 183 0 0 196 191 518 82 3 517
 180 7 1 81 1 196 2267 34 193 0 0 175 185 519 82 3 518 180 6 1 81 1 175 2266 34
 173 0 0 172 196 520 82 3 519 180 5 1 81 1 172 2265 34 170 0 0 178 175 521 82 3
 520 180 4 1 81 1 178 2264 34 176 0 0 181 172 522 82 3 521 180 3 1 81 1 181 2263
 34 87 0 0 292 178 523 82 3 522 180 2 1 81 1 292 2262 34 187 0 0 67 181 524 82 3
 523 180 1 1 81 1 67 2261 34 57 0 0 54 292 525 82 3 524 180 0 1 81 1 54 2260 34
 52 0 0 64 67 526 82 3 525 180 3 0 81 1 64 2259 34 62 0 0 60 54 527 82 3 526 180
 2 0 81 1 60 2258 34 58 0 0 429 64 528 82 3 527 180 1 0 81 1 429 1885 34 284 0 3
69 425 60 529 82 3 528 180 0 0 81 1 369 2624 335 284 429 0 367 420 530 82 3 529
 133 3 2 83 3 530 .866666666666667 .3215686274509805 .156862745098039 82 3 492 1
95 3 2 82 3 484 184 1 2 82 3 479 184 0 2 50 20 2365 0 325 340 7 0 +-.01679613728
05245 -.1473138566055764 -.02856960978888 .2665825266929125 -67762635780344e-31
 .963812096034296 .963812096034296 0 -.2665825266929125 50 340 2364 0 317 334 20
 0 +-.0165161938216801 -.1524818583152945 -.02314804267334945 .2137630061562305
 .975094662210942 -.0591250955752404 -.976803500517336 .2141376225166375 0 82 3
 476 72 2 2 81 1 235 918 34 234 0 0 232 471 531 82 3 473 72 3 2 81 1 232 910 34
 182 0 0 243 235 532 82 3 531 72 3 1 81 1 243 800 34 237 0 0 270 232 533 82 3 53
2 72 1 1 81 1 270 799 34 268 0 0 413 243 534 82 3 533 69 1 1 81 1 413 772 34 384
 0 407 240 270 535 82 3 534 69 0 1 81 1 240 754 34 155 0 0 266 413 536 82 3 535
 68 0 2 81 1 266 751 34 242 0 0 166 240 537 82 3 536 68 1 1 81 1 166 628 34 154
 0 0 153 266 538 82 3 537 68 0 1 81 1 153 627 34 138 0 0 278 166 539 82 3 538 65
 6 1 82 3 539 65 5 1 82 3 449 73 0 1 79 9 447 BTI/DetId81 1 210 1013 34 148 0 36
7 438 208 540 82 3 441 75 1 2 82 3 540 76 0 2 81 1 431 567 34 157 0 420 116 279
 541 82 3 437 64 2 2 81 1 116 553 34 113 0 0 111 431 542 82 3 541 64 0 2 81 1 11
1 551 34 109 0 0 122 116 543 82 3 542 64 7 0 82 3 543 64 5 0 82 3 435 133 1 2 83
 3 432 .866666666666667 .3215686274509805 .156862745098039 82 3 430 133 2 2 79 1
5 427 SDL/TYSA_COLOUR15 423 576 0 224 418 0 17 224 0 423 43 544 91 140 144 0 0 +
17 43 0 423 286 224 12 39 219 0 260 +17 544 0 423 224 286 109 117 164 0 0 -17 14
0 0 131 133 218 109 224 144 0 544 -17 286 0 423 544 43 113 260 254 0 250 -17 117
 0 419 285 112 113 544 164 0 286 +15 419 580 0 285 365 0 17 285 0 419 142 117 32
 250 248 0 126 -17 112 0 419 117 142 109 133 141 0 140 +17 142 0 419 112 285 46
 126 251 0 0 -17 126 0 124 121 119 32 142 251 0 0 +17 250 0 283 260 45 113 285 2
48 0 0 +17 39 0 38 99 31 91 43 219 0 218 -17 99 0 38 40 39 80 218 209 0 137 -17
 137 0 131 218 132 80 96 206 0 0 -83 3 414 .866666666666667 .3215686274509805 .1
56862745098039 17 293 0 328 293 293 0 375 187 0 0 +15 328 2189 0 293 316 0 83 3
 374 .866666666666667 .3215686274509805 .156862745098039 83 3 370 .8666666666666
67 .3215686274509805 .156862745098039 15 361 27 0 277 349 412 17 277 0 361 277 2
77 0 545 272 0 0 +17 545 0 546 545 545 0 277 272 0 0 -15 546 19 0 545 343 0 15 3
50 86 0 547 343 546 17 547 0 350 547 547 0 275 28 0 0 -17 275 0 282 275 275 0 54
7 28 0 0 +15 282 115 0 275 281 0 83 3 348 .866666666666667 .3215686274509805 .15
6862745098039 83 3 339 .866666666666667 .3215686274509805 .156862745098039 82 3
 308 195 2 1 81 1 211 1621 34 98 0 0 208 204 548 81 1 204 1669 34 203 0 0 211 21
5 549 82 3 548 132 23 1 81 1 215 1680 34 21 0 0 204 81 550 82 3 549 132 15 1 81
 1 81 1683 34 201 0 0 215 78 551 82 3 550 132 13 1 82 3 551 132 11 1 81 1 222 18
74 34 179 0 0 217 287 552 82 3 288 133 4 1 82 3 552 133 3 1 81 1 93 1866 34 56 0
 0 36 225 553 29 102 1838 0 56 0 100 -.0127342237172411 -.147801403936682 -.0134
6803498022972 81 1 225 1871 34 219 0 0 93 221 554 82 3 553 133 5 0 81 1 221 1872
 34 206 0 0 225 217 555 82 3 554 133 0 1 82 3 555 133 1 1 82 3 280 65 0 1 81 1 2
55 505 34 127 0 0 253 143 556 81 1 253 502 34 251 0 0 161 255 557 81 1 143 516 3
4 134 0 0 255 163 558 82 3 556 64 1 1 81 1 163 527 34 141 0 0 143 247 559 82 3 5
58 64 0 1 81 1 247 530 34 164 0 0 163 44 560 82 3 559 64 9 1 81 1 44 541 34 32 0
 0 247 118 561 82 3 560 64 7 1 81 1 118 543 34 46 0 0 44 120 562 82 3 561 64 3 0
 82 3 562 64 1 0 81 1 161 496 34 248 0 0 158 253 563 82 3 557 64 5 1 82 3 563 64
 11 1 82 3 223 133 2 1 82 3 212 132 9 1 82 3 162 64 4 1 82 3 130 64 0 0 82 3 123
 64 2 0 81 1 108 1861 34 106 0 0 564 104 565 81 1 564 1860 34 1 0 566 71 108 567
 81 1 104 1862 34 76 0 0 108 35 568 82 3 565 133 0 0 81 1 35 1863 34 91 0 0 104
 30 569 82 3 568 133 1 0 82 3 569 133 2 0 81 1 566 2615 570 1 564 14 0 0 571 81
 1 71 1740 34 69 0 0 74 564 572 82 3 567 48 0 3 81 1 74 1734 34 73 0 0 82 71 573
 82 3 572 132 15 0 81 1 82 1716 34 23 0 0 78 74 574 82 3 573 132 11 0 82 3 574 1
32 13 0 80 1 570 575 576 8038 0 0 0 0 0 0 0 0 0 TTTTTTTTTTTTTF10 81 1 14 2616 57
5 1 566 2 0 0 577 98 255 17 571 82 111 117 110 100 32 66 117 116 116 111 110 32
 66 97 115 101 80 1 575 578 579 8017 0 0 0 0 0 0 0 0 0 TTTTTTTTTTTTTF3 84 255 17
 577 Round Button Base79 13 579 SDL/TYSA_NAME79 14 576 SDL/TYSA_UNAME82 3 94 133
 4 0 82 3 83 132 9 0 82 3 37 133 3 0 19 18 8 0 1 0 10 6 S0 74 4 CI16 index_map_o
ffset0 0 1 dCCZ20 16 6 0 0 458 489 566 14 2 500 0 0 0 0 0 0 0 0 0 0 0 0 0 0 80 1
 13 335 580 8040 0 0 0 0 3 5 0 0 0 TTTFFFFFFFFFFF2 83 3 15 .866666666666667 .321
5686274509805 .156862745098039 79 17 580 SDL/TYSA_COLOUR_21 0 
