**ABCDEFGHIJKLMNOPQRSTUVWXYZabcdefghijklmnopqrstuvwxyz**************************
**PARASOLID !"#$%&'()*+,-./:;<=>?@[\]^_`{|}~0123456789**************************
**PART1;
MC=unknown;
MC_MODEL=unknown;
MC_ID=unknown;
OS=unknown;
OS_RELEASE=unknown;
FRU=Parasolid 33.1.200;
APPL=Onshape;
SITE=unknown;
USER=unknown;
FORMAT=text;
GUISE=transmit;
KEY=BTGapi::writeModels_.xmt;
FILE=BTGapi::writeModels_.xmt;
DATE=2021-07-17T16:27:55 (UTC);
**PART2;
SCH=SCH_3301200_33103;
USFLD_SIZE=0;
**PART3;
**END_OF_HEADER*****************************************************************
T51 : TRANSMIT FILE created by modeller version 330120023 SCH_3301200_33103_1300
6230 0 12 35 CCCI7 lattice222 0 CCCI4 mesh1006 0 I8 polyline1008 0 CCCCCCCDI5 ow
ner1040 0 CCCCCCI13 boundary_mesh1006 0 I17 boundary_polyline1008 0 CCCA16 index
_map_offset0 0 1 dA9 index_map82 0 A17 node_id_index_map82 0 A20 schema_embeddin
g_map82 0 A5 child12 0 A14 lowest_node_id0 0 1 dA16 mesh_offset_data206 0 Z1 157
7 2 3 0 0 0 0 0 0 0 1e3 1e-8 0 4 5 1 0 1 1 6 7 8 9 0 0 10 11 12 0 0 0 0 0 0 0 81
 255 1 2 1542 13 1 14 0 0 0 15 70 11 CI9 list_type0 0 1 uI10 notransmit0 0 1 lCC
CDCCDI12 finger_index0 0 1 dI12 finger_block1012 0 CZ3 0 4 T1 0 0 7 20 1 16 16 1
3 255 6 5 0 1 0 17 0 0 18 0 52 255 7 1365 19 20 21 0 22 +-.01868409968660665 -.1
726683230739855 .02600102861537325 .961825986833597 -.243697228037978 .124508763
1381144 .00885 .164398987305357 .986393923832144 .2456084280205945 .969369124784
389 0 38 12 CCCCCCCCCCCA17 intersection_data204 0 Z8 1344 0 23 24 0 0 +25 7 26 2
7 28 29 29 255 9 1336 0 12 30 0 -.02458654838061775 -.175182530282926 .018486884
5174019 19 8 CCCCCCCA5 owner12 0 Z10 3 0 1 18 0 31 V0 16 255 11 1409 32 ?33 0 23
 34 0 0 1 18 255 12 1333 35 36 0 37 9 ?1 81 1 35 1379 38 12 0 0 39 40 41 17 255
 36 0 42 43 44 12 45 46 0 47 +18 37 1324 40 48 12 49 30 ?1 81 1 40 1380 38 37 0
 0 35 50 51 17 48 0 52 53 54 37 55 56 0 44 +18 49 236 57 58 37 59 60 ?1 29 30 13
27 0 37 61 9 -.0226047668841476 -.1672297491285895 .0187434269339234 29 61 787 0
 62 63 30 -.02143276759838915 -.176401016423116 .03189694458086115 18 62 208 64
 65 66 67 61 ?1 29 63 786 0 68 69 61 -.0216436934407541 -.176401016423116 .03352
63395838163 18 68 216 70 71 72 73 63 ?1 29 69 785 0 74 75 63 -.01966191194428395
 -.168448235268779 .03378288200033785 18 74 178 76 77 78 79 69 ?1 29 75 784 0 73
 80 69 -.019450986101919 -.168448235268779 .0321534869973827 18 73 214 81 82 68
 83 75 ?1 29 80 765 0 84 85 75 -.01762115070716505 -.166411547412181 .0220044178
280997 18 84 232 86 87 59 88 80 ?1 29 85 764 0 59 60 80 -.0186738603279801 -.166
411547412181 .030136564067208 18 59 234 89 90 49 84 85 ?1 29 60 763 0 49 91 85 -
.018276781282381 -.164818090839775 .03018796611031395 29 91 762 0 92 93 60 -.017
22407166156595 -.164818090839775 .02205581987120565 18 92 174 94 95 79 96 91 ?1
 29 93 761 0 72 97 91 -.0206179910189004 -.1784377042797145 .02161647563726225 1
8 72 218 98 99 100 68 93 ?1 29 97 760 0 100 101 93 -.0210150700644995 -.18003116
085212 .02156507359415635 18 100 220 102 103 104 72 97 ?1 29 101 759 0 105 106 9
7 -.02206777968531455 -.18003116085212 .02969721983326465 18 105 182 107 108 67
 78 101 ?1 29 106 758 0 109 110 101 -.02167070063971545 -.1784377042797145 .0297
486218763706 18 109 226 111 112 88 113 106 ?1 29 110 599 0 104 114 106 -.0196561
650320668 -.1786814015077525 .0217409844004004 18 104 222 115 116 113 100 110 ?1
 29 114 596 0 113 117 110 -.02070887465288185 -.1786814015077525 .02987313063950
87 18 113 224 118 119 109 104 114 ?1 29 117 595 0 120 121 114 -.0168972577616577
5 -.168691932496817 .01998060388674725 18 120 164 122 123 124 125 117 ?1 29 121
 592 0 124 126 117 -.0188790392581279 -.176644713651154 .01972406147022575 18 12
4 166 127 128 129 120 121 ?1 29 126 591 0 96 130 121 -.0177120343411465 -.166655
244640219 .03026107283034615 18 96 172 131 132 92 133 126 ?1 29 130 588 0 134 13
5 126 -.01665932472033145 -.166655244640219 .02212892659123785 18 134 158 136 13
7 138 139 130 ?1 29 135 587 0 66 140 130 -.02047094161155555 -.176644713651154 .
03202145334399925 18 66 210 141 142 83 62 135 ?1 29 140 584 0 83 143 135 -.01848
91601150854 -.168691932496817 .0322779957605208 18 83 212 144 145 73 66 140 ?1 2
9 143 487 0 125 146 140 -.0166863319192928 -.168691932496817 .0183512088837921 1
8 125 162 39 55 120 138 143 ?1 29 146 486 0 138 147 143 -.01626224567473235 -.16
5061788067813 .02218032863434375 18 138 160 148 149 125 134 146 ?1 29 147 483 0
 133 150 146 -.0173149552955474 -.165061788067813 .03031247487345205 18 133 170
 151 152 96 129 147 ?1 29 150 482 0 79 153 147 -.01870008595745035 -.16869193249
6817 .033907390763476 18 79 176 154 155 74 92 150 ?1 29 153 479 0 78 156 150 -.0
206818674539205 -.176644713651154 .0336508483469544 18 78 180 157 158 105 74 153
 ?1 29 156 478 0 88 159 153 -.02110595369848095 -.180274858080158 .0298217285964
028 18 88 228 160 161 84 109 156 ?1 29 159 475 0 67 162 156 -.0200532440776659 -
.180274858080158 .02168958235729445 18 67 184 163 164 62 105 159 ?1 29 162 474 0
 129 165 159 -.01866811341576295 -.176644713651154 .01809466646727055 18 129 168
 166 167 133 124 162 ?1 29 165 1258 0 168 169 162 -.02026364871557535 -.16783899
2198684 .01954482321576385 18 168 1190 170 171 172 173 165 ?1 29 169 1259 0 139
 174 165 -.0249067536232307 -.175182530282926 .02096045919361855 18 139 1180 175
 43 134 176 169 ?1 29 174 1260 0 176 177 169 -.02292497212676055 -.1672297491285
895 .0212170016101401 18 176 1176 178 53 139 179 174 ?1 29 177 1261 0 179 180 17
4 -.02052040715967655 -.167838992198684 .0215282735179854 18 179 1182 181 182 17
6 172 177 ?1 29 180 1262 0 172 183 177 -.02250218865614675 -.175791773353021 .02
127173110146385 18 172 1172 184 185 179 168 180 ?1 29 183 1263 0 173 0 180 -.022
2454302120455 -.175791773353021 .0192882807992423 18 173 1186 186 187 168 0 183
 ?1 81 1 186 1304 38 173 0 0 188 170 189 17 187 0 190 191 192 173 193 194 0 195
 -15 255 190 306 0 47 196 0 17 191 0 190 197 187 172 198 199 0 0 -17 192 0 190 1
87 167 124 200 201 0 0 -17 193 0 202 203 195 124 187 194 0 192 +16 194 124 204 ?
193 205 206 207 0 0 1 17 195 0 202 193 171 173 208 209 0 198 -15 202 310 0 203 2
10 0 17 171 0 202 195 203 168 211 212 0 213 -17 208 0 214 215 198 168 195 209 0
 0 +16 209 1108 216 ?208 217 218 219 0 0 1 17 198 0 214 208 185 173 191 199 0 0
 +15 214 1201 0 208 220 0 17 185 0 214 198 215 172 182 221 0 222 -16 199 1113 22
3 ?198 224 225 226 0 0 1 81 1 223 1115 38 199 0 0 227 228 229 16 224 724 230 ?23
1 232 199 233 0 0 1 16 225 1116 228 ?213 199 234 235 0 0 1 30 255 226 1240 0 199
 235 236 0 +-.02250218865614675 -.175791773353021 .02127173110146385 .1283792220
506158 -352365706057789e-30 -.991725151110769 30 235 1241 0 225 237 226 0 +-.020
52040715967655 -.167838992198684 .0215282735179854 .1283792220506158 -3523657060
57789e-30 -.991725151110769 31 255 236 748 0 232 226 238 0 +-.0157996399046519 -
.1736431119861375 .0339370023012565 -.961825986833597 .243697228037977 -.1245087
63138116 -.245608428020593 -.969369124784389 0 .00125 16 232 721 239 ?240 241 22
4 236 0 0 1 30 238 376 0 242 236 243 0 +-.0185990441405639 -.168691932496817 .03
31268461432516 -.128379222050616 879314389216541e-31 .99172515111077 16 242 22 2
44 ?245 246 247 238 0 0 1 30 243 377 0 248 238 249 0 +-.02058082563703405 -.1766
44713651154 .03287030372673005 -.128379222050616 879314389216541e-31 .9917251511
1077 16 248 92 250 ?251 252 253 243 0 0 1 30 249 388 0 254 243 255 0 +-.01986302
751735725 -.1795115293888975 .0217142059679856 -.2416806703012385 -.969851360284
97 -.03128566055140755 16 254 107 256 ?257 258 259 249 0 0 1 30 255 389 0 260 24
9 261 0 +-.02091573713817235 -.1795115293888975 .02984635220709395 -.24168067030
12385 -.96985136028497 -.03128566055140735 16 260 17 262 ?263 247 264 255 0 0 1
 30 261 396 0 201 255 265 0 +-.0187691552326494 -.176644713651154 .0188752110874
949 .128379222050616 -879314389216541e-31 -.99172515111077 16 201 12 266 ?200 26
4 267 261 0 0 1 30 265 398 0 205 261 268 0 +-.0167873737361792 -.168691932496817
 .01913175350401645 .128379222050616 399073453567507e-30 -.99172515111077 16 205
 126 269 ?54 212 194 265 0 0 1 30 268 407 0 267 265 270 0 +-.01645246223504095 -
.1658251167590735 .0221557050236526 .2416806703012385 .96985136028497 .031285660
55140735 16 267 10 271 ?149 201 241 268 0 0 1 30 270 409 0 272 268 273 0 +-.0175
05171855856 -.1658251167590735 .0302878512627609 .2416806703012385 .969851360284
97 .03128566055140735 16 272 140 274 ?275 276 277 270 0 0 1 31 273 418 0 278 270
 279 0 +-.01868409968660665 -.1726683230739855 .02600102861537325 -.961825986833
597 .243697228037977 -.124508763138116 -.245608428020593 -.969369124784389 0 .00
6 16 278 153 280 ?281 282 283 273 0 0 1 31 279 495 0 284 273 285 0 +-.0186840996
8660665 -.1726683230739855 .02600102861537325 .961825986833597 -.243697228037977
 .124508763138116 .245608428020593 .969369124784389 0 .00885 16 284 52 286 ?287
 288 289 279 0 0 1 30 285 496 0 289 279 290 0 +-.02005516772963955 -.18027437068
5702 .0216893333397682 .961825986833597 -.243697228037976 .124508763138115 16 28
9 49 291 ?164 284 292 285 0 0 1 30 290 498 0 293 285 294 0 +-.0211078773504546 -
.180274370685702 .0298214795788765 .961825986833597 -.243697228037976 .124508763
138115 16 293 115 295 ?161 206 296 290 0 0 1 31 294 499 0 297 290 298 0 +-.01868
409968660665 -.1726683230739855 .02600102861537325 .961825986833597 -.2436972280
37977 .124508763138116 .245608428020593 .969369124784389 0 .00885 16 297 45 299
 ?300 292 301 294 0 0 1 30 298 500 0 301 294 302 0 +-.02068379110589415 -.176644
226256698 .03365059932942815 .961825986833597 -.243697228037976 .124508763138115
 16 301 43 303 ?158 297 304 298 0 0 1 30 302 502 0 305 298 306 0 +-.018702009609
424 -.168691445102361 .0339071417459497 .961825986833597 -.243697228037976 .1245
08763138115 16 305 98 307 ?308 309 310 302 0 0 1 31 306 503 0 311 302 312 0 +-.0
1868409968660665 -.1726683230739855 .02600102861537325 .961825986833597 -.243697
228037977 .124508763138116 .245608428020593 .969369124784389 0 .00885 16 311 38
 313 ?155 304 314 306 0 0 1 30 312 504 0 314 306 315 0 +-.01731687894752105 -.16
5061300673357 .0303122258559258 .961825986833597 -.243697228037976 .124508763138
115 16 314 36 316 ?317 311 318 312 0 0 1 30 315 506 0 319 312 320 0 +-.016264169
326706 -.165061300673357 .02218007961681745 .961825986833597 -.243697228037976 .
124508763138115 16 319 134 321 ?322 323 324 315 0 0 1 31 320 507 0 246 315 325 0
 +-.01868409968660665 -.1726683230739855 .02600102861537325 .961825986833597 -.2
43697228037977 .124508763138116 .245608428020593 .969369124784389 0 .00885 16 24
6 31 326 ?327 318 242 320 0 0 1 31 325 511 0 288 320 328 0 --.0172413607063564 -
.1730338689160425 .0261877917600804 .961825986833597 -.243697228037976 .12450876
3138115 .2456084280205925 .96936912478439 0 .00885 16 288 59 329 ?330 331 284 32
5 0 0 1 31 328 512 0 241 325 332 0 +-.0172413607063563 -.173033868916042 .026187
7917600804 .961825986833597 -.243697228037976 .124508763138115 .2456084280205925
 .96936912478439 0 .00985 16 241 6 333 ?334 267 232 328 0 0 1 31 332 513 0 331 3
28 335 0 +-.0143558827458554 -.173764960600156 .02656131804949475 .9618259868335
97 -.243697228037977 .124508763138116 .245608428020593 .969369124784389 0 .00985
 16 331 62 336 ?337 338 288 332 0 0 1 30 335 600 0 247 332 339 0 +-.019480050863
32035 -.172668323073985 .03214972455226005 .2416806703012385 .96985136028497 .03
12856605514071 16 247 19 340 ?341 242 260 335 0 0 1 30 339 601 0 253 335 342 0 +
-.0204128120887526 -.168204538040741 .03202897823424455 .961825986833597 -.24369
7228037977 .124508763138116 16 253 89 343 ?344 248 338 339 0 0 1 30 342 603 0 25
2 339 345 0 +-.02239459358522275 -.176157319195078 .03177243581772305 .961825986
833597 -.243697228037977 .124508763138116 16 252 94 346 ?142 310 248 342 0 0 1 3
0 345 604 0 323 342 347 0 +-.01718567953073895 -.166655244640219 .02619499971079
19 -.128379222050616 -1040834085586084e-32 .99172515111077 16 323 136 348 ?349 2
77 319 345 0 0 1 30 347 605 0 277 345 350 0 +-.01858297669399865 -.1661678501841
43 .0218799090649616 .961825986833597 -.243697228037977 .124508763138116 16 277
 138 351 ?352 272 323 347 0 0 1 30 350 607 0 276 347 353 0 +-.0196356863148137 -
.166167850184143 .0300120553040699 .961825986833597 -.243697228037977 .124508763
138116 16 276 142 354 ?355 356 272 350 0 0 1 30 353 608 0 206 350 207 0 +-.01788
81485098927 -.172668323073985 .0198523326784865 .2416806703012385 .9698513602849
7 .03128566055140665 16 206 121 357 ?203 194 293 353 0 0 1 30 207 609 0 194 353
 358 0 +-.0208026912317951 -.176157319195078 .0194750439439495 .961825986833597
 -.243697228037977 .124508763138116 30 358 611 0 212 207 359 0 +-.01882090973532
495 -.168204538040741 .01973158636047105 .961825986833597 -.243697228037977 .124
508763138116 16 212 129 360 ?211 324 205 358 0 0 1 30 359 612 0 264 358 361 0 +-
.0201825198424743 -.1786814015077525 .02580705751995445 -.128379222050616 -10408
34085586084e-32 .99172515111077 16 264 14 362 ?363 260 201 359 0 0 1 30 361 613
 0 259 359 364 0 +-.02263252662654905 -.1781940070516765 .02962411311323245 .961
825986833597 -.243697228037977 .124508763138116 16 259 105 365 ?366 254 367 361
 0 0 1 30 364 615 0 258 361 368 0 +-.021579817005734 -.1781940070516765 .0214919
6687412415 .961825986833597 -.243697228037977 .124508763138116 16 258 110 369 ?1
16 296 254 364 0 0 1 30 368 766 0 367 364 370 0 +-.0211443458293079 -.1784377042
797145 .0256825487568164 -.128379222050616 -1040834085586084e-32 .99172515111077
 16 367 103 371 ?372 259 309 368 0 0 1 30 370 767 0 296 368 373 0 +-.02187756312
500595 -.1792678321608595 .0297218434439558 -.2416806703012385 -.96985136028497
 -.03128566055140735 16 296 113 374 ?375 293 258 370 0 0 1 31 373 768 0 292 370
 376 0 --.01964592567344025 -.1724246258459475 .02587651985223515 -.961825986833
597 .243697228037977 -.124508763138116 -.245608428020593 -.969369124784389 0 .00
885 16 292 47 377 ?378 289 297 373 0 0 1 30 376 769 0 356 373 379 0 +-.020824853
5041909 -.1792678321608595 .0215896972048475 -.2416806703012385 -.96985136028497
 -.03128566055140755 16 356 144 380 ?381 382 276 376 0 0 1 30 379 770 0 324 376
 383 0 +-.01741428822187455 -.1655814195310355 .0220311962605145 .24168067030123
85 .96985136028497 .03128566055140735 16 324 132 384 ?385 319 212 379 0 0 1 31 3
83 771 0 318 379 386 0 --.01964592567344025 -.1724246258459475 .0258765198522351
5 -.961825986833597 .243697228037977 -.124508763138116 -.245608428020593 -.96936
9124784389 0 .00885 16 318 34 387 ?388 314 246 383 0 0 1 30 386 772 0 283 383 38
9 0 +-.0184669978426896 -.1655814195310355 .0301633424996228 .2416806703012385 .
96985136028497 .03128566055140735 16 283 148 390 ?391 278 382 386 0 0 1 30 389 7
73 0 382 386 233 0 +-.01814750551757255 -.166411547412181 .02607049094765385 -.1
28379222050616 -1040834085586084e-32 .99172515111077 16 382 146 392 ?393 283 356
 389 0 0 1 31 233 792 0 224 389 394 0 +-.02060876983881985 -.1724246258459475 .0
333144584855659 -.961825986833597 .243697228037977 -.124508763138116 -.245608428
020593 -.969369124784389 0 .00125 30 394 793 0 338 233 395 0 +-.0204418768501540
5 -.1724246258459475 .0320252157891219 .2416806703012385 .96985136028497 .031285
6605514071 16 338 87 396 ?397 253 331 394 0 0 1 30 395 794 0 310 394 398 0 +-.01
95608701273975 -.168448235268779 .0330023373801135 -.128379222050616 76344963517
2544e-31 .99172515111077 16 310 96 399 ?400 305 252 395 0 0 1 31 398 795 0 304 3
95 401 0 --.01964592567344025 -.1724246258459475 .02587651985223515 -.9618259868
33597 .243697228037977 -.124508763138116 -.245608428020593 -.969369124784389 0 .
00885 16 304 41 402 ?403 301 311 398 0 0 1 30 401 796 0 309 398 404 0 +-.0215426
5162386765 -.176401016423116 .03274579496359195 -.128379222050616 76344963517254
4e-31 .99172515111077 16 309 101 405 ?71 367 305 401 0 0 1 31 404 1321 0 282 401
 406 0 --.01868409968660665 -.1726683230739855 .02600102861537325 -.961825986833
597 .243697228037978 -.1245087631381144 -.2456084280205945 -.969369124784389 0 .
00885 16 282 1319 407 ?408 56 278 404 0 0 1 38 406 1330 0 56 404 24 0 +7 409 410
 411 412 413 16 56 1328 414 ?48 46 282 406 0 0 1 31 24 1339 0 46 406 8 0 +-.0244
5505560760825 -.1712061397057575 .0252539760365446 -.961825986833597 .2436972280
37977 -.124508763138116 -.245608428020593 -.969369124784389 0 .00785 50 255 409
 350 0 415 416 25 417 +-.0187110257098464 -.168204538040741 .0188827359777402 -.
2416806703012385 -.96985136028497 -.03128566055140745 .970326350647202 -.2417990
34819588 0 40 255 2 410 0 1 2 2343452832449095e-20 .00711476067875856 ??-.016686
3319192928 -.168691932496817 .0183512088837921 -.0226047668841476 -.167229749128
5895 .0187434269339234 41 3 CI8 term_use0 0 1 cCZ1 411 L?-.0166863319192928 -.16
8691932496817 .0183512088837921 41 1 412 L?-.0226047668841476 -.1672297491285895
 .0187434269339234 204 2 17 INTERSECTION_DATA17 Intersection data7 uv_type0 0 1
 u6 values0 1 1 fT8 413 4 5.22561443575287 -1474514954580286e-32 .00208246524602
1505 -.000531787412443558 5.29346285908028 -.006 -.00401390268213559 -.000139377
271233814 14 255 415 311 418 ?419 210 52 6 409 -0 0 419 210 31 50 416 348 0 420
 421 409 0 +-.02178667949102445 -.1790241349328215 .0214651884417094 -.128379222
050616 -521772295508649e-30 .991725151110769 .99172515111077 0 .128379222050616
 50 25 352 0 196 409 422 423 +-.0206928072063166 -.176157319195078 .018626193561
2187 -.2416806703012385 -.96985136028497 -.03128566055140695 .970326350647202 -.
241799034819588 0 141 255 417 406 417 417 409 14 196 304 424 ?210 425 190 6 25 +
0 0 210 425 31 50 422 353 0 426 25 427 0 +-.0194288238295232 -.1653377223029975
 .0300388337364847 .128379222050616 2913793338554795e-31 -.991725151110769 -.991
72515111077 0 -.128379222050616 141 423 8 423 423 25 14 426 321 428 ?429 430 431
 6 422 -0 0 429 430 31 50 427 355 0 419 422 432 0 +-.01837611420870815 -.1653377
223029975 .02190668749737635 .128379222050616 2913793338554795e-31 -.99172515111
0769 -.99172515111077 0 -.128379222050616 14 419 315 433 ?430 415 434 6 427 +0 0
 430 415 31 51 255 432 358 0 435 427 436 0 +.00536154998423328 -.178760753774935
 .02911374769382615 -.961825986833597 .243697228037977 -.124508763138116 .006 -.
245608428020593 -.969369124784389 0 14 435 330 437 ?438 439 440 6 432 -0 0 438 4
39 31 50 436 459 0 441 432 442 0 +-.0143558827458554 -.173764960600156 .02656131
804949475 .961825986833597 -.243697228037977 .124508763138116 .245608428020594 .
969369124784389 0 14 441 259 443 ?444 445 446 6 436 +0 0 444 445 31 50 442 460 0
 447 436 448 0 +-.0186840996866065 -.172668323073985 .0260010286153732 .96182598
6833597 -.243697228037977 .124508763138116 .245608428020594 .969369124784389 0 1
4 447 249 449 ?445 450 451 6 442 -0 0 445 450 31 51 448 469 0 445 442 452 0 --.0
186860233385803 -.1726678356795295 .026000779597847 .961825986833597 -.243697228
037976 .124508763138115 .00885 .245608428020592 .96936912478439 0 14 445 254 453
 ?441 447 454 6 448 -0 0 441 447 31 51 452 470 0 450 448 455 0 --.01627761106754
895 -.173278053538536 .0263125495407448 -.961825986833597 .243697228037976 -.124
508763138115 .00985 -.2456084280205925 -.96936912478439 0 14 450 244 456 ?447 17
 457 6 452 -0 0 447 17 31 50 455 580 0 444 452 458 0 +-.02140370283698765 -.1721
809286179095 .0319007070259838 .128379222050616 406575814682064e-31 -.9917251511
10769 -.99172515111077 0 -.128379222050616 14 444 279 459 ?460 441 461 6 455 +0
 0 460 441 31 50 458 581 0 462 455 463 0 +-.0221061718161415 -.1781940070516765
 .0255580399936783 .2416806703012385 .96985136028497 .03128566055140705 -.970326
350647202 .241799034819588 0 14 462 293 464 ?420 465 466 6 458 +0 0 420 465 31 5
0 463 582 0 210 458 467 0 +-.01981180048356 -.1721809286179095 .0196033151522102
5 .1283792220506158 -365918233213858e-30 -.991725151110769 -.99172515111077 0 -.
1283792220506158 14 210 307 468 ?415 196 202 6 463 -0 0 415 196 31 50 467 583 0
 430 463 469 0 +-.01910933150440615 -.166167850184143 .02594598218451575 .241680
6703012385 .96985136028497 .03128566055140705 -.970326350647202 .241799034819588
 0 14 430 318 470 ?426 419 471 6 467 -0 0 426 419 31 50 469 756 0 429 467 472 0
 +-.0196460802774092 -.17242458667404 .0258777908326572 -.961825986833597 .24369
7228037977 -.124508763138116 -.2416806703012385 -.96985136028497 -.0312856605514
0705 14 429 324 473 ?439 426 474 6 469 +0 0 439 426 31 50 472 757 0 439 469 21 0
 +-.0196460802774092 -.17242458667404 .0258777908326572 -.961825986833597 .24369
7228037977 -.124508763138116 -.2416806703012385 -.96985136028497 -.0312856605514
0705 14 439 327 475 ?435 429 476 6 472 +0 0 435 429 31 50 21 779 0 465 472 7 0 +
-.0196460802774092 -.17242458667404 .0258777908326572 -.961825986833597 .2436972
28037977 -.124508763138116 -.2416806703012385 -.96985136028497 -.031285660551407
05 14 465 290 477 ?462 478 479 6 21 +0 0 462 478 31 81 1 477 1551 480 465 227 0
 481 464 482 14 478 286 481 ?465 460 483 6 484 +0 0 465 460 31 15 479 713 0 485
 465 486 13 31 549 0 0 0 0 0 0 10 17 14 17 238 487 ?450 0 488 6 489 -0 0 450 0 3
1 81 1 487 1543 480 17 490 0 0 456 491 15 488 242 0 492 17 493 50 489 336 0 17 4
94 495 0 +-.019537327074218 -.182247456838749 .025890577984842 .961825986833597
 -.243697228037976 .124508763138115 .245608428020592 .96936912478439 0 51 494 74
4 0 438 496 489 0 +-.0157996399046519 -.1736431119861375 .0339370023012565 -.961
825986833597 .243697228037977 -.124508763138116 .00125 -.245608428020593 -.96936
9124784389 0 50 495 344 0 460 489 484 0 +-.02250447761070125 -.176157319195078 .
03262128620045385 .2416806703012385 .96985136028497 .03128566055140695 -.9703263
50647202 .241799034819588 0 14 460 283 497 ?478 444 498 6 495 -0 0 478 444 31 50
 484 345 0 478 495 421 0 +-.0205226961142311 -.168204538040741 .0328778286169753
5 .2416806703012385 .96985136028497 .03128566055140695 -.970326350647202 .241799
034819588 0 50 421 347 0 425 484 416 0 +-.0228393891118395 -.1790241349328215 .0
295973346808177 -.128379222050616 -2913793338554795e-31 .991725151110769 .991725
15111077 0 .128379222050616 14 425 301 499 ?196 420 500 6 421 +0 0 196 420 31 81
 1 499 1554 480 425 501 0 502 424 503 14 420 297 502 ?425 462 504 6 416 -0 0 425
 462 31 15 500 303 0 119 425 0 17 119 0 500 112 161 113 263 260 0 366 -17 112 0
 500 375 119 109 366 259 0 372 -17 161 0 500 119 375 88 108 293 0 263 +17 263 0
 505 506 363 88 119 260 0 300 +17 366 0 466 507 372 113 112 259 0 363 +15 466 29
6 0 507 462 0 17 507 0 466 99 366 104 363 264 0 508 -17 372 0 466 366 99 109 509
 367 0 510 +17 363 0 505 263 508 113 507 264 0 0 +15 505 253 0 137 447 0 17 508
 0 505 363 511 104 257 254 0 0 -17 511 0 505 508 200 67 287 284 0 0 -17 257 0 50
4 103 116 67 508 254 0 511 +15 504 300 0 257 420 0 17 103 0 504 512 257 100 164
 289 0 381 -17 116 0 504 257 512 104 99 258 0 507 +17 512 0 504 116 103 72 381 3
56 0 509 -17 99 0 466 372 507 72 116 258 0 512 -17 381 0 474 513 509 100 512 356
 0 378 +17 509 0 474 381 510 72 372 367 0 0 -15 474 326 0 509 429 0 17 510 0 474
 509 513 109 375 296 0 0 -17 513 0 474 510 381 105 378 292 0 375 -17 375 0 500 1
61 112 105 510 296 0 0 +17 378 0 454 164 108 100 513 292 0 0 +15 454 257 0 287 4
45 514 17 164 0 454 287 378 67 103 289 0 257 +17 108 0 454 378 300 105 161 293 0
 513 -17 300 0 454 108 158 88 506 297 0 0 +17 158 0 454 300 403 78 515 301 0 251
 +17 506 0 505 516 263 78 300 297 0 0 -17 516 0 505 341 506 66 251 248 0 0 -17 3
41 0 505 245 516 83 517 247 0 0 +17 251 0 498 515 142 78 516 248 0 506 +15 498 2
85 0 251 460 0 17 515 0 498 518 251 68 158 301 0 403 -17 142 0 498 251 518 66 65
 252 0 517 +17 518 0 498 142 515 62 71 309 0 519 -17 65 0 461 397 517 62 142 252
 0 518 -17 517 0 461 65 344 66 341 247 0 516 -15 461 282 0 517 444 0 17 344 0 46
1 517 397 83 82 253 0 341 +17 397 0 461 344 65 73 519 338 0 520 +17 82 0 483 400
 145 73 344 253 0 397 -15 483 289 0 145 478 0 17 400 0 483 308 82 74 520 310 0 0
 +17 145 0 483 82 308 83 245 242 0 344 -17 308 0 483 145 400 79 77 305 0 245 +17
 245 0 505 152 341 79 145 242 0 0 +17 152 0 505 132 245 133 155 311 0 317 -17 13
2 0 505 137 152 96 275 272 0 349 -17 155 0 454 77 317 79 152 311 0 308 +17 317 0
 454 155 388 133 58 314 0 275 +17 388 0 454 317 95 49 521 318 0 0 +17 58 0 431 5
22 275 49 317 314 0 391 -17 275 0 431 58 355 133 132 272 0 0 +15 431 323 0 275 4
26 0 17 355 0 431 275 522 96 90 276 0 0 +17 522 0 431 355 58 59 391 283 0 0 -17
 90 0 471 523 349 59 355 276 0 393 -15 471 320 0 349 430 0 17 523 0 471 352 90 8
4 393 382 0 524 -17 349 0 471 90 352 96 137 323 0 355 +17 393 0 476 391 524 59 5
23 382 0 522 +15 476 329 0 524 439 0 17 391 0 476 521 393 49 522 283 0 388 +17 5
24 0 476 393 521 84 385 324 0 0 -17 521 0 476 524 391 92 388 318 0 385 -17 385 0
 434 322 87 92 524 324 0 0 +15 434 317 0 525 419 0 17 322 0 434 525 385 138 95 3
19 0 0 +17 87 0 434 385 525 84 352 277 0 523 -17 525 0 434 87 322 134 149 267 0
 0 -17 352 0 471 349 523 134 87 277 0 525 +17 149 0 505 526 137 138 525 267 0 32
7 +17 526 0 505 123 149 125 327 246 0 54 -17 137 0 505 149 132 134 349 323 0 352
 -17 327 0 454 95 408 138 526 246 0 322 +17 95 0 454 388 327 92 322 319 0 521 -1
7 408 0 454 327 287 125 527 282 0 526 +17 287 0 454 408 164 129 511 284 0 527 +1
7 527 0 528 529 55 129 408 282 0 0 -15 528 1354 0 529 20 0 17 529 0 528 45 527 1
2 167 23 0 0 -17 55 0 528 527 45 125 48 56 0 408 -17 45 0 528 55 529 37 36 46 0
 0 -16 46 1337 530 ?36 23 56 24 0 0 1 81 1 530 1384 38 46 0 0 407 531 532 16 23
 1342 50 ?167 11 46 8 0 0 1 81 1 50 1381 38 23 0 0 40 414 533 17 167 0 190 192 4
7 129 529 23 0 200 +17 47 0 190 167 197 12 43 534 0 529 +17 200 0 505 511 128 12
9 192 201 0 287 +17 128 0 505 200 123 124 203 206 0 193 -17 123 0 505 128 526 12
0 54 205 0 203 -17 203 0 202 171 193 120 128 206 0 211 +17 211 0 52 54 213 120 1
71 212 0 0 +15 52 314 0 54 415 0 17 54 0 52 48 211 125 123 205 0 0 +17 213 0 52
 211 535 168 215 225 0 208 +17 535 0 52 213 53 179 536 537 0 0 +17 215 0 214 185
 208 179 213 225 0 535 -17 53 0 52 535 48 176 44 234 0 536 -17 536 0 538 539 182
 176 535 537 0 540 -16 537 1127 541 ?535 542 221 543 0 0 1 81 1 541 1129 38 537
 0 0 228 544 545 16 542 1135 544 ?540 534 537 546 0 0 1 16 221 1141 547 ?182 537
 217 548 0 0 1 30 543 1246 0 537 548 546 0 +-.02292497212676055 -.16722974912858
95 .0212170016101401 .961825986833597 -.243697228037977 .124508763138116 30 548
 1247 0 221 549 543 0 +-.02151129790791165 -.1718153827758525 .02140000230972465
 .2416806703012385 .96985136028497 .03128566055140665 30 546 1245 0 542 543 219
 0 +-.02391586287499565 -.1712061397057575 .02108873040187935 .2416806703012385
 .96985136028497 .03128566055140665 30 219 1244 0 209 546 550 0 +-.0212545394638
104 -.1718153827758525 .0194165520075031 .2416806703012385 .96985136028497 .0312
8566055140665 30 550 1243 0 534 219 237 0 +-.0249067536232307 -.175182530282926
 .02096045919361855 .1283792220506158 -352365706057789e-30 -.991725151110769 16
 534 1100 531 ?47 234 542 550 0 0 1 30 237 1242 0 234 550 235 0 +-.0229249721267
6055 -.1672297491285895 .0212170016101401 .1283792220506158 -352365706057789e-30
 -.991725151110769 16 234 1130 551 ?44 225 534 237 0 0 1 81 1 551 1386 38 234 0
 0 531 552 553 17 44 0 42 36 540 37 53 234 0 45 +15 42 1213 0 44 554 0 17 540 0
 42 44 43 176 539 542 0 0 +17 43 0 42 540 36 139 47 534 0 197 -17 539 0 538 222
 536 139 540 542 0 0 -15 538 1217 0 222 555 0 17 222 0 538 182 539 172 197 217 0
 191 +17 182 0 538 536 222 179 185 221 0 215 +17 197 0 190 47 191 139 222 217 0
 539 -16 217 1138 556 ?222 221 209 549 0 0 1 81 1 556 1140 38 217 0 0 544 547 55
7 30 549 1248 0 217 558 548 0 +-.0249067536232307 -.175182530282926 .02096045919
361855 .961825986833597 -.243697228037977 .124508763138116 31 558 1517 0 218 559
 549 0 --.01256664207014456 -.174218299352625 .02679293597886945 .96182598683359
7 -.243697228037977 .124508763138116 .245608428020593 .969369124784389 0 .008 16
 218 1435 560 ?561 209 562 558 0 0 1 31 559 1518 0 562 563 558 0 +-.010162077103
06056 -.17482754242272 .02710420788671475 .961825986833597 -.243697228037977 .12
4508763138116 .245608428020593 .969369124784389 0 .00866987298107779 16 562 1443
 564 ?565 218 566 559 0 0 1 31 563 1519 0 566 567 559 0 +-.00939261631359369 -.1
750225002051505 .0272038148972252 -.961825986833597 .243697228037977 -.124508763
138116 -.245608428020593 -.969369124784389 0 .0066698729810778 16 566 1421 568 ?
569 562 570 563 0 0 1 31 567 1520 0 570 34 563 0 --.01179718128067768 -.17441325
71350555 .02689254298937995 -.961825986833597 .243697228037977 -.124508763138116
 -.245608428020593 -.969369124784389 0 .006 16 570 1427 571 ?572 566 573 567 0 0
 1 31 34 1522 0 11 574 567 0 +-.0143558827458554 -.173764960600156 .026561318049
49475 .961825986833597 -.243697228037977 .124508763138116 -.2416806703012385 -.9
6985136028497 -.0312856605514077 .008 31 574 1523 0 573 575 34 0 +-.002115416463
190635 -.1768663196233175 .028145851362122 .961825986833597 -.243697228037977 .1
24508763138116 -.241680670301237 -.96985136028497 -.0312856605514168 .0135 16 57
3 1446 576 ?577 570 578 574 0 0 1 31 575 1524 0 578 579 574 0 +-.002289404546386
97 -.1768222363752385 .02812332853435885 .961825986833597 -.243697228037977 .124
508763138116 -.241680670301237 -.96985136028497 -.0312856605514172 .012780091026
81044 16 578 1449 580 ?581 573 582 575 0 0 1 31 579 1525 0 583 584 575 0 +-.0080
0968158266721 -.175372893483246 .0273828363576614 .961825986833597 -.24369722803
7977 .124508763138116 -.2416806703012375 -.96985136028497 -.0312856605514166 .00
75 16 583 1424 585 ?586 582 0 579 0 0 1 31 584 1526 0 582 0 579 0 +-.00800968158
26672 -.175372893483246 .0273828363576614 .961825986833597 -.243697228037977 .12
4508763138116 -.2416806703012375 -.96985136028497 -.03128566055141465 .009346410
16151375 16 582 1452 587 ?588 578 583 584 0 0 1 81 1 587 1454 38 582 0 0 580 589
 590 17 588 0 591 588 588 0 592 582 0 0 +15 591 1493 0 588 593 594 17 592 0 595
 592 592 0 588 582 0 0 -15 595 1489 0 592 596 0 14 596 1485 597 ?593 598 599 6 6
00 +0 0 593 598 31 81 1 597 1574 480 596 601 0 602 603 604 14 593 1490 603 ?605
 596 591 6 606 +0 0 605 596 31 14 598 1480 602 ?596 607 608 6 609 +0 0 596 607 3
1 15 599 1488 0 581 596 595 52 600 1515 0 596 606 609 0 --.00800968158266721 -.1
75372893483246 .0273828363576614 .961825986833597 -.243697228037977 .12450876313
8116 .00934641016151375 .5 .866025403784439 .245608428020593 .969369124784389 0
 50 606 1516 0 593 0 600 0 +-.01004540743266932 -.1835421503887775 .027119310822
74985 .961825986833597 -.243697228037977 .124508763138116 .245608428020593 .9693
69124784389 0 52 609 1514 0 598 600 610 0 --.00228940454638697 -.176822236375238
5 .02812332853435885 .961825986833597 -.243697228037977 .124508763138116 .012780
09102681044 .969851360284971 .2436972280379715 .245608428020593 .969369124784389
 0 52 610 1513 0 607 609 611 0 +-.002115416463190635 -.1768663196233175 .0281458
51362122 .961825986833597 -.243697228037977 .124508763138116 .0135 .5 .866025403
784439 .245608428020593 .969369124784389 0 14 607 1475 612 ?598 613 614 6 610 +0
 0 598 613 31 51 611 1512 0 613 610 615 0 +-.0143558827458554 -.173764960600156
 .02656131804949475 .961825986833597 -.243697228037977 .124508763138116 .008 .24
5608428020593 .969369124784389 0 14 613 1470 616 ?607 617 618 6 611 +0 0 607 617
 31 52 615 1509 0 617 611 619 0 --.010508578798521 -.174739749512308 .0270593531
020472 .961825986833597 -.243697228037977 .124508763138116 .006 .5 .866025403784
44 .245608428020593 .969369124784389 0 14 617 1455 620 ?613 20 621 6 615 +0 0 61
3 20 31 54 255 619 1508 0 605 615 622 0 +-.01179718128067766 -.1744132571350555
 .02689254298937995 -.961825986833597 .243697228037977 -.124508763138116 .011 .0
05 -.245608428020593 -.969369124784389 0 14 605 1495 623 ?624 593 625 6 619 +0 0
 624 593 31 54 622 1507 0 624 619 626 0 +-.01256664207014456 -.174218299352625 .
02679293597886945 .961825986833597 -.243697228037977 .124508763138116 .013 .005
 .245608428020593 .969369124784389 0 14 624 1500 627 ?0 605 628 6 622 -0 0 0 605
 31 50 626 1236 0 555 622 629 0 +-.02151129790791165 -.1718153827758525 .0214000
0230972465 -.1283792220506158 352365706057789e-30 .99172515111077 .9917251511107
7 456138832118439e-31 .1283792220506158 14 555 1214 630 ?20 554 538 6 626 +0 0 2
0 554 31 50 629 1235 0 554 626 631 0 +-.02391586287499565 -.1712061397057575 .02
108873040187935 -.961825986833597 .243697228037977 -.124508763138116 -.245608428
020593 -.969369124784389 0 14 554 1208 632 ?555 220 42 6 629 +0 0 555 220 31 50
 631 1233 0 220 629 496 0 +-.02151129790791165 -.1718153827758525 .0214000023097
2465 -.961825986833597 .243697228037977 -.124508763138116 -.245608428020593 -.96
9369124784389 0 14 220 1198 633 ?554 634 214 6 631 -0 0 554 634 31 50 496 746 0
 634 631 494 0 +-.0148741986249351 -.1736946871878765 .0266870531164101 -.961825
986833597 .243697228037977 -.124508763138116 -.2416806703012385 -.96985136028497
 -.03128566055140705 14 634 734 635 ?220 438 636 6 496 +0 0 220 438 31 81 1 635
 1565 480 634 637 0 638 633 639 14 438 729 638 ?634 435 640 6 494 -0 0 634 435 3
1 15 636 737 0 240 634 0 17 240 0 636 240 240 0 641 232 0 0 +17 641 0 640 641 64
1 0 240 232 0 0 -15 640 732 0 641 438 642 15 642 733 0 231 438 0 17 231 0 642 23
1 231 0 485 224 0 0 +17 485 0 479 485 485 0 231 224 0 0 -81 1 638 1564 480 438 6
43 0 437 635 644 80 255 1 480 0 645 8001 0 0 0 0 3 5 0 0 0 FFFFTFTFFFFFFF2 81 1
 643 751 38 438 0 638 239 637 646 81 1 437 1563 480 435 647 0 475 638 648 83 255
 3 644 .866666666666667 .3215686274509805 .156862745098039 81 1 647 1538 38 435
 0 437 32 649 650 81 1 475 1562 480 439 651 0 473 437 652 83 3 648 .866666666666
667 .3215686274509805 .156862745098039 81 1 651 775 38 439 0 475 653 227 654 81
 1 473 1561 480 429 653 0 428 475 655 83 3 652 .866666666666667 .321568627450980
5 .156862745098039 81 1 653 774 38 429 0 473 637 651 656 81 1 428 1560 480 426 6
57 0 470 473 658 83 3 655 .866666666666667 .3215686274509805 .156862745098039 81
 1 657 322 38 426 0 428 659 280 660 81 1 470 1559 480 430 661 0 433 428 662 83 3
 658 .866666666666667 .3215686274509805 .156862745098039 81 1 661 619 38 430 0 4
70 663 230 664 81 1 433 1558 480 419 659 0 418 470 665 83 3 662 .866666666666667
 .3215686274509805 .156862745098039 81 1 659 316 38 419 0 433 501 657 666 81 1 4
18 1557 480 415 667 0 468 433 668 83 3 665 .866666666666667 .3215686274509805 .1
56862745098039 81 1 667 1389 38 415 0 418 669 670 671 81 1 468 1556 480 210 672
 0 424 418 673 83 3 668 .866666666666667 .3215686274509805 .156862745098039 81 1
 672 1316 38 210 0 468 360 166 674 81 1 424 1555 480 196 669 0 499 468 675 83 3
 673 .866666666666667 .3215686274509805 .156862745098039 81 1 669 1388 38 196 0
 424 552 667 676 83 3 675 .866666666666667 .3215686274509805 .156862745098039 80
 1 38 677 678 9000 0 0 0 0 3 6 0 0 0 FFTFTFTTFFFFFF1 81 1 552 1387 38 20 0 679 5
51 669 680 82 255 3 676 2450 1 2 14 20 1353 679 ?617 555 528 6 7 +0 0 617 555 31
 81 1 679 1569 480 20 552 0 630 620 681 82 3 680 2450 0 2 81 1 630 1568 480 555
 188 0 632 679 682 81 1 620 1570 480 617 589 0 679 616 683 83 3 681 .86666666666
6667 .3215686274509805 .156862745098039 81 1 589 1457 38 617 0 620 587 684 685 8
1 1 616 1571 480 613 684 0 620 612 686 83 3 683 .866666666666667 .32156862745098
05 .156862745098039 81 1 684 1472 38 613 0 616 589 687 688 81 1 612 1572 480 607
 687 0 616 602 689 83 3 686 .866666666666667 .3215686274509805 .156862745098039
 81 1 687 1477 38 607 0 612 684 690 691 81 1 602 1573 480 598 690 0 612 597 692
 83 3 689 .866666666666667 .3215686274509805 .156862745098039 81 1 690 1482 38 5
98 0 602 687 601 693 83 3 692 .866666666666667 .3215686274509805 .15686274509803
9 81 1 601 1487 38 596 0 597 690 694 695 82 3 693 138 4 2 81 1 694 1492 38 593 0
 603 601 696 697 82 3 695 138 3 2 81 1 603 1575 480 593 694 0 597 623 698 81 1 6
96 1497 38 605 0 623 694 699 700 82 3 697 138 7 2 81 1 623 1576 480 605 696 0 60
3 627 701 81 1 699 1502 38 624 0 627 696 702 703 82 3 700 139 1 2 81 1 627 1577
 480 624 699 0 623 0 704 81 1 702 1536 38 1 0 705 699 32 706 82 3 703 139 0 2 81
 1 705 1540 707 1 702 14 0 0 708 81 1 32 1537 38 11 0 0 702 647 709 82 3 706 151
 0 3 82 3 709 2539 0 1 80 1 707 710 711 8038 0 0 0 0 0 0 0 0 0 TTTTTTTTTTTTTF10
 81 1 14 1541 710 1 705 2 0 0 712 98 255 14 708 67 117 112 98 117 116 116 111 11
0 32 66 97 115 101 80 1 710 713 714 8017 0 0 0 0 0 0 0 0 0 TTTTTTTTTTTTTF3 84 25
5 14 712 Cupbutton Base79 255 13 714 SDL/TYSA_NAME79 14 711 SDL/TYSA_UNAME83 3 7
04 .866666666666667 .3215686274509805 .156862745098039 83 3 701 .866666666666667
 .3215686274509805 .156862745098039 83 3 698 .866666666666667 .3215686274509805
 .156862745098039 82 3 691 139 3 2 82 3 688 139 2 2 82 3 685 139 5 2 81 1 188 12
16 38 555 0 630 715 186 716 81 1 632 1567 480 554 717 0 633 630 718 83 3 682 .86
6666666666667 .3215686274509805 .156862745098039 81 1 717 1391 38 554 0 632 670
 568 719 81 1 633 1566 480 220 715 0 635 632 720 83 3 718 .866666666666667 .3215
686274509805 .156862745098039 81 1 715 1200 38 220 0 633 181 188 721 83 3 720 .8
66666666666667 .3215686274509805 .156862745098039 81 1 181 1183 38 179 0 0 175 7
15 722 82 3 721 2448 0 2 81 1 175 1181 38 139 0 0 178 181 723 82 3 722 2448 7 0
 81 1 178 1177 38 176 0 0 184 175 724 82 3 723 2448 1 0 81 1 184 1173 38 172 0 0
 547 178 725 82 3 724 2448 3 0 81 1 547 1143 38 221 0 0 556 184 726 82 3 725 244
8 5 0 82 3 726 2448 5 1 81 1 670 1390 38 445 0 453 667 717 727 81 1 568 1423 38
 566 0 0 717 585 728 82 3 719 2450 4 2 81 1 585 1426 38 583 0 0 568 571 729 82 3
 728 139 3 1 81 1 571 1429 38 570 0 0 585 560 730 82 3 729 138 7 1 81 1 560 1437
 38 218 0 0 571 564 731 82 3 730 139 2 1 81 1 564 1445 38 562 0 0 560 576 732 82
 3 731 139 0 1 81 1 576 1448 38 573 0 0 564 580 733 82 3 732 139 1 1 81 1 580 14
51 38 578 0 0 576 587 734 82 3 733 138 2 1 82 3 734 138 4 1 81 1 453 1546 480 44
5 670 0 449 443 735 82 3 727 2450 3 2 81 1 449 1545 480 447 736 0 456 453 737 81
 1 443 1547 480 441 649 0 453 459 738 83 3 735 .866666666666667 .321568627450980
5 .156862745098039 81 1 649 1539 38 441 0 443 647 0 739 81 1 459 1548 480 444 74
0 0 443 497 741 83 3 738 .866666666666667 .3215686274509805 .156862745098039 81
 1 740 617 38 444 0 459 742 663 743 81 1 497 1549 480 460 744 0 459 481 745 83 3
 741 .866666666666667 .3215686274509805 .156862745098039 81 1 744 284 38 460 0 4
97 490 746 747 81 1 481 1550 480 478 746 0 497 477 748 83 3 745 .866666666666667
 .3215686274509805 .156862745098039 81 1 746 288 38 478 0 481 744 749 750 83 3 7
48 .866666666666667 .3215686274509805 .156862745098039 81 1 749 299 38 420 0 502
 746 501 751 82 3 750 142 19 2 81 1 502 1553 480 420 749 0 464 499 752 81 1 501
 302 38 425 0 499 749 659 753 82 3 751 147 5 2 82 3 753 147 4 2 81 1 464 1552 48
0 462 663 0 477 502 754 83 3 752 .866666666666667 .3215686274509805 .15686274509
8039 81 1 663 618 38 462 0 464 740 661 755 83 3 754 .866666666666667 .3215686274
509805 .156862745098039 82 3 755 198 2 2 81 1 490 240 38 17 756 487 57 744 757 8
2 3 747 142 20 2 81 1 756 241 758 17 0 490 759 0 760 81 1 57 237 38 49 0 0 89 49
0 761 82 3 757 118 0 2 81 1 89 235 38 59 0 0 86 57 762 82 3 761 146 1 0 81 1 86
 233 38 84 0 0 160 89 763 82 3 762 146 7 0 81 1 160 229 38 88 0 0 111 86 764 82
 3 763 146 5 0 81 1 111 227 38 109 0 0 118 160 765 82 3 764 143 15 0 81 1 118 22
5 38 113 0 0 115 111 766 82 3 765 146 11 0 81 1 115 223 38 104 0 0 102 118 767 8
2 3 766 143 14 0 81 1 102 221 38 100 0 0 98 115 768 82 3 767 143 7 0 81 1 98 219
 38 72 0 0 70 102 769 82 3 768 146 15 0 81 1 70 217 38 68 0 0 81 98 770 82 3 769
 146 3 0 81 1 81 215 38 73 0 0 144 70 771 82 3 770 142 27 0 81 1 144 213 38 83 0
 0 141 81 772 82 3 771 142 23 0 81 1 141 211 38 66 0 0 64 144 773 82 3 772 143 1
1 0 81 1 64 209 38 62 0 0 163 141 774 82 3 773 143 6 0 81 1 163 185 38 67 0 0 10
7 64 775 82 3 774 142 13 0 81 1 107 183 38 105 0 0 157 163 776 82 3 775 143 16 0
 81 1 157 181 38 78 0 0 76 107 777 82 3 776 146 13 0 81 1 76 179 38 74 0 0 154 1
57 778 82 3 777 143 13 0 81 1 154 177 38 79 0 0 94 76 779 82 3 778 142 25 0 81 1
 94 175 38 92 0 0 131 154 780 82 3 779 143 12 0 81 1 131 173 38 96 0 0 151 94 78
1 82 3 780 146 9 0 81 1 151 171 38 133 0 0 127 131 782 82 3 781 143 9 0 81 1 127
 167 38 124 0 0 122 151 783 82 3 782 143 4 0 81 1 122 165 38 120 0 0 148 127 784
 82 3 783 143 5 0 81 1 148 161 38 138 0 0 136 122 785 82 3 784 143 18 0 81 1 136
 159 38 134 0 0 390 148 786 82 3 785 143 10 0 81 1 390 149 38 283 0 0 392 136 78
7 82 3 786 143 8 0 81 1 392 147 38 382 0 0 380 390 788 82 3 787 146 17 1 81 1 38
0 145 38 356 0 0 354 392 789 82 3 788 146 15 1 81 1 354 143 38 276 0 0 274 380 7
90 82 3 789 146 23 1 81 1 274 141 38 272 0 0 351 354 791 82 3 790 147 3 1 81 1 3
51 139 38 277 0 0 348 274 792 82 3 791 143 6 1 81 1 348 137 38 323 0 0 321 351 7
93 82 3 792 147 2 1 81 1 321 135 38 319 0 0 384 348 794 82 3 793 143 5 1 81 1 38
4 133 38 324 0 0 269 321 795 82 3 794 147 4 1 81 1 269 128 38 205 0 0 357 384 79
6 82 3 795 146 19 1 81 1 357 123 38 206 0 0 295 269 797 82 3 796 143 13 1 81 1 2
95 116 38 293 0 0 374 357 798 82 3 797 143 2 1 81 1 374 114 38 296 0 0 369 295 7
99 82 3 798 147 6 1 81 1 369 112 38 258 0 0 256 374 800 82 3 799 146 21 1 81 1 2
56 109 38 254 0 0 365 369 801 82 3 800 147 1 1 81 1 365 106 38 259 0 0 371 256 8
02 82 3 801 143 11 1 81 1 371 104 38 367 0 0 405 365 803 82 3 802 147 5 1 81 1 4
05 102 38 309 0 0 307 371 804 82 3 803 146 13 1 81 1 307 100 38 305 0 0 399 405
 805 82 3 804 142 45 1 81 1 399 97 38 310 0 0 346 307 806 82 3 805 142 12 1 81 1
 346 95 38 252 0 0 250 399 807 82 3 806 142 43 1 81 1 250 93 38 248 0 0 343 346
 808 82 3 807 142 6 1 81 1 343 91 38 253 0 0 396 250 809 82 3 808 143 9 1 81 1 3
96 88 38 338 0 0 336 343 810 82 3 809 142 11 1 81 1 336 64 38 331 0 0 329 396 81
1 82 3 810 142 33 1 81 1 329 61 38 288 0 0 286 336 812 82 3 811 120 1 1 81 1 286
 54 38 284 0 0 291 329 813 82 3 812 118 0 1 81 1 291 51 38 289 0 0 377 286 814 8
2 3 813 143 19 1 81 1 377 48 38 292 0 0 299 291 815 82 3 814 147 7 1 81 1 299 46
 38 297 0 0 303 377 816 82 3 815 146 9 1 81 1 303 44 38 301 0 0 402 299 817 82 3
 816 143 18 1 81 1 402 42 38 304 0 0 313 303 818 82 3 817 142 13 1 81 1 313 40 3
8 311 0 0 316 402 819 82 3 818 142 21 1 81 1 316 37 38 314 0 0 387 313 820 82 3
 819 143 16 1 81 1 387 35 38 318 0 0 326 316 821 82 3 820 147 0 1 81 1 326 33 38
 246 0 0 244 387 822 82 3 821 146 11 1 81 1 244 24 38 242 0 0 340 326 823 82 3 8
22 143 17 1 81 1 340 21 38 247 0 0 262 244 824 82 3 823 143 8 1 81 1 262 18 38 2
60 0 0 362 340 825 82 3 824 143 3 1 81 1 362 16 38 264 0 0 266 262 826 82 3 825
 143 10 1 81 1 266 13 38 201 0 0 271 362 827 82 3 826 143 4 1 81 1 271 11 38 267
 0 0 333 266 828 82 3 827 143 12 1 81 1 333 8 38 241 759 0 0 271 829 82 3 828 14
3 7 1 81 1 759 9 758 241 0 333 0 756 830 82 3 829 113 2 1 80 1 758 831 832 9000
 0 0 0 0 3 5 0 0 0 FFTFTFTTFFFFFF2 83 1 830 676 79 13 832 BTI/importTag83 1 760
 819 81 1 742 514 38 450 0 456 736 740 833 82 3 743 198 1 2 81 1 456 1544 480 45
0 742 0 487 449 834 81 1 736 465 38 447 0 449 280 742 835 82 3 833 165 0 2 81 1
 280 462 38 278 0 0 657 736 836 82 3 835 151 7 2 82 3 836 151 5 1 83 3 834 .8666
66666666667 .3215686274509805 .156862745098039 82 3 739 2539 1 2 83 3 737 .86666
6666666667 .3215686274509805 .156862745098039 82 3 716 2448 2 2 79 9 678 BTI/Det
Id81 1 360 1309 38 212 0 0 204 672 837 81 1 166 1377 38 129 0 0 672 39 838 82 3
 674 2449 3 2 81 1 39 1378 38 125 0 0 166 35 839 82 3 838 2450 0 0 82 3 839 2450
 1 0 81 1 204 1307 38 194 0 0 216 360 840 82 3 837 2449 3 1 81 1 216 1306 38 209
 0 0 170 204 841 82 3 840 2449 1 1 81 1 170 1305 38 168 0 0 186 216 842 82 3 841
 2449 0 1 82 3 842 2449 1 0 82 3 671 2450 2 2 82 3 666 147 3 2 81 1 230 749 38 2
24 0 0 661 239 843 82 3 664 198 3 2 81 1 239 750 38 232 0 0 230 643 844 82 3 843
 202 0 1 82 3 844 202 1 1 82 3 660 147 2 2 81 1 637 752 38 634 0 635 643 653 845
 82 3 656 203 0 2 82 3 845 202 1 2 81 1 227 798 38 465 0 477 651 223 846 82 3 65
4 203 1 2 82 3 846 204 1 2 82 3 650 2539 0 2 82 3 646 202 0 2 79 15 645 SDL/TYSA
_COLOUR83 3 639 .866666666666667 .3215686274509805 .156862745098039 15 628 1503
 0 847 624 848 17 847 0 628 847 847 0 561 218 0 0 -15 848 1504 0 849 624 0 17 84
9 0 848 849 849 0 565 562 0 0 -17 565 0 614 565 565 0 849 562 0 0 +15 614 1478 0
 565 607 850 15 850 1479 0 851 607 0 17 851 0 850 851 851 0 577 573 0 0 -17 577
 0 608 577 577 0 851 573 0 0 +15 608 1483 0 577 598 852 15 852 1484 0 853 598 0
 17 853 0 852 853 853 0 581 578 0 0 -17 581 0 599 581 581 0 853 578 0 0 +17 561
 0 618 561 561 0 847 218 0 0 +15 618 1473 0 561 613 854 15 854 1474 0 33 613 0 1
7 33 0 854 33 33 0 855 11 0 0 +17 855 0 446 855 855 0 33 11 0 0 -15 446 1411 0 8
55 441 856 15 856 263 0 337 441 0 17 337 0 856 337 337 0 857 331 0 0 +17 857 0 8
58 857 857 0 337 331 0 0 -15 858 248 0 857 450 0 15 625 1498 0 859 605 860 17 85
9 0 625 859 859 0 569 566 0 0 -15 860 1499 0 861 605 0 17 861 0 860 861 861 0 57
2 570 0 0 -17 572 0 862 572 572 0 861 570 0 0 +15 862 1463 0 572 435 0 17 569 0
 621 569 569 0 859 566 0 0 +15 621 1458 0 569 617 863 15 863 1459 0 586 617 0 17
 586 0 863 586 586 0 864 583 0 0 +17 864 0 594 864 864 0 586 583 0 0 -15 594 149
4 0 864 593 0 83 3 604 .866666666666667 .3215686274509805 .156862745098039 82 3
 590 138 3 1 81 1 544 1137 38 542 0 0 541 556 865 82 3 557 2448 9 1 82 3 865 244
8 7 1 81 1 531 1385 38 534 0 0 530 551 866 82 3 553 2450 5 1 82 3 866 2450 4 1 8
1 1 228 1118 38 225 0 0 223 541 867 82 3 545 2448 11 1 82 3 867 2448 3 1 81 1 41
4 1382 38 56 0 0 50 407 868 82 3 533 2450 0 1 81 1 407 1383 38 282 0 0 414 530 8
69 82 3 868 2450 1 1 82 3 869 2450 2 1 82 3 532 2450 3 1 17 77 0 454 403 155 74
 308 305 0 870 -17 403 0 454 158 77 68 870 304 0 0 +17 870 0 486 520 71 74 403 3
04 0 400 -15 486 292 0 519 465 0 17 520 0 486 519 870 73 400 310 0 0 -17 71 0 48
6 870 519 68 518 309 0 515 +17 519 0 486 71 520 62 397 338 0 0 -15 514 258 0 330
 445 0 17 330 0 514 330 330 0 492 288 0 0 +17 492 0 488 492 492 0 330 288 0 0 -8
3 3 503 .866666666666667 .3215686274509805 .156862745098039 15 493 243 0 871 17
 0 17 871 0 493 871 871 0 334 241 0 0 -17 334 0 457 334 334 0 871 241 0 0 +15 45
7 247 0 334 450 858 83 3 491 .866666666666667 .3215686274509805 .156862745098039
 83 3 482 .866666666666667 .3215686274509805 .156862745098039 15 451 252 0 872 4
47 505 17 872 0 451 872 872 0 281 278 0 0 -17 281 0 440 281 281 0 872 278 0 0 +1
5 440 334 0 281 435 862 82 3 229 2448 2 1 82 3 189 2449 0 0 82 3 51 2450 3 0 82
 3 41 2450 2 0 19 18 1 0 1 0 10 6 S0 40 2 26 0 1 2 2343452832449075e-20 .0071147
6067875875 ??-.02458654838061775 -.175182530282926 .0184868845174019 -.018668113
415763 -.176644713651154 .01809466646727055 41 1 27 L?-.02458654838061775 -.1751
82530282926 .0184868845174019 41 1 28 L?-.018668113415763 -.176644713651154 .018
09466646727055 204 8 29 4 -.004013902682135585 -.0001393772712337898 4.194387593
63742 -.006 .0020824652460215 -.000531787412443544 4.26223601696482 -88904578143
8114e-32 81 2 19 1366 873 7 0 0 0 0 874 875 141 22 406 876 876 7 141 876 8 22 22
 7 80 2 873 877 878 8044 0 0 0 0 3 5 0 0 0 FFFFTFFFTTFFFF3 2 84 6 874 BACAAB83 4
 875 -.006 910729824887824e-32 .006 .001 79 17 878 SDL/TYSA_BLEND_ID74 4 CI16 in
dex_map_offset0 0 1 dCCZ20 16 7 0 0 649 756 19 705 14 2 627 0 0 0 0 0 0 0 0 0 0
 0 0 0 80 1 13 480 879 8040 0 0 0 0 3 5 0 0 0 TTTFFFFFFFFFFF2 83 3 15 .866666666
666667 .3215686274509805 .156862745098039 79 17 879 SDL/TYSA_COLOUR_21 0 
