**ABCDEFGHIJKLMNOPQRSTUVWXYZabcdefghijklmnopqrstuvwxyz**************************
**PARASOLID !"#$%&'()*+,-./:;<=>?@[\]^_`{|}~0123456789**************************
**PART1;
MC=unknown;
MC_MODEL=unknown;
MC_ID=unknown;
OS=unknown;
OS_RELEASE=unknown;
FRU=Parasolid 33.1.200;
APPL=Onshape;
SITE=unknown;
USER=unknown;
FORMAT=text;
GUISE=transmit;
KEY=BTGapi::writeModels_.xmt;
FILE=BTGapi::writeModels_.xmt;
DATE=2021-07-17T16:27:55 (UTC);
**PART2;
SCH=SCH_3301200_33103;
USFLD_SIZE=0;
**PART3;
**END_OF_HEADER*****************************************************************
T51 : TRANSMIT FILE created by modeller version 330120023 SCH_3301200_33103_1300
6230 0 12 35 CCCI7 lattice222 0 CCCI4 mesh1006 0 I8 polyline1008 0 CCCCCCCDI5 ow
ner1040 0 CCCCCCI13 boundary_mesh1006 0 I17 boundary_polyline1008 0 CCCA16 index
_map_offset0 0 1 dA9 index_map82 0 A17 node_id_index_map82 0 A20 schema_embeddin
g_map82 0 A5 child12 0 A14 lowest_node_id0 0 1 dA16 mesh_offset_data206 0 Z1 509
 2 3 0 0 0 0 0 0 0 1e3 1e-8 0 4 5 1 0 1 1 6 7 8 9 0 0 10 11 12 0 0 0 0 0 0 0 81
 255 1 2 501 13 1 14 0 0 0 15 70 11 CI9 list_type0 0 1 uI10 notransmit0 0 1 lCCC
DCCDI12 finger_index0 0 1 dI12 finger_block1012 0 CZ3 0 4 T1 0 0 5 20 1 16 16 13
 255 6 55 0 1 0 17 0 0 18 0 50 255 7 474 0 19 20 0 0 +-.0191935527462129 -.17470
4523536128 .025935079710689 .2416806703012385 .96985136028497 .03128566055140695
 -.970326350647202 .241799034819588 0 30 255 8 494 0 21 22 0 0 +-.01529109231847
335 -.171362726901501 .02644025479194555 -.1283792220506154 -1018201206925626e-3
2 .99172515111077 29 255 9 482 0 23 24 0 -.01502149595216705 -.171362726901501 .
02435763197461295 19 8 CCCCCCCA5 owner12 0 Z10 273 0 1 18 0 25 V0 16 255 11 286
 26 ?27 0 28 29 0 0 1 18 255 12 289 30 31 0 32 33 ?1 81 1 30 313 34 12 0 0 35 36
 37 17 255 31 0 38 39 40 12 41 42 0 43 -18 32 287 44 45 12 46 47 ?1 29 33 478 0
 12 48 49 -.01892203272793295 -.174705010930584 .0238527059108827 29 48 477 0 50
 51 33 -.0194612254605455 -.174705010930584 .0280179515455479 29 49 479 0 52 33
 53 -.01603655476743225 -.175436102614698 .024226232200297 18 52 408 54 55 23 56
 49 ?1 29 53 480 0 57 49 24 -.01657574750004485 -.175436102614698 .0283914778349
6225 18 57 113 58 59 50 23 53 ?1 29 24 481 0 56 53 9 -.01556068868477965 -.17136
2726901501 .02852287760927815 18 56 406 60 61 52 62 24 ?1 81 1 60 460 34 56 0 0
 58 54 63 17 61 0 64 65 59 56 66 67 0 68 -18 62 410 69 70 56 0 71 ?1 81 1 69 411
 34 62 0 0 72 73 74 17 70 0 75 70 70 62 0 0 0 0 ?29 71 443 0 62 0 47 -.002333057
910435585 -.176811175950631 .0281176775887212 29 47 475 0 32 71 51 -.01790697391
266775 -.170631635217387 .0239841056851986 29 51 476 0 46 47 48 -.01844616664528
035 -.170631635217387 .02814935131986385 18 46 177 76 77 32 50 51 ?1 81 1 76 310
 34 46 0 0 0 44 78 17 77 0 79 80 41 46 45 81 0 82 -18 50 174 35 83 46 57 48 ?1 8
1 1 35 312 34 50 0 0 44 30 84 17 83 0 85 86 87 50 43 28 0 80 -15 255 85 188 0 83
 19 0 17 86 0 85 88 83 57 89 90 0 66 +17 87 0 85 83 88 12 39 91 0 0 -17 43 0 79
 41 80 12 83 28 0 87 +16 28 284 92 ?43 11 42 93 0 0 1 17 80 0 79 43 77 50 82 94
 0 89 -15 79 224 0 80 17 0 17 82 0 95 68 89 46 80 94 0 96 +16 94 180 97 ?82 81 9
8 99 0 0 1 17 89 0 95 82 66 50 86 90 0 0 -15 95 143 0 89 100 0 17 66 0 95 89 68
 57 61 67 0 0 +16 90 175 36 ?86 91 101 102 0 0 1 81 1 36 314 34 90 0 0 30 103 10
4 16 91 185 105 ?39 98 90 106 0 0 1 16 101 178 103 ?68 90 67 107 0 0 1 30 102 48
6 0 90 107 108 0 +-.0194631491125192 -.174704523536128 .02801770252802165 .96182
5986833597 -.243697228037977 .124508763138116 30 107 485 0 101 109 102 0 +-.0184
48090297254 -.170631147822931 .02814910230233755 .961825986833597 -.243697228037
977 .124508763138116 30 108 487 0 42 102 110 0 +-.0184145033203002 -.17266832307
3985 .02391840579804065 .2416806703012385 .96985136028497 .0312856605514068 16 4
2 283 111 ?41 28 81 108 0 0 1 30 110 488 0 81 108 99 0 +-.01817657027897405 -.17
0631635217387 .02606672850253115 .128379222050616 -1041880076647732e-31 -.991725
15111077 16 81 198 112 ?45 42 94 110 0 0 1 30 99 489 0 94 110 93 0 +-.0189536960
529128 -.172668323073985 .0280836514327059 .2416806703012385 .96985136028497 .03
12856605514077 30 93 490 0 28 99 113 0 +-.0191916290942392 -.174705010930584 .02
593532872821525 .128379222050616 -867533043731152e-31 -.99172515111077 30 113 49
1 0 114 93 115 0 +-.01482210939916854 -.170562599529266 .02438344264456785 -.241
6806703012385 -.96985136028497 -.03128566055140685 16 114 101 116 ?55 117 21 113
 0 0 1 30 115 492 0 117 113 22 0 +-.01630615113373855 -.175436102614698 .0263088
5501762965 -.1283792220506154 -2430325923795015e-32 .99172515111077 16 117 97 11
8 ?59 67 114 115 0 0 1 30 22 493 0 67 115 8 0 +-.0153613021317811 -.170562599529
266 .0285486882792331 -.2416806703012385 -.96985136028497 -.0312856605514077 16
 67 93 119 ?66 101 117 22 0 0 1 81 1 119 464 34 67 0 0 120 118 121 80 255 1 34 1
22 123 9000 0 0 0 0 3 6 0 0 0 FFTFTFTTFFFFFF1 81 1 120 463 34 21 0 0 124 119 125
 81 1 118 465 34 117 0 0 119 116 126 82 255 3 121 163 1 1 81 1 116 466 34 114 0
 0 118 127 128 82 3 126 163 2 1 81 1 127 467 34 129 0 130 116 131 132 82 3 128 1
63 3 1 14 255 129 140 130 ?133 100 134 6 135 +0 0 100 17 25 81 1 130 507 136 129
 127 0 137 138 139 81 1 131 468 34 133 0 138 127 140 141 82 3 132 163 0 2 14 133
 417 138 ?142 129 64 6 143 -0 0 142 144 25 81 1 138 508 136 133 131 0 130 145 14
6 81 1 140 495 34 144 0 147 131 148 149 82 3 141 163 1 2 14 144 150 147 ?150 17
 151 6 152 -0 0 133 150 25 81 1 147 503 136 144 140 0 153 154 155 81 1 148 496 3
4 100 0 137 140 156 157 82 3 149 164 0 2 14 100 144 137 ?129 19 95 6 20 -0 0 19
 129 25 81 1 137 506 136 100 148 0 158 130 159 81 1 156 497 34 19 0 158 148 160
 161 82 3 157 164 1 2 14 19 146 158 ?100 150 85 6 7 +0 0 150 100 25 81 1 158 505
 136 19 156 0 154 137 162 81 1 160 498 34 150 0 154 156 0 163 82 3 161 164 2 2 1
4 150 148 154 ?19 144 38 6 164 +0 0 144 19 25 81 1 154 504 136 150 160 0 147 158
 165 82 3 163 164 3 2 80 1 136 0 166 8001 0 0 0 0 3 5 0 0 0 FFFFTFTFFFFFFF2 83 2
55 3 165 .866666666666667 .3215686274509805 .156862745098039 79 255 15 166 SDL/T
YSA_COLOUR15 38 195 0 31 150 0 50 164 471 0 150 167 152 0 +-.0184164269722739 -.
172667835679529 .0239181567805144 -.1283792220506158 212181471130998e-30 .991725
15111077 .99172515111077 0 .1283792220506158 13 25 295 0 0 0 0 0 0 10 17 14 17 2
30 153 ?144 0 168 6 167 -0 0 129 0 25 81 1 153 502 136 17 169 0 0 147 170 15 168
 223 0 27 17 79 50 167 252 0 17 135 164 0 +-.0186840996866065 -.172668323073985
 .0260010286153732 .961825986833597 -.243697228037977 .124508763138116 .24560842
8020594 .969369124784389 0 51 255 135 151 0 129 143 167 0 +-.0186860233385803 -.
1726678356795295 .026000779597847 .961825986833597 -.243697228037977 .1245087631
38116 .00585 .245608428020593 .969369124784389 0 50 143 433 0 133 171 135 0 +-.0
1509170576547485 -.170562599529266 .02646606546190045 .961825986833597 -.2436972
28037977 .1245087631381156 .2456084280205935 .969369124784389 0 68 255 171 435 0
 142 0 143 0 +172 -.00891518311348199 -.1751434671461915 .0272656188181431 -.961
825986833597 .243697228037977 -.1245087631381156 ?-.002333057910435595 -.1768111
75950631 .0281176775887212 ?1 .241680670301238 .96985136028497 .0312856605514070
5 0 14 142 426 145 ?0 133 75 6 171 +0 0 0 133 25 134 255 172 438 0 1 0 173 174 +
175 176 31 255 173 437 0 177 172 29 0 +-.00521853587093638 -.176080084266517 .02
774415129930685 -.961825986833597 .243697228037977 -.1245087631381156 -.24560842
80205935 -.969369124784389 0 .00585 141 255 174 171 174 174 172 136 255 175 3 4
 3 2 5 FFF2 178 179 180 135 255 176 2 0 45 255 12 178 -.003804703949674135 -.170
40645380885 .0279271724135326 -.00216430722583904 -.170822080065526 .02813952243
31166 -.0014202650836242 -.1731481880764335 .02823583898945625 -.002333057910435
595 -.176811175950631 .0281176775887212 127 255 4 179 4 4 0 0 128 255 4 180 0 1
 ??16 177 403 72 ?181 21 0 173 0 0 1 31 29 171 0 11 173 106 0 --.018684099686606
65 -.1726683230739855 .02600102861537325 .961825986833597 -.243697228037977 .124
508763138116 .245608428020593 .969369124784389 0 .00585 30 106 483 0 91 29 109 0
 +-.0189239563799066 -.174704523536128 .0238524568933564 .961825986833597 -.2436
97228037977 .124508763138116 30 109 484 0 98 106 107 0 +-.0179088975646414 -.170
631147822931 .0239838566676723 .961825986833597 -.243697228037977 .1245087631381
16 16 98 192 182 ?183 94 91 109 0 0 1 81 1 182 317 34 98 0 0 105 26 184 17 183 0
 151 185 45 23 40 98 0 186 +15 151 149 0 96 144 0 17 185 0 151 96 183 56 65 21 0
 0 +17 45 0 151 183 96 32 77 81 0 41 +18 23 407 124 65 57 52 9 ?1 17 40 0 38 31
 186 32 183 98 0 0 -17 186 0 38 40 39 23 55 114 0 0 -17 39 0 38 186 31 52 87 91
 0 88 +17 55 0 64 59 65 52 186 114 0 39 +15 64 420 0 65 133 0 17 59 0 64 61 55 5
7 88 117 0 86 +17 65 0 64 55 61 23 185 21 0 183 -16 21 105 120 ?185 114 177 8 0
 0 1 17 88 0 85 87 86 52 59 117 0 0 -81 1 124 462 34 23 0 0 54 120 187 81 1 54 4
61 34 52 0 0 60 124 188 82 3 187 163 3 0 82 3 188 163 2 0 17 96 0 151 45 185 46
 68 101 0 0 -17 41 0 79 77 43 32 31 42 0 40 +17 68 0 95 66 82 56 96 101 0 185 +8
1 1 105 316 34 91 0 0 103 182 189 81 1 26 319 34 11 0 0 182 112 190 82 3 184 156
 3 1 81 1 112 321 34 81 0 0 26 97 191 82 3 190 156 5 1 81 1 97 323 34 94 0 0 112
 92 192 82 3 191 156 7 1 81 1 92 325 34 28 0 0 97 111 193 82 3 192 156 9 1 81 1
 111 327 34 42 0 0 92 169 194 82 3 193 156 11 1 81 1 169 330 34 17 0 153 111 72
 195 82 3 194 156 13 1 81 1 72 405 34 177 0 0 169 69 196 82 3 195 156 2 2 82 3 1
96 162 1 1 81 1 103 315 34 101 0 0 36 105 197 82 3 189 156 2 1 82 3 197 156 1 1
 17 181 0 198 181 181 0 199 177 0 0 +15 198 424 0 181 129 0 17 199 0 200 199 199
 0 181 177 0 0 -15 200 430 0 199 142 0 81 1 145 509 136 142 73 0 138 0 201 15 75
 429 0 70 142 200 81 1 73 428 34 142 0 145 69 202 203 83 3 201 .866666666666667
 .3215686274509805 .156862745098039 81 1 202 458 34 1 0 204 73 58 205 82 3 203 1
62 1 2 81 1 204 499 206 1 202 14 0 0 207 81 1 58 459 34 57 0 0 202 60 208 82 3 2
05 156 0 3 82 3 208 163 0 0 80 1 206 209 210 8038 0 0 0 0 0 0 0 0 0 TTTTTTTTTTTT
TF10 81 1 14 500 209 1 204 2 0 0 211 98 255 14 207 67 117 112 32 66 117 116 116
 111 110 32 67 97 112 80 1 209 212 213 8017 0 0 0 0 0 0 0 0 0 TTTTTTTTTTTTTF3 84
 255 14 211 Cup Button Cap79 13 213 SDL/TYSA_NAME79 14 210 SDL/TYSA_UNAME17 27 0
 168 27 27 0 214 11 0 0 +17 214 0 134 214 214 0 27 11 0 0 -15 134 170 0 214 129
 198 83 3 170 .866666666666667 .3215686274509805 .156862745098039 50 152 472 0 1
44 164 20 0 +-.0181784939309477 -.170631147822931 .0260664794850049 .24168067030
12385 .96985136028497 .0312856605514069 -.970326350647202 .241799034819588 0 50
 20 473 0 100 152 7 0 +-.01895561970488645 -.172667835679529 .0280834024151796 -
.128379222050616 -627515414621461e-30 .991725151110769 .99172515111077 0 .128379
222050616 83 3 162 .866666666666667 .3215686274509805 .156862745098039 83 3 159
 .866666666666667 .3215686274509805 .156862745098039 83 3 155 .866666666666667 .
3215686274509805 .156862745098039 83 3 146 .866666666666667 .3215686274509805 .1
56862745098039 83 3 139 .866666666666667 .3215686274509805 .156862745098039 82 3
 125 163 0 1 79 9 123 BTI/DetId82 3 104 156 0 1 81 1 44 311 34 32 0 0 76 35 215
 82 3 84 156 6 0 82 3 215 156 5 0 82 3 78 156 4 0 82 3 74 162 0 0 82 3 63 163 1
 0 82 3 37 156 7 0 19 18 161 0 1 0 10 6 S0 74 4 CI16 index_map_offset0 0 1 dCCZ2
0 16 5 0 0 160 204 14 2 145 0 0 0 0 0 0 0 0 0 0 0 0 0 0 0 80 1 13 136 216 8040 0
 0 0 0 3 5 0 0 0 TTTFFFFFFFFFFF2 83 3 15 .866666666666667 .3215686274509805 .156
862745098039 79 17 216 SDL/TYSA_COLOUR_21 0 
