**ABCDEFGHIJKLMNOPQRSTUVWXYZabcdefghijklmnopqrstuvwxyz**************************
**PARASOLID !"#$%&'()*+,-./:;<=>?@[\]^_`{|}~0123456789**************************
**PART1;
MC=unknown;
MC_MODEL=unknown;
MC_ID=unknown;
OS=unknown;
OS_RELEASE=unknown;
FRU=Parasolid 33.1.200;
APPL=Onshape;
SITE=unknown;
USER=unknown;
FORMAT=text;
GUISE=transmit;
KEY=BTGapi::writeModels_.xmt;
FILE=BTGapi::writeModels_.xmt;
DATE=2021-07-17T16:27:55 (UTC);
**PART2;
SCH=SCH_3301200_33103;
USFLD_SIZE=0;
**PART3;
**END_OF_HEADER*****************************************************************
T51 : TRANSMIT FILE created by modeller version 330120023 SCH_3301200_33103_1300
6230 0 12 35 CCCI7 lattice222 0 CCCI4 mesh1006 0 I8 polyline1008 0 CCCCCCCDI5 ow
ner1040 0 CCCCCCI13 boundary_mesh1006 0 I17 boundary_polyline1008 0 CCCA16 index
_map_offset0 0 1 dA9 index_map82 0 A17 node_id_index_map82 0 A20 schema_embeddin
g_map82 0 A5 child12 0 A14 lowest_node_id0 0 1 dA16 mesh_offset_data206 0 Z1 115
1 2 3 0 0 0 0 0 0 0 1e3 1e-8 0 4 5 1 0 1 1 6 7 8 9 0 0 10 11 12 0 0 0 0 0 0 0 81
 255 1 2 1117 13 1 14 0 0 0 15 70 11 CI9 list_type0 0 1 uI10 notransmit0 0 1 lCC
CDCCDI12 finger_index0 0 1 dI12 finger_block1012 0 CZ3 0 4 T1 0 0 6 20 1 16 16 1
3 255 6 395 0 1 0 17 0 0 18 0 52 255 7 1105 19 20 21 0 0 +-.00830549756332336 -.
182104763924499 .001061636160797258 .969109247487311 -.246611230722143 .00318862
2945308605 .003200000000361945 .242535625036338 .970142500145331 .24661248441889
4 .969114174144998 0 31 255 8 1089 0 11 22 0 0 +-.00636727906834877 -.1825979863
85943 .001068013406687874 .969109247487311 -.246611230722143 .003188622945308605
 .246612484418894 .969114174144998 0 .00370000000036196 29 255 9 1062 0 23 24 0
 -.00418613037335546 -.181426048280112 .002750199023088515 19 8 CCCCCCCA5 owner1
2 0 Z10 456 0 1 18 0 25 V0 16 255 11 1086 26 ?27 0 28 8 0 0 1 18 255 12 815 29 3
0 0 31 32 ?1 81 1 29 1026 33 12 0 0 34 35 36 17 255 30 0 37 38 39 12 40 41 0 42
 +18 31 914 43 44 12 45 46 ?1 29 32 1056 0 12 47 48 -.00872408029722173 -.183728
030700567 .002735267980701475 29 47 1055 0 49 0 32 -.00789793714612957 -.1804814
97148431 .002737986207789405 29 48 1057 0 45 32 46 -.00871305798051714 -.1837280
30700567 -.000614713886194888 18 45 917 50 51 31 49 48 ?1 29 46 1058 0 31 48 52
 -.00788691482942498 -.180481497148431 -.00061199565910696 29 52 1059 0 53 46 54
 -.00417510805665087 -.181426048280112 -.000599782843807853 18 53 908 35 55 56 0
 52 ?1 29 54 1060 0 56 52 24 -.00500125120774303 -.184672581832248 -.00060250107
0895782 18 56 910 57 58 59 53 54 ?1 29 24 1061 0 59 54 9 -.00501227352444762 -.1
84672581832248 .002747480796000585 18 59 912 60 40 23 56 24 ?1 81 1 60 1030 33 5
9 0 0 61 62 63 17 40 0 64 65 42 59 30 41 0 66 -18 23 906 61 67 49 59 9 ?1 81 1 6
1 1029 33 23 0 0 57 60 68 17 67 0 37 39 38 23 69 70 0 71 -18 49 905 34 38 45 23
 47 ?1 81 1 34 1025 33 49 0 0 50 29 72 17 38 0 37 67 30 49 73 74 0 69 +15 255 37
 940 0 38 75 0 17 73 0 76 77 78 12 38 74 0 0 -16 74 819 79 ?38 80 81 82 0 0 1 17
 69 0 83 44 84 49 67 70 0 78 +15 83 928 0 44 85 0 17 44 0 83 55 69 31 78 86 0 87
 +17 84 0 83 69 55 23 88 89 0 0 +16 70 866 90 ?69 41 91 92 0 0 1 17 78 0 76 73 9
3 49 44 86 0 0 -15 76 831 0 78 17 0 17 93 0 76 78 77 31 51 94 0 0 +16 86 830 95
 ?44 28 94 96 0 0 1 81 1 95 1033 33 86 0 0 79 97 98 16 28 1080 99 ?100 11 86 22
 0 0 1 16 94 827 62 ?93 86 80 101 0 0 1 30 255 96 1067 0 86 102 82 0 +-.00789242
598777728 -.180481497148431 .001062995274341222 .003290243792415415 220189047856
906e-33 -.999994587133244 30 102 1066 0 41 103 96 0 +-.00501227352444762 -.18467
2581832248 .002747480796000585 -.969109247487313 .2466112307221365 -.00318862294
53085 30 82 1068 0 74 96 104 0 +-.00785478041435611 -.1803119021121255 .00273812
8204726835 .2466098958484045 .969114493174936 .000811411071023484 30 104 1069 0
 80 82 101 0 +-.00871856913886944 -.183728030700567 .001060277047253292 .0032902
43792415415 220189047856906e-33 -.999994587133244 16 80 823 97 ?77 94 74 104 0 0
 1 30 101 1070 0 94 104 105 0 +-.00784375809765152 -.1803119021121255 -.00061185
3662169531 .2466098958484045 .969114493174936 .00081141107102338 30 105 1071 0 8
9 101 106 0 +-.004180619215003165 -.181426048280112 .001075208089640342 -.003290
243792415275 -3566837250581855e-32 .999994587133244 16 89 893 107 ?84 108 0 105
 0 0 1 30 106 1072 0 108 105 109 0 +-.00458817963219696 -.18304931505618 -.00060
1141957351817 -.246609895848404 -.969114493174936 -.00081141107102338 16 108 854
 110 ?111 112 89 106 0 0 1 30 109 1073 0 112 106 113 0 +-.00500676236609532 -.18
4672581832248 .001072489862552414 -.003290243792415275 -3566837250581855e-32 .99
9994587133244 16 112 863 114 ?66 91 108 109 0 0 1 30 113 1074 0 91 109 22 0 +-.0
0459920194890155 -.18304931505618 .00274883990954455 -.246609895848404 -.9691144
93174936 -.000811411071023483 16 91 896 115 ?39 70 112 113 0 0 1 31 22 1083 0 28
 113 8 0 --.00830549756332336 -.182104763924499 .001061636160797258 .96910924748
7313 -.2466112307221365 .003188622945308645 .246612484418888 .969114174144999 0
 .003200000000361945 81 1 115 1040 33 91 0 0 110 107 116 17 39 0 37 30 67 59 71
 91 0 0 +17 71 0 117 88 66 23 39 91 0 84 -15 117 960 0 88 118 0 17 88 0 117 111
 71 53 84 89 0 0 -17 66 0 117 71 111 59 65 112 0 39 +17 111 0 117 66 88 56 119 1
08 0 65 +17 65 0 64 120 40 56 66 112 0 0 -15 64 936 0 40 121 0 17 120 0 64 42 65
 45 58 122 0 77 +17 42 0 64 40 120 12 77 80 0 73 -17 58 0 123 119 51 56 120 122
 0 111 -16 122 848 124 ?120 125 41 103 0 0 1 17 77 0 76 93 73 45 42 80 0 0 +81 1
 124 1036 33 122 0 0 126 90 127 16 125 845 126 ?87 128 122 129 0 0 1 16 41 857 1
30 ?30 122 70 102 0 0 1 30 103 1065 0 122 92 102 0 +-.00500125120774303 -.184672
581832248 -.000602501070895782 -.969109247487313 .2466112307221365 -.00318862294
53085 30 92 1064 0 70 129 103 0 +-.00418613037335546 -.181426048280112 .00275019
9023088515 -.969109247487313 .2466112307221365 -.0031886229453085 30 129 1063 0
 125 131 92 0 +-.00417510805665087 -.181426048280112 -.000599782843807853 -.9691
09247487313 .2466112307221365 -.0031886229453085 31 131 658 0 81 132 129 0 +-.00
328081903145426 -.1833834042428535 .00107816866763388 -.969109247487313 .2466112
307221365 -.003188622945308645 -.246612484418888 -.969114174144999 0 .0070308958
2429186 16 81 595 133 ?134 74 135 131 0 0 1 31 132 657 0 135 136 131 0 +-.002146
92849784617 -.1836719477076095 .001081899464117666 -.969109247487313 .2466112307
221365 -.003188622945308645 -.246612484418888 -.969114174144999 0 .0070308958242
9187 16 135 590 137 ?138 81 139 132 0 0 1 31 136 656 0 139 140 132 0 +-.00282516
9446411595 -.183499354333348 .001079667873967586 -.969109247487313 .246611230722
1365 -.003188622945308645 -.246612484418888 -.969114174144999 0 .011000000000000
12 16 139 585 141 ?142 135 143 136 0 0 1 31 140 655 0 143 144 136 0 +-.001589452
123338615 -.1838138098714185 .001083733707226822 -.969109247487313 .246611230722
1365 -.003188622945308645 -.246612484418888 -.969114174144999 0 .011000000000000
12 16 143 580 145 ?146 139 147 140 0 0 1 31 144 654 0 147 148 140 0 +-.001589452
12333861 -.1838138098714185 .001083733707226822 -.969109247487313 .2466112307221
365 -.003188622945308645 -.246612484418888 -.969114174144999 0 .01 16 147 575 14
9 ?150 143 151 144 0 0 1 31 148 653 0 151 152 144 0 +-.001007986574846258 -.1839
61776609852 .001085646880994006 -.969109247487313 .2466112307221365 -.0031886229
45308645 -.246612484418888 -.969114174144999 0 .01 16 151 570 153 ?154 147 155 1
48 0 0 1 31 152 652 0 155 156 148 0 +-.001007986574846246 -.183961776609852 .001
085646880994006 -.969109247487313 .2466112307221365 -.003188622945308645 -.24661
2484418888 -.969114174144999 0 .0090000000000001 16 155 565 157 ?158 151 159 152
 0 0 1 31 156 651 0 159 160 152 0 +-.000523431951102586 -.184085082225213 .00108
724119246666 -.969109247487313 .2466112307221365 -.003188622945308645 -.24661248
4418888 -.969114174144999 0 .009 16 159 560 161 ?162 155 163 156 0 0 1 31 160 65
0 0 163 164 156 0 +-.000523431951102595 -.184085082225213 .00108724119246666 -.9
69109247487313 .2466112307221365 -.003188622945308645 -.246612484418888 -.969114
174144999 0 .008 16 163 555 165 ?166 159 167 160 0 0 1 31 164 649 0 167 168 160
 0 +-.000232699176856397 -.1841590655944295 .001088197779350254 -.96910924748731
3 .2466112307221365 -.003188622945308645 -.246612484418888 -.969114174144999 0 .
008 16 167 550 169 ?170 163 171 164 0 0 1 31 168 648 0 171 172 164 0 +-.00023269
91768564065 -.1841590655944295 .001088197779350254 -.969109247487313 .2466112307
221365 -.003188622945308645 -.246612484418888 -.969114174144999 0 .007 16 171 54
5 173 ?174 167 175 168 0 0 1 31 172 647 0 175 176 168 0 +-38877327358953e-18 -.1
84208387840574 .001088835503939316 -.969109247487313 .2466112307221365 -.0031886
22945308645 -.246612484418888 -.969114174144999 0 .007 16 175 540 177 ?178 171 1
79 172 0 0 1 31 176 646 0 179 180 172 0 +-3887732735894085e-20 -.184208387840574
 .001088835503939316 -.969109247487313 .2466112307221365 -.003188622945308645 -.
246612484418888 -.969114174144999 0 .006 16 179 535 181 ?182 175 183 176 0 0 1 3
1 180 645 0 183 184 176 0 +.0001549445221385355 -.1842577100867185 .001089473228
528378 -.969109247487313 .2466112307221365 -.003188622945308645 -.24661248441888
8 -.969114174144999 0 .006 16 183 530 185 ?186 179 187 180 0 0 1 31 184 644 0 18
7 188 180 0 +.0001549445221385255 -.1842577100867185 .001089473228528376 -.96910
9247487313 .2466112307221365 -.003188622945308645 -.246612484418888 -.9691141741
44999 0 .005 16 187 525 189 ?190 183 191 184 0 0 1 31 188 643 0 191 192 184 0 +.
00044567729638472 -.184331693455935 .00109042981541197 -.969109247487313 .246611
2307221365 -.003188622945308645 -.246612484418888 -.969114174144999 0 .005 16 19
1 520 193 ?194 187 195 188 0 0 1 31 192 642 0 195 196 188 0 +.000445677296384715
 -.184331693455935 .00109042981541197 -.969109247487313 .2466112307221365 -.0031
88622945308645 -.246612484418888 -.969114174144999 0 .004 16 195 515 197 ?198 19
1 199 192 0 0 1 31 196 641 0 199 200 192 0 +.000833320995379639 -.18443033794822
4 .001091705264590092 -.969109247487313 .2466112307221365 -.003188622945308645 -
.246612484418888 -.969114174144999 0 .004 16 199 510 201 ?202 195 203 196 0 0 1
 31 200 640 0 203 204 196 0 +.000833320995379644 -.184430337948224 .001091705264
590092 -.969109247487313 .2466112307221365 -.003188622945308645 -.24661248441888
8 -.969114174144999 0 .003 16 203 505 205 ?206 199 207 200 0 0 1 31 204 639 0 20
7 208 200 0 +.001220964694374566 -.1845289824405125 .001092980713768216 -.969109
247487313 .2466112307221365 -.003188622945308645 -.246612484418888 -.96911417414
4999 0 .003 16 207 500 209 ?210 203 211 204 0 0 1 31 208 638 0 211 212 204 0 +.0
0122096469437458 -.1845289824405125 .001092980713768216 -.969109247487313 .24661
12307221365 -.003188622945308645 -.246612484418888 -.969114174144999 0 .002 16 2
11 495 213 ?214 207 215 208 0 0 1 31 212 637 0 215 216 208 0 +.00170551931811821
5 -.184652288055874 .00109457502524087 -.969109247487313 .2466112307221365 -.003
188622945308645 -.246612484418888 -.969114174144999 0 .002 16 215 490 217 ?218 2
11 219 212 0 0 1 31 216 635 0 219 220 212 0 +-.00297539670236445 -.1834611256934
145 .001079173586995726 -.969109247487313 .2466112307221365 -.003188622945308645
 -.246612484418888 -.969114174144999 0 .003700000000723975 16 219 470 221 ?222 2
15 223 216 0 0 1 31 220 634 0 223 224 216 0 +-.00306924201474517 -.1834372446830
5 .001078864811367858 -.969109247487313 .2466112307221365 -.003188622945308645 -
.246612484418888 -.969114174144999 0 .004000000001566995 16 223 465 225 ?226 219
 227 220 0 0 1 31 224 633 0 227 228 220 0 +-.00895468240424221 -.181939564517930
5 .001059500172842476 -.969109247487313 .2466112307221365 -.003188622945308645 -
.246612484418888 -.969114174144999 0 .01285 16 227 460 229 ?230 223 128 224 0 0
 1 31 228 632 0 128 231 224 0 +-.00895468240424196 -.1819395645179305 .001059500
172842476 -.969109247487313 .2466112307221365 -.003188622945308645 -.24661248441
8888 -.969114174144999 0 .01385 16 128 458 232 ?233 227 125 228 0 0 1 134 255 23
1 55 0 1 234 228 235 +236 237 134 234 50 0 1 238 231 239 +240 241 141 255 235 24
2 235 235 231 136 255 236 3 4 3 2 5 FFF2 243 244 245 135 255 237 2 0 45 255 12 2
43 -.002082802430965115 -.1795607867088315 .001082110455653222 -.002398865989589
86 -.175036907472408 .001081070523862436 -.003996867650186955 -.1709494355362295
 .00107581268035838 -.00578574524259043 -.1694864432806325 .001069926805105126 1
27 255 4 244 4 4 0 0 128 255 4 245 .229685199698801 1 ??68 255 242 605 0 246 247
 248 0 +231 -.00604735466178028 -.1826793982100965 .001069066041678402 -.9691092
47487313 .2466112307221365 -.003188622945308645 ????.246609895848404 .9691144931
74936 .000811411071023397 .01748228101316755 14 255 246 468 249 ?250 251 252 6 2
42 +0 0 250 251 25 50 255 247 604 0 250 253 242 0 +-.00566244029466588 -.1690018
86034045 .00107033251064064 -.969109247487313 .2466112307221365 -.00318862294530
8645 -.246612484418888 -.969114174144999 0 68 248 606 0 251 242 254 0 +234 -.006
04735466178028 -.1826793982100965 .001069066041678402 -.969109247487313 .2466112
307221365 -.003188622945308645 ????.246609895848404 .969114493174936 .0008114110
71023406 .02348765704963655 14 251 473 255 ?246 256 257 6 248 +0 0 246 256 25 51
 255 254 607 0 256 248 258 0 --.00604735466178028 -.1826793982100965 .0010690660
41678402 -.969109247487313 .2466112307221365 -.003188622945308645 .0037000000003
6196 -.246612484418888 -.969114174144999 0 14 256 478 259 ?251 260 261 6 254 -0
 0 251 260 25 50 258 608 0 17 254 262 0 +-.00784926925600382 -.1803119021121255
 .00106313727127865 .969109247487313 -.2466112307221365 .003188622945308645 .246
612484418888 .969114174144999 0 14 17 483 263 ?264 0 265 6 258 -0 0 264 0 25 50
 262 609 0 260 258 266 0 +.00207543416189083 -.1831986163161115 .001095792141847
406 -.969109247487313 .2466112307221365 -.003188622945308645 -.246612484418888 -
.969114174144999 0 14 260 493 267 ?256 268 269 6 262 -0 0 256 268 25 51 266 610
 0 268 262 270 0 --.00604735466178028 -.1826793982100965 .001069066041678402 -.9
69109247487313 .2466112307221365 -.003188622945308645 .002 -.246612484418888 -.9
69114174144999 0 14 268 498 271 ?260 272 273 6 266 -0 0 260 272 25 50 270 611 0
 272 266 274 0 +.00183748943399558 -.1821061962075755 .001095009241445774 -.9691
09247487313 .2466112307221365 -.003188622945308645 -.246612484418888 -.969114174
144999 0 14 272 503 275 ?268 276 277 6 270 -0 0 268 276 25 51 274 612 0 276 270
 278 0 --.00604735466178028 -.1826793982100965 .001069066041678402 -.96910924748
7313 .2466112307221365 -.003188622945308645 .003 -.246612484418888 -.96911417414
4999 0 14 276 508 279 ?272 280 281 6 274 -0 0 272 280 25 50 278 613 0 280 274 28
2 0 +.001696455630849055 -.1810384372221115 .001094545203338674 -.96910924748731
3 .2466112307221365 -.003188622945308645 -.246612484418888 -.969114174144999 0 1
4 280 513 283 ?276 284 285 6 278 -0 0 276 284 25 51 282 614 0 284 278 286 0 --.0
0604735466178028 -.1826793982100965 .001069066041678402 -.969109247487313 .24661
12307221365 -.003188622945308645 .004 -.246612484418888 -.969114174144999 0 14 2
84 518 287 ?280 288 289 6 282 -0 0 280 288 25 50 286 615 0 288 282 290 0 +.00155
5421827702535 -.179970678236648 .001094081165231574 -.969109247487313 .246611230
7221365 -.003188622945308645 -.246612484418888 -.969114174144999 0 14 288 523 29
1 ?284 292 293 6 286 -0 0 284 292 25 51 290 616 0 292 286 294 0 --.0060473546617
8028 -.1826793982100965 .001069066041678402 -.969109247487313 .2466112307221365
 -.003188622945308645 .005 -.246612484418888 -.969114174144999 0 14 292 528 295
 ?288 296 297 6 290 -0 0 288 296 25 50 294 617 0 296 290 298 0 +.001511298949304
765 -.178927580374256 .001093935989419006 -.969109247487313 .2466112307221365 -.
003188622945308645 -.246612484418888 -.969114174144999 0 14 296 533 299 ?292 300
 301 6 294 -0 0 292 300 25 51 298 618 0 300 294 302 0 --.00604735466178028 -.182
6793982100965 .001069066041678402 -.969109247487313 .2466112307221365 -.00318862
2945308645 .006 -.246612484418888 -.969114174144999 0 14 300 538 303 ?296 304 30
5 6 298 -0 0 296 304 25 50 302 619 0 304 298 306 0 +.00156408699565569 -.1779091
43634937 .001094109675900968 -.969109247487313 .2466112307221365 -.0031886229453
08645 -.246612484418888 -.969114174144999 0 14 304 543 307 ?300 308 309 6 302 -0
 0 300 308 25 51 306 620 0 308 302 310 0 --.00604735466178028 -.1826793982100965
 .001069066041678402 -.969109247487313 .2466112307221365 -.003188622945308645 .0
07 -.246612484418888 -.969114174144999 0 14 308 548 311 ?304 312 313 6 306 -0 0
 304 312 25 50 310 621 0 312 306 314 0 +.00161687504200665 -.1768907068956175 .0
0109428336238293 -.969109247487313 .2466112307221365 -.003188622945308645 -.2466
12484418888 -.969114174144999 0 14 312 553 315 ?308 316 317 6 310 -0 0 308 316 2
5 51 314 622 0 316 310 318 0 --.00604735466178028 -.1826793982100965 .0010690660
41678402 -.969109247487313 .2466112307221365 -.003188622945308645 .008 -.2466124
84418888 -.969114174144999 0 14 316 558 319 ?312 320 321 6 314 -0 0 312 320 25 5
0 318 623 0 320 314 322 0 +.001572752163608865 -.175847609033226 .00109413818657
036 -.969109247487313 .2466112307221365 -.003188622945308645 -.246612484418888 -
.969114174144999 0 14 320 563 323 ?316 324 325 6 318 -0 0 316 324 25 51 322 624
 0 324 318 326 0 --.00604735466178028 -.1826793982100965 .001069066041678402 -.9
69109247487313 .2466112307221365 -.003188622945308645 .009 -.246612484418888 -.9
69114174144999 0 14 324 568 327 ?320 328 329 6 322 -0 0 320 328 25 50 326 625 0
 328 322 330 0 +.001334807435713612 -.17475518892469 .00109335528616873 -.969109
247487313 .2466112307221365 -.003188622945308645 -.246612484418888 -.96911417414
4999 0 14 328 573 331 ?324 332 333 6 326 -0 0 324 332 25 51 330 626 0 332 326 33
4 0 --.00604735466178028 -.1826793982100965 .001069066041678402 -.96910924748731
3 .2466112307221365 -.003188622945308645 .01 -.246612484418888 -.969114174144999
 0 14 332 578 335 ?328 336 337 6 330 -0 0 328 336 25 50 334 627 0 336 330 338 0
 +.000999951783069653 -.1736381076930815 .001092253523472566 -.969109247487313 .
2466112307221365 -.003188622945308645 -.246612484418888 -.969114174144999 0 14 3
36 583 339 ?332 340 341 6 334 -0 0 332 340 25 51 338 628 0 340 334 342 0 --.0060
4735466178028 -.1826793982100965 .001069066041678402 -.969109247487313 .24661123
07221365 -.003188622945308645 .011 -.246612484418888 -.969114174144999 0 14 340
 588 343 ?336 344 345 6 338 -0 0 336 344 25 52 342 629 0 344 338 346 0 --.002146
92849784617 -.1836719477076095 .001081899464117666 -.969109247487313 .2466112307
221365 -.003188622945308645 .00703089582429186 .984807753012208 .173648177666929
 -.246612484418888 -.969114174144999 0 14 344 593 347 ?340 348 349 6 342 +0 0 34
0 348 25 51 346 630 0 348 342 350 0 --.00604735466178028 -.1826793982100965 .001
069066041678402 -.969109247487313 .2466112307221365 -.003188622945308645 .007030
89582429186 -.246612484418888 -.969114174144999 0 14 348 598 351 ?344 264 352 6
 346 -0 0 344 264 25 68 350 631 0 264 346 353 0 +238 -.00604735466178028 -.18267
93982100965 .001069066041678402 -.969109247487313 .2466112307221365 -.0031886229
45308645 ????.246609895848404 .969114493174936 .000811411071023384 .015204317332
26085 14 264 601 354 ?348 17 355 6 350 +0 0 348 17 25 50 353 1051 0 85 350 356 0
 +-.004180619215003165 -.181426048280112 .00107520808964033 -.246609895848404 -.
969114493174936 -.000811411071023436 .969114812201734 -.246609977030933 0 134 23
8 25 0 1 0 234 357 +358 359 141 357 350 357 357 238 136 358 3 4 3 2 5 FFF2 360 3
61 362 135 359 2 0 45 12 360 -.00553913534674154 -.1685173287874575 .00107073821
617615 -.00369525808918699 -.170025301249927 .001076805054715784 -.0022582536297
6663 -.173083837201624 .001081533175310752 -.00154693054463205 -.176569661198904
5 .001083873614344502 127 4 361 4 4 0 0 128 4 362 0 .595498798016429 ??14 85 941
 363 ?364 250 83 6 353 +0 0 364 250 25 50 356 1052 0 364 353 365 0 +-.0045881796
3219695 -.18304931505618 -.000601141957351817 .003290243792415265 -1875572954634
525e-32 -.999994587133244 -.999994587133244 0 -.003290243792415265 14 364 945 36
6 ?121 85 123 6 356 -0 0 121 85 25 50 365 1053 0 121 356 21 0 +-.005006762366095
32 -.184672581832248 .0010724898625524 -.246609895848404 -.969114493174936 -.000
811411071023436 .969114812201734 -.246609977030933 0 14 121 949 367 ?75 364 64 6
 365 -0 0 75 364 25 50 21 1054 0 75 365 7 0 +-.00459920194890154 -.1830493150561
8 .00274883990954455 .00329024379241529 811941582296622e-31 -.999994587133244 -.
999994587133244 0 -.00329024379241529 14 75 953 368 ?118 121 37 6 21 +0 0 118 12
1 25 81 1 368 1149 369 75 370 0 367 371 372 14 118 957 371 ?20 75 117 6 253 +0 0
 20 75 25 13 25 455 0 0 0 0 0 0 10 17 81 1 371 1150 369 118 373 0 368 374 375 14
 20 1098 374 ?0 118 376 6 7 +0 0 0 118 25 50 253 972 0 118 0 247 0 +-.0045936907
9054926 -.18304931505618 .00107384897609638 -.969109247487313 .2466112307221365
 -.0031886229453085 -.246609895848404 -.969114493174936 -.000811411071023399 81
 1 374 1151 369 20 377 0 371 0 378 15 376 1099 0 379 20 380 17 379 0 376 379 379
 0 27 11 0 0 -15 380 1100 0 381 20 0 17 381 0 380 381 381 0 100 28 0 0 -17 100 0
 265 100 100 0 381 28 0 0 +15 265 1081 0 100 17 76 17 27 0 261 27 27 0 379 11 0
 0 +15 261 1087 0 27 256 382 15 382 477 0 222 256 0 17 222 0 382 222 222 0 383 2
19 0 0 +17 383 0 384 383 383 0 222 219 0 0 -15 384 472 0 383 251 0 80 255 1 369
 0 385 8001 0 0 0 0 3 5 0 0 0 FFFFTFTFFFFFFF2 81 1 377 1112 33 20 0 374 99 386 3
87 83 255 3 378 .866666666666667 .3215686274509805 .156862745098039 80 1 33 388
 389 9000 0 0 0 0 3 6 0 0 0 FFTFTFTTFFFFFF1 81 1 99 1111 33 28 0 0 26 377 390 81
 1 386 1113 33 256 0 259 377 391 392 82 255 3 387 224 0 2 81 1 259 1142 369 256
 386 0 267 255 393 81 1 391 1114 33 17 0 263 386 0 394 82 3 392 224 1 2 81 1 263
 1118 369 17 391 0 0 354 395 82 3 394 224 2 2 81 1 354 1119 369 264 396 0 263 35
1 397 83 3 395 .866666666666667 .3215686274509805 .156862745098039 81 1 396 776
 33 264 0 354 398 399 400 81 1 351 1120 369 348 401 0 354 347 402 83 3 397 .8666
66666666667 .3215686274509805 .156862745098039 81 1 401 798 33 348 0 351 403 404
 405 81 1 347 1121 369 344 399 0 351 343 406 83 3 402 .866666666666667 .32156862
74509805 .156862745098039 81 1 399 777 33 344 0 347 396 407 408 81 1 343 1122 36
9 340 403 0 347 339 409 83 3 406 .866666666666667 .3215686274509805 .15686274509
8039 81 1 403 797 33 340 0 343 410 401 411 81 1 339 1123 369 336 410 0 343 335 4
12 83 3 409 .866666666666667 .3215686274509805 .156862745098039 81 1 410 796 33
 336 0 339 413 403 414 81 1 335 1124 369 332 413 0 339 331 415 83 3 412 .8666666
66666667 .3215686274509805 .156862745098039 81 1 413 795 33 332 0 335 416 410 41
7 81 1 331 1125 369 328 416 0 335 327 418 83 3 415 .866666666666667 .32156862745
09805 .156862745098039 81 1 416 794 33 328 0 331 419 413 420 81 1 327 1126 369 3
24 419 0 331 323 421 83 3 418 .866666666666667 .3215686274509805 .15686274509803
9 81 1 419 793 33 324 0 327 422 416 423 81 1 323 1127 369 320 422 0 327 319 424
 83 3 421 .866666666666667 .3215686274509805 .156862745098039 81 1 422 792 33 32
0 0 323 425 419 426 81 1 319 1128 369 316 425 0 323 315 427 83 3 424 .8666666666
66667 .3215686274509805 .156862745098039 81 1 425 791 33 316 0 319 428 422 429 8
1 1 315 1129 369 312 428 0 319 311 430 83 3 427 .866666666666667 .32156862745098
05 .156862745098039 81 1 428 790 33 312 0 315 431 425 432 81 1 311 1130 369 308
 431 0 315 307 433 83 3 430 .866666666666667 .3215686274509805 .156862745098039
 81 1 431 789 33 308 0 311 434 428 435 81 1 307 1131 369 304 434 0 311 303 436 8
3 3 433 .866666666666667 .3215686274509805 .156862745098039 81 1 434 788 33 304
 0 307 437 431 438 81 1 303 1132 369 300 437 0 307 299 439 83 3 436 .86666666666
6667 .3215686274509805 .156862745098039 81 1 437 787 33 300 0 303 440 434 441 81
 1 299 1133 369 296 440 0 303 295 442 83 3 439 .866666666666667 .321568627450980
5 .156862745098039 81 1 440 786 33 296 0 299 443 437 444 81 1 295 1134 369 292 4
43 0 299 291 445 83 3 442 .866666666666667 .3215686274509805 .156862745098039 81
 1 443 785 33 292 0 295 446 440 447 81 1 291 1135 369 288 446 0 295 287 448 83 3
 445 .866666666666667 .3215686274509805 .156862745098039 81 1 446 784 33 288 0 2
91 449 443 450 81 1 287 1136 369 284 449 0 291 283 451 83 3 448 .866666666666667
 .3215686274509805 .156862745098039 81 1 449 783 33 284 0 287 452 446 453 81 1 2
83 1137 369 280 452 0 287 279 454 83 3 451 .866666666666667 .3215686274509805 .1
56862745098039 81 1 452 782 33 280 0 283 455 449 456 81 1 279 1138 369 276 455 0
 283 275 457 83 3 454 .866666666666667 .3215686274509805 .156862745098039 81 1 4
55 781 33 276 0 279 458 452 459 81 1 275 1139 369 272 458 0 279 271 460 83 3 457
 .866666666666667 .3215686274509805 .156862745098039 81 1 458 780 33 272 0 275 4
61 455 462 81 1 271 1140 369 268 461 0 275 267 463 83 3 460 .866666666666667 .32
15686274509805 .156862745098039 81 1 461 779 33 268 0 271 407 458 464 81 1 267 1
141 369 260 407 0 271 259 465 83 3 463 .866666666666667 .3215686274509805 .15686
2745098039 81 1 407 778 33 260 0 267 399 461 466 83 3 465 .866666666666667 .3215
686274509805 .156862745098039 82 3 466 220 7 2 82 3 464 220 8 2 82 3 462 220 9 2
 82 3 459 220 10 2 82 3 456 220 11 2 82 3 453 220 12 2 82 3 450 220 13 2 82 3 44
7 220 14 2 82 3 444 220 15 2 82 3 441 220 16 2 82 3 438 220 17 2 82 3 435 220 18
 2 82 3 432 220 19 2 82 3 429 220 20 2 82 3 426 220 21 2 82 3 423 220 22 2 82 3
 420 220 23 2 82 3 417 220 24 2 82 3 414 220 25 2 82 3 411 220 26 2 82 3 408 220
 6 2 81 1 404 799 33 1 0 467 401 43 468 82 3 405 220 27 2 81 1 467 1115 469 1 40
4 14 0 0 470 81 1 43 1023 33 31 0 0 404 50 471 82 3 468 220 0 3 81 1 50 1024 33
 45 0 0 43 34 472 82 3 471 222 0 0 82 3 472 222 1 0 80 1 469 473 474 8038 0 0 0
 0 0 0 0 0 0 TTTTTTTTTTTTTF10 81 1 14 1116 473 1 467 2 0 0 475 98 255 14 470 72
 97 116 32 66 117 116 116 111 110 32 67 97 112 80 1 473 476 477 8017 0 0 0 0 0 0
 0 0 0 TTTTTTTTTTTTTF3 84 255 14 475 Hat Button Cap79 255 13 477 SDL/TYSA_NAME79
 14 474 SDL/TYSA_UNAME81 1 398 775 33 250 0 478 479 396 480 82 3 400 220 5 2 14
 250 463 478 ?85 246 481 6 247 +0 0 85 246 25 81 1 478 1145 369 250 398 0 249 36
3 482 81 1 479 772 33 246 0 249 483 398 484 82 3 480 220 4 2 81 1 249 1144 369 2
46 479 0 255 478 485 81 1 483 771 33 251 0 255 141 479 486 82 3 484 220 1 2 81 1
 255 1143 369 251 483 0 259 249 487 81 1 141 770 33 139 0 0 133 483 488 82 3 486
 220 0 2 81 1 133 769 33 81 0 0 137 141 489 82 3 488 220 26 1 81 1 137 768 33 13
5 0 0 145 133 490 82 3 489 220 25 1 81 1 145 767 33 143 0 0 149 137 491 82 3 490
 220 24 1 81 1 149 766 33 147 0 0 153 145 492 82 3 491 220 23 1 81 1 153 765 33
 151 0 0 157 149 493 82 3 492 220 22 1 81 1 157 764 33 155 0 0 161 153 494 82 3
 493 220 21 1 81 1 161 763 33 159 0 0 165 157 495 82 3 494 220 20 1 81 1 165 762
 33 163 0 0 169 161 496 82 3 495 220 19 1 81 1 169 761 33 167 0 0 173 165 497 82
 3 496 220 18 1 81 1 173 760 33 171 0 0 177 169 498 82 3 497 220 17 1 81 1 177 7
59 33 175 0 0 181 173 499 82 3 498 220 16 1 81 1 181 758 33 179 0 0 185 177 500
 82 3 499 220 15 1 81 1 185 757 33 183 0 0 189 181 501 82 3 500 220 14 1 81 1 18
9 756 33 187 0 0 193 185 502 82 3 501 220 13 1 81 1 193 755 33 191 0 0 197 189 5
03 82 3 502 220 12 1 81 1 197 754 33 195 0 0 201 193 504 82 3 503 220 11 1 81 1
 201 753 33 199 0 0 205 197 505 82 3 504 220 10 1 81 1 205 752 33 203 0 0 209 20
1 506 82 3 505 220 9 1 81 1 209 751 33 207 0 0 213 205 507 82 3 506 220 8 1 81 1
 213 750 33 211 0 0 217 209 508 82 3 507 220 7 1 81 1 217 749 33 215 0 0 232 213
 509 82 3 508 220 6 1 81 1 232 748 33 128 0 0 221 217 510 82 3 509 220 5 1 81 1
 221 746 33 219 0 0 225 232 511 82 3 510 220 4 1 81 1 225 745 33 223 0 0 229 221
 512 82 3 511 220 2 1 81 1 229 744 33 227 0 0 0 225 513 82 3 512 220 1 1 82 3 51
3 220 0 1 83 3 487 .866666666666667 .3215686274509805 .156862745098039 83 3 485
 .866666666666667 .3215686274509805 .156862745098039 81 1 363 1146 369 85 514 0
 478 366 515 83 3 482 .866666666666667 .3215686274509805 .156862745098039 81 1 5
14 1077 33 85 0 363 370 516 517 81 1 366 1147 369 364 518 0 363 367 519 83 3 515
 .866666666666667 .3215686274509805 .156862745098039 81 1 518 1075 33 364 0 366
 373 370 520 81 1 367 1148 369 121 516 0 366 368 521 83 3 519 .866666666666667 .
3215686274509805 .156862745098039 81 1 516 1078 33 121 0 367 514 26 522 83 3 521
 .866666666666667 .3215686274509805 .156862745098039 81 1 26 1110 33 11 0 0 516
 99 523 82 3 522 223 3 2 82 3 523 224 0 1 81 1 373 1044 33 118 0 371 114 518 524
 81 1 370 1076 33 75 0 368 518 514 525 82 3 520 223 0 2 82 3 525 223 1 2 81 1 11
4 1042 33 112 0 0 107 373 526 82 3 524 222 1 2 81 1 107 1041 33 89 0 0 115 114 5
27 82 3 526 222 11 1 82 3 527 222 10 1 82 3 517 223 2 2 15 481 740 0 233 250 528
 17 233 0 481 233 233 0 529 128 0 0 +15 528 462 0 530 250 0 17 530 0 528 530 530
 0 230 227 0 0 -17 230 0 252 230 230 0 530 227 0 0 +15 252 741 0 230 246 531 15
 531 467 0 532 246 0 17 532 0 531 532 532 0 226 223 0 0 -17 226 0 257 226 226 0
 532 223 0 0 +15 257 742 0 226 251 384 17 529 0 533 529 529 0 233 128 0 0 -15 53
3 600 0 529 264 0 83 3 393 .866666666666667 .3215686274509805 .156862745098039 8
2 3 390 224 1 1 79 9 389 BTI/DetId79 15 385 SDL/TYSA_COLOUR83 3 375 .86666666666
6667 .3215686274509805 .156862745098039 83 3 372 .866666666666667 .3215686274509
805 .156862745098039 15 123 932 0 58 364 0 15 355 743 0 134 264 533 17 134 0 355
 134 134 0 534 81 0 0 +17 534 0 352 534 534 0 134 81 0 0 -15 352 716 0 534 348 5
35 15 535 597 0 138 348 0 17 138 0 535 138 138 0 536 135 0 0 +17 536 0 537 536 5
36 0 138 135 0 0 -15 537 592 0 536 344 0 15 349 739 0 142 344 537 17 142 0 349 1
42 142 0 538 139 0 0 +17 538 0 345 538 538 0 142 139 0 0 -15 345 738 0 538 340 5
39 15 539 587 0 146 340 0 17 146 0 539 146 146 0 540 143 0 0 +17 540 0 341 540 5
40 0 146 143 0 0 -15 341 737 0 540 336 541 15 541 582 0 150 336 0 17 150 0 541 1
50 150 0 542 147 0 0 +17 542 0 337 542 542 0 150 147 0 0 -15 337 736 0 542 332 5
43 15 543 577 0 154 332 0 17 154 0 543 154 154 0 544 151 0 0 +17 544 0 333 544 5
44 0 154 151 0 0 -15 333 735 0 544 328 545 15 545 572 0 158 328 0 17 158 0 545 1
58 158 0 546 155 0 0 +17 546 0 329 546 546 0 158 155 0 0 -15 329 734 0 546 324 5
47 15 547 567 0 162 324 0 17 162 0 547 162 162 0 548 159 0 0 +17 548 0 325 548 5
48 0 162 159 0 0 -15 325 733 0 548 320 549 15 549 562 0 166 320 0 17 166 0 549 1
66 166 0 550 163 0 0 +17 550 0 321 550 550 0 166 163 0 0 -15 321 732 0 550 316 5
51 15 551 557 0 170 316 0 17 170 0 551 170 170 0 552 167 0 0 +17 552 0 317 552 5
52 0 170 167 0 0 -15 317 731 0 552 312 553 15 553 552 0 174 312 0 17 174 0 553 1
74 174 0 554 171 0 0 +17 554 0 313 554 554 0 174 171 0 0 -15 313 730 0 554 308 5
55 15 555 547 0 178 308 0 17 178 0 555 178 178 0 556 175 0 0 +17 556 0 309 556 5
56 0 178 175 0 0 -15 309 729 0 556 304 557 15 557 542 0 182 304 0 17 182 0 557 1
82 182 0 558 179 0 0 +17 558 0 305 558 558 0 182 179 0 0 -15 305 728 0 558 300 5
59 15 559 537 0 186 300 0 17 186 0 559 186 186 0 560 183 0 0 +17 560 0 301 560 5
60 0 186 183 0 0 -15 301 727 0 560 296 561 15 561 532 0 190 296 0 17 190 0 561 1
90 190 0 562 187 0 0 +17 562 0 297 562 562 0 190 187 0 0 -15 297 726 0 562 292 5
63 15 563 527 0 194 292 0 17 194 0 563 194 194 0 564 191 0 0 +17 564 0 293 564 5
64 0 194 191 0 0 -15 293 725 0 564 288 565 15 565 522 0 198 288 0 17 198 0 565 1
98 198 0 566 195 0 0 +17 566 0 289 566 566 0 198 195 0 0 -15 289 724 0 566 284 5
67 15 567 517 0 202 284 0 17 202 0 567 202 202 0 568 199 0 0 +17 568 0 285 568 5
68 0 202 199 0 0 -15 285 723 0 568 280 569 15 569 512 0 206 280 0 17 206 0 569 2
06 206 0 570 203 0 0 +17 570 0 281 570 570 0 206 203 0 0 -15 281 722 0 570 276 5
71 15 571 507 0 210 276 0 17 210 0 571 210 210 0 572 207 0 0 +17 572 0 277 572 5
72 0 210 207 0 0 -15 277 721 0 572 272 573 15 573 502 0 214 272 0 17 214 0 573 2
14 214 0 574 211 0 0 +17 574 0 273 574 574 0 214 211 0 0 -15 273 720 0 574 268 5
75 15 575 497 0 218 268 0 17 218 0 575 218 218 0 576 215 0 0 +17 576 0 269 576 5
76 0 218 215 0 0 -15 269 719 0 576 260 0 141 239 248 239 239 234 136 240 3 4 3 2
 5 FFF2 577 578 579 135 241 2 0 45 12 577 -.002062940087546815 -.179875402067965
5 .0010821758079591 -.00206886590166397 -.1797703148165505 .00108215631048045 -.
00207549118453123 -.179665434002175 .001082134511566628 -.002082802430965115 -.1
795607867088315 .001082110455653222 127 4 578 4 4 0 0 128 4 579 .211866121279330
5 .229685199698801 ??81 1 130 1038 33 41 0 0 90 110 580 81 1 90 1037 33 70 0 0 1
24 130 581 81 1 110 1039 33 108 0 0 130 115 582 82 3 580 222 7 1 82 3 582 222 8
 1 82 3 581 222 6 1 81 1 126 1035 33 125 0 0 97 124 583 17 87 0 123 51 119 31 55
 125 0 93 +17 51 0 123 58 87 45 93 94 0 120 -17 119 0 123 87 58 53 111 108 0 88
 -17 55 0 83 84 44 53 87 125 0 119 -81 1 97 1034 33 80 0 0 95 126 584 82 3 583 2
22 4 1 82 3 584 222 3 1 82 3 127 222 5 1 82 3 116 222 9 1 81 1 62 1031 33 94 0 0
 60 79 585 81 1 79 1032 33 74 0 0 62 95 586 82 3 585 222 0 1 82 3 586 222 1 1 82
 3 98 222 2 1 82 3 72 222 2 0 81 1 57 1028 33 56 0 0 35 61 587 82 3 68 222 6 0 8
1 1 35 1027 33 53 0 0 29 57 588 82 3 587 222 5 0 82 3 588 222 4 0 82 3 63 222 7
 0 82 3 36 222 3 0 19 18 394 0 1 0 10 6 S0 81 2 19 1106 589 7 0 0 0 0 590 591 80
 2 589 592 593 8044 0 0 0 0 3 5 0 0 0 FFFFTFFFTTFFFF3 2 84 6 590 BACAAB83 4 591
 -1919037845299345e-32 .002 .002 5e-4 79 17 593 SDL/TYSA_BLEND_ID74 4 CI16 index
_map_offset0 0 1 dCCZ20 16 6 0 0 391 19 467 14 2 374 0 0 0 0 0 0 0 0 0 0 0 0 0 0
 80 1 13 369 594 8040 0 0 0 0 3 5 0 0 0 TTTFFFFFFFFFFF2 83 3 15 .866666666666667
 .3215686274509805 .156862745098039 79 17 594 SDL/TYSA_COLOUR_21 0 
