**ABCDEFGHIJKLMNOPQRSTUVWXYZabcdefghijklmnopqrstuvwxyz**************************
**PARASOLID !"#$%&'()*+,-./:;<=>?@[\]^_`{|}~0123456789**************************
**PART1;
MC=unknown;
MC_MODEL=unknown;
MC_ID=unknown;
OS=unknown;
OS_RELEASE=unknown;
FRU=Parasolid 33.1.200;
APPL=Onshape;
SITE=unknown;
USER=unknown;
FORMAT=text;
GUISE=transmit;
KEY=BTGapi::writeModels_.xmt;
FILE=BTGapi::writeModels_.xmt;
DATE=2021-07-17T16:27:55 (UTC);
**PART2;
SCH=SCH_3301200_33103;
USFLD_SIZE=0;
**PART3;
**END_OF_HEADER*****************************************************************
T51 : TRANSMIT FILE created by modeller version 330120023 SCH_3301200_33103_1300
6230 0 12 35 CCCI7 lattice222 0 CCCI4 mesh1006 0 I8 polyline1008 0 CCCCCCCDI5 ow
ner1040 0 CCCCCCI13 boundary_mesh1006 0 I17 boundary_polyline1008 0 CCCA16 index
_map_offset0 0 1 dA9 index_map82 0 A17 node_id_index_map82 0 A20 schema_embeddin
g_map82 0 A5 child12 0 A14 lowest_node_id0 0 1 dA16 mesh_offset_data206 0 Z1 314
5 2 3 0 0 0 0 0 0 0 1e3 1e-8 0 4 5 1 0 1 1 6 7 8 9 0 0 10 11 12 0 0 0 0 0 0 0 81
 255 1 2 3125 13 1 14 0 0 0 15 70 11 CI9 list_type0 0 1 uI10 notransmit0 0 1 lCC
CDCCDI12 finger_index0 0 1 dI12 finger_block1012 0 CZ3 0 4 T1 0 0 7 20 1 16 16 1
3 255 6 9 0 1 0 17 0 0 18 0 52 255 7 2902 19 20 21 0 0 +-.00798557315675489 -.18
21861757486525 .001062688795787752 -.969109247487312 .2466112307221425 -.0031886
22945306975 .01085 .707106781186546 .707106781186549 -.2466124844188935 -.969114
174144998 0 31 255 8 3004 0 22 23 0 0 --.0090964490447004 -.186478237749271 .006
73579716284972 .969109247487313 -.2466112307221365 .0031886229453085 .2466124844
18888 .969114174144999 0 .00125 29 255 9 2817 0 24 25 0 -.01157569872041998 -.18
2196450067524 -.00624763902692232 19 8 CCCCCCCA5 owner12 0 Z10 1 0 1 18 0 26 V0
 16 255 11 2883 27 ?28 0 29 30 0 0 1 18 255 12 1543 31 32 0 33 34 ?1 81 1 31 197
0 35 12 0 0 36 37 38 17 255 32 0 39 40 41 12 42 43 0 44 +18 33 1504 45 46 12 47
 48 ?1 29 34 2815 0 12 49 25 -.0111792123255009 -.180449622814726 .0083506962578
8077 29 49 2814 0 50 51 34 -.00957461382069072 -.1742499777027215 .0001562063943
468685 29 25 2816 0 52 34 9 -.01318029722523016 -.1883960951795285 .001946850836
611575 18 52 1711 53 54 55 50 25 ?1 81 1 53 1968 35 52 0 0 56 36 57 17 54 0 58 5
9 60 52 61 62 0 63 +18 55 1718 64 65 66 52 67 ?1 18 50 1741 36 41 52 24 49 ?1 81
 1 36 1969 35 50 0 0 53 31 68 17 41 0 39 32 69 50 70 71 0 72 +18 24 1713 56 73 5
0 0 9 ?1 81 1 56 1967 35 24 0 0 64 53 74 17 73 0 75 72 76 24 77 78 0 59 +15 255
 75 1750 0 72 79 0 17 72 0 75 70 73 50 80 81 0 42 +17 76 0 75 73 70 82 83 84 0 8
5 -17 77 0 58 60 59 82 73 78 0 76 -16 78 1608 86 ?73 87 71 88 0 0 1 17 59 0 58 7
7 54 24 89 90 0 80 -15 58 1746 0 59 91 0 17 89 0 92 93 80 52 59 90 0 0 +16 90 16
99 94 ?89 81 95 96 0 0 1 17 80 0 92 89 42 24 72 81 0 0 -15 92 1541 0 80 97 98 17
 42 0 92 80 93 50 32 43 0 0 -16 81 1603 99 ?72 43 90 100 0 0 1 81 1 99 2008 35 8
1 0 0 101 102 103 16 43 1611 101 ?32 104 81 105 0 0 1 30 255 100 2818 0 81 106 1
05 0 +-.01057515627055534 -.1782232138851225 -.00304571631628769 .19241200958935
2 .764083881230981 .61575436742973 30 106 2059 0 107 108 100 0 +-.01199490099625
972 -.171498178253648 .00772917211326143 .969109247487313 -.2466112307221365 .00
3188622945308515 30 105 2819 0 43 100 109 0 +-.01037691307309582 -.1773498002587
24 .004253451326113905 -.15428831777021 -.596119722308122 .787931717647491 30 10
9 2820 0 104 105 96 0 +-.01217975477536552 -.184422858997127 .00514877354724619
 .192412009589352 .764083881230981 .61575436742973 16 104 1704 102 ?93 110 43 10
9 0 0 1 30 96 2821 0 90 109 111 0 +-.0123779979728251 -.185296272623526 -.002150
394095155285 -.15428831777021 -.596119722308122 .787931717647491 31 111 2822 0 8
7 96 112 0 +-.01137745552296042 -.181323036441125 .001051528615479204 .969109247
487313 -.2466112307221365 .0031886229453085 .246612484418888 .969114174144999 0
 .004 16 87 1237 113 ?114 115 78 111 0 0 1 31 112 2880 0 29 111 30 0 +-.00798557
315675488 -.1821861757486525 .001062688795787752 .969109247487313 -.246611230722
1365 .0031886229453085 .246612484418888 .969114174144999 0 .01085 16 29 2877 116
 ?117 11 118 112 0 0 1 31 30 2886 0 11 112 23 0 --.0089546824042422 -.1819395645
1793 .001059500172842446 .969109247487312 -.2466112307221425 .003188622945306975
 .2466124844188935 .969114174144998 0 .01185 31 23 2997 0 119 30 8 0 --.00687469
726880939 -.177894113748034 -.00461041957127413 .969109247487313 -.2466112307221
365 .0031886229453085 .246612484418888 .969114174144999 0 .00125 16 119 3072 120
 ?121 22 122 23 0 0 1 81 1 120 3118 35 119 0 0 123 124 125 17 121 0 126 121 121
 0 127 119 0 0 +16 22 3039 123 ?128 95 119 8 0 0 1 16 122 3034 129 ?130 119 131
 132 0 0 1 81 1 129 3115 35 122 0 0 133 134 135 17 130 0 136 130 130 0 137 122 0
 0 +16 131 3067 134 ?138 122 0 139 0 0 1 31 132 3109 0 122 0 139 0 +-.0144265499
0588054 -.185121875980299 .00671825973665052 -.969109247487313 .246611230722136
 -.00318862294530844 -.2466124844188875 -.969114174144999 0 .00125 31 139 3107 0
 131 132 140 0 +-.01220479812998954 -.176537751979062 -.00462795699747332 -.9691
09247487313 .246611230722136 -.00318862294530844 -.2466124844188875 -.9691141741
44999 0 .00125 31 140 2795 0 95 139 141 0 +-.0079855731567549 -.1821861757486525
 .001062688795787804 .969109247487313 -.2466112307221365 .003188622945308475 -.1
92412009589352 -.764083881230981 -.61575436742973 .004 16 95 2756 142 ?143 90 22
 140 0 0 1 30 141 1819 0 144 140 145 0 +-.0116141530477052 -.1740646486390145 .0
0713117784242985 -.1924120095893525 -.764083881230981 -.61575436742973 16 144 16
73 146 ?46 147 110 141 0 0 1 30 145 1818 0 147 141 148 0 +-.01177637794122024 -.
174717142929833 .00597118630902645 -.1542883177702095 -.596119722308122 .7879317
17647492 16 147 1647 149 ?150 151 144 145 0 0 1 30 148 1817 0 151 145 152 0 +-.0
1145986472993498 -.1734685289167065 .00634324612478235 -.1924120095893525 -.7640
83881230981 -.61575436742973 16 151 1657 153 ?154 155 147 148 0 0 1 30 152 1816
 0 155 148 156 0 +-.0143162164677997 -.184803050162082 -.002156771341046 -.15428
831777021 -.596119722308122 .787931717647491 16 155 1597 157 ?60 84 151 152 0 0
 1 30 156 1815 0 84 152 158 0 +-.01251337476552996 -.1777299914236785 -.00305209
356217834 .192412009589352 .764083881230981 .61575436742973 16 84 1678 159 ?83 1
60 155 156 0 0 1 30 158 1814 0 160 156 161 0 +-.01231513156807042 -.176856577797
2795 .004247074080223195 -.15428831777021 -.596119722308122 .787931717647491 16
 160 1681 162 ?163 164 84 158 0 0 1 30 161 1813 0 164 158 165 0 +-.0141179732703
4014 -.183929636535683 .00514239630135555 .192412009589352 .764083881230981 .615
75436742973 16 164 1667 166 ?167 168 160 161 0 0 1 30 165 1804 0 62 161 169 0 +-
.0151185157202048 -.187902872718084 .001940473590720955 .969109247487313 -.24661
12307221365 .003188622945308475 16 62 1600 170 ?54 171 172 165 0 0 1 30 169 1803
 0 171 165 173 0 +-.01311743082047552 -.179956400353282 .00834431901199015 .9691
09247487313 -.2466112307221365 .003188622945308475 16 171 1670 174 ?44 71 62 169
 0 0 1 30 173 1802 0 71 169 88 0 +-.01151283231566534 -.1737567552412775 .000149
8291484562514 .969109247487313 -.2466112307221365 .003188622945308475 16 71 1616
 175 ?41 78 171 173 0 0 1 30 88 1801 0 78 173 176 0 +-.0135139172153946 -.181703
2276060795 -.00625401627281294 .969109247487313 -.2466112307221365 .003188622945
308475 30 176 604 0 177 88 178 0 +-.0124289739774223 -.1732219176859845 .0063400
5750183703 -.1924120095893525 -.764083881230981 -.61575436742973 16 177 525 179
 ?180 181 182 176 0 0 1 30 178 603 0 181 176 183 0 +-.01274548718870754 -.174470
5316991105 .00596799768608113 -.1542883177702095 -.596119722308122 .787931717647
492 16 181 528 184 ?185 186 177 178 0 0 1 30 183 602 0 186 178 187 0 +-.01258326
22951925 -.1738180374082925 .00712798921948454 -.1924120095893525 -.764083881230
981 -.61575436742973 16 186 494 188 ?189 190 181 183 0 0 1 30 187 594 0 191 183
 192 0 +-.01282263134759266 -.174768591560265 .00636196354490488 .96910924748731
3 -.2466112307221365 .003188622945308475 16 191 497 193 ?194 195 190 187 0 0 1 3
0 192 593 0 195 187 196 0 +-.01266834302982244 -.1741724718379565 .0055740318272
5738 .969109247487313 -.2466112307221365 .003188622945308475 16 195 522 197 ?198
 107 191 192 0 0 1 30 196 1008 0 199 192 200 0 +-.0107419547249666 -.17428659874
66645 .00713404760308063 -.1924120095893525 -.764083881230981 -.61575436742973 1
6 199 491 201 ?202 182 115 196 0 0 1 30 200 1010 0 115 196 203 0 +-.010587666407
1964 -.1736904790243565 .00634611588543313 -.1924120095893525 -.764083881230981
 -.61575436742973 16 115 506 204 ?205 199 87 200 0 0 1 31 203 2049 0 206 200 207
 0 --.01244347569519646 -.1810517640873305 .001048021130239346 -.969109247487313
 .2466112307221365 -.003188622945308475 -.246612484418888 -.969114174144999 0 .0
1085 16 206 95 208 ?209 210 211 203 0 0 1 30 207 2050 0 168 203 212 0 +-.0101859
064323677 -.1724963695035875 .00732820492850441 .969109247487313 -.2466112307221
35 .003188622945306945 16 168 1622 213 ?214 172 164 207 0 0 1 31 212 2051 0 110
 207 215 0 --.01331567401793504 -.1808298139796805 .00104515136958857 -.96910924
7487313 .2466112307221365 -.003188622945308475 -.246612484418888 -.9691141741449
99 0 .01085 16 110 1619 216 ?217 144 104 212 0 0 1 30 215 2052 0 172 212 218 0 +
-.01130736577913024 -.172846371217635 .00811295440045251 .969109247487313 -.2466
11230722135 .003188622945306945 16 172 1637 219 ?220 62 168 215 0 0 1 31 218 205
3 0 118 215 221 0 --.0107475345120935 -.1814833337410945 .001053601220393632 .96
9109247487314 -.246611230722135 .003188622945306975 .2466124844188865 .969114174
145 0 .01085 16 118 84 222 ?223 29 210 218 0 0 1 31 221 2054 0 210 218 224 0 +-.
0107475345120935 -.1814833337410945 .00105360122039363 .969109247487314 -.246611
230722135 .003188622945306975 .2466124844188865 .969114174145 0 .01185 16 210 29
 37 ?225 118 206 221 0 0 1 30 224 2056 0 182 221 226 0 +-.01023073758491892 -.17
22647994531745 .00812919635568126 -.1542883177702095 -.596119722308122 .78793171
7647492 16 182 488 227 ?228 177 199 224 0 0 1 30 226 2057 0 211 224 108 0 +-.012
14918931402992 -.1720942979759565 .00851710383090893 .969109247487313 -.24661123
07221365 .00318862294530852 16 211 503 229 ?230 206 107 226 0 0 1 30 108 2058 0
 190 226 106 0 +-.01207204515514482 -.1717962381148025 .00812313797208517 -.1542
883177702095 -.596119722308122 .787931717647492 16 190 500 231 ?232 191 186 108
 0 0 1 81 1 231 1977 35 190 0 0 227 184 233 17 232 0 234 230 235 47 236 190 0 0
 +15 234 568 0 237 238 0 17 230 0 234 237 232 239 240 211 0 241 +17 235 0 234 23
2 237 242 243 107 0 244 -18 47 540 245 240 33 242 246 ?1 17 236 0 247 180 248 24
2 232 190 0 0 -15 247 580 0 248 249 0 17 180 0 247 185 236 250 244 177 0 251 +17
 248 0 247 236 185 47 189 186 0 232 -18 242 542 252 235 47 253 254 ?1 81 1 252 1
952 35 242 0 0 255 256 257 18 253 552 258 185 242 250 259 ?1 29 254 2047 0 242 2
46 51 -.01199490099625972 -.171498178253648 .00772917211326143 29 246 2046 0 47
 260 254 -.01214918931402992 -.1720942979759565 .00851710383090893 29 51 2048 0
 261 254 49 -.0101535934260338 -.1719667395920205 .00773523049685754 18 261 548
 255 243 239 262 51 ?1 81 1 255 1951 35 261 0 0 0 252 263 17 243 0 264 205 244 2
61 235 107 0 265 +18 239 544 256 230 250 261 260 ?1 18 262 1728 266 214 261 267
 268 ?1 81 1 266 1961 35 262 0 0 269 270 271 17 214 0 272 209 217 262 273 168 0
 205 +18 267 1717 270 220 262 274 275 ?1 29 268 2041 0 262 48 276 -.010280879138
62144 -.172472201602977 .0073278924434558 29 48 1508 0 33 259 268 -.011853522100
10534 -.175015202790987 .00636515216785021 29 276 2042 0 277 268 67 -.0111530774
6136004 -.172250251495327 .00732502268280499 18 277 1729 278 217 82 66 276 ?1 29
 67 2043 0 55 276 275 -.01130736577913024 -.172846371217635 .00811295440045251 2
9 275 2044 0 267 67 260 -.01043516745639166 -.173068321325285 .00811582416110328
 29 260 2045 0 239 275 246 -.01030788174380402 -.1725628593143285 .0085231622145
0503 81 1 278 1965 35 277 0 0 45 64 279 17 217 0 272 214 65 277 280 110 0 281 +1
8 82 1709 282 77 283 277 284 ?1 18 66 1724 285 286 277 55 287 ?1 81 1 285 1963 3
5 66 0 0 270 45 288 17 286 0 289 281 46 66 150 147 0 154 -29 287 1836 0 66 0 284
 -.01169923378233514 -.174419083068679 .00557722045020269 29 284 1834 0 82 287 2
90 -.0135139172153946 -.1817032276060795 -.00625401627281294 29 290 1833 0 283 2
84 291 -.01151283231566534 -.1737567552412775 .0001498291484562514 18 283 1715 2
92 69 293 82 290 ?1 29 291 1832 0 293 290 294 -.01311743082047552 -.179956400353
282 .00834431901199015 18 293 1739 269 163 274 283 291 ?1 29 294 1831 0 274 291
 295 -.0151185157202048 -.187902872718084 .001940473590720955 18 274 1733 296 61
 267 293 294 ?1 29 295 614 0 250 294 259 -.01266834302982244 -.1741724718379565
 .00557403182725738 18 250 550 297 180 253 239 295 ?1 29 259 613 0 253 295 48 -.
01282263134759266 -.174768591560265 .00636196354490488 81 1 297 1955 35 250 0 0
 245 258 298 80 255 1 35 299 300 9000 0 0 0 0 3 6 0 0 0 FFTFTFTTFFFFFF1 81 1 245
 1954 35 47 0 0 256 297 301 81 1 258 1956 35 253 0 0 297 282 302 82 255 3 298 16
9 4 0 81 1 282 1957 35 82 0 0 258 296 303 82 3 302 169 5 0 81 1 296 1958 35 274
 0 0 282 292 304 82 3 303 169 6 0 81 1 292 1959 35 283 0 0 296 269 305 82 3 304
 169 7 0 81 1 269 1960 35 293 0 0 292 266 306 82 3 305 169 8 0 82 3 306 169 9 0
 81 1 256 1953 35 239 0 0 252 245 307 82 3 301 169 3 0 82 3 307 169 2 0 79 255 9
 300 BTI/DetId17 61 0 308 167 63 274 54 62 0 60 -15 308 1774 0 63 309 0 17 167 0
 308 44 61 293 310 164 0 0 +17 63 0 308 61 44 52 93 104 0 89 -17 60 0 58 54 77 2
74 85 155 0 310 +17 85 0 311 83 310 82 60 155 0 0 -17 310 0 311 85 163 274 167 1
64 0 0 -15 311 1779 0 85 312 0 17 163 0 311 310 83 293 69 160 0 40 +17 83 0 311
 163 85 283 76 84 0 70 +17 69 0 39 41 40 283 163 160 0 83 -17 40 0 39 69 32 293
 44 171 0 167 -15 39 1754 0 32 313 0 17 44 0 308 63 167 12 40 171 0 93 +17 93 0
 92 42 89 12 63 104 0 0 +14 255 313 1751 314 ?309 79 39 6 315 -0 0 309 79 26 81
 1 314 3139 316 313 317 0 318 319 320 14 309 1771 319 ?312 313 308 6 321 +0 0 31
2 313 26 14 79 1747 318 ?313 91 75 6 322 -0 0 313 91 26 50 255 315 1793 0 313 32
1 322 0 +-.01231513156807042 -.1768565777972795 .004247074080223195 .19241200958
9352 .764083881230981 .61575436742973 .979192719671227 -.1082564449379364 -.1716
4544815481 13 26 7 0 0 0 0 0 0 10 17 14 17 25 323 ?97 0 324 6 325 -0 0 97 0 26 8
1 1 323 3126 316 17 133 0 0 326 327 14 97 103 326 ?328 17 92 6 21 -0 0 328 17 26
 15 324 2884 0 28 17 329 51 255 325 2040 0 17 330 21 0 --.00992185343323455 -.18
16934465096695 .00105631792714303 -.969109247487313 .246611230722135 -.003188622
945306945 .01185 .192412009589352 .764083881230981 .61575436742973 50 330 2039 0
 238 331 325 0 +-.01207204515514482 -.1717962381148025 .00812313797208517 .19241
20095893525 .764083881230982 .615754367429729 .979192719671227 -.108256444937936
6 -.17164544815481 50 21 2813 0 97 325 7 0 +-.01137745552296044 -.18132303644112
5 .001051528615479344 .969109247487313 -.2466112307221365 .0031886229453085 .192
4120095893515 .764083881230981 .61575436742973 14 238 565 332 ?333 334 234 6 330
 +0 0 333 334 26 51 331 2038 0 335 336 330 0 --.01234850298894272 -.181075931987
9415 .001048333615287986 .969109247487313 -.246611230722135 .003188622945306945
 .01085 -.192412009589352 -.764083881230981 -.61575436742973 14 335 111 337 ?338
 328 272 6 331 -0 0 338 328 26 50 336 992 0 339 340 331 0 +-.01218121795113214 -
.1800089293046735 .00199462543083405 -.969109247487313 .2466112307221365 -.00318
8622945308475 -.15428831777021 -.596119722308122 .787931717647491 14 339 581 341
 ?334 338 342 6 336 -0 0 334 338 26 50 340 983 0 328 343 336 0 +-.01244470600756
59 -.188040650686484 .00972085011451652 .969109247487314 -.246611230722135 .0031
88622945306975 .1924120095893515 .764083881230981 .61575436742973 14 328 14 344
 ?335 97 345 6 340 -0 0 335 97 26 51 343 409 0 338 346 340 0 +-.0341515228389123
5 -.1755276725191545 .000976595976264455 .969109247487313 -.2466112307221365 .00
31886229453085 .004 -.192412009589352 -.764083881230981 -.61575436742973 14 338
 394 347 ?339 335 348 6 343 -0 0 339 335 26 50 346 587 0 333 349 343 0 +-.012428
9739774223 -.1732219176859845 .00634005750183703 -.15428831777021 -.596119722308
122 .787931717647491 .985779950245799 -.03913694584100595 .1634202838194465 14 3
33 569 350 ?351 238 264 6 346 -0 0 351 238 26 50 349 588 0 351 352 346 0 +-.0127
4548718870754 -.1744705316991105 .00596799768608113 .1924120095893525 .764083881
230982 .615754367429729 .979192719671227 -.1082564449379366 -.17164544815481 14
 351 573 353 ?249 333 354 6 349 -0 0 249 333 26 50 352 589 0 334 355 349 0 +-.01
25832622951925 -.1738180374082925 .00712798921948454 -.15428831777021 -.59611972
2308123 .787931717647491 .985779950245799 -.039136945841006 .1634202838194465 14
 334 561 356 ?238 339 357 6 352 +0 0 238 339 26 50 355 592 0 249 358 352 0 +-.01
402252552135804 -.1795403679663015 .001988567047237945 -.969109247487313 .246611
2307221365 -.003188622945308475 -.15428831777021 -.596119722308122 .787931717647
491 14 249 577 359 ?91 351 247 6 355 +0 0 91 351 26 50 358 1791 0 91 322 355 0 +
-.0143162164677997 -.184803050162082 -.002156771341046 .192412009589352 .7640838
81230981 .61575436742973 .979192719671227 -.1082564449379364 -.17164544815481 14
 91 1743 360 ?79 249 58 6 358 +0 0 79 249 26 50 322 1792 0 79 315 358 0 +-.01251
337476552996 -.1777299914236785 -.00305209356217834 .15428831777021 .59611972230
8122 -.787931717647491 -.985779950245799 .03913694584100595 -.1634202838194465 8
1 1 360 3137 316 91 361 0 359 318 362 80 1 316 0 363 8001 0 0 0 0 3 5 0 0 0 FFFF
TFTFFFFFFF2 81 1 361 2025 35 91 0 360 364 317 365 81 1 359 3136 316 249 366 0 35
3 360 367 81 1 318 3138 316 79 368 0 360 314 369 83 255 3 362 .866666666666667 .
3215686274509805 .156862745098039 81 1 368 2028 35 79 0 318 317 370 371 83 3 369
 .866666666666667 .3215686274509805 .156862745098039 81 1 317 2027 35 313 0 314
 361 368 372 81 1 370 2029 35 309 0 319 368 373 374 82 3 371 169 16 2 81 1 319 3
140 316 309 370 0 314 375 376 81 1 373 2031 35 351 0 353 370 377 378 82 3 374 16
9 17 2 81 1 353 3135 316 351 373 0 350 359 379 81 1 377 2032 35 333 0 350 373 38
0 381 82 3 378 169 19 2 81 1 350 3134 316 333 377 0 332 353 382 81 1 380 2033 35
 334 0 356 377 383 384 82 3 381 169 20 2 81 1 356 3132 316 334 380 0 341 332 385
 81 1 383 2060 35 238 0 332 380 386 387 82 3 384 169 21 2 81 1 332 3133 316 238
 383 0 356 350 388 81 1 386 2062 35 335 0 337 383 142 389 82 3 387 170 0 2 81 1
 337 3129 316 335 386 0 344 347 390 81 1 142 2758 35 95 0 0 386 391 392 82 3 389
 170 2 2 81 1 391 2808 35 1 0 393 142 394 395 82 3 392 212 1 1 81 1 393 3123 396
 1 391 14 0 0 397 81 1 394 2809 35 338 0 347 391 398 399 82 3 395 169 0 3 81 1 3
47 3130 316 338 394 0 337 341 400 81 1 398 2823 35 97 0 326 394 116 401 82 3 399
 213 0 2 81 1 326 3127 316 97 398 0 323 344 402 81 1 116 2907 35 29 0 0 398 27 4
03 82 3 401 214 0 2 81 1 27 2908 35 11 0 0 116 404 405 82 3 403 221 0 1 81 1 404
 2909 35 20 0 406 27 133 407 82 3 405 221 1 1 14 20 2895 406 ?408 409 410 6 7 +0
 0 408 409 26 81 1 406 3143 316 20 404 0 411 412 413 81 1 133 2911 35 17 0 323 4
04 129 414 82 3 407 221 0 2 82 3 414 221 2 2 81 1 411 3142 316 409 415 0 375 406
 416 81 1 412 3144 316 408 417 0 406 418 419 83 3 413 .866666666666667 .32156862
74509805 .156862745098039 14 408 3091 412 ?420 20 421 6 422 +0 0 420 20 26 81 1
 417 3120 35 408 0 412 124 423 424 81 1 418 3145 316 420 124 0 412 0 425 83 3 41
9 .866666666666667 .3215686274509805 .156862745098039 14 420 3058 418 ?0 408 426
 6 427 +0 0 0 408 26 81 1 124 3119 35 420 0 418 120 417 428 83 3 425 .8666666666
66667 .3215686274509805 .156862745098039 82 3 428 2441 0 2 15 426 3061 0 429 420
 136 51 427 3105 0 420 0 422 0 --.00921706642947489 -.186447543994379 .006735400
30010004 -.969109247487313 .246611230722136 -.00318862294530844 .00125 -.2466124
844188875 -.969114174144999 0 51 422 3102 0 408 427 430 0 --.00699531465358388 -
.177863419993142 -.0046108164340238 -.969109247487313 .246611230722136 -.0031886
2294530844 .00125 -.2466124844188875 -.969114174144999 0 50 430 2792 0 409 422 4
31 0 +-.0079855731567549 -.1821861757486525 .001062688795787756 .969109247487313
 -.2466112307221365 .0031886229453085 .246609895848404 .969114493174936 .0008114
11071023399 14 409 2777 411 ?20 312 432 6 430 +0 0 20 312 26 50 431 1796 0 312 4
30 321 0 +-.01331567401793506 -.1808298139796805 .001045151369588604 -.969109247
487313 .2466112307221365 -.003188622945308475 -.15428831777021 -.596119722308122
 .787931717647491 14 312 1775 375 ?409 309 433 6 431 +0 0 409 309 26 50 321 1794
 0 309 431 315 0 +-.01411797327034014 -.183929636535683 .00514239630135555 .1542
8831777021 .596119722308122 -.787931717647491 -.985779950245799 .039136945841005
95 -.1634202838194465 81 1 375 3141 316 312 423 0 319 411 434 15 433 3016 0 137
 312 435 17 137 0 433 137 137 0 130 122 0 0 -15 435 3009 0 436 312 289 17 436 0
 435 436 436 0 138 131 0 0 -15 289 1778 0 280 312 311 17 280 0 289 46 281 55 217
 110 0 437 -17 46 0 289 286 280 33 437 144 0 150 +17 281 0 289 280 286 277 154 1
51 0 273 -17 437 0 357 220 194 55 46 144 0 0 -15 357 1535 0 220 334 0 17 220 0 3
57 241 437 267 65 172 0 209 +17 194 0 357 437 189 33 438 191 0 0 +17 189 0 357 1
94 240 253 248 186 0 0 +17 438 0 354 439 150 253 194 191 0 189 -15 354 576 0 198
 351 0 17 439 0 354 198 438 250 185 181 0 0 -17 150 0 354 438 198 33 286 147 0 1
94 +17 198 0 354 150 439 66 251 195 0 0 +17 251 0 264 244 154 250 198 195 0 439
 -15 264 572 0 205 333 0 17 244 0 264 243 251 242 180 177 0 236 -17 154 0 264 25
1 273 66 281 151 0 198 +17 273 0 264 154 205 277 214 168 0 0 -17 205 0 264 273 2
43 262 265 115 0 440 +17 265 0 342 228 440 261 205 115 0 237 -17 440 0 342 265 2
02 262 209 206 0 0 -15 342 560 0 440 339 0 17 202 0 342 440 228 267 241 199 0 0
 +17 209 0 272 65 214 267 440 206 0 202 +15 272 1858 0 209 335 441 17 65 0 272 2
17 209 55 220 172 0 280 -15 441 115 0 223 335 0 17 223 0 441 223 223 0 442 118 0
 0 +17 442 0 345 442 442 0 223 118 0 0 -15 345 86 0 442 328 443 15 443 19 0 444
 328 0 17 444 0 443 444 444 0 225 210 0 0 -17 225 0 329 225 225 0 444 210 0 0 +1
5 329 27 0 225 17 0 17 228 0 342 202 265 239 237 182 0 0 +17 241 0 357 240 220 2
39 202 199 0 228 -17 240 0 357 189 241 47 230 211 0 248 -17 237 0 234 235 230 26
1 228 182 0 0 -17 185 0 247 248 180 253 439 181 0 438 +17 138 0 445 138 138 0 43
6 131 0 0 +15 445 3095 0 138 408 0 81 1 423 3121 35 312 0 375 417 415 446 83 3 4
34 .866666666666667 .3215686274509805 .156862745098039 81 1 415 3122 35 409 0 41
1 423 0 447 82 3 446 2441 2 2 82 3 447 2441 3 2 15 432 3002 0 128 409 126 17 128
 0 432 128 128 0 429 22 0 0 +15 126 2995 0 121 409 448 15 448 2878 0 117 409 449
 17 117 0 448 117 117 0 450 29 0 0 +15 449 2781 0 451 409 0 17 451 0 449 451 451
 0 143 95 0 0 -17 143 0 452 143 143 0 451 95 0 0 +15 452 2775 0 143 338 0 17 450
 0 453 450 450 0 117 29 0 0 -15 453 2897 0 450 20 0 17 429 0 426 429 429 0 128 2
2 0 0 -15 136 3062 0 130 420 0 82 3 424 2441 1 2 15 421 3094 0 127 408 445 17 12
7 0 421 127 127 0 121 119 0 0 -83 3 416 .866666666666667 .3215686274509805 .1568
62745098039 15 410 2896 0 454 20 453 17 454 0 410 454 454 0 28 11 0 0 -17 28 0 3
24 28 28 0 454 11 0 0 +81 1 344 3128 316 328 455 0 326 337 456 83 3 402 .8666666
66666667 .3215686274509805 .156862745098039 81 1 455 2021 35 328 457 344 366 364
 458 83 3 456 .866666666666667 .3215686274509805 .156862745098039 81 1 457 16 45
9 328 0 455 0 460 461 81 1 366 2013 35 249 0 359 193 455 462 81 1 364 2023 35 33
9 0 341 455 361 463 82 3 458 169 9 2 81 1 341 3131 316 339 364 0 347 356 464 82
 3 463 169 11 2 83 3 464 .866666666666667 .3215686274509805 .156862745098039 81
 1 193 2011 35 191 0 0 197 366 465 82 3 462 169 1 2 81 1 197 2010 35 195 0 0 102
 193 466 82 3 465 169 40 1 81 1 102 2009 35 104 0 0 99 197 467 82 3 466 169 39 1
 82 3 467 169 38 1 80 1 459 468 469 9000 0 0 0 0 3 5 0 0 0 FFTFTFTTFFFFFF2 81 1
 460 31 459 210 0 37 457 0 470 83 1 461 826 81 1 37 1971 35 210 460 0 31 222 471
 83 1 470 681 81 1 222 1972 35 118 0 0 37 472 473 82 3 471 169 0 1 81 1 472 1974
 35 107 0 0 222 229 474 82 3 473 169 1 1 16 107 514 472 ?243 211 195 106 0 0 1 8
1 1 229 1975 35 211 0 0 472 227 475 82 3 474 169 3 1 81 1 227 1976 35 182 0 0 22
9 231 476 82 3 475 169 4 1 82 3 476 169 5 1 79 13 469 BTI/importTag83 3 400 .866
666666666667 .3215686274509805 .156862745098039 80 1 396 477 478 8038 0 0 0 0 0
 0 0 0 0 TTTTTTTTTTTTTF10 81 1 14 3124 477 1 393 2 0 0 479 98 255 15 397 72 97 1
16 32 66 117 116 116 111 110 32 66 97 115 101 80 1 477 480 481 8017 0 0 0 0 0 0
 0 0 0 TTTTTTTTTTTTTF3 84 255 15 479 Hat Button Base79 13 481 SDL/TYSA_NAME79 14
 478 SDL/TYSA_UNAME83 3 390 .866666666666667 .3215686274509805 .156862745098039
 83 3 388 .866666666666667 .3215686274509805 .156862745098039 83 3 385 .86666666
6666667 .3215686274509805 .156862745098039 83 3 382 .866666666666667 .3215686274
509805 .156862745098039 83 3 379 .866666666666667 .3215686274509805 .15686274509
8039 83 3 376 .866666666666667 .3215686274509805 .156862745098039 82 3 372 169 1
5 2 83 3 367 .866666666666667 .3215686274509805 .156862745098039 82 3 365 169 13
 2 79 15 363 SDL/TYSA_COLOUR15 348 1341 0 482 338 452 17 482 0 348 482 482 0 114
 87 0 0 -17 114 0 98 114 114 0 482 87 0 0 +15 98 1324 0 114 97 0 83 3 327 .86666
6666666667 .3215686274509805 .156862745098039 83 3 320 .866666666666667 .3215686
274509805 .156862745098039 17 70 0 75 76 72 283 41 71 0 0 -81 1 270 1962 35 267
 0 0 266 285 483 81 1 45 1964 35 33 0 0 285 278 484 82 3 288 169 12 0 82 3 484 1
69 13 0 82 3 483 169 11 0 81 1 64 1966 35 55 0 0 278 56 485 82 3 279 169 14 0 82
 3 485 169 15 0 82 3 271 169 10 0 82 3 263 169 0 0 82 3 257 169 1 0 81 1 184 197
8 35 181 0 0 231 179 486 82 3 233 169 6 1 81 1 179 1979 35 177 0 0 184 188 487 8
2 3 486 169 7 1 81 1 188 1980 35 186 0 0 179 208 488 82 3 487 169 8 1 81 1 208 1
981 35 206 0 0 188 204 489 82 3 488 169 9 1 81 1 204 1982 35 115 0 0 208 201 490
 82 3 489 169 10 1 81 1 201 1983 35 199 0 0 204 113 491 82 3 490 169 11 1 81 1 1
13 1991 35 87 0 0 201 86 492 82 3 491 169 12 1 81 1 86 1992 35 78 0 0 113 170 49
3 82 3 492 169 20 1 81 1 170 1993 35 62 0 0 86 175 494 82 3 493 169 21 1 81 1 17
5 1994 35 71 0 0 170 174 495 82 3 494 169 22 1 81 1 174 1995 35 171 0 0 175 157
 496 82 3 495 169 23 1 81 1 157 1996 35 155 0 0 174 162 497 82 3 496 169 24 1 81
 1 162 1997 35 160 0 0 157 159 498 82 3 497 169 25 1 81 1 159 1998 35 84 0 0 162
 166 499 82 3 498 169 26 1 81 1 166 1999 35 164 0 0 159 216 500 82 3 499 169 27
 1 81 1 216 2000 35 110 0 0 166 149 501 82 3 500 169 28 1 81 1 149 2001 35 147 0
 0 216 213 502 82 3 501 169 29 1 81 1 213 2002 35 168 0 0 149 153 503 82 3 502 1
69 30 1 81 1 153 2003 35 151 0 0 213 219 504 82 3 503 169 31 1 81 1 219 2004 35
 172 0 0 153 146 505 82 3 504 169 32 1 81 1 146 2005 35 144 0 0 219 94 506 82 3
 505 169 33 1 81 1 94 2006 35 90 0 0 146 101 507 82 3 506 169 34 1 81 1 101 2007
 35 43 0 0 94 99 508 82 3 507 169 35 1 82 3 508 169 36 1 81 1 134 3116 35 131 0
 0 129 123 509 81 1 123 3117 35 22 0 0 134 120 510 82 3 509 2441 1 1 82 3 510 24
41 2 1 82 3 135 2441 0 1 82 3 125 2441 3 1 82 3 103 169 37 1 82 3 74 169 16 0 82
 3 68 169 18 0 82 3 57 169 17 0 82 3 38 169 19 0 19 18 8 0 1 0 10 6 S0 81 2 19 2
903 511 7 0 0 0 0 512 513 80 2 511 514 515 8044 0 0 0 0 3 5 0 0 0 FFFFTFFFTTFFFF
3 2 84 6 512 BAAAAB83 3 513 628837260041593e-31 .001000000000000074 .001 79 17 5
15 SDL/TYSA_BLEND_ID74 4 CI16 index_map_offset0 0 1 dCCZ20 16 7 0 0 460 415 19 3
93 14 2 418 0 0 0 0 0 0 0 0 0 0 0 0 0 80 1 13 316 516 8040 0 0 0 0 3 5 0 0 0 TTT
FFFFFFFFFFF2 83 3 15 .866666666666667 .3215686274509805 .156862745098039 79 17 5
16 SDL/TYSA_COLOUR_21 0 
