**ABCDEFGHIJKLMNOPQRSTUVWXYZabcdefghijklmnopqrstuvwxyz**************************
**PARASOLID !"#$%&'()*+,-./:;<=>?@[\]^_`{|}~0123456789**************************
**PART1;
MC=unknown;
MC_MODEL=unknown;
MC_ID=unknown;
OS=unknown;
OS_RELEASE=unknown;
FRU=Parasolid 33.1.200;
APPL=Onshape;
SITE=unknown;
USER=unknown;
FORMAT=text;
GUISE=transmit;
KEY=BTGapi::writeModels_.xmt;
FILE=BTGapi::writeModels_.xmt;
DATE=2021-07-17T16:27:55 (UTC);
**PART2;
SCH=SCH_3301200_33103;
USFLD_SIZE=0;
**PART3;
**END_OF_HEADER*****************************************************************
T51 : TRANSMIT FILE created by modeller version 330120023 SCH_3301200_33103_1300
6230 0 12 35 CCCI7 lattice222 0 CCCI4 mesh1006 0 I8 polyline1008 0 CCCCCCCDI5 ow
ner1040 0 CCCCCCI13 boundary_mesh1006 0 I17 boundary_polyline1008 0 CCCA16 index
_map_offset0 0 1 dA9 index_map82 0 A17 node_id_index_map82 0 A20 schema_embeddin
g_map82 0 A5 child12 0 A14 lowest_node_id0 0 1 dA16 mesh_offset_data206 0 Z1 110
8 2 3 0 0 0 0 0 0 0 1e3 1e-8 0 4 5 1 0 1 1 6 7 8 9 0 0 10 11 12 0 0 0 0 0 0 0 81
 255 1 2 1092 13 1 14 0 0 0 15 70 11 CI9 list_type0 0 1 uI10 notransmit0 0 1 lCC
CDCCDI12 finger_index0 0 1 dI12 finger_block1012 0 CZ3 0 4 T1 0 0 6 20 1 16 16 1
3 255 6 55 0 1 0 17 0 0 18 0 50 255 7 1026 19 20 21 0 0 +-.00841148907428326 -.1
486445911359012 -.0202020043926285 .47604231880988 -.1568285683919385 -.86532566
7502269 -.2137630061562305 -.975094662210941 .0591250955752398 30 255 8 1034 0 2
2 23 0 0 +-.00970959664861299 -.1450246271145522 -.02157220287324155 .8199260419
27065 .4349211758290425 .372243007436406 29 255 9 980 0 24 25 0 -.01283532311804
59 -.1517247388210585 -.02779755457618125 19 8 CCCCCCCA5 owner12 0 Z10 54 0 1 18
 0 26 V0 16 255 11 971 27 ?28 0 29 30 0 0 1 18 255 12 963 31 28 0 32 25 ?1 81 1
 31 1067 33 12 0 0 34 35 36 17 255 28 0 37 38 39 12 40 11 0 41 +18 32 956 34 38
 12 42 43 ?1 29 25 979 0 12 43 9 -.0109692454311955 -.1517247388210585 -.0210508
699039412 29 43 978 0 32 44 25 -.00947290438810189 -.1448990761855816 -.02146474
557296785 29 44 977 0 42 45 43 -.01133898207495228 -.1448990761855816 -.02821143
024520795 18 42 953 46 47 32 24 44 ?1 29 45 940 0 48 49 44 -.01000849931043122 -
.1437691178248464 -.03013575083084765 18 48 938 35 50 24 51 45 ?1 29 49 936 0 51
 52 45 -.00734267404350211 -.1437691178248464 -.0204976298705047 18 51 934 53 54
 48 55 49 ?1 29 52 932 0 55 56 49 -.01214612937199352 -.153520064446956 -.029544
49987509525 18 55 930 57 58 51 59 52 ?1 29 56 929 0 59 60 52 -.00948030410506441
 -.153520064446956 -.0199063789147523 18 59 927 61 62 55 63 56 ?1 29 60 906 0 64
 65 56 -.01193467524395372 -.1498964363294126 -.0261012664503205 18 64 380 66 67
 68 69 60 ?1 29 65 905 0 69 70 60 -.01106828203220174 -.1498964363294126 -.02296
887713820905 18 69 374 71 72 64 73 65 ?1 29 70 904 0 74 75 65 -.010373552262194
 -.146727378677227 -.02316103369882855 18 74 394 76 77 63 68 70 ?1 29 75 903 0 6
8 78 70 -.01123994547394596 -.146727378677227 -.02629342301094005 18 68 402 79 8
0 74 64 75 ?1 29 78 902 0 63 81 75 -.00795061736818512 -.1475036404865832 -.0272
032242067994 18 63 113 82 83 59 74 78 ?1 29 81 901 0 84 85 78 -.0070842241564331
6 -.1475036404865832 -.02407083489468795 18 84 668 86 87 73 88 81 ?1 29 85 900 0
 73 89 81 -.00777895392644092 -.150672698138769 -.0238786783340684 18 73 667 90
 91 69 84 85 ?1 29 89 899 0 88 0 85 -.00864534713819289 -.150672698138769 -.0270
110676461799 18 88 666 92 93 84 0 89 ?1 81 1 92 735 33 88 0 0 86 82 94 17 93 0 9
5 91 83 88 96 97 0 98 -15 255 95 680 0 91 99 0 17 91 0 95 87 93 73 100 101 0 102
 -17 83 0 95 93 87 63 103 104 0 105 +17 96 0 106 80 98 63 93 97 0 0 +16 97 93 10
7 ?96 108 104 109 0 0 1 17 98 0 106 96 110 88 67 111 0 100 +15 106 143 0 96 112
 0 17 110 0 106 98 80 64 113 114 0 115 -17 67 0 116 117 100 64 98 111 0 110 -16
 111 135 118 ?98 119 108 120 0 0 1 17 100 0 116 67 102 88 91 101 0 0 +15 116 149
 0 100 17 0 17 102 0 116 100 117 73 72 121 0 122 +16 101 105 123 ?100 124 125 12
6 0 0 1 81 1 123 739 33 101 0 0 107 127 128 16 124 101 129 ?87 104 101 130 0 0 1
 16 125 336 131 ?132 101 114 133 0 0 1 30 126 912 0 101 109 130 0 +-.00961170879
745469 -.150672698138769 -.0305048864943042 -.2665825266929125 -1472827921629484
e-31 -.963812096034296 30 109 911 0 97 134 126 0 +-.00829798225318903 -.14908816
9312676 -.02710714592648965 .213763006156233 .975094662210941 -.059125095575241
 30 130 913 0 124 126 135 0 +-.00743158904143706 -.149088169312676 -.02397475661
43782 .213763006156233 .975094662210941 -.059125095575241 30 135 914 0 104 130 1
36 0 +-.00891697902744693 -.1475036404865832 -.03069704305492375 -.2665825266929
12 -117961196366423e-30 -.963812096034296 16 104 97 127 ?83 97 124 135 0 0 1 30
 136 915 0 114 135 133 0 +-.01158731035894984 -.14831190750332 -.026197344730630
25 .2137630061562305 .975094662210942 -.0591250955752403 16 114 351 137 ?113 125
 138 136 0 0 1 30 133 916 0 125 136 139 0 +-.01080674886806998 -.146727378677227
 -.0247272283548843 -.266582526692913 1248458312347702e-32 -.963812096034296 30
 139 917 0 140 133 141 0 +-.01072091714719786 -.14831190750332 -.023064955418518
8 .2137630061562305 .975094662210942 -.0591250955752403 16 140 286 142 ?143 138
 144 139 0 0 1 30 141 918 0 138 139 145 0 +-.01150147863807774 -.149896436329412
6 -.02453507179426475 -.266582526692913 -2914878029996635e-32 -.963812096034296
 16 138 348 146 ?115 114 140 141 0 0 1 30 145 933 0 147 141 148 0 +-.01161296431
86077 -.153520064446956 -.0276168756830267 -.266582526692913 1248458312347702e-3
2 -.963812096034296 16 147 931 149 ?58 150 121 145 0 0 1 30 148 937 0 150 145 15
1 0 +-.00841148907428326 -.1486445911359012 -.0202020043926285 -.213763006156230
5 -.975094662210942 .0591250955752398 16 150 935 152 ?62 153 147 148 0 0 1 30 15
1 941 0 153 148 154 0 +-.00867558667696667 -.1437691178248464 -.0253166903506762
 .266582526692913 220370708994999e-31 .963812096034296 16 153 939 155 ?54 156 15
0 151 0 0 1 30 154 944 0 156 151 157 0 +-.0104360253227437 -.1457193071492684 -.
0300175006396972 .2137630061562305 .975094662210942 -.0591250955752404 16 156 94
2 158 ?159 160 153 154 0 0 1 30 157 981 0 160 154 161 0 --.0120871525964991 -.14
831190750332 -.0280044924106946 .2137630061562305 .975094662210941 -.05912509557
52404 16 160 950 162 ?39 163 156 157 0 0 1 30 161 982 0 163 157 164 0 +-.0104059
4323152708 -.1448990761855816 -.0248380879090879 -.2665825266929125 253158330988
119e-31 -.963812096034296 16 163 962 165 ?47 29 160 161 0 0 1 30 164 983 0 29 16
1 30 0 +-.0102210749096487 -.14831190750332 -.0212578077384545 .2137630061562305
 .975094662210942 -.0591250955752399 16 29 969 166 ?38 11 163 164 0 0 1 30 30 98
4 0 11 164 167 0 --.0119022842746207 -.1517247388210585 -.0244242122400612 -.266
582526692913 392523114670943e-31 -.963812096034296 30 167 1037 0 168 30 169 0 +-
.01352451686409824 -.1499294131951608 -.0260506092772672 -.2652707965380915 .691
021155596661 .672399559058378 16 168 1017 170 ?171 172 0 167 0 0 1 30 169 1036 0
 172 167 23 0 --.01266946483947332 -.146029034546317 -.02628710965956815 -.51210
3054832257 -.434921175829043 .740671338750834 16 172 1015 173 ?50 174 168 169 0
 0 1 30 23 1035 0 174 169 8 0 +-.01113468335632118 -.1515252581959585 -.02117803
55694066 -.573093783632899 .691021155596661 -.440514787128859 16 174 1012 175 ?1
76 22 172 23 0 0 1 81 1 175 1080 33 174 0 0 177 152 178 17 176 0 179 40 180 12 1
81 174 0 0 +16 22 1009 177 ?182 183 174 8 0 0 1 81 1 177 1079 33 22 0 0 158 175
 184 17 182 0 185 186 187 51 188 22 0 0 +16 183 841 189 ?190 191 22 192 0 0 1 81
 1 189 882 33 183 0 0 127 193 194 17 190 0 195 190 190 0 196 183 0 0 +16 191 838
 193 ?197 198 183 199 0 0 1 31 255 192 823 0 183 200 201 0 --.00739411350759411
 -.1491992451296952 -.0256711353268143 -.939808030217381 .2217890883874385 .2599
431988169645 .266582526692912 0 .963812096034296 .001250000000000024 31 200 710
 0 202 203 192 0 +-.00598516958687829 -.149531747489451 -.02606083766806785 -.93
9808030217381 .2217890883874385 .2599431988169645 .266582526692912 0 .9638120960
34296 .0085 31 201 890 0 108 192 204 0 +-.0097444017077478 -.1486445911359012 -.
0250210648728 .939808030217381 -.221789088387436 -.259943198816965 -.26658252669
29125 0 -.963812096034296 .0095 16 108 28 205 ?206 111 97 201 0 0 1 31 204 891 0
 144 201 207 0 --.00598516958687828 -.149531747489451 -.02606083766806785 .93980
8030217381 -.2217890883874385 -.2599431988169645 -.266582526692912 0 -.963812096
034296 .0095 16 144 657 208 ?209 140 202 204 0 0 1 30 207 907 0 119 204 120 0 +-
.00983023342861989 -.1470600623098082 -.0266833378091655 .939808030217381 -.2217
89088387436 -.259943198816965 16 119 136 210 ?105 211 111 207 0 0 1 30 120 908 0
 111 207 212 0 +-.01052496319862764 -.150229119961994 -.02649118124854595 .93980
8030217381 -.221789088387436 -.259943198816965 30 212 909 0 121 120 134 0 +-.009
65856998687567 -.150229119961994 -.0233587919364345 .939808030217381 -.221789088
387436 -.259943198816965 16 121 138 213 ?102 147 211 212 0 0 1 30 134 910 0 211
 212 109 0 +-.00896384021686792 -.1470600623098082 -.023550948497054 .9398080302
17381 -.221789088387436 -.259943198816965 16 211 137 214 ?215 121 119 134 0 0 1
 81 1 214 544 33 211 0 0 213 118 216 17 215 0 217 122 143 84 77 211 0 103 +15 21
7 147 0 122 218 0 17 122 0 217 72 215 73 87 124 0 0 -17 143 0 217 215 72 74 219
 140 0 220 +17 77 0 221 132 103 74 215 211 0 143 -17 103 0 221 77 105 84 83 104
 0 0 -15 221 145 0 103 222 0 17 105 0 221 103 132 63 80 119 0 96 +17 132 0 221 1
05 77 68 220 125 0 0 +17 80 0 106 110 96 68 105 119 0 113 -17 113 0 223 220 115
 68 110 114 0 132 +15 223 442 0 219 224 0 17 220 0 223 219 113 74 132 125 0 0 -1
7 115 0 223 113 219 64 117 138 0 0 +17 219 0 223 115 220 69 143 140 0 0 -17 117
 0 116 102 67 69 115 138 0 219 -14 255 224 438 225 ?99 226 37 6 227 +0 0 99 226
 26 81 1 225 1099 228 224 229 0 230 231 232 14 99 677 231 ?233 224 234 6 235 -0
 0 233 224 26 14 226 1 230 ?224 236 237 6 238 -0 0 224 236 26 15 37 964 0 39 224
 223 50 227 459 0 224 235 238 0 +-.0111541137530739 -.14831190750332 -.024631150
07457455 -.939808030217381 .221789088387436 .259943198816965 -.2137630061562305
 -.975094662210942 .0591250955752404 13 26 160 0 0 0 0 0 0 10 17 14 17 150 239 ?
218 0 116 6 240 -0 0 218 0 26 81 1 239 1093 228 17 241 0 0 242 243 14 218 148 24
2 ?222 17 217 6 244 +0 0 222 17 26 50 240 896 0 17 245 244 0 +-.0100917665927516
6 -.150229119961994 -.0249249865924902 -.2137630061562305 -.975094662210942 .059
1250955752405 .976803500517336 -.2141376225166375 0 50 245 895 0 112 246 240 0 +
-.01017759831362376 -.148644591135901 -.0265872595288557 -.2665825266929125 1423
015351387224e-31 -.963812096034296 -.963812096034296 0 .2665825266929125 50 244
 897 0 218 240 247 0 +-.0093112051018718 -.148644591135901 -.02345487021674425 -
.2665825266929125 1423015351387224e-31 -.963812096034296 -.963812096034296 0 .26
65825266929125 50 247 898 0 222 244 248 0 +-.00939703682274391 -.147060062309808
2 -.02511714315310975 -.2137630061562305 -.975094662210942 .0591250955752404 .97
6803500517336 -.2141376225166375 0 14 222 146 249 ?112 218 221 6 247 +0 0 112 21
8 26 50 248 1032 250 251 247 252 0 --.01242376534826132 -.1482010129591262 -.027
39261476326895 -.853046943550684 .1568285683919385 -.497710470288672 .2137630061
562305 .975094662210942 -.0591250955752404 81 2 250 1033 253 248 0 0 254 0 255 2
56 14 251 1002 257 ?0 258 259 6 248 -0 0 0 258 26 50 252 1030 254 258 248 21 0 -
-.01226530678665128 -.151126296945759 -.02432380318844035 -.815697902400173 -.53
2667479556226 .225615354626354 -.2665825266929125 1387778780781446e-32 -.9638120
96034296 81 2 254 1031 253 252 0 0 260 250 261 262 14 258 1000 263 ?251 264 179
 6 252 -0 0 251 264 26 50 21 1028 260 264 252 7 0 +-.00867558667696667 -.1437691
178248464 -.0253166903506762 .513391359960386 -.846324616340104 -.14199984258724
26 .2665825266929125 345216540229769e-31 .963812096034296 81 2 260 1029 253 21 0
 0 19 254 265 266 14 264 998 267 ?258 20 185 6 21 -0 0 258 20 26 81 1 267 1106 2
28 264 268 0 269 263 270 14 20 996 269 ?264 271 272 6 7 -0 0 264 271 26 15 185 9
99 0 182 264 0 81 1 269 1105 228 20 273 0 274 267 275 14 271 860 274 ?20 276 195
 6 277 -0 0 20 276 26 15 272 997 0 181 20 0 17 181 0 272 278 41 59 176 174 0 180
 -17 278 0 272 188 181 51 62 150 0 182 -17 41 0 272 181 188 12 38 29 0 176 -17 1
80 0 179 176 279 59 58 147 0 0 -15 179 1001 0 176 258 0 17 279 0 179 180 40 55 1
71 168 0 0 -17 58 0 237 159 62 55 180 147 0 280 +15 237 928 0 58 226 281 17 159
 0 237 54 58 48 280 156 0 0 +17 62 0 237 58 54 59 278 150 0 181 +17 280 0 259 17
1 50 55 159 156 0 279 -15 259 1003 0 50 251 0 17 171 0 259 282 280 24 279 168 0
 40 +17 50 0 259 280 282 48 283 172 0 186 +17 282 0 259 50 171 42 39 160 0 0 -17
 283 0 185 187 186 42 50 172 0 282 -17 186 0 185 283 182 48 54 153 0 159 -17 54
 0 237 62 159 51 186 153 0 278 +17 187 0 185 182 283 32 47 163 0 0 -17 47 0 37 3
9 38 42 187 163 0 283 +17 39 0 37 28 47 24 282 160 0 0 +17 38 0 37 47 28 32 41 2
9 0 188 +17 188 0 272 41 278 32 182 22 0 187 -18 24 949 284 171 42 48 9 ?1 81 1
 284 1065 33 24 0 0 46 34 285 80 255 1 33 286 287 9000 0 0 0 0 3 6 0 0 0 FFTFTFT
TFFFFFF1 81 1 46 1064 33 42 0 0 288 284 289 81 1 34 1066 33 32 0 0 284 31 290 82
 255 3 285 102 1 0 82 3 290 102 2 0 81 1 288 922 33 222 0 249 241 46 291 82 3 28
9 102 0 0 81 1 249 1095 228 222 288 0 242 292 293 81 1 241 921 33 17 0 239 294 2
88 295 82 3 291 101 3 2 81 1 294 920 33 112 0 292 296 241 297 82 3 295 101 2 2 1
4 112 144 292 ?236 222 106 6 245 -0 0 236 222 26 81 1 292 1096 228 112 294 0 249
 298 299 81 1 296 919 33 218 0 242 300 294 301 82 3 297 101 1 2 81 1 242 1094 22
8 218 296 0 239 249 302 81 1 300 892 33 236 0 298 303 296 304 82 3 301 101 0 2 1
4 236 140 298 ?226 112 305 6 246 +0 0 226 112 26 81 1 298 1097 228 236 300 0 292
 230 306 81 1 303 886 33 99 0 231 307 300 308 82 3 304 100 0 2 81 1 231 1100 228
 99 303 0 225 309 310 81 1 307 885 33 276 0 311 312 303 313 82 3 308 97 2 2 14 2
76 696 311 ?271 314 315 6 316 +0 0 271 314 26 81 1 311 1103 228 276 307 0 317 27
4 318 81 1 312 884 33 271 0 274 193 307 319 82 3 313 97 1 2 81 1 274 1104 228 27
1 312 0 311 269 320 81 1 193 883 33 191 0 0 189 312 321 82 3 319 97 0 2 82 3 321
 97 1 1 80 1 228 0 322 8001 0 0 0 0 3 5 0 0 0 FFFFTFTFFFFFFF2 83 255 3 320 .8666
66666666667 .3215686274509805 .156862745098039 79 255 15 322 SDL/TYSA_COLOUR81 1
 317 1102 228 314 323 0 309 311 324 83 3 318 .866666666666667 .3215686274509805
 .156862745098039 14 314 691 317 ?276 233 325 6 326 +0 0 276 233 26 81 1 323 693
 33 314 0 317 327 328 329 81 1 309 1101 228 233 327 0 231 317 330 83 3 324 .8666
66666666667 .3215686274509805 .156862745098039 14 233 686 309 ?314 99 331 6 332
 +0 0 314 99 26 81 1 327 688 33 233 0 309 333 323 334 83 3 330 .866666666666667
 .3215686274509805 .156862745098039 81 1 333 665 33 198 0 0 335 327 336 82 3 334
 92 2 2 16 198 663 333 ?337 202 191 203 0 0 1 81 1 335 662 33 202 0 0 208 333 33
8 82 3 336 92 3 1 16 202 660 335 ?339 144 198 200 0 0 1 81 1 208 659 33 144 0 0
 210 335 340 82 3 338 92 2 1 81 1 210 546 33 119 0 0 118 208 341 82 3 340 92 1 1
 81 1 118 545 33 111 0 0 214 210 342 82 3 341 86 7 1 82 3 342 86 6 1 17 339 0 33
1 339 339 0 343 202 0 0 +15 331 689 0 339 233 344 17 343 0 345 343 343 0 339 202
 0 0 -15 345 695 0 343 314 0 15 344 690 0 346 233 0 17 346 0 344 346 346 0 209 1
44 0 0 -17 209 0 347 209 209 0 346 144 0 0 +15 347 684 0 209 236 0 17 337 0 325
 337 337 0 348 198 0 0 +31 203 711 0 198 349 200 0 +-.00645507360198698 -.149420
8529452572 -.02593086606865935 -.939808030217381 .2217890883874385 .259943198816
9645 .266582526692912 0 .963812096034296 .0085 134 255 349 712 0 1 199 203 350 +
351 352 31 199 878 0 191 0 349 0 +-.00786478564731306 -.149088169312676 -.025540
9512704339 .939808030217381 -.2217890883874385 -.2599431988169645 -.266582526692
912 0 -.963812096034296 .001250000000000012 141 255 350 316 350 350 349 136 255
 351 3 4 3 2 5 FFF2 353 354 355 135 255 352 2 0 45 255 12 353 -.0087210250788767
4 -.1494208529452572 -.0341232688849509 -.00869814809555804 -.1491990638568698 -
.03038279951576775 -.00869814809555804 -.1491990638568698 -.03038279951576775 -.
00739488163220436 -.1491990638568698 -.0256709228698424 127 255 4 354 4 4 0 0 12
8 255 4 355 0 1 ??68 255 316 707 0 276 277 326 0 +349 -.0076298336397587 -.14914
3616584773 -.02560593707013815 -.939808030217381 .2217890883874385 .259943198816
9645 ?-.00739488163220436 -.1491990638568698 -.0256709228698424 ?1 -.26658252669
2912 0 -.963812096034296 0 51 255 277 875 0 271 0 316 0 +-.02948037034231285 -.1
43987020279765 -.01956225769764375 .939808030217381 -.2217890883874385 -.2599431
988169645 .001250000000000012 -.266582526692912 0 -.963812096034296 51 326 706 0
 314 316 332 0 --.0076298336397587 -.149143616584773 -.02560593707013815 -.93980
8030217381 .2217890883874385 .2599431988169645 .0085 .266582526692912 0 .9638120
96034296 50 332 705 0 233 326 235 0 +-.00851770359046096 -.149531747489451 -.035
21705258039365 .939808030217381 -.2217890883874385 -.2599431988169645 -.26658252
6692912 0 -.963812096034296 50 235 703 0 99 332 227 0 +-.00926434391245084 -.149
088169312676 -.03060096477461395 .939808030217381 -.2217890883874385 -.259943198
8169645 -.266582526692912 0 -.963812096034296 15 325 694 0 337 314 345 17 348 0
 356 348 348 0 337 198 0 0 -15 356 700 0 348 276 0 81 1 328 732 33 1 0 357 323 9
0 358 82 3 329 92 3 2 81 1 357 1090 359 1 328 14 0 0 360 81 1 90 733 33 73 0 0 3
28 86 361 82 3 358 82 0 3 81 1 86 734 33 84 0 0 90 92 362 82 3 361 93 0 0 82 3 3
62 93 1 0 80 1 359 363 364 8038 0 0 0 0 0 0 0 0 0 TTTTTTTTTTTTTF10 81 1 14 1091
 363 1 357 2 0 0 365 98 255 16 360 82 111 117 110 100 32 66 117 116 116 111 110
 32 67 97 112 80 1 363 366 367 8017 0 0 0 0 0 0 0 0 0 TTTTTTTTTTTTTF3 84 255 16
 365 Round Button Cap79 13 367 SDL/TYSA_NAME79 14 364 SDL/TYSA_UNAME15 315 822 0
 196 276 356 17 196 0 315 196 196 0 190 183 0 0 -83 3 310 .866666666666667 .3215
686274509805 .156862745098039 81 1 230 1098 228 226 368 0 298 225 369 83 3 306 .
866666666666667 .3215686274509805 .156862745098039 81 1 368 1089 33 226 0 230 22
9 0 370 83 3 369 .866666666666667 .3215686274509805 .156862745098039 81 1 229 10
88 33 224 0 225 371 368 372 82 3 370 102 5 2 81 1 371 1087 33 258 0 263 268 229
 373 82 3 372 102 4 2 81 1 263 1107 228 258 371 0 267 257 374 81 1 268 1086 33 2
64 0 267 273 371 375 82 3 373 102 3 2 81 1 273 1085 33 20 0 269 376 268 377 82 3
 375 102 2 2 81 1 376 1084 33 251 0 257 149 273 378 82 3 377 102 1 2 81 1 257 11
08 228 251 376 0 263 0 379 81 1 149 1083 33 147 0 0 155 376 380 82 3 378 102 0 2
 81 1 155 1082 33 153 0 0 152 149 381 82 3 380 102 11 1 81 1 152 1081 33 150 0 0
 175 155 382 82 3 381 102 10 1 82 3 382 102 9 1 83 3 379 .866666666666667 .32156
86274509805 .156862745098039 83 3 374 .866666666666667 .3215686274509805 .156862
745098039 15 305 139 0 206 236 347 51 246 889 0 236 238 245 0 +-.009744401707747
8 -.1486445911359012 -.0250210648728 .939808030217381 -.221789088387436 -.259943
198816965 .0095 -.266582526692913 0 -.963812096034296 50 238 3 0 226 227 246 0 +
-.00974440170774782 -.1486445911359012 -.0250210648728 .939808030217381 -.221789
088387436 -.259943198816965 .2137630061562305 .975094662210942 -.059125095575240
4 17 206 0 305 206 206 0 383 108 0 0 +17 383 0 281 383 383 0 206 108 0 0 -15 281
 7 0 383 226 0 83 3 302 .866666666666667 .3215686274509805 .156862745098039 83 3
 299 .866666666666667 .3215686274509805 .156862745098039 83 3 293 .8666666666666
67 .3215686274509805 .156862745098039 79 9 287 BTI/DetId17 40 0 179 279 176 24 2
8 11 0 39 -15 195 853 0 190 271 384 15 384 854 0 385 271 0 17 385 0 384 385 385
 0 197 191 0 0 -17 197 0 234 197 197 0 385 191 0 0 +15 234 828 0 197 99 95 83 3
 275 .866666666666667 .3215686274509805 .156862745098039 83 3 270 .8666666666666
67 .3215686274509805 .156862745098039 80 2 253 386 387 8044 0 0 0 0 3 5 0 0 0 FF
FFTFFFTTFFFF3 2 81 2 19 1027 253 7 0 0 0 260 388 389 84 6 265 BAAAAB83 3 266 0 .
002828427124782705 .002 84 6 388 BAAAAB83 3 389 -7105427357601e-27 .002828427124
740075 .002 79 17 387 SDL/TYSA_BLEND_ID84 6 261 BAAAAB83 3 262 0 .00282842712471
165 .002 84 6 255 BAAAAB83 3 256 -7105427357601e-27 .00282842712475784 .002 83 3
 243 .866666666666667 .3215686274509805 .156862745098039 83 3 232 .8666666666666
67 .3215686274509805 .156862745098039 17 72 0 217 143 122 69 102 121 0 117 -17 8
7 0 95 83 91 84 122 124 0 215 +81 1 213 543 33 121 0 0 79 214 390 82 3 216 86 5
 1 81 1 79 403 33 68 0 0 76 213 391 82 3 390 86 4 1 81 1 76 395 33 74 0 0 66 79
 392 82 3 391 85 7 0 81 1 66 381 33 64 0 0 71 76 393 82 3 392 85 3 0 81 1 71 375
 33 69 0 0 137 66 394 82 3 393 85 5 0 81 1 137 353 33 114 0 0 146 71 395 82 3 39
4 85 1 0 81 1 146 350 33 138 0 0 131 137 396 82 3 395 85 19 1 81 1 131 338 33 12
5 0 0 142 146 397 82 3 396 85 21 1 81 1 142 288 33 140 0 0 205 131 398 82 3 397
 85 23 1 81 1 205 190 33 108 0 0 0 142 399 82 3 398 85 17 1 82 3 399 82 5 1 81 1
 127 740 33 104 0 0 123 189 400 82 3 194 97 0 1 82 3 400 93 3 1 81 1 158 1078 33
 156 0 0 170 177 401 82 3 184 102 7 1 81 1 170 1077 33 168 0 0 173 158 402 82 3
 401 102 6 1 81 1 173 1076 33 172 0 0 27 170 403 82 3 402 102 5 1 81 1 27 1075 3
3 11 0 0 165 173 404 82 3 403 102 4 1 81 1 165 1074 33 163 0 0 166 27 405 82 3 4
04 102 3 1 81 1 166 1073 33 29 0 0 162 165 406 82 3 405 102 2 1 81 1 162 1072 33
 160 0 0 61 166 407 82 3 406 102 1 1 81 1 61 1071 33 59 0 0 53 162 408 82 3 407
 102 0 1 81 1 53 1070 33 51 0 0 57 61 409 82 3 408 102 7 0 81 1 57 1069 33 55 0
 0 35 53 410 82 3 409 102 6 0 81 1 35 1068 33 48 0 0 31 57 411 82 3 410 102 5 0
 82 3 411 102 4 0 82 3 178 102 8 1 81 1 129 737 33 124 0 0 82 107 412 81 1 82 73
6 33 63 0 0 92 129 413 81 1 107 738 33 97 0 0 129 123 414 82 3 412 93 0 1 82 3 4
14 93 1 1 82 3 413 93 3 0 82 3 128 93 2 1 82 3 94 93 2 0 82 3 36 102 3 0 19 18 1
61 0 1 0 10 6 S0 74 4 CI16 index_map_offset0 0 1 dCCZ20 16 6 0 0 368 250 357 14
 2 257 0 0 0 0 0 0 0 0 0 0 0 0 0 0 80 1 13 228 415 8040 0 0 0 0 3 5 0 0 0 TTTFFF
FFFFFFFF2 83 3 15 .866666666666667 .3215686274509805 .156862745098039 79 17 415
 SDL/TYSA_COLOUR_21 0 
