**ABCDEFGHIJKLMNOPQRSTUVWXYZabcdefghijklmnopqrstuvwxyz**************************
**PARASOLID !"#$%&'()*+,-./:;<=>?@[\]^_`{|}~0123456789**************************
**PART1;
MC=unknown;
MC_MODEL=unknown;
MC_ID=unknown;
OS=unknown;
OS_RELEASE=unknown;
FRU=Parasolid 33.1.200;
APPL=Onshape;
SITE=unknown;
USER=unknown;
FORMAT=text;
GUISE=transmit;
KEY=BTGapi::writeModels_.xmt;
FILE=BTGapi::writeModels_.xmt;
DATE=2021-07-17T16:27:55 (UTC);
**PART2;
SCH=SCH_3301200_33103;
USFLD_SIZE=0;
**PART3;
**END_OF_HEADER*****************************************************************
T51 : TRANSMIT FILE created by modeller version 330120023 SCH_3301200_33103_1300
6230 0 12 35 CCCI7 lattice222 0 CCCI4 mesh1006 0 I8 polyline1008 0 CCCCCCCDI5 ow
ner1040 0 CCCCCCI13 boundary_mesh1006 0 I17 boundary_polyline1008 0 CCCA16 index
_map_offset0 0 1 dA9 index_map82 0 A17 node_id_index_map82 0 A20 schema_embeddin
g_map82 0 A5 child12 0 A14 lowest_node_id0 0 1 dA16 mesh_offset_data206 0 Z1 919
 2 3 0 0 0 0 0 0 0 1e3 1e-8 0 4 5 1 0 1 1 6 7 8 9 0 0 10 11 12 0 0 0 0 0 0 0 81
 255 1 2 899 13 1 14 0 0 0 15 70 11 CI9 list_type0 0 1 uI10 notransmit0 0 1 lCCC
DCCDI12 finger_index0 0 1 dI12 finger_block1012 0 CZ3 0 4 T1 0 0 6 20 1 16 16 13
 255 6 9 0 1 0 17 0 0 18 0 50 255 7 455 0 19 20 0 0 +-.01906635731052905 -.17322
6951935913 -.0235302627958513 -.962161611446911 .222215808772459 .15768692967232
5 -.2192903259842085 -.974997504782244 .0359390956777962 30 255 8 475 0 21 22 0
 0 --.0175143343319658 -.1727838963452765 -.0159529513716544 .962161611446911 -.
222215808772459 -.157686929672325 29 255 9 469 0 23 24 0 -.0175143343319658 -.17
27838963452765 -.0159529513716544 19 8 CCCCCCCA5 owner12 0 Z10 1 0 1 18 0 25 V0
 16 255 11 809 26 ?27 0 21 28 0 0 1 18 255 12 460 29 30 0 31 32 ?1 81 1 29 479 3
3 12 0 0 34 35 36 17 255 30 0 37 38 39 12 40 41 0 42 +18 31 456 43 44 12 45 46 ?
1 29 32 467 0 12 47 24 -.01770676665425515 -.172739453183522 -.01592141398571995
 29 47 466 0 48 49 32 -.0176050591027973 -.172739453183522 -.015300822908131 29
 24 468 0 50 32 9 -.01773362465795 -.1737588938500585 -.0159170122759766 18 50 2
55 34 51 45 23 24 ?1 81 1 34 478 33 50 0 0 43 29 52 17 51 0 53 54 44 50 55 56 0
 57 -18 45 263 58 59 31 50 60 ?1 18 23 253 35 38 50 61 9 ?1 81 1 35 480 33 23 0
 0 29 62 63 17 38 0 37 64 30 23 65 21 0 66 -18 61 345 67 68 23 69 70 ?1 81 1 67
 346 33 61 0 0 71 72 73 17 68 0 74 75 76 61 77 78 0 79 +18 69 335 80 81 61 82 83
 ?1 29 70 432 0 61 83 46 -.01938828144591915 -.1723394647277315 -.01533019656287
215 29 83 431 0 69 60 70 -.01960757177190335 -.173314462232514 -.015294257467194
35 29 46 464 0 31 70 49 -.0179260569802394 -.173714450688304 -.01588547489004215
 29 49 465 0 84 46 47 -.0178243494287815 -.173714450688304 -.0152648838124532 18
 84 339 85 86 48 87 49 ?1 81 1 85 340 33 84 0 0 88 71 89 17 86 0 90 91 77 84 81
 92 0 93 +18 48 337 88 91 94 84 47 ?1 18 87 341 95 96 84 0 97 ?1 81 1 95 418 33
 87 0 0 58 98 99 17 96 0 100 66 59 87 101 102 0 64 +29 97 403 0 87 103 60 -.0178
921150814345 -.1727838963452765 -.018258064011223 29 103 406 0 82 104 97 -.02003
572863031255 -.173314462232514 -.01790675105620055 29 60 265 0 45 97 83 -.018111
4054074187 -.1737588938500585 -.0182221249155452 18 82 343 71 105 69 94 103 ?1 2
9 104 407 0 94 0 103 -.0198164383043283 -.1723394647277315 -.01794269015187835 1
8 94 347 72 75 82 48 104 ?1 81 1 72 348 33 94 0 0 67 106 107 17 75 0 74 108 68 9
4 109 110 0 111 +15 255 74 373 0 76 112 0 17 108 0 74 76 75 82 113 114 0 115 -17
 109 0 37 39 111 61 75 110 0 0 -16 110 326 116 ?75 114 117 118 0 0 1 17 111 0 37
 109 64 94 119 120 0 113 -15 37 365 0 30 121 0 17 64 0 37 111 38 87 66 122 0 119
 +17 119 0 123 101 113 87 111 120 0 0 +16 120 320 124 ?119 125 126 127 0 0 1 17
 113 0 123 119 105 94 108 114 0 0 +15 123 369 0 101 128 0 17 105 0 123 113 101 8
2 129 126 0 108 -16 114 317 130 ?113 78 110 131 0 0 1 81 1 130 319 33 114 0 0 13
2 124 133 16 78 323 134 ?68 126 114 135 0 0 1 30 131 395 0 114 118 136 0 +-.0199
2608346732045 -.1728269634801225 -.01792472060403945 .219290325984208 .974997504
782244 -.0359390956777976 30 118 396 0 110 137 131 0 +-.0195738424070585 -.17233
94647277315 -.0164624377306245 -.1617305981798825 -1171868259840704e-31 -.986834
947502559 30 136 393 0 138 131 139 0 +-.0178688095101489 -.1737588938500585 -.01
67418724942914 -.1617305981798825 -1295222813508146e-31 -.986834947502559 16 138
 266 140 ?59 56 122 136 0 0 1 30 139 392 0 122 136 141 0 +-.0176495191841647 -.1
727838963452765 -.0167778115899692 -.1617305981798825 -1171868259840704e-31 -.98
6834947502559 16 122 261 142 ?64 138 143 139 0 0 1 30 141 391 0 102 139 144 0 +-
.0180017602444266 -.1732713950976675 -.0182400944633841 .219290325984208 .974997
504782244 -.0359390956777976 16 102 289 145 ?96 146 41 141 0 0 1 30 144 387 0 12
6 141 127 0 +-.02003572863031255 -.173314462232514 -.01790675105620055 .96216161
1446911 -.222215808772459 -.157686929672325 16 126 297 147 ?129 120 78 144 0 0 1
 30 127 386 0 120 144 148 0 +-.0198164383043283 -.1723394647277315 -.01794269015
187835 .962161611446911 -.222215808772459 -.157686929672325 30 148 435 0 92 127
 135 0 --.0198019506635491 -.1732708617734865 -.0152974593216766 -.9756284382505
57 .218839851320996 -.01607077940186365 16 92 303 149 ?86 150 125 148 0 0 1 30 1
35 436 0 78 148 151 0 --.0194979266089111 -.172826963480122 -.01531222701503325
 -.219290325984208 -.974997504782244 .03593909567779705 30 151 437 0 125 135 152
 0 --.0195826603375649 -.1722958642687045 -.0153333984173544 -.975628438250557 .
218839851320996 -.01607077940186365 16 125 314 132 ?39 92 120 151 0 0 1 31 255 1
52 446 0 153 151 154 0 +-.0176097667154255 -.173604718810826 -.0248910520166593
 .962161611446911 -.222215808772459 -.157686929672325 .2250311383542995 .9743515
72468053 0 .00985 16 153 29 155 ?156 143 157 152 0 0 1 31 154 449 0 150 152 158
 0 +-.0190530091325958 -.1732713950976675 -.02465452162215075 .962161611446911 -
.222215808772459 -.157686929672325 .2250311383542995 .974351572468053 0 .00885 1
6 150 256 159 ?54 157 92 154 0 0 1 31 158 450 0 143 154 160 0 --.017609766715425
5 -.173604718810826 -.02489105201665925 .962161611446911 -.222215808772459 -.157
686929672325 .2250311383542995 .974351572468053 0 .00885 16 143 160 161 ?162 122
 153 158 0 0 1 31 160 470 0 157 158 163 0 --.0192454414548852 -.173226951935913
 -.0246229842362163 -.962161611446911 .222215808772459 .157686929672325 -.225031
1383542995 -.974351572468053 0 .00885 16 157 178 98 ?44 153 150 160 0 0 1 30 163
 471 0 164 160 165 0 +-.01806124183243825 -.173714450688304 -.0167103351083569 -
.1617305981798825 -118905852248607e-30 -.986834947502559 16 164 329 166 ?167 41
 168 163 0 0 1 30 165 472 0 146 163 169 0 --.01771470426578925 -.173226951935912
5 -.01528285336029215 -.219290325984208 -.974997504782244 .03593909567779705 16
 146 300 170 ?91 117 102 165 0 0 1 30 169 473 0 41 165 22 0 +-.01784195150645405
 -.172739453183522 -.0167462742040347 -.1617305981798825 -1050280644407924e-31 -
.986834947502559 16 41 306 171 ?30 102 164 169 0 0 1 30 22 474 0 56 169 8 0 --.0
1773362465795 -.1737588938500585 -.0159170122759766 .962161611446911 -.222215808
772459 -.157686929672325 16 56 458 62 ?55 21 138 22 0 0 1 81 1 62 481 33 56 0 0
 35 172 173 17 55 0 174 175 176 31 51 56 0 0 +16 21 462 172 ?65 11 56 8 0 0 1 81
 1 172 482 33 21 0 0 62 177 178 17 65 0 53 44 54 12 38 21 0 0 +15 53 202 0 44 17
9 180 17 44 0 53 51 65 31 42 157 0 167 +17 54 0 53 65 51 23 57 150 0 0 +17 57 0
 100 59 66 50 54 150 0 176 -15 100 193 0 57 181 0 17 59 0 100 96 57 45 176 138 0
 129 +17 66 0 100 57 96 23 64 122 0 54 -17 176 0 174 55 129 50 59 138 0 0 -15 17
4 357 0 175 182 0 17 129 0 174 176 115 45 105 126 0 101 +17 115 0 174 129 81 82
 76 117 0 0 +17 101 0 123 105 119 45 96 102 0 0 -17 81 0 174 115 175 69 86 92 0
 77 -17 76 0 74 68 108 69 115 117 0 0 -16 117 294 183 ?115 110 146 137 0 0 1 81
 1 183 296 33 117 0 0 184 147 185 30 137 397 0 117 186 118 0 +-.0197931327330427
 -.173314462232514 -.01642649863494675 -.1617305981798825 -1295222813508146e-31
 -.986834947502559 31 186 608 0 168 187 137 0 +-.01472328188108478 -.17427136623
71435 -.02536411280567625 .962161611446911 -.222215808772459 -.157686929672325 .
2250311383542995 .974351572468053 0 .00985 16 168 572 188 ?189 164 190 186 0 0 1
 31 187 609 0 190 191 186 0 +-.0147232818810848 -.1742713662371435 -.02536411280
56762 .962161611446911 -.222215808772459 -.157686929672325 .2250311383542995 .97
4351572468053 0 .003575 16 190 564 177 ?192 168 193 187 0 0 1 31 191 735 0 194 1
95 187 0 +-.01905300913259585 -.1732713950976675 -.02465452162215075 -.962161611
446911 .222215808772459 .157686929672325 -.2250311383542995 -.974351572468053 0
 .005 16 194 704 196 ?197 198 199 191 0 0 1 31 195 737 0 193 200 191 0 +-.017128
685909702 -.1737158267152125 -.0249698954814954 -.962161611446911 .2222158087724
59 .157686929672325 -.2250311383542995 -.974351572468053 0 .005 16 193 696 201 ?
202 190 198 195 0 0 1 31 200 738 0 198 203 195 0 +-.017128685909702 -.1737158267
152125 -.0249698954814954 -.962161611446911 .222215808772459 .157686929672325 -.
2250311383542995 -.974351572468053 0 .003575 16 198 699 204 ?205 193 194 200 0 0
 1 31 203 881 0 199 206 200 0 +-.01424220107536138 -.1743824741415295 -.02544295
627051245 -.962161611446911 .222215808772463 .157686929672322 -.2250311383543035
 -.974351572468052 0 .0069 16 199 821 207 ?208 194 209 203 0 0 1 31 206 882 0 20
9 28 203 0 +-.01424220107536138 -.1743824741415295 -.02544295627051245 -.9621616
11446911 .222215808772463 .157686929672322 -.2250311383543035 -.974351572468052
 0 .004149999999999955 16 209 824 210 ?211 199 212 206 0 0 1 31 28 883 0 11 213
 206 0 +-.01472328188108484 -.1742713662371435 -.0253641128056763 -.962161611446
911 .222215808772463 .157686929672322 -.2250311383543035 -.974351572468052 0 .00
4149999999999955 31 213 884 0 212 214 28 0 +-.01472328188108484 -.17427136623714
35 -.0253641128056763 -.962161611446911 .222215808772463 .157686929672322 -.2250
311383543035 -.974351572468052 0 .0077 16 212 832 215 ?216 209 217 213 0 0 1 31
 214 885 0 217 218 213 0 +-.00846923140667992 -.1757157689941645 -.0263890778485
464 -.962161611446911 .222215808772463 .157686929672322 -.2250311383543035 -.974
351572468052 0 .0077 16 217 837 219 ?220 212 221 214 0 0 1 31 218 886 0 221 0 21
4 0 +-.00846923140667992 -.1757157689941645 -.0263890778485464 -.962161611446911
 .222215808772463 .157686929672322 -.2250311383543035 -.974351572468052 0 .0069
 16 221 840 222 ?223 217 0 218 0 0 1 81 1 222 842 33 221 0 0 219 224 225 17 223
 0 226 223 223 0 227 221 0 0 +15 226 872 0 223 228 0 17 227 0 229 227 227 0 223
 221 0 0 -15 229 846 0 227 230 231 14 255 230 843 232 ?233 234 229 6 235 -0 0 23
3 234 25 15 231 847 0 208 230 0 17 208 0 231 208 208 0 236 199 0 0 +17 236 0 237
 236 236 0 208 199 0 0 -15 237 851 0 236 233 238 14 233 848 239 ?240 230 237 6 2
41 -0 0 240 230 25 15 238 852 0 211 233 0 17 211 0 238 211 211 0 242 209 0 0 +17
 242 0 243 242 242 0 211 209 0 0 -15 243 857 0 242 240 0 14 240 853 244 ?245 233
 246 6 247 +0 0 245 233 25 81 1 244 917 248 240 249 0 239 250 251 14 245 863 250
 ?228 240 252 6 253 -0 0 228 240 25 15 246 856 0 27 240 243 51 255 247 877 0 240
 253 241 0 --.00293680214086015 -.176993509894606 -.02729577769416225 -.96216161
1446911 .222215808772463 .157686929672322 .004149999999999955 -.2250311383543035
 -.974351572468052 0 13 25 7 0 0 0 0 0 0 10 17 14 17 812 254 ?255 0 256 6 257 +2
58 258 255 0 25 81 1 254 900 248 17 259 0 0 260 261 14 255 125 260 ?262 17 263 6
 264 -0 0 262 17 25 15 256 593 0 265 17 266 50 257 605 0 258 267 268 0 +-.014723
28188108468 -.174271366237143 -.02536411280567625 .962161611446911 -.22221580877
2459 -.157686929672325 .225031138354299 .974351572468053 0 14 258 590 269 ?270 1
9 271 6 257 +17 17 270 19 25 81 1 269 912 248 258 272 0 273 274 275 14 270 714 2
74 ?234 258 276 6 267 -0 0 234 258 25 14 19 374 273 ?258 112 277 6 7 -0 0 258 11
2 25 15 271 804 0 216 258 278 17 216 0 271 216 216 0 279 212 0 0 +15 278 594 0 1
89 258 0 17 189 0 278 189 189 0 280 168 0 0 +17 280 0 281 280 280 0 189 168 0 0
 -15 281 588 0 280 282 0 14 282 25 283 ?181 262 284 6 285 -0 0 181 262 25 81 1 2
83 903 248 282 286 0 287 288 289 14 181 189 288 ?179 282 290 6 291 -0 0 179 282
 25 14 262 14 287 ?282 255 292 6 293 -0 0 282 255 25 15 284 27 0 156 282 281 51
 285 442 0 282 294 20 0 --.0166456807807557 -.173827379051216 -.0250490543201909
5 -.962161611446911 .222215808772459 .157686929672325 .00985 -.2250311383542995
 -.974351572468053 0 50 294 438 0 295 293 285 0 --.01751656844988685 -.173271395
097667 -.01527958962087645 -.00780406346198279 .03858737024212145 .9992247552234
08 0 -.999255184709094 .0385885453469458 51 20 443 0 179 285 7 0 --.019054933455
8187 -.17327095066605 -.0246542062482914 .962161611446911 -.222215808772459 -.15
7686929672325 .00885 .2250311383542995 .974351572468053 0 14 179 199 296 ?182 18
1 53 6 20 -0 0 182 181 25 81 1 296 905 248 179 297 0 288 298 299 14 182 354 298
 ?295 179 174 6 300 +0 0 295 179 25 81 1 298 906 248 182 106 0 296 301 302 14 29
5 358 301 ?121 182 90 6 294 -0 0 121 182 25 50 300 380 0 182 303 291 0 +-.019793
1327330427 -.173314462232514 -.01642649863494675 -.2192903259842085 -.9749975047
82244 .0359390956777963 .97562777785748 -.2194320830527645 0 50 303 381 0 121 30
4 300 0 +-.0195738424070585 -.1723394647277315 -.0164624377306245 -.219290325984
2085 -.974997504782244 .0359390956777963 .97562777785748 -.2194320830527645 0 50
 291 211 0 181 300 264 0 +-.0190530091325957 -.173271395097667 -.024654521622150
7 .962161611446911 -.222215808772459 -.157686929672325 .225031138354299 .9743515
72468053 0 51 264 140 0 255 291 293 0 +.00500103115357697 -.178826790316979 -.02
85966948639589 -.962161611446911 .222215808772459 .157686929672325 .003575 -.225
0311383542995 -.974351572468053 0 50 293 41 0 262 264 294 0 +-.0196930248122754
 -.182867195106257 -.0245496306077202 .962161611446911 -.222215808772459 -.15768
6929672325 .2250311383543 .974351572468053 0 14 121 362 305 ?128 295 37 6 303 -0
 0 128 295 25 50 304 382 0 128 268 303 0 +-.01992608346732045 -.1728269634801225
 -.01792472060403945 -.161730598179883 -1423015351387224e-30 -.986834947502559 -
.986834947502558 0 .1617305981798825 14 128 366 306 ?112 121 123 6 304 +0 0 112
 121 25 50 268 385 0 112 257 304 0 +-.0207982482111335 -.1728269634801225 -.0232
464263224411 -.962161611446911 .222215808772459 .157686929672325 -.2192903259842
085 -.974997504782244 .0359390956777962 14 112 370 307 ?19 128 74 6 268 +0 0 19
 128 25 81 1 307 910 248 112 308 0 306 273 309 80 255 1 248 0 310 8001 0 0 0 0 3
 5 0 0 0 FFFFTFTFFFFFFF2 81 1 308 372 33 112 0 307 311 58 312 81 1 306 909 248 1
28 311 0 305 307 313 81 1 273 911 248 19 314 0 307 269 315 83 255 3 309 .8666666
66666667 .3215686274509805 .156862745098039 81 1 314 476 33 19 0 273 297 43 316
 83 3 315 .866666666666667 .3215686274509805 .156862745098039 80 1 33 317 318 90
00 0 0 0 0 3 6 0 0 0 FFTFTFTTFFFFFF1 81 1 297 452 33 179 0 296 319 314 320 81 1
 43 477 33 31 0 0 314 34 321 82 255 3 316 41 0 2 82 3 321 41 0 0 81 1 319 439 33
 295 0 301 171 297 322 82 3 320 40 1 2 81 1 301 907 248 295 319 0 298 305 323 81
 1 171 425 33 41 0 0 166 319 324 82 3 322 39 0 2 81 1 166 424 33 164 0 0 159 171
 325 82 3 324 38 6 1 81 1 159 423 33 150 0 0 142 166 326 82 3 325 38 5 1 81 1 14
2 422 33 122 0 0 140 159 327 82 3 326 38 4 1 81 1 140 421 33 138 0 0 145 142 328
 82 3 327 38 3 1 81 1 145 420 33 102 0 0 98 140 329 82 3 328 38 2 1 81 1 98 419
 33 157 0 0 95 145 330 82 3 329 38 1 1 82 3 330 38 0 1 81 1 305 908 248 121 331
 0 301 306 332 83 3 323 .866666666666667 .3215686274509805 .156862745098039 81 1
 331 364 33 121 0 305 106 311 333 83 3 332 .866666666666667 .3215686274509805 .1
56862745098039 81 1 106 356 33 182 0 298 72 331 334 81 1 311 368 33 128 0 306 33
1 308 335 82 3 333 37 5 2 82 3 335 37 3 2 82 3 334 37 4 2 79 255 9 318 BTI/DetId
83 3 313 .866666666666667 .3215686274509805 .156862745098039 81 1 58 417 33 45 0
 0 308 95 336 82 3 312 37 2 2 82 3 336 38 2 0 79 15 310 SDL/TYSA_COLOUR15 90 361
 0 91 295 0 17 91 0 90 79 86 48 93 146 0 39 +17 79 0 90 77 91 61 39 125 0 109 -1
7 93 0 277 167 40 84 91 146 0 175 -17 39 0 37 30 109 48 79 125 0 40 +17 40 0 277
 93 42 48 30 41 0 0 -15 277 377 0 42 19 0 17 42 0 277 40 167 12 44 157 0 65 -17
 167 0 277 42 93 31 175 164 0 55 +17 175 0 174 81 55 84 167 164 0 0 -17 77 0 90
 86 79 69 68 78 0 76 -83 3 302 .866666666666667 .3215686274509805 .1568627450980
39 81 1 288 904 248 181 337 0 283 296 338 83 3 299 .866666666666667 .32156862745
09805 .156862745098039 81 1 337 747 33 181 0 288 339 340 341 83 3 338 .866666666
666667 .3215686274509805 .156862745098039 81 1 339 746 33 270 0 274 342 337 343
 81 1 340 748 33 255 0 260 337 207 344 82 3 341 47 2 2 81 1 260 901 248 255 340
 0 254 287 345 81 1 207 823 33 199 0 0 340 210 346 82 3 344 47 3 2 81 1 210 826
 33 209 0 0 207 219 347 82 3 346 112 2 1 81 1 219 839 33 217 0 0 210 222 348 82
 3 347 112 1 1 82 3 348 112 4 1 81 1 287 902 248 262 184 0 260 283 349 83 3 345
 .866666666666667 .3215686274509805 .156862745098039 81 1 184 231 33 262 350 287
 161 183 351 83 3 349 .866666666666667 .3215686274509805 .156862745098039 81 1 3
50 16 352 262 0 184 0 353 354 81 1 161 229 33 143 0 0 155 184 355 82 3 351 34 1
 2 81 1 155 54 33 153 353 0 0 161 356 82 3 355 34 0 1 81 1 353 31 352 153 0 155
 350 0 357 82 3 356 25 2 1 80 1 352 358 359 9000 0 0 0 0 3 5 0 0 0 FFTFTFTTFFFFF
F2 83 1 357 679 79 13 359 BTI/importTag83 1 354 823 81 1 274 913 248 270 339 0 2
69 360 361 81 1 342 745 33 234 0 360 201 339 362 82 3 343 47 1 2 14 234 719 360
 ?230 270 363 6 364 +0 0 230 270 25 81 1 360 914 248 234 342 0 274 232 365 81 1
 201 744 33 193 0 0 204 342 366 82 3 362 47 0 2 81 1 204 743 33 198 0 0 196 201
 367 82 3 366 47 2 1 81 1 196 742 33 194 0 0 286 204 368 82 3 367 47 1 1 81 1 28
6 623 33 282 0 283 188 196 369 82 3 368 47 0 1 81 1 188 574 33 168 0 0 177 286 3
70 82 3 369 43 1 2 81 1 177 566 33 190 0 0 172 188 371 82 3 370 42 1 1 82 3 371
 42 3 1 81 1 232 915 248 230 224 0 360 239 372 83 3 365 .866666666666667 .321568
6274509805 .156862745098039 81 1 224 845 33 230 0 232 222 373 374 81 1 239 916 2
48 233 373 0 232 244 375 83 3 372 .866666666666667 .3215686274509805 .1568627450
98039 81 1 373 850 33 233 0 239 224 249 376 83 3 375 .866666666666667 .321568627
4509805 .156862745098039 81 1 249 855 33 240 0 244 373 377 378 82 3 376 112 1 2
 81 1 377 865 33 245 0 250 249 379 380 82 3 378 112 5 2 81 1 250 918 248 245 377
 0 244 381 382 81 1 379 870 33 228 0 381 377 383 384 82 3 380 112 4 2 14 228 868
 381 ?0 245 385 6 386 -0 0 0 245 25 81 1 381 919 248 228 379 0 250 0 387 81 1 38
3 892 33 1 0 388 379 215 389 82 3 384 112 3 2 81 1 388 897 390 1 383 14 0 0 391
 81 1 215 893 33 212 0 0 383 26 392 82 3 389 25 0 3 81 1 26 894 33 11 0 0 215 27
2 393 82 3 392 2542 0 1 81 1 272 895 33 258 0 269 26 259 394 82 3 393 2542 1 1 8
1 1 259 896 33 17 0 254 272 0 395 82 3 394 2542 0 2 82 3 395 2542 1 2 80 1 390 3
96 397 8038 0 0 0 0 0 0 0 0 0 TTTTTTTTTTTTTF10 81 1 14 898 396 1 388 2 0 0 398 9
8 255 15 391 82 101 100 32 66 117 116 116 111 110 32 66 97 115 101 80 1 396 399
 400 8017 0 0 0 0 0 0 0 0 0 TTTTTTTTTTTTTF3 84 255 15 398 Red Button Base79 13 4
00 SDL/TYSA_NAME79 14 397 SDL/TYSA_UNAME83 3 387 .866666666666667 .3215686274509
805 .156862745098039 15 385 871 0 401 228 226 50 386 880 0 228 0 253 0 +-.009649
86477339303 -.1757157689941645 -.03359297296531505 -.962161611446911 .2222158087
72463 .157686929672322 -.2250311383543035 -.974351572468052 0 51 253 879 0 245 3
86 247 0 --.00293680214086015 -.176993509894606 -.02729577769416225 -.9621616114
46911 .222215808772463 .157686929672322 .0077 -.2250311383543035 -.9743515724680
52 0 17 401 0 385 401 401 0 220 217 0 0 -17 220 0 402 220 220 0 401 217 0 0 +15
 402 867 0 220 245 0 83 3 382 .866666666666667 .3215686274509805 .15686274509803
9 82 3 374 112 2 2 15 363 722 0 403 234 404 50 364 734 0 234 235 267 0 +-.017128
8201578948 -.1737157957099525 -.02497075831975795 -.962161611446911 .22221580877
2459 .157686929672325 -.2192903259842085 -.974997504782244 .0359390956777962 51
 235 875 0 230 241 364 0 +-.00293680214086015 -.176993509894606 -.02729577769416
225 -.962161611446911 .222215808772463 .157686929672322 .0069 -.2250311383543035
 -.974351572468052 0 51 267 732 0 270 364 257 0 +-.017128685909702 -.17371582671
52125 -.0249698954814954 -.962161611446911 .222215808772459 .157686929672325 .00
5 -.2250311383542995 -.974351572468053 0 50 241 876 0 233 247 235 0 +-.015135762
6303052 -.1743824741415295 -.03089521935546405 -.962161611446911 .22221580877246
3 .157686929672322 -.2250311383543035 -.974351572468052 0 17 403 0 363 403 403 0
 205 198 0 0 -15 404 723 0 202 234 0 17 202 0 404 202 202 0 405 193 0 0 +17 405
 0 276 405 405 0 202 193 0 0 -15 276 717 0 405 270 406 15 406 718 0 197 270 0 17
 197 0 406 197 197 0 407 194 0 0 +17 407 0 290 407 407 0 197 194 0 0 -15 290 671
 0 407 181 100 17 205 0 408 205 205 0 403 198 0 0 +15 408 679 0 205 255 0 83 3 3
61 .866666666666667 .3215686274509805 .156862745098039 17 156 0 284 156 156 0 40
9 153 0 0 +17 409 0 410 409 409 0 156 153 0 0 -15 410 19 0 409 262 0 15 292 162
 0 411 262 410 17 411 0 292 411 411 0 162 143 0 0 -17 162 0 180 162 162 0 411 14
3 0 0 +15 180 203 0 162 179 0 83 3 289 .866666666666667 .3215686274509805 .15686
2745098039 17 279 0 252 279 279 0 216 212 0 0 -15 252 866 0 279 245 402 83 3 275
 .866666666666667 .3215686274509805 .156862745098039 17 265 0 256 265 265 0 192
 190 0 0 -15 266 811 0 412 17 0 17 412 0 266 412 412 0 27 11 0 0 -17 27 0 246 27
 27 0 412 11 0 0 +17 192 0 263 192 192 0 265 190 0 0 +15 263 583 0 192 255 408 8
3 3 261 .866666666666667 .3215686274509805 .156862745098039 83 3 251 .8666666666
66667 .3215686274509805 .156862745098039 82 3 225 112 3 1 81 1 147 299 33 126 0
 0 183 170 413 82 3 185 37 9 1 81 1 170 302 33 146 0 0 147 149 414 82 3 413 37 2
 1 81 1 149 305 33 92 0 0 170 132 415 82 3 414 37 4 1 81 1 132 316 33 125 0 0 14
9 130 416 82 3 415 37 0 1 82 3 416 37 1 1 82 3 178 41 1 1 82 3 173 41 0 1 81 1 1
34 325 33 78 0 0 124 116 417 81 1 124 322 33 120 0 0 130 134 418 81 1 116 328 33
 110 0 0 134 80 419 82 3 417 37 5 1 81 1 80 336 33 69 0 0 116 88 420 82 3 419 37
 11 1 81 1 88 338 33 48 0 0 80 85 421 82 3 420 37 1 0 82 3 421 37 2 0 82 3 418 3
7 3 1 82 3 133 37 7 1 82 3 107 37 7 0 81 1 71 344 33 82 0 0 85 67 422 82 3 422 3
7 5 0 82 3 99 38 3 0 82 3 89 37 0 0 82 3 73 37 3 0 82 3 63 41 3 0 82 3 52 41 1 0
 82 3 36 41 2 0 19 18 8 0 1 0 10 6 S0 74 4 CI16 index_map_offset0 0 1 dCCZ20 16
 6 0 0 353 259 388 14 2 381 0 0 0 0 0 0 0 0 0 0 0 0 0 0 80 1 13 248 423 8040 0 0
 0 0 3 5 0 0 0 TTTFFFFFFFFFFF2 83 3 15 .866666666666667 .3215686274509805 .15686
2745098039 79 17 423 SDL/TYSA_COLOUR_21 0 
