**ABCDEFGHIJKLMNOPQRSTUVWXYZabcdefghijklmnopqrstuvwxyz**************************
**PARASOLID !"#$%&'()*+,-./:;<=>?@[\]^_`{|}~0123456789**************************
**PART1;
MC=unknown;
MC_MODEL=unknown;
MC_ID=unknown;
OS=unknown;
OS_RELEASE=unknown;
FRU=Parasolid 33.1.200;
APPL=Onshape;
SITE=unknown;
USER=unknown;
FORMAT=text;
GUISE=transmit;
KEY=BTGapi::writeModels_.xmt;
FILE=BTGapi::writeModels_.xmt;
DATE=2021-07-17T16:27:55 (UTC);
**PART2;
SCH=SCH_3301200_33103;
USFLD_SIZE=0;
**PART3;
**END_OF_HEADER*****************************************************************
T51 : TRANSMIT FILE created by modeller version 330120023 SCH_3301200_33103_1300
6230 0 12 35 CCCI7 lattice222 0 CCCI4 mesh1006 0 I8 polyline1008 0 CCCCCCCDI5 ow
ner1040 0 CCCCCCI13 boundary_mesh1006 0 I17 boundary_polyline1008 0 CCCA16 index
_map_offset0 0 1 dA9 index_map82 0 A17 node_id_index_map82 0 A20 schema_embeddin
g_map82 0 A5 child12 0 A14 lowest_node_id0 0 1 dA16 mesh_offset_data206 0 Z1 877
 2 3 0 0 0 0 0 0 0 1e3 1e-8 0 4 5 1 0 1 1 6 7 8 9 0 0 10 11 12 0 0 0 0 0 0 0 81
 255 1 2 857 13 1 14 0 0 0 15 70 11 CI9 list_type0 0 1 uI10 notransmit0 0 1 lCCC
DCCDI12 finger_index0 0 1 dI12 finger_block1012 0 CZ3 0 4 T1 0 0 5 20 1 16 16 13
 255 6 178 0 1 0 17 0 0 18 0 50 255 7 287 0 19 20 0 0 +-.003274380902629805 -.17
6937955942413 -.0278484569302457 -.962161611446911 .222215808772463 .15768692967
2322 -.2250311383543035 -.974351572468052 0 31 255 8 299 0 11 21 0 0 +-.00317734
2543721885 -.176937955942413 -.02725635596174415 -.962161611446911 .222215808772
463 .157686929672322 -.2250311383543035 -.974351572468052 0 .0012 29 255 9 438 0
 12 22 0 -.00483167440212956 -.1769810230772595 -.02460657647579565 19 8 CCCCCCC
A5 owner12 0 Z10 202 0 1 18 0 23 V0 16 255 11 266 24 ?25 0 26 8 0 0 1 18 255 12
 436 27 28 0 29 9 ?1 81 1 27 814 30 12 0 0 31 32 33 17 255 28 0 34 35 36 12 37 3
8 0 39 +18 29 428 40 41 12 42 22 ?1 81 1 40 818 30 29 0 0 43 44 45 17 41 0 46 47
 48 29 49 50 0 51 -18 42 611 52 37 29 53 54 ?1 29 22 430 0 29 55 9 -.00537165713
110197 -.176006025572477 -.0292753877290034 29 55 784 0 56 57 22 -.0111446267997
8342 -.1746727307198425 -.02832926615096945 18 56 718 43 58 59 60 55 ?1 29 57 78
5 0 60 61 55 -.01094141752587232 -.1746727307198425 -.02708933990690115 18 60 71
4 62 63 56 64 57 ?1 29 61 786 0 64 65 57 -.01116070785185652 -.1756477282246245
 -.02705340081122335 18 64 710 66 67 60 68 61 ?1 29 65 787 0 68 69 61 -.01136391
712576764 -.1756477282246245 -.0282933270552916 18 68 706 32 70 64 0 65 ?1 29 69
 789 0 71 72 65 -.00516844785719086 -.176006025572477 -.0280354614849351 18 71 7
16 73 48 74 75 69 ?1 29 72 790 0 75 76 69 -.00538773818317506 -.1769810230772595
 -.02799952238925725 18 75 712 77 78 71 59 72 ?1 29 76 791 0 59 79 72 -.00559094
745708618 -.1769810230772595 -.02923944863332555 18 59 708 80 81 75 56 76 ?1 29
 79 792 0 82 83 76 -.01080785334472212 -.1756477282246245 -.02490038114183005 18
 82 609 84 85 86 87 79 ?1 29 83 793 0 87 88 79 -.01060464407081102 -.17564772822
46245 -.02366045489776175 18 87 613 31 89 82 90 83 ?1 29 88 794 0 90 91 83 -.010
3853537448268 -.1746727307198425 -.0236963939934395 18 90 617 44 92 87 74 88 ?1
 29 91 795 0 74 54 88 -.0105885630187379 -.1746727307198425 -.0249363202375078 1
8 74 621 93 94 90 71 91 ?1 29 54 796 0 42 95 91 -.00503488367604065 -.1769810230
772595 -.02584650271986395 29 95 798 0 53 96 54 -.00461238407614535 -.1760060255
72477 -.02464251557147345 18 53 619 97 35 42 86 95 ?1 29 96 799 0 86 0 95 -.0048
1559335005644 -.176006025572477 -.0258824418155417 18 86 607 98 99 53 82 96 ?1 8
1 1 98 810 30 86 0 0 93 84 100 17 99 0 101 102 94 86 103 104 0 105 -15 255 101 6
38 0 94 106 0 17 102 0 101 92 99 53 105 107 0 108 +17 94 0 101 99 92 74 109 110
 0 103 -17 103 0 111 112 113 74 99 104 0 114 +16 104 584 115 ?103 116 117 118 0
 0 1 17 105 0 34 36 35 86 102 107 0 113 -15 34 642 0 36 119 0 17 36 0 34 28 105
 42 113 117 0 120 -17 35 0 34 105 28 53 121 122 0 102 +16 107 594 123 ?102 122 1
24 125 0 0 1 17 113 0 111 103 120 86 36 117 0 0 +15 111 493 0 113 17 0 17 120 0
 111 113 126 42 85 127 0 0 -16 117 589 128 ?113 104 38 129 0 0 1 81 1 128 821 30
 117 0 0 97 130 131 16 38 561 132 ?28 117 122 133 0 0 1 31 129 781 0 117 133 134
 0 +-.00510166576661574 -.176493524324868 -.0269409821023995 -.962161611446911 .
222215808772463 .157686929672322 -.2250311383543035 -.974351572468052 0 .0011999
99999999964 30 255 133 782 0 38 125 129 0 +-.00488050140555445 -.176981023077259
5 -.02490450521595845 .1617305981798795 -185031830501167e-31 .986834947502559 31
 134 780 0 122 129 135 0 +-.00510166576661575 -.176493524324868 -.02694098210239
95 -.962161611446911 .222215808772463 .157686929672322 -.2250311383543035 -.9743
51572468052 0 .00239999999999994 16 122 569 136 ?35 38 107 134 0 0 1 30 135 779
 0 110 134 137 0 +-.0104341807482517 -.1746727307198425 -.0239943227336023 .1617
305981798795 493418214669779e-31 .986834947502559 16 110 579 138 ?109 124 139 13
5 0 0 1 30 137 778 0 124 135 140 0 +-.0106534710742359 -.1756477282246245 -.0239
583836379245 .1617305981798795 -185031830501167e-31 .986834947502559 16 124 597
 141 ?89 107 110 137 0 0 1 30 140 775 0 127 137 142 0 +-.00503488367604065 -.176
9810230772595 -.02584650271986395 -.962161611446911 .222215808772463 .1576869296
72322 16 127 556 143 ?85 144 145 140 0 0 1 30 142 774 0 145 140 146 0 +-.0048316
7440212957 -.1769810230772595 -.0246065764757957 -.962161611446911 .222215808772
463 .157686929672322 16 145 564 147 ?148 127 116 142 0 0 1 30 146 773 0 116 142
 118 0 +-.00461238407614535 -.176006025572477 -.02464251557147345 -.962161611446
911 .222215808772463 .157686929672322 16 116 574 149 ?92 145 104 146 0 0 1 30 11
8 772 0 104 146 150 0 +-.00481559335005644 -.176006025572477 -.0258824418155417
 -.962161611446911 .222215808772463 .157686929672322 31 150 771 0 151 118 152 0
 +-.00510166576661574 -.176493524324868 -.0269409821023995 -.962161611446911 .22
2215808772463 .157686929672322 -.2250311383543035 -.974351572468052 0 .001199999
999999964 16 151 689 130 ?153 50 154 150 0 0 1 31 152 770 0 155 150 156 0 +-.005
10166576661575 -.176493524324868 -.0269409821023995 -.962161611446911 .222215808
772463 .157686929672322 -.2250311383543035 -.974351572468052 0 .0023999999999999
4 16 155 648 157 ?47 154 158 152 0 0 1 30 156 769 0 154 152 159 0 +-.00554212045
366129 -.1769810230772595 -.0289415198931628 .1617305981798795 178864102817795e-
30 .986834947502559 16 154 658 160 ?161 151 155 156 0 0 1 30 159 768 0 50 156 16
2 0 +-.00532283012767708 -.176006025572477 -.0289774589888406 .1617305981798795
 1110190983007002e-31 .986834947502559 16 50 686 163 ?49 164 151 159 0 0 1 30 16
2 765 0 165 159 166 0 +-.01131509012234276 -.1756477282246245 -.0279953983151288
5 .1617305981798795 178864102817795e-30 .986834947502559 16 165 699 167 ?67 158
 0 162 0 0 1 30 166 764 0 158 162 168 0 +-.01109579979635854 -.1746727307198425
 -.02803133741080665 .1617305981798795 1110190983007002e-31 .986834947502559 16
 158 676 169 ?170 155 165 166 0 0 1 30 168 763 0 164 166 171 0 +-.00537165713110
197 -.176006025572477 -.02927538772900335 -.962161611446911 .222215808772463 .15
7686929672322 16 164 681 172 ?173 174 50 168 0 0 1 30 171 762 0 174 168 175 0 +-
.00516844785719086 -.176006025572477 -.0280354614849351 -.962161611446911 .22221
5808772463 .157686929672322 16 174 671 176 ?63 177 164 171 0 0 1 30 175 761 0 17
7 171 178 0 +-.00538773818317506 -.1769810230772595 -.02799952238925725 -.962161
611446911 .222215808772463 .157686929672322 16 177 661 179 ?180 139 174 175 0 0
 1 30 178 760 0 139 175 181 0 +-.00559094745708618 -.1769810230772595 -.02923944
863332555 -.962161611446911 .222215808772463 .157686929672322 16 139 653 182 ?70
 110 177 178 0 0 1 134 255 181 43 0 1 178 183 184 +185 186 134 183 63 0 1 181 18
7 188 +189 190 141 255 184 191 184 184 181 136 255 185 3 4 3 2 5 FFF2 192 193 19
4 135 255 186 2 0 45 255 12 192 -.00408681984887547 -.1769146700866185 -.0321740
067844145 -.00456985491169231 -.176872107891499 -.0339666752178396 -.00524073570
720388 -.176760225077679 -.03502491564722275 -.00639551055205479 -.1764935243248
68 -.03483566168241995 127 255 4 193 4 4 0 0 128 255 4 194 .291451351672722 1 ??
68 255 191 281 0 195 196 197 0 +181 -.00293680214086015 -.176993509894606 -.0272
9577769416225 -.962161611446911 .222215808772463 .157686929672322 ????-.16173059
8179879 0 -.986834947502559 .002399355473760555 14 255 195 244 198 ?199 200 201
 6 191 +0 0 199 200 23 51 255 196 280 0 199 202 191 0 +-.00293680214086015 -.176
993509894606 -.02729577769416225 -.962161611446911 .222215808772463 .15768692967
2322 .008 -.2250311383543035 -.974351572468052 0 51 197 282 0 200 191 203 0 +-.0
0293680214086015 -.176993509894606 -.02729577769416225 -.962161611446911 .222215
808772463 .157686929672322 .00500000000000966 -.2250311383543035 -.9743515724680
52 0 14 200 249 204 ?195 205 206 6 197 +0 0 195 205 23 50 203 283 0 205 197 207
 0 +-.00417596126362098 -.176826848038027 -.03033538432891615 -.962161611446911
 .222215808772463 .157686929672322 -.2250311383543035 -.974351572468052 0 14 205
 254 208 ?200 209 210 6 203 +0 0 200 209 23 51 207 284 0 211 203 212 0 +-.002936
80214086015 -.176993509894606 -.02729577769416225 -.962161611446911 .22221580877
2463 .157686929672322 .002399999999999955 -.2250311383543035 -.974351572468052 0
 14 211 259 213 ?19 214 215 6 207 +0 0 19 214 23 50 212 285 0 209 207 20 0 +-.01
116575051202098 -.1751602294722335 -.02777116342987015 -.962161611446911 .222215
808772463 .157686929672322 -.2250311383543035 -.974351572468052 0 14 209 264 216
 ?205 19 217 6 212 +214 214 205 19 23 51 20 286 0 17 212 7 0 --.0029368021408601
5 -.176993509894606 -.02729577769416225 -.962161611446911 .222215808772463 .1576
86929672322 .00119999999999998 -.2250311383543035 -.974351572468052 0 14 17 269
 218 ?214 0 219 6 20 +0 0 214 0 23 81 1 218 858 220 17 221 0 0 222 223 14 214 47
6 222 ?211 17 224 6 212 +209 209 211 17 23 15 219 268 0 225 17 111 13 23 201 0 0
 0 0 0 0 10 17 17 225 0 219 225 225 0 25 11 0 0 -17 25 0 226 25 25 0 225 11 0 0
 +15 226 338 0 25 19 0 14 19 272 227 ?209 211 226 6 7 +0 0 209 211 23 81 1 227 8
61 220 19 228 0 213 216 229 80 255 1 220 0 230 8001 0 0 0 0 3 5 0 0 0 FFFFTFTFFF
FFFF2 81 1 228 351 30 19 0 227 231 232 233 81 1 213 860 220 211 234 0 222 227 23
5 81 1 216 862 220 209 236 0 227 208 237 83 255 3 229 .866666666666667 .32156862
74509805 .156862745098039 81 1 236 853 30 209 0 216 238 239 240 81 1 208 863 220
 205 241 0 216 204 242 83 3 237 .866666666666667 .3215686274509805 .156862745098
039 81 1 241 361 30 205 0 208 243 244 245 81 1 204 864 220 200 244 0 208 198 246
 83 3 242 .866666666666667 .3215686274509805 .156862745098039 81 1 244 362 30 20
0 0 204 241 247 248 81 1 198 865 220 195 243 0 204 249 250 83 3 246 .86666666666
6667 .3215686274509805 .156862745098039 81 1 243 360 30 195 0 198 251 241 252 81
 1 249 866 220 199 251 0 198 253 254 83 3 250 .866666666666667 .3215686274509805
 .156862745098039 14 199 239 249 ?255 195 256 6 196 -0 0 255 195 23 81 1 251 358
 30 199 0 249 257 243 258 81 1 253 867 220 255 247 0 249 259 260 83 3 254 .86666
6666666667 .3215686274509805 .156862745098039 14 255 234 253 ?261 199 262 6 202
 +0 0 261 199 23 81 1 247 363 30 255 0 253 244 263 264 81 1 259 868 220 261 232
 0 253 265 266 83 3 260 .866666666666667 .3215686274509805 .156862745098039 14 2
61 229 259 ?267 255 268 6 269 +0 0 267 255 23 81 1 232 354 30 261 0 259 228 270
 271 81 1 265 869 220 267 257 0 259 272 273 83 3 266 .866666666666667 .321568627
4509805 .156862745098039 14 267 224 265 ?274 261 275 6 276 -0 0 274 261 23 81 1
 257 357 30 267 0 265 277 251 278 81 1 272 870 220 274 277 0 265 279 280 83 3 27
3 .866666666666667 .3215686274509805 .156862745098039 14 274 219 272 ?281 267 28
2 6 283 -0 0 281 267 23 81 1 277 356 30 274 0 272 270 257 284 81 1 279 871 220 2
81 270 0 272 285 286 83 3 280 .866666666666667 .3215686274509805 .15686274509803
9 14 281 214 279 ?287 274 288 6 289 -0 0 287 274 23 81 1 270 355 30 281 0 279 23
2 277 290 81 1 285 872 220 287 291 0 279 292 293 83 3 286 .866666666666667 .3215
686274509805 .156862745098039 14 287 724 285 ?294 281 295 6 296 -0 0 294 281 23
 81 1 291 844 30 287 0 285 297 298 299 81 1 292 873 220 294 300 0 285 301 302 83
 3 293 .866666666666667 .3215686274509805 .156862745098039 14 294 732 292 ?303 2
87 304 6 305 +0 0 303 287 23 81 1 300 846 30 294 0 292 298 221 306 81 1 301 874
 220 303 307 0 292 308 309 83 3 302 .866666666666667 .3215686274509805 .15686274
5098039 14 303 736 301 ?310 294 46 6 311 +0 0 310 294 23 81 1 307 842 30 303 0 3
01 312 297 313 81 1 308 875 220 310 297 0 301 314 315 83 3 309 .866666666666667
 .3215686274509805 .156862745098039 14 310 627 308 ?106 303 316 6 317 -0 0 106 3
03 23 81 1 297 843 30 310 0 308 307 291 318 81 1 314 876 220 106 298 0 308 319 3
20 83 3 315 .866666666666667 .3215686274509805 .156862745098039 14 106 635 314 ?
119 310 101 6 321 +0 0 119 310 23 81 1 298 845 30 106 0 314 291 300 322 81 1 319
 877 220 119 312 0 314 0 323 83 3 320 .866666666666667 .3215686274509805 .156862
745098039 14 119 639 319 ?0 106 34 6 324 +0 0 0 106 23 81 1 312 841 30 119 0 319
 163 307 325 83 3 323 .866666666666667 .3215686274509805 .156862745098039 80 1 3
0 326 327 9000 0 0 0 0 3 6 0 0 0 FFTFTFTTFFFFFF1 81 1 163 840 30 50 0 0 123 312
 328 82 255 3 325 178 0 2 81 1 123 839 30 107 0 0 160 163 329 82 3 328 178 19 1
 81 1 160 838 30 154 0 0 132 123 330 82 3 329 178 18 1 81 1 132 837 30 38 0 0 17
2 160 331 82 3 330 178 17 1 81 1 172 836 30 164 0 0 149 132 332 82 3 331 178 16
 1 81 1 149 835 30 116 0 0 182 172 333 82 3 332 178 15 1 81 1 182 834 30 139 0 0
 147 149 334 82 3 333 178 14 1 81 1 147 833 30 145 0 0 157 182 335 82 3 334 178
 13 1 81 1 157 832 30 155 0 0 136 147 336 82 3 335 178 12 1 81 1 136 831 30 122
 0 0 169 157 337 82 3 336 178 11 1 81 1 169 830 30 158 0 0 138 136 338 82 3 337
 178 10 1 81 1 138 829 30 110 0 0 167 169 339 82 3 338 178 9 1 81 1 167 828 30 1
65 0 0 141 138 340 82 3 339 178 8 1 81 1 141 827 30 124 0 0 176 167 341 82 3 340
 178 7 1 81 1 176 826 30 174 0 0 115 141 342 82 3 341 178 6 1 81 1 115 825 30 10
4 0 0 179 176 343 82 3 342 178 5 1 81 1 179 824 30 177 0 0 143 115 344 82 3 343
 178 4 1 81 1 143 823 30 127 0 0 130 179 345 82 3 344 178 3 1 81 1 130 822 30 15
1 0 0 128 143 346 82 3 345 178 2 1 82 3 346 178 1 1 79 255 9 327 BTI/DetId50 324
 759 0 119 0 317 0 +-.00510166576661576 -.176493524324868 -.0269409821023995 -.9
62161611446911 .222215808772463 .157686929672322 -.2192903259842125 -.9749975047
82243 .03593909567779615 50 317 756 0 310 324 321 0 +-.00488050140555445 -.17698
10230772595 -.02490450521595845 -.2192903259842125 -.974997504782243 .0359390956
7779615 .975627777857479 -.2194320830527685 0 50 321 754 0 106 317 311 0 +-.0046
6121107957023 -.176006025572477 -.02494044431163625 -.2192903259842125 -.9749975
04782243 .03593909567779625 .975627777857479 -.2194320830527685 0 50 311 753 0 3
03 321 305 0 +-.00510166576661576 -.176493524324868 -.0269409821023995 -.9621616
11446911 .222215808772463 .157686929672322 -.2192903259842125 -.974997504782243
 .03593909567779615 50 305 751 0 294 311 296 0 +-.00532283012767708 -.1760060255
72477 -.0289774589888406 -.2192903259842125 -.974997504782243 .0359390956777963
 .975627777857479 -.2194320830527685 0 50 296 749 0 287 305 289 0 +-.00554212045
366129 -.1769810230772595 -.0289415198931628 -.2192903259842125 -.97499750478224
3 .03593909567779635 .975627777857479 -.2194320830527685 0 50 289 275 0 281 296
 283 0 +-.00301972293435819 -.1770490638467995 -.02930886932158545 -.96216161144
6911 .222215808772463 .157686929672322 -.2250311383543035 -.974351572468052 0 51
 283 276 0 274 289 276 0 +-.00293680214086015 -.176993509894606 -.02729577769416
225 -.962161611446911 .222215808772463 .157686929672322 .004 -.2250311383543035
 -.974351572468052 0 68 276 277 0 267 283 269 0 +183 -.00293680214086015 -.17699
3509894606 -.02729577769416225 -.962161611446911 .222215808772463 .1576869296723
22 ????-.161730598179879 0 -.986834947502559 .003948636667637175 51 269 278 0 26
1 276 202 0 +-.00293680214086015 -.176993509894606 -.02729577769416225 -.9621616
11446911 .222215808772463 .157686929672322 .0092 -.2250311383543035 -.9743515724
68052 0 50 202 279 0 255 269 196 0 +-.0122655185796442 -.1751602294722335 -.0344
8164107288755 -.962161611446911 .222215808772463 .157686929672322 -.225031138354
3035 -.974351572468052 0 82 3 322 178 4 2 82 3 318 178 2 2 15 316 630 0 89 310 0
 17 89 0 316 39 85 87 347 124 0 148 +17 39 0 316 37 89 12 148 145 0 121 -17 85 0
 316 89 37 82 120 127 0 347 +17 347 0 217 348 349 82 89 124 0 126 -17 148 0 350
 351 121 87 39 145 0 349 +15 350 434 0 121 211 0 17 351 0 350 352 148 68 349 353
 0 0 -17 121 0 350 148 108 12 35 122 0 0 -17 349 0 217 347 354 87 351 353 0 0 +1
5 217 480 0 347 209 0 17 354 0 217 349 348 68 67 165 0 351 -16 353 421 355 ?349
 356 357 358 356 356 1 81 1 355 851 30 353 0 0 359 238 360 16 356 256 238 ?361 3
62 353 358 353 353 1 16 357 251 363 ?364 353 365 366 0 0 1 31 358 297 0 353 366
 21 0 +-.01087463543529722 -.1751602294722335 -.0259948605243656 -.9621616114469
11 .222215808772463 .157686929672322 -.2250311383543035 -.974351572468052 0 .002
39999999999994 31 366 296 0 357 367 358 0 +-.003658423349445355 -.17682684803802
7 -.027177512496908 -.962161611446911 .222215808772463 .157686929672322 -.225031
1383543035 -.974351572468052 0 .002399999999999975 31 21 298 0 362 358 8 0 +-.01
08746354352972 -.1751602294722335 -.0259948605243656 -.962161611446911 .22221580
8772463 .157686929672322 -.2250311383543035 -.974351572468052 0 .001199999999999
964 16 362 464 368 ?126 26 356 21 26 26 1 81 1 368 849 30 362 0 0 234 359 369 17
 126 0 111 120 180 82 348 362 0 0 +16 26 261 359 ?112 11 362 21 362 362 1 81 1 3
59 850 30 26 0 0 368 355 370 17 112 0 111 371 103 60 114 26 0 0 +17 371 0 111 15
3 112 71 63 174 0 0 -17 114 0 224 109 170 74 112 26 0 0 -15 224 470 0 114 214 0
 17 109 0 224 361 114 90 94 110 0 372 +17 170 0 224 114 361 60 58 158 0 112 +17
 361 0 224 170 109 56 372 356 0 0 +17 58 0 304 51 63 56 170 158 0 173 -15 304 73
5 0 58 294 0 17 51 0 304 49 58 29 173 164 0 373 -17 63 0 304 58 49 60 371 174 0
 170 +17 173 0 350 372 373 56 51 164 0 361 +17 372 0 350 108 173 90 361 356 0 0
 -17 373 0 350 173 352 29 47 155 0 0 -17 352 0 350 373 351 59 70 139 0 0 -17 47
 0 46 161 41 59 373 155 0 352 +15 46 739 0 47 303 0 17 161 0 46 48 47 75 81 154
 0 153 +17 48 0 46 41 161 71 153 151 0 49 -17 81 0 295 70 78 59 161 154 0 47 -17
 153 0 111 180 371 75 48 151 0 0 +17 180 0 111 126 153 64 78 177 0 348 +17 78 0
 295 81 67 75 180 177 0 161 -17 348 0 217 354 347 64 126 362 0 0 -15 295 727 0 6
7 287 0 17 67 0 295 78 70 64 354 165 0 180 +17 70 0 295 67 81 68 352 139 0 354 +
17 49 0 304 63 51 71 41 50 0 371 +17 108 0 350 121 372 53 92 116 0 0 -17 92 0 10
1 94 102 90 108 116 0 109 +82 3 370 178 21 1 81 1 234 848 30 211 0 213 221 368 3
74 82 3 369 178 20 1 81 1 221 847 30 17 0 218 300 234 375 82 3 374 178 7 2 82 3
 375 178 6 2 31 367 295 0 365 376 366 0 +-.00365842334944539 -.176826848038027 -
.027177512496908 -.962161611446911 .222215808772463 .157686929672322 -.225031138
3543035 -.974351572468052 0 .005 16 365 246 377 ?378 357 379 367 0 0 1 31 376 29
4 0 379 380 367 0 +-.00327816685797295 -.1769146700866185 -.02723983204688265 -.
962161611446911 .222215808772463 .157686929672322 -.2250311383543035 -.974351572
468052 0 .00500000000001933 16 379 241 231 ?381 365 382 376 0 0 1 31 380 293 0 3
82 383 376 0 +-.00510166576661576 -.176493524324868 -.0269409821023995 -.9621616
11446911 .222215808772463 .157686929672322 -.2250311383543035 -.974351572468052
 0 .008 16 382 236 384 ?385 379 386 380 0 0 1 31 383 292 0 386 387 380 0 +-.0108
7463543529722 -.1751602294722335 -.0259948605243656 -.962161611446911 .222215808
772463 .157686929672322 -.2250311383543035 -.974351572468052 0 .008 16 386 231 3
88 ?389 382 390 383 0 0 1 31 387 291 0 390 391 383 0 +-.01087463543529724 -.1751
602294722335 -.0259948605243656 -.962161611446911 .222215808772463 .157686929672
322 -.2250311383543035 -.974351572468052 0 .0092 16 390 226 392 ?393 386 394 387
 0 0 1 31 391 290 0 394 395 387 0 +-.00510166576661578 -.176493524324868 -.02694
09821023995 -.962161611446911 .222215808772463 .157686929672322 -.22503113835430
35 -.974351572468052 0 .0092 16 394 221 396 ?397 390 398 391 0 0 1 31 395 289 0
 398 187 391 0 +-.00221518093227501 -.1771601717511855 -.0274140428914165 -.9621
61611446911 .222215808772463 .157686929672322 -.2250311383543035 -.9743515724680
52 0 .004 16 398 216 399 ?400 394 144 395 0 0 1 31 187 288 0 144 183 395 0 +-.00
269626173799845 -.1770490638467995 -.0273351994265803 -.962161611446911 .2222158
08772463 .157686929672322 -.2250311383543035 -.974351572468052 0 .004 16 144 211
 401 ?402 398 127 187 0 0 1 81 1 401 344 30 144 0 0 396 399 403 17 402 0 404 402
 402 0 405 144 0 0 +15 404 218 0 402 274 0 17 405 0 288 405 405 0 402 144 0 0 -1
5 288 328 0 405 281 0 81 1 396 343 30 394 0 0 392 401 406 81 1 399 345 30 398 0
 0 401 388 407 82 3 403 111 5 1 81 1 388 346 30 386 0 0 399 384 408 82 3 407 111
 6 1 81 1 384 347 30 382 0 0 388 363 409 82 3 408 111 7 1 81 1 363 348 30 357 0
 0 384 377 410 82 3 409 111 8 1 81 1 377 349 30 365 0 0 363 231 411 82 3 410 111
 9 1 81 1 231 350 30 379 0 0 377 228 412 82 3 411 111 10 1 82 3 412 111 11 1 81
 1 392 342 30 390 0 0 24 396 413 82 3 406 111 4 1 81 1 24 339 30 11 0 0 0 392 41
4 82 3 413 111 3 1 82 3 414 111 0 1 17 400 0 415 400 400 0 416 398 0 0 +15 415 2
23 0 400 267 0 17 416 0 282 416 416 0 400 398 0 0 -15 282 329 0 416 274 404 17 3
97 0 268 397 397 0 417 394 0 0 +15 268 331 0 397 261 418 17 417 0 275 417 417 0
 397 394 0 0 -15 275 330 0 417 267 415 15 418 228 0 419 261 0 17 419 0 418 419 4
19 0 393 390 0 0 -17 393 0 262 393 393 0 419 390 0 0 +15 262 332 0 393 255 420 1
5 420 233 0 421 255 0 17 421 0 420 421 421 0 389 386 0 0 -17 389 0 422 389 389 0
 421 386 0 0 +15 422 238 0 389 199 0 17 385 0 201 385 385 0 423 382 0 0 +15 201
 334 0 385 195 424 17 423 0 256 423 423 0 385 382 0 0 -15 256 333 0 423 199 422
 15 424 243 0 425 195 0 17 425 0 424 425 425 0 381 379 0 0 -17 381 0 206 381 381
 0 425 379 0 0 +15 206 326 0 381 200 426 15 426 248 0 427 200 0 17 427 0 426 427
 427 0 378 365 0 0 -17 378 0 210 378 378 0 427 365 0 0 +15 210 327 0 378 205 428
 15 428 253 0 429 205 0 17 429 0 428 429 429 0 364 357 0 0 -17 364 0 215 364 364
 0 429 357 0 0 +15 215 335 0 364 211 350 81 1 238 852 30 356 0 0 355 236 430 82
 3 430 178 23 1 82 3 360 178 22 1 17 37 0 316 85 39 42 28 38 0 36 -82 3 313 178
 1 2 82 3 306 178 5 2 82 3 299 178 3 2 82 3 290 111 4 2 82 3 284 111 5 2 82 3 27
8 111 6 2 82 3 271 111 3 2 81 1 263 364 30 1 0 431 247 66 432 82 3 264 111 12 2
 81 1 431 855 433 1 263 14 0 0 434 81 1 66 805 30 64 0 0 263 77 435 82 3 432 111
 0 3 81 1 77 806 30 75 0 0 66 62 436 82 3 435 178 0 0 81 1 62 807 30 60 0 0 77 7
3 437 82 3 436 178 1 0 81 1 73 808 30 71 0 0 62 93 438 82 3 437 178 2 0 81 1 93
 809 30 74 0 0 73 98 439 82 3 438 178 3 0 82 3 439 178 4 0 80 1 433 440 441 8038
 0 0 0 0 0 0 0 0 0 TTTTTTTTTTTTTF10 81 1 14 856 440 1 431 2 0 0 442 98 255 14 43
4 82 101 100 32 66 117 116 116 111 110 32 67 97 112 80 1 440 443 444 8017 0 0 0
 0 0 0 0 0 0 TTTTTTTTTTTTTF3 84 255 14 442 Red Button Cap79 13 444 SDL/TYSA_NAME
79 14 441 SDL/TYSA_UNAME82 3 258 111 7 2 82 3 252 111 9 2 82 3 248 111 11 2 82 3
 245 111 10 2 81 1 239 854 30 214 0 222 236 0 445 82 3 240 178 8 2 81 1 222 859
 220 214 239 0 218 213 446 82 3 445 178 9 2 83 3 446 .866666666666667 .321568627
4509805 .156862745098039 83 3 235 .866666666666667 .3215686274509805 .1568627450
98039 82 3 233 111 0 2 79 15 230 SDL/TYSA_COLOUR83 3 223 .866666666666667 .32156
86274509805 .156862745098039 141 188 276 188 188 183 136 189 3 4 3 2 5 FFF2 447
 448 449 135 190 2 0 45 12 447 -.00286210332499452 -.1771601717511855 -.03136138
26814267 -.00333257224084993 -.1771601717511855 -.0342320526295052 -.00440847490
9907165 -.176997262617195 -.036377322186904 -.00658958726987067 -.17649352432486
8 -.03601986361942305 127 4 448 4 4 0 0 128 4 449 0 1 ??30 125 783 0 107 0 133 0
 +-.00466121107957023 -.176006025572477 -.02494044431163625 .1617305981798795 49
3418214669779e-31 .986834947502559 81 1 97 820 30 53 0 0 44 128 450 82 3 131 178
 0 1 81 1 44 819 30 90 0 0 40 97 451 82 3 450 178 15 0 82 3 451 178 14 0 81 1 84
 811 30 82 0 0 98 52 452 82 3 100 178 5 0 81 1 52 812 30 42 0 0 84 31 453 82 3 4
52 178 6 0 81 1 31 813 30 87 0 0 52 27 454 82 3 453 178 7 0 82 3 454 178 8 0 81
 1 80 816 30 59 0 0 32 43 455 81 1 32 815 30 68 0 0 27 80 456 81 1 43 817 30 56
 0 0 80 40 457 82 3 455 178 11 0 82 3 457 178 12 0 82 3 456 178 10 0 82 3 45 178
 13 0 82 3 33 178 9 0 19 18 177 0 1 0 10 6 S0 74 4 CI16 index_map_offset0 0 1 dC
CZ20 16 5 0 0 239 431 14 2 319 0 0 0 0 0 0 0 0 0 0 0 0 0 0 0 80 1 13 220 458 804
0 0 0 0 0 3 5 0 0 0 TTTFFFFFFFFFFF2 83 3 15 .866666666666667 .3215686274509805 .
156862745098039 79 17 458 SDL/TYSA_COLOUR_21 0 
