**ABCDEFGHIJKLMNOPQRSTUVWXYZabcdefghijklmnopqrstuvwxyz**************************
**PARASOLID !"#$%&'()*+,-./:;<=>?@[\]^_`{|}~0123456789**************************
**PART1;
MC=unknown;
MC_MODEL=unknown;
MC_ID=unknown;
OS=unknown;
OS_RELEASE=unknown;
FRU=Parasolid 33.1.200;
APPL=Onshape;
SITE=unknown;
USER=unknown;
FORMAT=text;
GUISE=transmit;
KEY=BTGapi::writeModels_.xmt;
FILE=BTGapi::writeModels_.xmt;
DATE=2021-07-17T16:27:55 (UTC);
**PART2;
SCH=SCH_3301200_33103;
USFLD_SIZE=0;
**PART3;
**END_OF_HEADER*****************************************************************
T51 : TRANSMIT FILE created by modeller version 330120023 SCH_3301200_33103_1300
6230 0 12 35 CCCI7 lattice222 0 CCCI4 mesh1006 0 I8 polyline1008 0 CCCCCCCDI5 ow
ner1040 0 CCCCCCI13 boundary_mesh1006 0 I17 boundary_polyline1008 0 CCCA16 index
_map_offset0 0 1 dA9 index_map82 0 A17 node_id_index_map82 0 A20 schema_embeddin
g_map82 0 A5 child12 0 A14 lowest_node_id0 0 1 dA16 mesh_offset_data206 0 Z1 519
 2 3 0 0 0 0 0 0 0 1e3 1e-8 0 4 5 1 0 1 1 6 7 8 9 0 0 10 11 12 0 0 0 0 0 0 0 81
 255 1 2 506 13 1 14 0 0 0 15 70 11 CI9 list_type0 0 1 uI10 notransmit0 0 1 lCCC
DCCDI12 finger_index0 0 1 dI12 finger_block1012 0 CZ3 0 4 T1 0 0 5 20 1 16 16 13
 255 6 5 0 1 0 17 0 0 18 0 51 255 7 500 0 19 20 0 0 --.0154740663712064 -.148229
597510946 -.000536265130220638 .838188991453335 -.532656714445424 .1171154949724
69 .006825 .536347697574258 .843997125176853 0 31 255 8 502 0 11 21 0 0 --.01404
746870775286 -.149136179238932 -.0003369345577774985 .838188991453335 -.53265671
4445424 .117115494972469 .536347697574258 .843997125176853 0 .006825 29 255 9 16
6 0 12 22 0 -.01115271575766486 -.145637524354031 .00168868946648002 19 8 CCCCCC
CA5 owner12 0 Z10 1 0 1 18 0 23 V0 16 255 11 76 24 ?25 0 26 8 0 0 1 18 255 12 16
4 27 28 0 29 9 ?1 81 1 27 360 30 12 0 0 31 32 33 17 255 28 0 34 35 36 12 37 38 0
 39 -18 29 161 31 35 12 40 22 ?1 81 1 31 359 30 29 0 0 41 27 42 17 35 0 34 43 28
 29 39 44 0 45 -18 40 158 41 43 29 46 47 ?1 29 22 163 0 29 47 9 -.01097555687867
098 -.1464231285639898 -.00315225817734164 29 47 160 0 40 48 22 -.01319975863559
624 -.150347908820447 -.00508418980562116 29 48 157 0 46 49 47 -.015601119271515
35 -.1534870848669455 -.00217517379007905 18 46 155 50 51 40 52 48 ?1 29 49 151
 0 52 53 48 -.01355407639358398 -.1487767004005296 .00459770548202211 18 52 149
 54 36 46 55 49 ?1 29 53 340 0 56 57 49 -.01577827815050925 -.152701480656987 .0
02665773853742585 18 56 252 58 59 60 0 53 ?1 29 57 342 0 55 61 53 -.008638148783
30487 -.1472354944973674 .002040035951397425 18 55 272 62 63 52 64 57 ?1 29 61 3
43 0 64 65 57 -.00846098990431097 -.148021098707326 -.00280091169242423 18 64 27
0 66 67 55 68 61 ?1 29 65 344 0 68 69 61 -.01068519166123622 -.1519458789637835
 -.00473284332070376 18 68 268 70 71 64 72 65 ?1 29 69 345 0 72 73 65 -.01308655
229715534 -.155085055010282 -.001823827305161645 18 72 266 74 75 68 76 69 ?1 29
 73 346 0 76 77 69 -.01326371117614924 -.1542994508003235 .003017120338659995 18
 76 264 78 79 72 60 73 ?1 29 77 347 0 60 0 73 -.01103950941922398 -.150374670543
866 .00494905196693951 18 60 254 80 81 76 56 77 ?1 81 1 80 255 30 60 0 0 82 78 8
3 17 81 0 84 85 86 60 79 87 0 88 -15 255 84 283 0 89 90 0 17 85 0 84 89 81 52 91
 92 0 37 +17 86 0 84 81 89 76 93 94 0 95 -17 79 0 96 75 88 76 81 87 0 86 +16 87
 237 97 ?79 98 99 100 0 0 1 17 88 0 96 79 63 60 101 99 0 91 +15 96 303 0 88 102
 0 17 63 0 96 88 67 55 103 104 0 105 +17 101 0 106 107 91 55 88 99 0 0 -16 99 23
4 108 ?88 87 44 109 0 0 1 17 91 0 106 101 37 60 85 92 0 0 -15 106 279 0 37 110 0
 17 37 0 106 91 107 52 28 38 0 0 +16 92 199 111 ?85 112 94 113 0 0 1 81 1 111 20
1 30 92 0 0 114 115 116 16 112 86 117 ?118 119 92 21 0 0 1 16 94 207 115 ?93 92
 120 121 0 0 1 30 255 113 318 0 92 121 122 0 +-.01103950941922398 -.150374670543
866 .00494905196693951 -.838188991453335 .532656714445425 -.117115494972469 30 1
21 319 0 94 123 113 0 +-.01326371117614924 -.1542994508003235 .00301712033865999
5 -.838188991453335 .532656714445425 -.117115494972469 31 122 127 0 119 113 124
 0 +-.01337691751459012 -.1495623046104884 -.000243242161799512 .838188991453335
 -.532656714445425 .117115494972469 .536347697574259 .843997125176853 0 .0079 16
 119 33 125 ?126 26 112 122 0 0 1 31 124 496 0 26 122 21 0 +-.01404746870775284
 -.149136179238932 -.0003369345577774925 .838188991453335 -.532656714445424 .117
115494972469 .536347697574258 .843997125176853 0 .0079 16 26 24 127 ?128 11 119
 124 0 0 1 31 21 501 0 112 124 8 0 +-.0154723899932235 -.148230662824375 -.00053
603089923069 .838188991453335 -.532656714445425 .117115494972469 .53634769757425
9 .843997125176853 0 .006825 81 1 127 47 30 26 0 0 0 125 129 17 128 0 130 128 12
8 0 131 26 0 0 +15 130 22 0 128 132 133 17 131 0 134 131 131 0 128 26 0 0 -15 13
4 14 0 131 135 0 14 255 135 10 136 ?132 17 137 6 20 -0 0 132 0 23 81 1 136 508 1
38 135 139 0 140 141 142 14 132 20 141 ?143 135 130 6 144 -0 0 17 135 23 14 17 6
 140 ?135 0 34 6 145 +0 0 143 132 23 15 137 78 0 146 135 134 50 255 20 494 0 135
 144 7 0 +-.01800395961654585 -.1554836646765905 -.000889753069905571 .838188991
453335 -.532656714445424 .117115494972469 .536347697574258 .843997125176853 -104
9744630730324e-31 13 23 3 0 0 0 0 0 0 10 135 51 144 122 0 132 145 20 0 --.013375
24113660722 -.1495633699239172 -.0002430079308095665 -.838188991453335 .53265671
4445424 -.117115494972469 .0079 -.536347697574258 -.843997125176853 0 50 145 37
 0 17 147 144 0 +-.01961883872564035 -.1594288815894585 -.0004446572847534655 .8
38188991453335 -.532656714445425 .117115494972469 .536347697574259 .843997125176
852 -1049744630730324e-31 50 147 109 0 143 148 145 0 +-.0217143112042737 -.15809
7239803345 -.000737446022184638 .838188991453335 -.532656714445425 .117115494972
469 .536347697574259 .843997125176852 -1049744630730324e-31 14 143 94 149 ?19 13
2 150 6 147 -0 0 19 17 23 50 148 310 0 110 151 147 0 +-.00983882910126442 -.1488
050825206166 .00349454395916847 -.240828573874278 -.554162878401885 -.7968093261
29545 0 .820972460209497 -.570967792066738 14 110 276 152 ?90 19 106 6 148 -0 0
 90 19 23 50 151 311 0 90 153 148 0 +-.0121516102976866 -.1523370606720945 .0039
8308615279975 .303355237048591 .2768908042988185 -.911760430513381 -.94885951817
1196 0 -.31569861383276 14 90 280 154 ?155 110 84 6 151 -0 0 155 110 23 50 153 3
12 0 155 156 151 0 +-.0131751317366523 -.1546922529053025 .000596646516749186 .5
44183810922869 .831053682700702 -.114951104383836 -.836599373638099 .54781519514
1883 0 14 155 284 157 ?158 90 159 6 153 -0 0 158 90 23 50 156 313 0 158 160 153
 0 +-.0118858719791958 -.1535154669870325 -.0032783353129327 .240828573874278 .5
54162878401884 .796809326129545 0 -.820972460209497 .570967792066738 14 158 288
 161 ?162 155 163 6 156 -0 0 162 155 23 50 160 314 0 162 164 156 0 +-.0095730907
827736 -.1499834888355546 -.00376687750656399 -.303355237048591 -.27689080429881
85 .911760430513381 .948859518171196 0 .31569861383276 14 162 292 165 ?166 158 1
67 6 160 -0 0 166 158 23 50 164 315 0 166 168 160 0 +-.00854956934380791 -.14762
82966023466 -.000380437870513413 -.544183810922869 -.831053682700702 .1149511043
838402 .836599373638099 -.547815195141884 0 14 166 296 169 ?102 162 170 6 164 -0
 0 102 162 23 50 168 317 0 102 171 164 0 +-.01086235054023014 -.1511602747538245
 .0001081043231178894 .838188991453335 -.532656714445425 .117115494972469 .52753
2121172405 .846331391687798 .073709134950411 14 102 300 172 ?173 166 174 6 168 +
0 0 173 166 23 51 171 481 0 173 0 168 0 --.01568283894283015 -.148096925627634 -
.000565435762753051 .838188991453335 -.532656714445425 .117115494972469 .0025 .5
36347697574259 .843997125176852 0 14 173 472 175 ?0 102 176 6 171 +0 0 0 102 23
 81 1 175 519 138 173 177 0 172 0 178 15 176 461 0 179 173 180 17 179 0 176 179
 179 0 181 182 0 0 +15 180 462 0 183 173 0 17 183 0 180 183 183 0 184 185 0 0 +1
7 184 0 150 184 184 0 183 185 0 0 -16 185 450 186 ?183 38 182 187 0 0 1 81 1 186
 487 30 185 0 0 188 189 190 16 38 186 191 ?37 192 185 193 0 0 1 16 182 445 189 ?
179 185 0 194 0 0 1 31 187 482 0 185 194 109 0 --.01547238999322345 -.1482306628
243748 -.000536030899230694 .838188991453335 -.532656714445425 .117115494972469
 .536347697574259 .843997125176853 0 .0025 31 194 484 0 182 0 187 0 +-.010862350
5402301 -.1511602747538245 .0001081043231178874 .838188991453335 -.5326567144454
25 .117115494972469 .536347697574259 .843997125176852 0 .0025 30 109 335 0 99 18
7 100 0 +-.00983882910126442 -.1488050825206166 .00349454395916847 -.48932689749
5041 -.639672047816335 .592772181053003 30 100 334 0 87 109 195 0 +-.01215161029
76866 -.1523370606720945 .00398308615279975 -.453227111679823 -.799755154438506
 -.393671027874045 30 195 333 0 98 100 196 0 +-.0131751317366523 -.1546922529053
025 .000596646516749186 .0360997858152189 -.1600831066221705 -.986443208927047 1
6 98 240 197 ?75 198 87 195 0 0 1 30 196 332 0 198 195 199 0 +-.0118858719791958
 -.1535154669870325 -.0032783353129327 .489326897495041 .639672047816335 -.59277
2181053003 16 198 243 200 ?71 201 98 196 0 0 1 30 199 331 0 201 196 202 0 +-.009
5730907827736 -.1499834888355546 -.00376687750656399 .453227111679823 .799755154
438506 .393671027874045 16 201 246 203 ?67 104 198 199 0 0 1 30 202 330 0 104 19
9 193 0 +-.00854956934380791 -.1476282966023466 -.000380437870513413 -.036099785
8152165 .1600831066221745 .986443208927047 16 104 249 82 ?63 204 201 202 0 0 1 3
0 193 329 0 38 202 205 0 +-.01235339607562442 -.1472071123772804 .00314319747425
1065 -.489326897495041 -.639672047816335 .592772181053003 30 205 328 0 192 193 2
06 0 +-.01466617727204662 -.1507390905287585 .003631739667882345 -.4532271116798
23 -.799755154438506 -.393671027874045 16 192 194 32 ?89 207 38 205 0 0 1 30 206
 327 0 207 205 208 0 +-.0156896987110123 -.1530942827619665 .0002453000318317785
 .0360997858152189 -.1600831066221705 -.986443208927047 16 207 202 209 ?210 211
 192 206 0 0 1 30 208 326 0 211 206 212 0 +-.0144004389535558 -.1519174968436965
 -.003629681797850105 .489326897495041 .639672047816335 -.592772181053003 16 211
 210 213 ?214 215 207 208 0 0 1 30 212 325 0 215 208 216 0 +-.0120876577571336 -
.1483855186922184 -.0041182239914814 .453227111679823 .799755154438506 .39367102
7874045 16 215 218 217 ?45 44 211 212 0 0 1 30 216 324 0 44 212 218 0 +-.0110641
3631816792 -.1460303264590104 -.00073178435543082 -.0360997858152165 .1600831066
221745 .986443208927047 16 44 226 219 ?39 99 215 216 0 0 1 30 218 323 0 204 216
 220 0 +-.00863814878330487 -.1472354944973674 .002040035951397425 -.83818899145
3335 .532656714445425 -.117115494972469 16 204 191 114 ?107 221 104 218 0 0 1 30
 220 322 0 221 218 222 0 +-.00846098990431097 -.148021098707326 -.00280091169242
423 -.838188991453335 .532656714445425 -.117115494972469 16 221 231 223 ?224 225
 204 220 0 0 1 30 222 321 0 225 220 123 0 +-.01068519166123622 -.151945878963783
5 -.00473284332070376 -.838188991453335 .532656714445425 -.117115494972469 16 22
5 223 226 ?227 120 221 222 0 0 1 30 123 320 0 120 222 121 0 +-.01308655229715534
 -.155085055010282 -.001823827305161645 -.838188991453335 .532656714445425 -.117
115494972469 16 120 215 228 ?229 94 225 123 0 0 1 81 1 228 217 30 120 0 0 115 22
6 230 17 229 0 163 214 231 46 232 120 0 0 +15 163 291 0 214 158 0 17 214 0 163 2
33 229 40 51 211 0 227 +17 231 0 163 229 233 72 71 198 0 0 -17 232 0 159 95 210
 72 229 120 0 231 -15 159 287 0 210 155 0 17 95 0 159 93 232 76 75 98 0 0 -17 21
0 0 159 232 93 46 59 207 0 229 +17 93 0 159 210 95 56 86 94 0 0 +17 59 0 34 36 5
1 56 210 207 0 89 -15 34 168 0 28 17 234 17 36 0 34 28 59 52 89 192 0 85 -17 51
 0 34 59 43 46 214 211 0 210 -17 89 0 84 86 85 56 36 192 0 93 +17 43 0 34 51 35
 40 45 215 0 214 -17 45 0 167 235 227 29 43 215 0 224 +15 167 295 0 45 162 0 17
 235 0 167 236 45 64 224 221 0 103 -17 227 0 167 45 236 40 233 225 0 0 +17 224 0
 170 39 103 29 235 221 0 0 +15 170 299 0 39 166 0 17 39 0 170 105 224 12 35 44 0
 107 +17 103 0 170 224 105 64 63 104 0 0 -17 105 0 170 103 39 55 107 204 0 101 -
17 107 0 106 37 101 12 105 204 0 0 +17 236 0 167 227 235 68 67 201 0 0 -17 233 0
 163 231 214 68 227 225 0 236 -17 67 0 96 63 71 64 236 201 0 235 +17 71 0 96 67
 75 68 231 198 0 233 +17 75 0 96 71 79 72 95 98 0 232 +15 234 8 0 126 17 0 17 12
6 0 234 126 126 0 237 119 0 0 +17 237 0 133 237 237 0 126 119 0 0 -15 133 23 0 2
37 132 0 80 255 1 30 238 239 9000 0 0 0 0 3 6 0 0 0 FFTFTFTTFFFFFF1 81 1 115 209
 30 94 0 0 111 228 240 81 1 226 225 30 225 0 0 228 223 241 82 255 3 230 2524 2 1
 81 1 223 233 30 221 0 0 226 108 242 82 3 241 2524 3 1 81 1 108 236 30 99 0 0 22
3 97 243 82 3 242 2524 4 1 81 1 97 239 30 87 0 0 108 197 244 82 3 243 2524 17 1
 81 1 197 242 30 98 0 0 97 200 245 82 3 244 2524 7 1 81 1 200 245 30 198 0 0 197
 203 246 82 3 245 2524 9 1 81 1 203 248 30 201 0 0 200 82 247 82 3 246 2524 11 1
 81 1 82 251 30 104 0 0 203 80 248 82 3 247 2524 13 1 82 3 248 2524 15 1 82 3 24
0 2524 1 1 79 255 9 239 BTI/DetId81 1 114 193 30 204 0 0 249 111 250 81 1 249 12
8 30 132 0 141 24 114 251 82 3 250 2524 5 1 81 1 141 509 138 132 249 0 136 149 2
52 81 1 24 117 30 11 0 0 117 249 253 82 3 251 2521 0 2 81 1 117 88 30 112 0 0 12
5 24 254 82 3 253 2520 0 1 81 1 125 48 30 119 0 0 127 117 255 82 3 254 2519 1 1
 82 3 255 2515 3 1 80 1 138 0 256 8001 0 0 0 0 3 5 0 0 0 FFFFTFTFFFFFFF2 81 1 14
9 510 138 143 257 0 141 258 259 83 255 3 252 .866666666666667 .3215686274509805
 .156862745098039 81 1 257 490 30 143 0 149 177 260 261 81 1 258 511 138 19 262
 0 149 152 263 83 3 259 .866666666666667 .3215686274509805 .156862745098039 14 1
9 102 258 ?110 143 264 6 7 -0 0 110 143 23 81 1 262 503 30 19 0 258 139 0 265 81
 1 152 512 138 110 266 0 258 154 267 83 3 263 .866666666666667 .3215686274509805
 .156862745098039 81 1 266 278 30 110 0 152 62 268 269 81 1 154 513 138 90 268 0
 152 157 270 83 3 267 .866666666666667 .3215686274509805 .156862745098039 81 1 2
68 282 30 90 0 154 266 271 272 81 1 157 514 138 155 271 0 154 161 273 83 3 270 .
866666666666667 .3215686274509805 .156862745098039 81 1 271 286 30 155 0 157 268
 274 275 81 1 161 515 138 158 274 0 157 165 276 83 3 273 .866666666666667 .32156
86274509805 .156862745098039 81 1 274 290 30 158 0 161 271 277 278 81 1 165 516
 138 162 277 0 161 169 279 83 3 276 .866666666666667 .3215686274509805 .15686274
5098039 81 1 277 294 30 162 0 165 274 280 281 81 1 169 517 138 166 280 0 165 172
 282 83 3 279 .866666666666667 .3215686274509805 .156862745098039 81 1 280 298 3
0 166 0 169 277 283 284 81 1 172 518 138 102 260 0 169 175 285 83 3 282 .8666666
66666667 .3215686274509805 .156862745098039 81 1 260 491 30 102 0 172 257 139 28
6 83 3 285 .866666666666667 .3215686274509805 .156862745098039 81 1 139 497 30 1
35 0 136 260 262 287 82 3 286 2532 2 2 82 3 287 2533 0 2 81 1 283 354 30 1 0 288
 280 54 289 82 3 284 2524 6 2 81 1 288 504 290 1 283 14 0 0 291 81 1 54 355 30 5
2 0 0 283 58 292 82 3 289 2515 0 3 81 1 58 356 30 56 0 0 54 50 293 82 3 292 2525
 0 0 81 1 50 357 30 46 0 0 58 41 294 82 3 293 2525 1 0 81 1 41 358 30 40 0 0 50
 31 295 82 3 294 2525 2 0 82 3 295 2525 3 0 80 1 290 296 297 8038 0 0 0 0 0 0 0
 0 0 TTTTTTTTTTTTTF10 81 1 14 505 296 1 288 2 0 0 298 98 255 15 291 72 101 120 3
2 66 117 116 116 111 110 32 66 97 115 101 80 1 296 299 300 8017 0 0 0 0 0 0 0 0
 0 TTTTTTTTTTTTTF3 84 255 15 298 Hex Button Base79 13 300 SDL/TYSA_NAME79 14 297
 SDL/TYSA_UNAME82 3 281 2524 5 2 82 3 278 2524 4 2 82 3 275 2524 3 2 82 3 272 25
24 0 2 81 1 62 273 30 55 0 0 66 266 301 82 3 269 2524 7 2 81 1 66 271 30 64 0 0
 70 62 302 82 3 301 2524 11 0 81 1 70 269 30 68 0 0 74 66 303 82 3 302 2524 9 0
 81 1 74 267 30 72 0 0 78 70 304 82 3 303 2524 7 0 81 1 78 265 30 76 0 0 80 74 3
05 82 3 304 2524 5 0 82 3 305 2524 3 0 82 3 265 2534 0 2 15 264 105 0 118 19 306
 17 118 0 264 118 118 0 307 112 0 0 +15 306 106 0 25 19 0 17 25 0 306 25 25 0 14
6 11 0 0 +17 146 0 137 146 146 0 25 11 0 0 -17 307 0 308 307 307 0 118 112 0 0 -
15 308 97 0 307 143 0 81 1 177 489 30 173 0 175 189 257 309 82 3 261 2532 1 2 81
 1 189 488 30 182 0 0 186 177 310 82 3 309 2532 0 2 82 3 310 2532 1 1 79 15 256
 SDL/TYSA_COLOUR81 1 219 365 30 44 0 0 217 191 311 81 1 217 364 30 215 0 0 213 2
19 312 81 1 191 366 30 38 0 0 219 188 313 82 3 311 2525 4 1 81 1 188 367 30 17 0
 140 191 186 314 82 3 313 2525 5 1 81 1 140 507 138 17 188 0 0 136 315 82 3 314
 2525 0 2 83 3 315 .866666666666667 .3215686274509805 .156862745098039 81 1 213
 363 30 211 0 0 209 217 316 82 3 312 2525 3 1 81 1 209 362 30 207 0 0 32 213 317
 82 3 316 2525 2 1 81 1 32 361 30 192 0 0 27 209 318 82 3 317 2525 1 1 82 3 318
 2525 0 1 82 3 190 2532 0 1 15 150 436 0 184 143 308 17 181 0 174 181 181 0 179
 182 0 0 -15 174 428 0 181 102 96 83 3 178 .866666666666667 .3215686274509805 .1
56862745098039 83 3 142 .866666666666667 .3215686274509805 .156862745098039 82 3
 129 2515 2 1 82 3 116 2524 0 1 82 3 83 2524 1 0 82 3 42 2525 4 0 82 3 33 2525 5
 0 19 18 4 0 1 0 10 6 S0 74 4 CI16 index_map_offset0 0 1 dCCZ20 16 5 0 0 262 288
 14 2 175 0 0 0 0 0 0 0 0 0 0 0 0 0 0 0 80 1 13 138 319 8040 0 0 0 0 3 5 0 0 0 T
TTFFFFFFFFFFF2 83 3 15 .866666666666667 .3215686274509805 .156862745098039 79 17
 319 SDL/TYSA_COLOUR_21 0 
