**ABCDEFGHIJKLMNOPQRSTUVWXYZabcdefghijklmnopqrstuvwxyz**************************
**PARASOLID !"#$%&'()*+,-./:;<=>?@[\]^_`{|}~0123456789**************************
**PART1;
MC=unknown;
MC_MODEL=unknown;
MC_ID=unknown;
OS=unknown;
OS_RELEASE=unknown;
FRU=Parasolid 33.1.200;
APPL=Onshape;
SITE=unknown;
USER=unknown;
FORMAT=text;
GUISE=transmit;
KEY=BTGapi::writeModels_.xmt;
FILE=BTGapi::writeModels_.xmt;
DATE=2021-07-17T16:39:25 (UTC);
**PART2;
SCH=SCH_3301200_33103;
USFLD_SIZE=0;
**PART3;
**END_OF_HEADER*****************************************************************
T51 : TRANSMIT FILE created by modeller version 330120023 SCH_3301200_33103_1300
6230 0 12 35 CCCI7 lattice222 0 CCCI4 mesh1006 0 I8 polyline1008 0 CCCCCCCDI5 ow
ner1040 0 CCCCCCI13 boundary_mesh1006 0 I17 boundary_polyline1008 0 CCCA16 index
_map_offset0 0 1 dA9 index_map82 0 A17 node_id_index_map82 0 A20 schema_embeddin
g_map82 0 A5 child12 0 A14 lowest_node_id0 0 1 dA16 mesh_offset_data206 0 Z1 147
5 2 3 0 0 0 0 0 0 0 1e3 1e-8 0 4 5 1 0 1 1 6 7 8 9 0 0 10 11 12 0 0 0 0 0 0 0 81
 255 1 2 1449 13 1 14 0 0 0 15 70 11 CI9 list_type0 0 1 uI10 notransmit0 0 1 lCC
CDCCDI12 finger_index0 0 1 dI12 finger_block1012 0 CZ3 0 4 T1 0 0 5 20 1 16 16 1
3 255 6 276 0 1 0 17 0 0 18 0 50 255 7 1411 0 19 20 0 0 +0 -.002 0 0 -1 0 1 0 0
 30 255 8 1444 0 21 22 0 0 +0 -.002 -.00506031692203301 1 0 0 29 255 9 1427 0 23
 24 0 .00165 -.002 -.00506031692203301 19 8 CCCCCCCA5 owner12 0 Z10 94 0 1 18 0
 25 V0 16 255 11 145 26 ?27 0 28 29 0 0 1 18 255 12 205 30 31 0 32 33 ?1 81 1 30
 834 34 12 0 0 35 36 37 17 255 31 0 38 39 40 12 41 42 0 43 +18 32 615 36 44 12 4
5 46 ?1 29 33 1413 0 12 46 47 .00165 -.006 -.0052 29 46 1412 0 32 48 33 .00205 -
.006 -.0048 29 47 1414 0 49 33 50 -.00165 -.006 -.0052 18 49 633 35 39 51 23 47
 ?1 29 50 1415 0 51 47 52 -.00205 -.006 -.0048 18 51 630 53 54 55 49 50 ?1 29 52
 1416 0 55 50 56 -.00205 -.006 .0048 18 55 627 57 58 59 51 52 ?1 29 56 1417 0 59
 52 60 -.00165 -.006 .0052 18 59 624 61 62 63 55 56 ?1 29 60 1418 0 63 56 64 .00
165 -.006 .0052 18 63 621 65 66 45 59 60 ?1 29 64 1419 0 45 60 67 .00205 -.006 .
0048 18 45 618 68 69 32 63 64 ?1 29 67 1420 0 70 64 71 .00191031692203301 -.002
 -.0048 18 70 601 72 73 74 75 67 ?1 29 71 1421 0 74 67 76 .00191031692203301 -.0
02 .0048 18 74 603 77 78 79 70 71 ?1 29 76 1422 0 79 71 80 .00165 -.002 .0050603
1692203301 18 79 605 81 82 83 74 76 ?1 29 80 1423 0 83 76 84 -.00165 -.002 .0050
6031692203301 18 83 607 85 86 87 79 80 ?1 29 84 1424 0 87 80 88 -.00191031692203
301 -.002 .0048 18 87 609 89 90 91 83 84 ?1 29 88 1425 0 91 84 24 -.001910316922
03301 -.002 -.0048 18 91 611 92 93 94 87 88 ?1 29 24 1426 0 94 88 9 -.00165 -.00
2 -.00506031692203301 18 94 613 95 96 23 91 24 ?1 81 1 95 614 34 94 0 0 92 57 97
 17 96 0 38 40 39 94 98 99 0 100 -18 23 599 101 41 49 94 9 ?1 81 1 101 600 34 23
 0 0 102 72 103 17 41 0 104 105 43 23 31 42 0 40 -15 255 104 641 0 106 107 0 17
 105 0 104 106 41 70 108 109 0 0 -17 43 0 104 41 106 12 110 111 0 112 +16 42 491
 113 ?31 99 21 114 0 0 1 17 40 0 38 31 96 23 115 21 0 108 +15 38 669 0 39 116 0
 17 115 0 117 118 108 94 40 21 0 0 -16 21 488 119 ?40 42 120 8 0 0 1 17 108 0 11
7 115 121 23 105 109 0 0 +15 117 705 0 108 19 0 17 121 0 117 108 122 70 123 124
 0 105 -16 109 566 125 ?108 124 126 127 0 0 1 81 1 125 568 34 109 0 0 119 128 12
9 16 124 452 130 ?123 131 109 132 0 0 1 16 126 940 133 ?134 109 135 136 0 0 1 31
 255 127 1437 0 109 29 132 0 -.00165 -.002 -.0048 0 -1 0 0 0 -1 .000260316922033
009 31 29 1436 0 11 137 127 0 +0 -.006 0 0 -1 0 0 0 -1 .00595 30 132 1438 0 124
 127 138 0 +.00191031692203301 -.002 0 0 0 1 31 138 1439 0 131 132 139 0 -.00165
 -.002 .0048 0 -1 0 0 0 -1 .000260316922033009 16 131 575 102 ?122 140 124 138 0
 0 1 30 139 1440 0 140 138 141 0 +0 -.002 .00506031692203301 -1 0 0 16 140 464 1
42 ?143 144 131 139 0 0 1 31 141 1441 0 144 139 145 0 --.00165 -.002 .0048 0 -1
 0 0 0 -1 .000260316922033009 16 144 572 146 ?147 148 140 141 0 0 1 30 145 1442
 0 148 141 22 0 +-.00191031692203301 -.002 0 0 0 -1 16 148 476 149 ?150 120 144
 145 0 0 1 31 22 1443 0 120 145 8 0 --.00165 -.002 -.0048 0 -1 0 0 0 -1 .0002603
16922033009 16 120 569 128 ?118 21 148 22 0 0 1 81 1 128 571 34 120 0 0 125 146
 151 17 118 0 117 152 115 91 100 120 0 0 +17 152 0 117 147 118 87 150 148 0 0 -1
7 100 0 153 98 93 94 118 120 0 115 -15 153 665 0 98 154 0 17 98 0 153 54 100 49
 96 99 0 155 +17 93 0 153 100 54 91 156 157 0 150 -17 54 0 153 93 98 51 155 158
 0 156 +17 156 0 159 58 150 51 93 157 0 160 +16 157 479 161 ?156 162 99 163 0 0
 1 17 150 0 159 156 90 91 152 148 0 118 +15 159 661 0 58 164 0 17 90 0 159 150 5
8 87 165 162 0 166 -17 58 0 159 90 156 55 160 167 0 165 -17 165 0 168 62 166 55
 90 162 0 169 +16 162 470 170 ?165 171 157 172 0 0 1 17 166 0 168 165 86 87 147
 144 0 152 -15 168 657 0 165 173 0 17 86 0 168 166 62 83 174 171 0 143 -17 147 0
 117 175 152 83 166 144 0 0 +17 175 0 117 122 147 79 143 140 0 0 -17 122 0 117 1
21 175 74 176 131 0 0 +17 143 0 177 174 82 83 175 140 0 147 +15 177 653 0 66 178
 0 17 174 0 177 66 143 59 86 171 0 179 +17 82 0 177 143 66 79 180 181 0 176 -17
 66 0 177 82 174 63 179 182 0 180 -17 180 0 183 69 176 63 82 181 0 184 +16 181 4
58 185 ?180 186 171 187 0 0 1 17 176 0 183 180 78 79 122 131 0 175 -15 183 649 0
 180 188 0 17 78 0 183 176 69 74 189 186 0 123 -17 69 0 183 78 180 45 184 28 0 1
89 +17 189 0 190 44 123 45 78 186 0 191 +16 186 455 192 ?189 193 181 194 0 0 1 1
7 123 0 190 189 73 74 121 124 0 122 +15 190 645 0 44 195 0 17 73 0 190 123 44 70
 106 193 0 121 -17 44 0 190 73 189 32 191 196 0 106 -17 106 0 104 43 105 32 73 1
93 0 110 +16 193 446 197 ?106 196 186 198 0 0 1 81 1 197 851 34 193 0 0 113 192
 199 16 196 177 200 ?191 111 193 201 0 0 1 30 198 1341 0 193 114 194 0 +.00205 -
.006 -.0048 .03489949670250095 -.999390827019096 0 30 114 1340 0 42 202 198 0 +.
00165 -.006 -.0052 0 -.999390827019096 -.03489949670250095 30 194 1342 0 186 198
 187 0 +.00205 -.006 .0048 .03489949670250095 -.999390827019096 0 30 187 1343 0
 181 194 203 0 +.00165 -.006 .0052 -189190550717511e-31 -.999390827019096 .03489
949670250095 30 203 1393 0 204 187 205 0 +.00656169153511208 -.019 .003960002564
97483 -.138498450555446 0 -.990362650342661 16 204 967 206 ?207 208 209 203 0 0
 1 31 205 1394 0 208 203 210 0 +0 -.019 0 0 -1 0 0 0 -1 .00595 16 208 1045 211 ?
212 213 204 205 0 0 1 30 210 1395 0 209 205 214 0 +-.00656169153511208 -.019 .00
396000256497483 .138498450555446 0 -.990362650342661 16 209 1042 215 ?216 204 21
7 210 0 0 1 31 214 1396 0 217 210 218 0 +-.00525000000000025 -.019 .009021067811
86543 0 -1 0 0 0 -1 .00199999999999975 16 217 1039 219 ?220 209 221 214 0 0 1 30
 218 1397 0 221 214 222 0 +-.00725 -.019 .01107106781186544 0 0 -1 16 221 1036 2
23 ?224 217 225 218 0 0 1 31 222 1398 0 225 218 226 0 +-.00525 -.019 .0131210678
1186544 0 -1 0 0 0 -1 .002 16 225 1033 227 ?228 221 229 222 0 0 1 30 226 1399 0
 229 222 230 0 +0 -.019 .01512106781186545 1 0 0 16 229 991 231 ?232 225 233 226
 0 0 1 31 230 1400 0 233 226 234 0 +.00525 -.019 .01312106781186544 0 -1 0 0 0 -
1 .002 16 233 1030 235 ?236 229 237 230 0 0 1 30 234 1401 0 237 230 238 0 +.0072
5 -.019 .01107106781186544 0 0 -1 16 237 979 239 ?240 233 241 234 0 0 1 31 238 1
402 0 241 234 242 0 +.00525000000000025 -.019 .00902106781186544 0 -1 0 0 0 -1 .
00199999999999975 16 241 1027 243 ?244 237 245 238 0 0 1 30 242 1403 0 246 238 2
47 0 +-.00525 -.019 .01107106781186544 0 0 -1 16 246 949 248 ?249 250 251 242 0
 0 1 30 247 1404 0 245 242 252 0 +0 -.019 .00902106781186545 1 0 0 16 245 1021 2
53 ?254 241 255 247 0 0 1 30 252 1405 0 255 247 256 0 +.00525 -.019 .01107106781
186544 0 0 -1 16 255 1051 257 ?258 245 250 252 0 0 1 30 256 1406 0 250 252 201 0
 +0 -.019 .01312106781186544 1 0 0 16 250 1048 259 ?260 255 246 256 0 0 1 30 201
 1428 0 196 256 261 0 +.00205 -.006 0 0 0 1 31 261 1429 0 111 201 262 0 -.00165
 -.006 -.0048 0 -1 0 0 0 -1 4e-4 16 111 173 263 ?43 264 196 261 0 0 1 30 262 143
0 0 264 261 265 0 +0 -.006 -.0052 1 0 0 16 264 169 266 ?112 158 111 262 0 0 1 31
 265 1431 0 158 262 267 0 --.00165 -.006 -.0048 0 -1 0 0 0 -1 4e-4 16 158 165 26
8 ?54 167 264 265 0 0 1 30 267 1432 0 167 265 269 0 +-.00205 -.006 0 0 0 -1 16 1
67 161 270 ?160 271 158 267 0 0 1 31 269 1433 0 271 267 272 0 --.00165 -.006 .00
48 0 -1 0 0 0 -1 4e-4 16 271 157 273 ?62 182 167 269 0 0 1 30 272 1434 0 182 269
 137 0 +0 -.006 .0052 -1 0 0 16 182 153 274 ?179 28 271 272 0 0 1 31 137 1435 0
 28 272 29 0 -.00165 -.006 .0048 0 -1 0 0 0 -1 4e-4 16 28 149 275 ?69 11 182 137
 0 0 1 81 1 275 844 34 28 0 0 200 170 276 80 255 1 34 277 278 9000 0 0 0 0 3 6 0
 0 0 FFTFTFTTFFFFFF1 81 1 200 843 34 196 0 0 263 275 279 81 1 170 845 34 162 0 0
 275 161 280 82 255 3 276 18 7 1 81 1 161 846 34 157 0 0 170 185 281 82 3 280 18
 8 1 81 1 185 847 34 181 0 0 161 282 283 82 3 281 18 9 1 81 1 282 848 34 171 0 0
 185 284 285 82 3 283 18 10 1 16 171 467 282 ?174 181 162 286 0 0 1 81 1 284 849
 34 99 0 0 282 113 287 82 3 285 18 11 1 16 99 482 284 ?98 157 42 202 0 0 1 81 1
 113 850 34 42 0 0 284 197 288 82 3 287 18 12 1 82 3 288 18 13 1 30 202 1339 0 9
9 163 114 0 +-.00165 -.006 -.0052 0 -.999390827019096 -.03489949670250095 30 163
 1338 0 157 286 202 0 +-.00205 -.006 -.0048 -.03489949670250095 -.99939082701909
6 0 30 286 1337 0 171 172 163 0 +-.00165 -.006 .0052 0 -.999390827019096 .034899
49670250095 30 172 1336 0 162 136 286 0 +-.00205 -.006 .0048 -.03489949670250095
 -.999390827019096 0 31 136 1201 0 126 289 172 0 +0 -.015 0 0 -1 0 0 0 -1 .00595
 30 289 1202 0 135 290 136 0 +-.00525 -.025 .01312106781186544 0 1 0 16 135 958
 291 ?292 126 293 289 0 0 1 30 290 1203 0 293 294 289 0 +.00525 -.025 .013121067
81186544 0 1 0 16 293 964 295 ?296 135 297 290 0 0 1 30 294 1204 0 297 298 290 0
 +.00525 -.025 .00902106781186545 0 1 0 16 297 1024 299 ?300 293 301 294 0 0 1 3
0 298 1205 0 301 302 294 0 +-.00525 -.025 .00902106781186545 0 1 0 16 301 952 30
3 ?304 297 305 298 0 0 1 30 302 1206 0 305 306 298 0 +.00723072530068532 -.025 .
00874407091075456 0 1 0 16 305 976 307 ?308 301 309 302 0 0 1 30 306 1207 0 309
 310 302 0 +.00725 -.025 .00902106781186545 0 1 0 16 309 982 311 ?312 305 313 30
6 0 0 1 30 310 1208 0 313 314 306 0 +.00725 -.025 .01312106781186544 0 1 0 16 31
3 988 315 ?316 309 317 310 0 0 1 30 314 1209 0 317 318 310 0 +.00525 -.025 .0151
2106781186545 0 1 0 16 317 994 319 ?320 313 321 314 0 0 1 30 318 1210 0 321 322
 314 0 +-.00525 -.025 .01512106781186545 0 1 0 16 321 1000 323 ?324 317 325 318
 0 0 1 30 322 1211 0 325 326 318 0 +-.00725 -.025 .01312106781186544 0 1 0 16 32
5 1006 327 ?328 321 329 322 0 0 1 30 326 1212 0 329 330 322 0 +-.00725 -.025 .00
902106781186545 0 1 0 16 329 1012 331 ?332 325 333 326 0 0 1 30 330 1213 0 333 3
34 326 0 +-.00723072530068532 -.025 .00874407091075456 0 1 0 16 333 1018 335 ?33
6 329 337 330 0 0 1 30 334 1214 0 337 338 330 0 +-.00589265776953884 -.025 -.000
824065780804901 0 1 0 16 337 923 339 ?340 333 213 334 0 0 1 30 338 1215 0 213 34
1 334 0 +.00589265776953884 -.025 -.000824065780804903 0 1 0 16 213 970 342 ?343
 337 208 338 0 0 1 30 341 1216 0 251 344 338 0 +.00656169153511208 -.015 .003960
00256497483 -.138498450555446 0 -.990362650342661 16 251 937 345 ?346 246 347 34
1 0 0 1 30 344 1217 0 347 348 341 0 +-.00656169153511208 -.015 .0039600025649748
3 .138498450555446 0 -.990362650342661 16 347 1015 349 ?350 251 351 344 0 0 1 31
 348 1218 0 351 352 344 0 +-.00525000000000025 -.015 .00902106781186543 0 -1 0 0
 0 -1 .00199999999999975 16 351 1009 353 ?354 347 355 348 0 0 1 30 352 1219 0 35
5 356 348 0 +-.00725 -.015 .01107106781186544 0 0 -1 16 355 1003 357 ?358 351 35
9 352 0 0 1 31 356 1220 0 359 360 352 0 +-.00525 -.015 .01312106781186544 0 -1 0
 0 0 -1 .002 16 359 997 361 ?362 355 363 356 0 0 1 30 360 1221 0 363 364 356 0 +
0 -.015 .01512106781186545 1 0 0 16 363 943 365 ?366 359 367 360 0 0 1 31 364 12
22 0 367 368 360 0 +.00525 -.015 .01312106781186544 0 -1 0 0 0 -1 .002 16 367 98
5 369 ?370 363 371 364 0 0 1 30 368 1223 0 371 372 364 0 +.00725 -.015 .01107106
781186544 0 0 -1 16 371 946 373 ?374 367 375 368 0 0 1 31 372 1224 0 375 376 368
 0 +.00525000000000025 -.015 .00902106781186544 0 -1 0 0 0 -1 .00199999999999975
 16 375 973 377 ?378 371 379 372 0 0 1 30 376 1225 0 379 380 372 0 +0 -.015 .009
02106781186545 1 0 0 16 379 934 381 ?382 375 383 376 0 0 1 30 380 1226 0 383 384
 376 0 +.00525 -.015 .01107106781186544 0 0 -1 16 383 961 385 ?386 379 387 380 0
 0 1 30 384 1227 0 387 388 380 0 +0 -.015 .01312106781186544 1 0 0 16 387 955 38
9 ?390 383 391 384 0 0 1 30 388 1228 0 391 0 384 0 +-.00525 -.015 .0110710678118
6544 0 0 -1 16 391 931 392 ?393 387 0 388 0 0 1 81 1 392 933 34 391 0 0 339 381
 394 17 393 0 395 382 396 397 398 391 0 399 +15 395 1122 0 393 400 401 17 382 0
 395 402 393 403 399 379 0 0 +17 396 0 395 393 402 404 390 387 0 398 -18 397 106
2 405 304 406 403 407 ?1 17 398 0 408 409 304 404 393 391 0 0 -17 399 0 410 411
 300 397 382 379 0 0 -15 410 1175 0 399 412 0 17 411 0 410 254 399 413 304 301 0
 249 -17 300 0 410 399 254 403 414 297 0 386 +17 254 0 410 300 411 415 416 245 0
 0 +18 403 1092 417 300 397 418 419 ?1 17 414 0 420 421 386 415 300 297 0 254 -1
7 386 0 420 414 296 403 402 383 0 382 +15 420 1135 0 386 422 0 17 296 0 420 386
 421 418 423 293 0 390 +17 402 0 395 396 382 418 386 383 0 296 -18 418 1056 424
 402 403 404 425 ?1 81 1 424 1057 34 418 0 0 426 427 428 18 404 1064 429 292 418
 0 430 ?1 29 425 1255 0 418 430 419 .00525 -.015 .01312106781186544 29 430 1256
 0 404 0 425 -.00525 -.015 .01312106781186544 29 419 1254 0 403 425 407 .00525 -
.015 .00902106781186545 29 407 1253 0 397 419 431 -.00525 -.015 .009021067811865
45 29 431 1252 0 406 407 432 .00723072530068532 -.015 .00874407091075456 18 406
 1070 433 308 434 397 431 ?1 29 432 1251 0 434 431 435 .00725 -.015 .00902106781
186545 18 434 1074 436 312 437 406 432 ?1 29 435 1250 0 437 432 438 .00725 -.015
 .01312106781186544 18 437 1076 439 316 440 434 435 ?1 29 438 1249 0 440 435 441
 .00525 -.015 .01512106781186545 18 440 1080 442 320 443 437 438 ?1 29 441 1248
 0 443 438 444 -.00525 -.015 .01512106781186545 18 443 1084 445 324 446 440 441
 ?1 29 444 1247 0 446 441 447 -.00725 -.015 .01312106781186544 18 446 1082 448 3
62 449 443 444 ?1 29 447 1246 0 449 444 450 -.00725 -.015 .00902106781186545 18
 449 1086 451 358 452 446 447 ?1 29 450 1245 0 452 447 453 -.00723072530068532 -
.015 .00874407091075456 18 452 1088 454 354 455 449 450 ?1 29 453 1244 0 455 450
 456 .00589265776953884 -.015 -.000824065780804903 18 455 1054 426 457 458 452 4
53 ?1 29 456 1243 0 75 453 459 -.00589265776953884 -.015 -.000824065780804903 18
 75 1058 427 134 70 460 456 ?1 29 459 1379 0 460 456 461 .00589265776953884 -.01
9 -.000824065780804903 18 460 1106 462 212 75 463 459 ?1 29 461 1380 0 463 459 4
64 -.00589265776953884 -.019 -.000824065780804901 18 463 1104 465 216 460 466 46
1 ?1 29 464 1381 0 466 461 467 -.00723072530068532 -.019 .00874407091075456 18 4
66 1102 468 220 463 469 464 ?1 29 467 1382 0 469 464 470 -.00725 -.019 .00902106
781186545 18 469 1100 471 224 466 472 467 ?1 29 470 1383 0 472 467 473 -.00725 -
.019 .01312106781186544 18 472 1098 474 228 469 475 470 ?1 29 473 1384 0 475 470
 476 -.00525 -.019 .01512106781186545 18 475 1078 477 478 472 479 473 ?1 29 476
 1385 0 479 473 480 .00525 -.019 .01512106781186545 18 479 1096 481 236 475 482
 476 ?1 29 480 1386 0 482 476 483 .00725 -.019 .01312106781186544 18 482 1072 48
4 485 479 486 480 ?1 29 483 1387 0 486 480 487 .00725 -.019 .00902106781186545 1
8 486 1094 488 244 482 489 483 ?1 29 487 1388 0 489 483 490 .00723072530068532 -
.019 .00874407091075456 18 489 1068 491 492 486 413 487 ?1 29 490 1389 0 413 487
 493 -.00525 -.019 .00902106781186545 18 413 1090 494 411 489 415 490 ?1 29 493
 1390 0 415 490 495 .00525 -.019 .00902106781186545 18 415 1108 496 258 413 497
 493 ?1 29 495 1391 0 497 493 48 .00525 -.019 .01312106781186544 18 497 1066 498
 421 415 458 495 ?1 29 48 1392 0 458 495 46 -.00525 -.019 .01312106781186544 18
 458 1060 499 409 497 455 48 ?1 81 1 499 1061 34 458 0 0 427 405 500 17 409 0 40
8 249 398 458 292 135 0 501 -15 408 1127 0 398 502 0 17 249 0 408 304 409 413 50
3 246 0 416 +17 292 0 504 390 501 404 409 135 0 396 +17 501 0 504 292 423 458 26
0 250 0 503 -15 504 1131 0 390 505 0 17 423 0 504 501 390 497 296 293 0 0 -17 26
0 0 506 258 503 497 501 250 0 423 +17 503 0 506 260 416 458 249 246 0 0 -15 506
 1180 0 503 507 0 17 416 0 506 503 258 413 254 245 0 0 -17 258 0 506 416 260 415
 421 255 0 414 +17 421 0 420 296 414 497 258 255 0 260 -14 255 507 1176 508 ?0 4
12 509 6 510 +0 0 0 412 25 81 1 508 1475 511 507 512 0 513 0 514 14 412 1172 513
 ?507 515 410 6 516 +0 0 507 515 25 15 509 1179 0 517 507 506 50 510 1378 0 507
 518 20 0 +-.000505129826554568 -.019 .00458553390593273 0 -1 0 1 0 0 13 25 95 0
 0 0 0 0 0 10 17 14 17 240 519 ?520 0 521 6 522 -0 0 520 0 25 81 1 519 1450 511
 17 523 0 0 524 525 14 520 131 524 ?19 17 526 6 20 -0 0 19 17 25 15 521 241 0 27
 17 527 51 255 522 259 0 17 528 529 0 -0 -.01 0 0 1 0 .00595 0 0 1 50 528 1185 0
 502 530 522 0 +-.00525 -.025 .01107106781186544 1 0 0 0 0 -1 52 255 529 1360 0
 173 522 531 0 --.00165 -.006 .0048 0 -1 0 4e-4 .03489949670250095 .999390827019
096 0 0 -1 14 173 686 532 ?178 164 168 6 529 -0 0 178 164 25 52 531 1361 0 154 5
29 533 0 --.00165 -.006 -.0048 0 -1 0 4e-4 .03489949670250095 .999390827019096 0
 0 -1 14 154 694 534 ?164 116 153 6 531 -0 0 164 116 25 50 533 1362 0 195 531 53
5 0 +.00205 -.006 0 .999390827019096 .03489949670250095 0 -.03489949670250095 .9
99390827019096 0 14 195 674 536 ?107 188 190 6 533 +0 0 107 188 25 50 535 1363 0
 116 533 537 0 +0 -.006 -.0052 0 .03489949670250095 -.999390827019096 0 .9993908
27019096 .03489949670250095 14 116 698 538 ?154 19 38 6 535 +0 0 154 19 25 50 53
7 1364 0 164 535 539 0 +-.00205 -.006 0 -.999390827019096 .03489949670250095 0 -
.03489949670250095 -.999390827019096 0 14 164 690 540 ?173 154 159 6 537 +0 0 17
3 154 25 52 539 1365 0 107 537 541 0 -.00165 -.006 -.0048 0 -1 0 4e-4 .034899496
70250095 .999390827019096 0 0 -1 14 107 670 542 ?400 195 104 6 539 -0 0 400 195
 25 50 541 1366 0 178 539 518 0 +0 -.006 .0052 0 .03489949670250095 .99939082701
9096 0 -.999390827019096 .03489949670250095 14 178 682 543 ?188 173 177 6 541 +0
 0 188 173 25 52 518 1367 0 188 541 510 0 -.00165 -.006 .0048 0 -1 0 4e-4 .03489
949670250095 .999390827019096 0 0 -1 14 188 678 544 ?195 178 183 6 518 -0 0 195
 178 25 81 1 544 1458 511 188 545 0 543 536 546 80 1 511 0 547 8001 0 0 0 0 3 5
 0 0 0 FFFFTFTFFFFFFF2 81 1 545 1375 34 188 0 544 548 512 549 81 1 543 1457 511
 178 550 0 532 544 551 81 1 536 1459 511 195 548 0 544 542 552 83 255 3 546 .917
647058823529 .917647058823529 .917647058823529 81 1 548 1374 34 195 0 536 553 54
5 554 81 1 542 1460 511 107 553 0 536 555 556 83 3 552 .917647058823529 .9176470
58823529 .917647058823529 81 1 553 1373 34 107 0 542 557 548 558 81 1 555 1461 5
11 400 559 0 542 560 561 83 3 556 .917647058823529 .917647058823529 .91764705882
3529 14 400 1119 555 ?502 107 395 6 562 -0 0 502 107 25 81 1 559 1121 34 400 0 5
55 496 563 564 81 1 560 1462 511 502 563 0 555 565 566 83 3 561 .917647058823529
 .917647058823529 .917647058823529 14 502 1124 560 ?505 400 408 6 528 +0 0 505 4
00 25 81 1 563 1126 34 502 0 560 559 567 568 81 1 565 1463 511 505 567 0 560 569
 570 83 3 566 .917647058823529 .917647058823529 .917647058823529 14 505 1128 565
 ?422 502 504 6 530 -0 0 422 502 25 81 1 567 1130 34 505 0 565 563 571 572 81 1
 569 1464 511 422 571 0 565 573 574 83 3 570 .917647058823529 .917647058823529 .
917647058823529 14 422 1132 569 ?575 505 420 6 576 -0 0 575 505 25 81 1 571 1134
 34 422 0 569 567 577 578 81 1 573 1465 511 575 577 0 569 579 580 83 3 574 .9176
47058823529 .917647058823529 .917647058823529 14 575 1136 573 ?581 422 582 6 583
 +0 0 581 422 25 81 1 577 1138 34 575 0 573 571 584 585 81 1 579 1466 511 581 58
4 0 573 586 587 83 3 580 .917647058823529 .917647058823529 .917647058823529 14 5
81 1140 579 ?588 575 589 6 590 -0 0 588 575 25 81 1 584 1142 34 581 0 579 577 59
1 592 81 1 586 1467 511 588 591 0 579 593 594 83 3 587 .917647058823529 .9176470
58823529 .917647058823529 14 588 1144 586 ?595 581 596 6 597 +0 0 595 581 25 81
 1 591 1146 34 588 0 586 584 598 599 81 1 593 1468 511 595 598 0 586 600 601 83
 3 594 .917647058823529 .917647058823529 .917647058823529 14 595 1148 593 ?602 5
88 603 6 604 -0 0 602 588 25 81 1 598 1150 34 595 0 593 591 605 606 81 1 600 146
9 511 602 605 0 593 607 608 83 3 601 .917647058823529 .917647058823529 .91764705
8823529 14 602 1152 600 ?609 595 610 6 611 +0 0 609 595 25 81 1 605 1154 34 602
 0 600 598 612 613 81 1 607 1470 511 609 612 0 600 614 615 83 3 608 .91764705882
3529 .917647058823529 .917647058823529 14 609 1156 607 ?616 602 617 6 618 -0 0 6
16 602 25 81 1 612 1158 34 609 0 607 605 619 620 81 1 614 1471 511 616 619 0 607
 621 622 83 3 615 .917647058823529 .917647058823529 .917647058823529 14 616 1160
 614 ?623 609 624 6 625 -0 0 623 609 25 81 1 619 1162 34 616 0 614 612 626 627 8
1 1 621 1472 511 623 626 0 614 628 629 83 3 622 .917647058823529 .91764705882352
9 .917647058823529 14 623 1164 621 ?515 616 630 6 631 -0 0 515 616 25 81 1 626 1
166 34 623 0 621 619 632 633 81 1 628 1473 511 515 632 0 621 513 634 83 3 629 .9
17647058823529 .917647058823529 .917647058823529 14 515 1168 628 ?412 623 635 6
 636 -0 0 412 623 25 81 1 632 1170 34 515 0 628 626 637 638 81 1 513 1474 511 41
2 637 0 628 508 639 83 3 634 .917647058823529 .917647058823529 .917647058823529
 81 1 637 1174 34 412 0 513 632 640 641 83 3 639 .917647058823529 .9176470588235
29 .917647058823529 81 1 640 1275 34 1 0 642 637 523 643 82 3 641 22 4 2 81 1 64
2 1447 644 1 640 14 0 0 645 81 1 523 1276 34 17 0 519 640 550 646 82 3 643 13 0
 3 81 1 550 1368 34 178 0 543 523 647 648 82 3 646 24 0 2 81 1 647 1369 34 173 0
 532 550 649 650 82 3 648 27 0 2 81 1 532 1456 511 173 647 0 540 543 651 81 1 64
9 1370 34 164 0 540 647 652 653 82 3 650 27 1 2 81 1 540 1455 511 164 649 0 534
 532 654 81 1 652 1371 34 154 0 534 649 557 655 82 3 653 27 2 2 81 1 534 1454 51
1 154 652 0 538 540 656 81 1 557 1372 34 116 0 538 652 553 657 82 3 655 27 3 2 8
1 1 538 1453 511 116 557 0 658 534 659 82 3 657 27 4 2 81 1 658 1452 511 19 660
 0 524 538 661 83 3 659 .917647058823529 .917647058823529 .917647058823529 14 19
 702 658 ?116 520 117 6 7 -0 0 116 520 25 81 1 660 1446 34 19 0 658 662 0 663 81
 1 524 1451 511 520 662 0 519 658 664 83 3 661 .917647058823529 .917647058823529
 .917647058823529 81 1 662 1445 34 520 0 524 512 660 665 83 3 664 .9176470588235
29 .917647058823529 .917647058823529 81 1 512 1407 34 507 0 508 545 662 666 82 3
 665 29 0 2 82 3 666 28 0 2 82 3 663 29 1 2 83 3 656 .917647058823529 .917647058
823529 .917647058823529 83 3 654 .917647058823529 .917647058823529 .917647058823
529 83 3 651 .917647058823529 .917647058823529 .917647058823529 80 1 644 667 668
 8038 0 0 0 0 0 0 0 0 0 TTTTTTTTTTTTTF10 81 1 14 1448 667 1 642 2 0 0 669 98 255
 13 645 77 97 103 110 101 116 32 72 111 108 100 101 114 80 1 667 670 671 8017 0
 0 0 0 0 0 0 0 0 TTTTTTTTTTTTTF3 84 255 13 669 Magnet Holder79 255 13 671 SDL/TY
SA_NAME79 14 668 SDL/TYSA_UNAME82 3 638 22 14 2 15 635 1171 0 350 515 0 50 636 1
196 0 515 583 631 0 +-.00656169153511208 -.025 .00396000256497483 .9903626503426
61 0 .138498450555446 .138498450555446 0 -.990362650342661 50 583 1197 0 575 562
 636 0 +.00656169153511208 -.025 .00396000256497483 .990362650342661 0 -.1384984
50555446 -.138498450555446 0 -.990362650342661 51 631 1195 0 623 636 625 0 --.00
525000000000025 -.025 .00902106781186543 0 1 0 .00199999999999975 0 0 1 50 625 1
194 0 616 631 618 0 +-.00725 -.025 .01107106781186544 1 0 0 0 0 -1 51 618 1193 0
 609 625 611 0 --.00525 -.025 .01312106781186544 0 1 0 .002 0 0 1 50 611 1192 0
 602 618 604 0 +0 -.025 .01512106781186545 0 0 1 1 0 0 51 604 1191 0 595 611 597
 0 -.00525 -.025 .01312106781186544 0 1 0 .002 0 0 1 50 597 1190 0 588 604 590 0
 +.00725 -.025 .01107106781186544 1 0 0 0 0 -1 51 590 1189 0 581 597 516 0 -.005
25000000000025 -.025 .00902106781186544 0 1 0 .00199999999999975 0 0 1 50 516 11
88 0 412 590 576 0 +0 -.025 .00902106781186545 0 0 1 1 0 0 50 576 1187 0 422 516
 530 0 +.00525 -.025 .01107106781186544 1 0 0 0 0 -1 50 530 1186 0 505 576 528 0
 +0 -.025 .01312106781186544 0 0 1 1 0 0 50 562 1198 0 400 0 583 0 +-.0005051298
26554568 -.015 .00458553390593273 0 -1 0 1 0 0 17 350 0 635 672 336 75 673 347 0
 340 +17 672 0 635 674 350 463 340 337 0 675 -17 336 0 635 350 674 452 676 333 0
 673 +17 673 0 401 677 134 452 350 347 0 0 -17 340 0 527 457 675 75 672 337 0 0
 +15 527 1113 0 457 17 0 17 457 0 527 678 340 455 134 126 0 343 -17 675 0 527 34
0 678 463 212 208 0 0 -17 678 0 527 675 457 460 343 213 0 207 -17 212 0 509 517
 216 460 675 208 0 678 +17 517 0 509 244 212 489 207 204 0 0 -17 216 0 509 212 2
20 463 674 209 0 672 +17 220 0 509 216 224 466 679 217 0 676 +17 674 0 635 336 6
72 466 216 209 0 0 -17 224 0 509 220 228 469 680 221 0 681 +17 679 0 630 332 676
 469 220 217 0 0 -17 676 0 630 679 354 466 336 333 0 674 -15 630 1167 0 354 623
 0 17 354 0 630 676 332 452 677 351 0 336 +17 332 0 630 354 679 449 681 329 0 67
7 +17 677 0 401 682 673 449 354 351 0 0 -15 401 1123 0 346 400 0 17 682 0 401 68
3 677 446 358 355 0 0 -17 683 0 401 366 682 443 362 359 0 684 -17 358 0 624 681
 328 449 682 355 0 332 +15 624 1163 0 358 616 0 17 681 0 624 680 358 469 332 329
 0 679 -17 328 0 624 358 680 446 685 325 0 682 +17 680 0 624 328 681 472 224 221
 0 0 -17 685 0 617 686 362 472 328 325 0 680 -15 617 1159 0 362 609 0 17 686 0 6
17 324 685 475 228 225 0 687 -17 362 0 617 685 324 446 683 359 0 328 +17 324 0 6
17 362 686 443 478 321 0 683 +17 478 0 610 232 684 475 324 321 0 686 -15 610 115
5 0 684 602 0 17 232 0 610 320 478 479 687 229 0 0 +17 684 0 610 478 320 443 366
 363 0 0 -17 320 0 610 684 232 440 688 317 0 370 +17 366 0 401 689 683 440 684 3
63 0 0 +17 689 0 401 374 366 437 370 367 0 690 -17 374 0 401 691 689 434 690 371
 0 0 +17 370 0 603 688 316 440 689 367 0 366 +17 690 0 596 485 312 437 374 371 0
 0 -15 596 1147 0 690 588 0 17 485 0 596 240 690 482 316 313 0 692 -17 312 0 596
 690 240 434 693 309 0 378 +17 240 0 596 312 485 486 694 237 0 0 +17 693 0 589 6
95 378 486 312 309 0 240 -17 378 0 589 693 308 434 691 375 0 374 +15 589 1143 0
 378 581 0 17 308 0 589 378 695 406 492 305 0 691 +17 691 0 401 346 374 406 378
 375 0 696 -17 346 0 401 134 691 455 696 251 0 0 +17 696 0 582 492 343 406 346 2
51 0 0 -15 582 1139 0 696 575 0 17 492 0 582 207 696 489 308 305 0 695 -17 343 0
 582 696 207 455 678 213 0 346 +17 207 0 582 343 492 460 517 204 0 0 +17 695 0 5
89 308 693 489 244 241 0 517 -17 244 0 509 694 517 486 695 241 0 693 +17 694 0 5
09 236 244 482 240 237 0 0 -17 236 0 509 687 694 479 692 233 0 688 +17 687 0 509
 228 236 475 232 229 0 0 -17 692 0 603 316 688 482 236 233 0 694 -17 688 0 603 6
92 370 479 320 317 0 232 -15 603 1151 0 370 595 0 17 316 0 603 370 692 437 485 3
13 0 689 +17 228 0 509 224 687 472 686 225 0 685 +17 134 0 401 673 346 75 457 12
6 0 350 +82 3 633 22 10 2 82 3 627 22 9 2 82 3 620 22 11 2 82 3 613 22 8 2 82 3
 606 22 12 2 82 3 599 22 7 2 82 3 592 22 13 2 82 3 585 22 15 2 82 3 578 22 6 2 8
2 3 572 22 3 2 82 3 568 22 5 2 81 1 496 1109 34 415 0 0 462 559 697 82 3 564 23
 1 2 81 1 462 1107 34 460 0 0 465 496 698 82 3 697 22 7 0 81 1 465 1105 34 463 0
 0 468 462 699 82 3 698 22 27 0 81 1 468 1103 34 466 0 0 471 465 700 82 3 699 22
 23 0 81 1 471 1101 34 469 0 0 474 468 701 82 3 700 22 21 0 81 1 474 1099 34 472
 0 0 481 471 702 82 3 701 22 19 0 81 1 481 1097 34 479 0 0 488 474 703 82 3 702
 22 17 0 81 1 488 1095 34 486 0 0 417 481 704 82 3 703 22 15 0 81 1 417 1093 34
 403 0 0 494 488 705 82 3 704 22 11 0 81 1 494 1091 34 413 0 0 454 417 706 82 3
 705 22 6 0 81 1 454 1089 34 452 0 0 451 494 707 82 3 706 22 5 0 81 1 451 1087 3
4 449 0 0 445 454 708 82 3 707 22 20 0 81 1 445 1085 34 443 0 0 448 451 709 82 3
 708 22 18 0 81 1 448 1083 34 446 0 0 442 445 710 82 3 709 22 12 0 81 1 442 1081
 34 440 0 0 477 448 711 82 3 710 22 16 0 81 1 477 1079 34 475 0 0 439 442 712 82
 3 711 22 14 0 81 1 439 1077 34 437 0 0 436 477 713 82 3 712 22 13 0 81 1 436 10
75 34 434 0 0 484 439 714 82 3 713 22 8 0 81 1 484 1073 34 482 0 0 433 436 715 8
2 3 714 22 10 0 81 1 433 1071 34 406 0 0 491 484 716 82 3 715 22 9 0 81 1 491 10
69 34 489 0 0 498 433 717 82 3 716 22 24 0 81 1 498 1067 34 497 0 0 429 491 718
 82 3 717 22 25 0 81 1 429 1065 34 404 0 0 405 498 719 82 3 718 22 3 0 81 1 405
 1063 34 397 0 0 499 429 720 82 3 719 22 0 0 82 3 720 22 4 0 82 3 558 27 5 2 82
 3 554 27 6 2 83 3 551 .917647058823529 .917647058823529 .917647058823529 82 3 5
49 27 7 2 79 15 547 SDL/TYSA_COLOUR17 27 0 521 27 27 0 721 11 0 0 +17 721 0 722
 721 721 0 27 11 0 0 -15 722 144 0 721 520 0 15 526 143 0 191 520 722 50 20 1410
 0 520 510 7 0 +0 -.006 0 0 -1 0 1 0 0 17 191 0 526 184 110 45 44 196 0 0 +17 18
4 0 526 179 191 63 69 28 0 0 -17 110 0 526 191 112 32 43 111 0 0 -17 112 0 526 1
10 155 12 39 264 0 0 +17 155 0 526 112 160 49 54 158 0 0 -17 39 0 38 96 31 49 11
2 264 0 98 -17 160 0 526 155 169 51 58 167 0 0 +17 169 0 526 160 179 55 62 271 0
 0 -17 179 0 526 169 184 59 66 182 0 0 +17 62 0 168 86 165 59 169 271 0 174 +83
 3 525 .917647058823529 .917647058823529 .917647058823529 83 3 514 .917647058823
529 .917647058823529 .917647058823529 17 390 0 504 423 292 418 396 387 0 0 +17 3
04 0 408 398 249 397 411 301 0 393 +81 1 427 1059 34 75 0 0 424 499 723 82 3 500
 22 1 0 82 3 723 23 0 0 81 1 426 1055 34 455 0 0 257 424 724 81 1 257 1053 34 25
5 0 0 259 426 725 82 3 724 23 1 0 81 1 259 1050 34 250 0 0 211 257 726 82 3 725
 22 23 1 81 1 211 1047 34 208 0 0 215 259 727 82 3 726 22 17 1 81 1 215 1044 34
 209 0 0 219 211 728 82 3 727 22 15 1 81 1 219 1041 34 217 0 0 223 215 729 82 3
 728 22 39 1 81 1 223 1038 34 221 0 0 227 219 730 82 3 729 22 31 1 81 1 227 1035
 34 225 0 0 235 223 731 82 3 730 22 29 1 81 1 235 1032 34 233 0 0 243 227 732 82
 3 731 22 33 1 81 1 243 1029 34 241 0 0 299 235 733 82 3 732 22 35 1 81 1 299 10
26 34 297 0 0 253 243 734 82 3 733 22 37 1 81 1 253 1023 34 245 0 0 335 299 735
 82 3 734 22 3 1 81 1 335 1020 34 333 0 0 349 253 736 82 3 735 22 19 1 81 1 349
 1017 34 347 0 0 331 335 737 82 3 736 22 10 1 81 1 331 1014 34 329 0 0 353 349 7
38 82 3 737 22 38 1 81 1 353 1011 34 351 0 0 327 331 739 82 3 738 22 9 1 81 1 32
7 1008 34 325 0 0 357 353 740 82 3 739 22 30 1 81 1 357 1005 34 355 0 0 323 327
 741 82 3 740 22 8 1 81 1 323 1002 34 321 0 0 361 357 742 82 3 741 22 28 1 81 1
 361 999 34 359 0 0 319 323 743 82 3 742 22 6 1 81 1 319 996 34 317 0 0 231 361
 744 82 3 743 22 32 1 81 1 231 993 34 229 0 0 315 319 745 82 3 744 22 7 1 81 1 3
15 990 34 313 0 0 369 231 746 82 3 745 22 27 1 81 1 369 987 34 367 0 0 311 315 7
47 82 3 746 22 4 1 81 1 311 984 34 309 0 0 239 369 748 82 3 747 22 34 1 81 1 239
 981 34 237 0 0 307 311 749 82 3 748 22 5 1 81 1 307 978 34 305 0 0 377 239 750
 82 3 749 22 25 1 81 1 377 975 34 375 0 0 342 307 751 82 3 750 22 12 1 81 1 342
 972 34 213 0 0 206 377 752 82 3 751 22 36 1 81 1 206 969 34 204 0 0 295 342 753
 82 3 752 22 13 1 81 1 295 966 34 293 0 0 385 206 754 82 3 753 22 41 1 81 1 385
 963 34 383 0 0 291 295 755 82 3 754 22 1 1 81 1 291 960 34 135 0 0 389 385 756
 82 3 755 22 22 1 81 1 389 957 34 387 0 0 303 291 757 82 3 756 22 0 1 81 1 303 9
54 34 301 0 0 248 389 758 82 3 757 22 16 1 81 1 248 951 34 246 0 0 373 303 759 8
2 3 758 22 2 1 81 1 373 948 34 371 0 0 365 248 760 82 3 759 22 21 1 81 1 365 945
 34 363 0 0 133 373 761 82 3 760 22 24 1 81 1 133 942 34 126 0 0 345 365 762 82
 3 761 22 26 1 81 1 345 939 34 251 0 0 381 133 763 82 3 762 23 0 1 81 1 381 936
 34 379 0 0 392 345 764 82 3 763 22 40 1 82 3 764 22 18 1 82 3 428 22 2 0 81 1 3
39 925 34 337 0 0 192 392 765 82 3 394 22 20 1 81 1 192 852 34 186 0 0 197 339 7
66 82 3 765 22 11 1 82 3 766 18 15 1 81 1 263 842 34 111 0 0 266 200 767 82 3 27
9 18 6 1 81 1 266 841 34 264 0 0 268 263 768 82 3 767 18 5 1 81 1 268 840 34 158
 0 0 270 266 769 82 3 768 18 4 1 81 1 270 839 34 167 0 0 273 268 770 82 3 769 18
 3 1 81 1 273 838 34 271 0 0 274 270 771 82 3 770 18 2 1 81 1 274 837 34 182 0 0
 68 273 772 82 3 771 18 1 1 81 1 68 836 34 45 0 0 36 274 773 82 3 772 18 0 1 81
 1 36 835 34 32 0 0 30 68 774 82 3 773 18 7 0 82 3 774 18 6 0 79 9 278 BTI/DetId
82 3 199 18 14 1 81 1 146 574 34 144 0 0 128 102 775 82 3 151 14 15 1 81 1 102 5
77 34 131 0 0 146 101 776 82 3 775 14 11 1 82 3 776 14 23 1 81 1 149 478 34 148
 0 0 142 119 777 81 1 142 466 34 140 0 0 130 149 778 81 1 119 490 34 21 0 0 149
 125 779 82 3 777 14 13 1 82 3 779 14 17 1 81 1 130 454 34 124 0 0 26 142 780 82
 3 778 14 9 1 81 1 26 329 34 11 0 0 0 130 781 82 3 780 14 21 1 82 3 781 13 8 1 8
2 3 129 14 19 1 81 1 72 602 34 70 0 0 101 77 782 82 3 103 14 11 0 81 1 77 604 34
 74 0 0 72 81 783 82 3 782 14 13 0 81 1 81 606 34 79 0 0 77 85 784 82 3 783 14 1
5 0 81 1 85 608 34 83 0 0 81 89 785 82 3 784 14 5 0 81 1 89 610 34 87 0 0 85 92
 786 82 3 785 14 7 0 81 1 92 612 34 91 0 0 89 95 787 82 3 786 14 1 0 82 3 787 14
 3 0 81 1 57 829 34 55 0 0 95 53 788 82 3 97 14 9 0 81 1 53 830 34 51 0 0 57 65
 789 82 3 788 18 0 0 81 1 65 831 34 63 0 0 53 61 790 82 3 789 18 1 0 81 1 61 832
 34 59 0 0 65 35 791 82 3 790 18 2 0 81 1 35 833 34 49 0 0 61 30 792 82 3 791 18
 3 0 82 3 792 18 4 0 82 3 37 18 5 0 19 18 277 0 1 0 10 6 S0 74 4 CI16 index_map_
offset0 0 1 dCCZ20 16 5 0 0 660 642 14 2 508 0 0 0 0 0 0 0 0 0 0 0 0 0 0 0 80 1
 13 511 793 8040 0 0 0 0 3 5 0 0 0 TTTFFFFFFFFFFF2 83 3 15 .917647058823529 .917
647058823529 .917647058823529 79 17 793 SDL/TYSA_COLOUR_21 0 
