**ABCDEFGHIJKLMNOPQRSTUVWXYZabcdefghijklmnopqrstuvwxyz**************************
**PARASOLID !"#$%&'()*+,-./:;<=>?@[\]^_`{|}~0123456789**************************
**PART1;
MC=unknown;
MC_MODEL=unknown;
MC_ID=unknown;
OS=unknown;
OS_RELEASE=unknown;
FRU=Parasolid 33.1.200;
APPL=Onshape;
SITE=unknown;
USER=unknown;
FORMAT=text;
GUISE=transmit;
KEY=BTGapi::writeModels_.xmt;
FILE=BTGapi::writeModels_.xmt;
DATE=2021-07-17T16:38:29 (UTC);
**PART2;
SCH=SCH_3301200_33103;
USFLD_SIZE=0;
**PART3;
**END_OF_HEADER*****************************************************************
T51 : TRANSMIT FILE created by modeller version 330120023 SCH_3301200_33103_1300
6230 0 12 35 CCCI7 lattice222 0 CCCI4 mesh1006 0 I8 polyline1008 0 CCCCCCCDI5 ow
ner1040 0 CCCCCCI13 boundary_mesh1006 0 I17 boundary_polyline1008 0 CCCA16 index
_map_offset0 0 1 dA9 index_map82 0 A17 node_id_index_map82 0 A20 schema_embeddin
g_map82 0 A5 child12 0 A14 lowest_node_id0 0 1 dA16 mesh_offset_data206 0 Z1 148
1 2 3 0 0 0 0 0 0 0 1e3 1e-8 0 4 5 1 0 1 1 6 7 8 9 0 0 10 11 12 0 0 0 0 0 0 0 81
 255 1 2 1454 13 1 14 0 0 0 15 70 11 CI9 list_type0 0 1 uI10 notransmit0 0 1 lCC
CDCCDI12 finger_index0 0 1 dI12 finger_block1012 0 CZ3 0 4 T1 0 0 8 20 1 16 16 1
3 255 6 29 0 1 0 17 0 0 18 0 51 255 7 1448 0 19 20 0 0 -0 -.005 0 0 1 0 .00595 -
1 0 0 31 255 8 1450 0 21 22 0 0 +0 0 0 0 1 0 0 0 1 .00595 29 255 9 1419 0 23 24
 0 .00205 0 -.0048 19 8 CCCCCCCA5 owner12 0 Z10 469 0 1 18 0 25 V0 16 255 11 299
 26 ?27 0 28 29 0 0 1 18 255 12 961 30 27 0 31 32 ?1 81 1 30 1281 33 12 34 0 35
 36 37 17 255 27 0 38 39 40 12 41 11 0 42 +18 31 948 43 39 12 44 45 ?1 29 32 14
 0 12 45 46 .00605326716787252 .001 .008 29 45 17 0 31 47 32 .00605326716787252
 .001 -.008 29 46 1404 0 48 32 49 -.00205 0 -.0048 18 48 699 50 51 52 53 46 ?1 2
9 49 1405 0 54 46 55 -.00165 0 -.0052 18 54 740 56 57 58 59 49 ?1 29 55 1406 0 6
0 49 61 -.00165 -.005 -.0052 18 60 766 62 63 64 65 55 ?1 29 61 1407 0 65 55 66 -
.00205 -.005 -.0048 18 65 693 67 68 60 69 61 ?1 29 66 1408 0 69 61 70 -.00205 -.
005 .0048 18 69 690 71 72 65 73 66 ?1 29 70 1409 0 73 66 74 -.00165 -.005 .0052
 18 73 715 75 76 69 77 70 ?1 29 74 1410 0 53 70 78 -.00165 0 .0052 18 53 721 79
 80 48 81 74 ?1 29 78 1411 0 52 74 82 -.00205 0 .0048 18 52 696 83 84 59 48 78 ?
1 29 82 1412 0 58 78 85 .00205 0 .0048 18 58 737 86 87 23 54 82 ?1 29 85 1413 0
 81 82 88 .00165 0 .0052 18 81 718 89 90 53 0 85 ?1 29 88 1414 0 77 85 91 .00165
 -.005 .0052 18 77 712 92 93 73 94 88 ?1 29 91 1415 0 94 88 95 .00205 -.005 .004
8 18 94 785 96 97 77 98 91 ?1 29 95 1416 0 99 91 100 .00205 -.005 -.0048 18 99 7
82 101 102 103 64 95 ?1 29 100 1417 0 64 95 24 .00165 -.005 -.0052 18 64 769 104
 105 99 60 100 ?1 29 24 1418 0 59 100 9 .00165 0 -.0052 18 59 743 106 107 54 52
 24 ?1 81 1 106 1247 33 59 108 0 109 110 111 17 107 0 112 57 113 59 114 115 0 11
6 +15 255 112 623 0 57 117 0 17 57 0 112 118 107 54 116 119 0 120 -17 113 0 112
 107 118 64 63 121 0 114 +17 114 0 122 123 124 64 107 115 0 0 -16 115 772 125 ?1
07 126 127 128 0 0 1 17 116 0 129 130 120 59 57 119 0 124 +15 129 634 0 131 132
 0 17 130 0 129 133 116 23 124 134 0 135 +17 120 0 129 116 136 54 137 138 0 139
 +16 119 741 109 ?116 140 126 141 0 0 1 17 124 0 122 114 135 59 130 134 0 0 -15
 122 876 0 124 142 0 17 135 0 122 124 123 23 143 144 0 0 -16 134 751 145 ?130 13
8 146 147 0 0 1 81 1 145 1249 33 134 148 0 110 149 150 16 138 756 149 ?120 151 1
34 152 0 0 1 16 146 746 110 ?153 134 154 155 0 0 1 31 147 1439 0 134 128 22 0 -.
00165 0 -.0048 0 1 0 -1 0 0 4e-4 30 255 128 1438 0 115 156 147 0 -.00165 0 -.005
2 0 -1 0 31 22 1449 0 157 147 8 0 +0 -.005 0 0 -1 0 0 0 -1 .00595 16 157 4 158 ?
159 160 21 22 0 0 1 81 1 158 1171 33 157 161 0 162 163 164 17 159 0 165 159 159
 0 166 157 0 0 +16 160 233 167 ?168 169 157 170 0 0 1 16 21 53 163 ?171 157 172
 8 0 0 1 81 1 163 1173 33 21 173 0 158 174 175 17 171 0 176 171 171 0 177 21 0 0
 +16 172 783 178 ?179 21 180 181 0 0 1 81 1 178 1258 33 172 182 0 101 96 183 17
 179 0 184 87 143 94 102 172 0 185 +16 180 806 186 ?105 172 121 156 0 0 1 30 181
 1436 0 172 187 156 0 +.00205 -.005 0 0 0 1 31 187 1435 0 188 189 181 0 -.00165
 -.005 .0048 0 -1 0 1 0 0 4e-4 31 156 1437 0 180 181 128 0 -.00165 -.005 -.0048
 0 -1 0 1 0 0 4e-4 16 188 810 190 ?97 191 192 187 0 0 1 30 189 1434 0 193 155 18
7 0 +.00165 -.005 .0052 0 -1 0 16 193 724 194 ?195 196 151 189 0 0 1 31 155 1433
 0 146 197 189 0 -.00165 0 .0048 0 1 0 -1 0 0 4e-4 30 197 1432 0 198 199 155 0 +
.00205 0 -.0052 0 0 1 16 198 735 200 ?133 201 144 197 0 0 1 30 199 1431 0 140 20
2 197 0 -.00205 0 .0048 0 -1 0 16 140 788 203 ?87 144 119 199 0 0 1 30 202 1430
 0 144 204 199 0 +.00205 -.005 -.0048 0 -1 0 16 144 793 205 ?143 198 140 202 0 0
 1 31 204 1429 0 151 206 202 0 --.00165 0 .0048 0 1 0 -1 0 0 4e-4 16 151 761 207
 ?208 193 138 204 0 0 1 30 206 1428 0 209 210 204 0 --.00165 0 .0052 0 -1 0 16 2
09 729 211 ?80 212 196 206 0 0 1 31 210 1427 0 213 214 206 0 --.00165 -.005 .004
8 0 -1 0 1 0 0 4e-4 16 213 798 215 ?76 216 191 210 0 0 1 30 214 1426 0 216 217 2
10 0 +-.00205 -.005 0 0 0 -1 16 216 691 218 ?219 220 213 214 0 0 1 31 217 1425 0
 220 221 214 0 --.00165 -.005 -.0048 0 -1 0 1 0 0 4e-4 16 220 802 222 ?68 121 21
6 217 0 0 1 30 221 1424 0 126 152 217 0 +-.00165 -.005 -.0052 0 -1 0 16 126 777
 223 ?118 119 115 221 0 0 1 31 152 1423 0 138 224 221 0 --.00165 0 -.0048 0 1 0
 -1 0 0 4e-4 30 224 1422 0 127 225 152 0 +-.00205 0 -.0052 0 0 -1 16 127 697 226
 ?136 115 227 224 0 0 1 30 225 1421 0 212 228 224 0 --.00205 0 -.0048 0 -1 0 16
 212 702 229 ?51 227 209 225 0 0 1 30 228 1420 0 227 230 225 0 +-.00205 -.005 .0
048 0 -1 0 16 227 707 231 ?232 127 212 228 0 0 1 31 230 1302 0 233 234 228 0 -.0
11 .008 .008 -1 0 115648231731787e-30 115648231731787e-30 0 1 .0026 16 233 528 2
35 ?236 237 238 230 0 0 1 31 234 1301 0 239 240 230 0 +-.011 .008 .008 1 0 -1156
48231731787e-30 -115648231731787e-30 0 -1 .0026 16 239 529 241 ?242 243 244 234
 0 0 1 31 240 1300 0 238 245 234 0 -.011 .008 -.008 -1 0 115648231731787e-30 115
648231731787e-30 0 1 .0026 16 238 488 246 ?247 233 248 240 0 0 1 31 245 1299 0 2
44 29 240 0 +-.011 .008 -.008 1 0 -115648231731787e-30 -115648231731787e-30 0 -1
 .0026 16 244 489 249 ?250 239 251 245 0 0 1 30 29 301 0 11 252 245 0 -126161707
343768e-32 .001 .008 1 0 -15770213417971e-29 31 252 966 0 28 253 29 0 +0 .001 0
 0 1 0 -1 0 0 .0100320508075689 16 28 964 36 ?39 11 169 252 0 0 1 30 253 288 0 1
69 170 252 0 --126161707343768e-32 .001 -.008 -1 0 15770213417971e-29 16 169 949
 254 ?255 28 160 253 0 0 1 30 170 173 0 160 256 253 0 +.011 .001 .015 -115648231
731787e-30 0 -1 30 256 650 0 121 257 170 0 +-.0027 -.005 -.0052 1 0 0 16 121 767
 258 ?113 180 220 256 0 0 1 30 257 652 0 191 259 256 0 +-.0027 -.005 .0052 -1 0
 0 16 191 713 260 ?261 213 188 257 0 0 1 31 259 81 0 262 263 257 0 +0 0 0 0 1 0
 -1 0 0 .0083 16 262 940 264 ?265 266 267 259 192 266 1 30 263 291 0 267 268 259
 0 --126161707343768e-32 .001 -.008 -1 0 15770213417971e-29 16 267 289 269 ?270
 262 271 263 0 0 1 31 268 980 0 271 272 263 0 +0 .001 0 0 1 0 -1 0 0 .0100320508
075689 16 271 978 273 ?274 267 275 268 0 0 1 30 272 296 0 275 276 268 0 -1261617
07343768e-32 .001 .008 1 0 -15770213417971e-29 16 275 970 277 ?278 271 243 272 0
 0 1 30 276 175 0 243 279 272 0 +-.011 .001 .015 115648231731787e-30 0 1 16 243
 271 280 ?281 275 239 276 0 0 1 31 279 333 0 251 282 276 0 --.011 .008 .008 1 0
 -115648231731787e-30 115648231731787e-30 0 1 .007 16 251 331 283 ?284 244 285 2
79 0 0 1 31 282 328 0 285 286 279 0 --.011 .008 .008 1 0 -115648231731787e-30 11
5648231731787e-30 0 1 .007 16 285 326 287 ?288 251 289 282 0 0 1 30 286 179 0 28
9 290 282 0 +-.011 .015 .015 115648231731787e-30 0 1 16 289 308 291 ?292 285 293
 286 0 0 1 31 290 323 0 293 294 286 0 --.011 .008 -.008 1 0 -115648231731787e-30
 115648231731787e-30 0 1 .007 16 293 321 295 ?296 289 237 290 0 0 1 31 294 318 0
 237 297 290 0 --.011 .008 -.008 1 0 -115648231731787e-30 115648231731787e-30 0
 1 .007 16 237 316 298 ?299 293 233 294 0 0 1 31 297 262 0 248 300 294 0 -.011 .
008 .008 -1 0 115648231731787e-30 -115648231731787e-30 0 -1 .007 16 248 260 301
 ?302 238 303 297 0 0 1 31 300 267 0 303 304 297 0 -.011 .008 .008 -1 0 11564823
1731787e-30 -115648231731787e-30 0 -1 .007 16 303 265 305 ?306 248 307 300 0 0 1
 31 304 252 0 307 308 300 0 -.011 .008 -.008 -1 0 115648231731787e-30 -115648231
731787e-30 0 -1 .007 16 307 250 309 ?310 303 311 304 0 0 1 31 308 257 0 311 312
 304 0 -.011 .008 -.008 -1 0 115648231731787e-30 -115648231731787e-30 0 -1 .007
 16 311 255 313 ?314 307 315 308 0 0 1 30 312 177 0 315 316 308 0 +.011 .015 .01
5 -115648231731787e-30 0 -1 16 315 242 317 ?318 311 319 312 0 0 1 30 316 343 0 3
19 320 312 0 +.011 .015 .008 1 0 -15770213417971e-29 16 319 341 321 ?322 315 323
 316 0 0 1 30 320 338 0 323 324 316 0 +-.011 .015 -.008 -1 0 15770213417971e-29
 16 323 336 325 ?326 319 327 320 0 0 1 30 324 394 0 327 328 320 0 --.011 .008 .0
15 1 0 -15770213417971e-29 16 327 382 329 ?330 323 331 324 0 0 1 38 12 CCCCCCCCC
CCA17 intersection_data204 0 Z328 974 0 331 332 324 0 +333 334 335 336 337 338 1
6 331 972 339 ?42 327 340 328 0 0 1 38 332 1032 0 1 341 328 342 +343 344 345 346
 347 348 59 255 333 975 0 1 349 334 350 +0 349 51 334 393 0 351 333 352 353 +-.0
11 .008 .008 1 0 -15770213417971e-29 .007 15770213417971e-29 0 1 40 255 6 335 0
 1 6 .000391261845442951 .262040443266906 ??-.00605326716787252 .001 .008 -.0033
456289220365 .00110206955335833 .0091910312982008 -.00067069174533132 .001199740
14210571 .00966026078226028 .00231385874692569 .00115161890921744 .0094490260299
29 .00507676195955385 .00101936883508949 .00852037346154477 .00605326716787252 .
001 .008 41 3 CI8 term_use0 0 1 cCZ1 336 L?-.00605326716787252 .001 .008 41 1 33
7 L?.00605326716787252 .001 .008 204 2 17 INTERSECTION_DATA17 Intersection data7
 uv_type0 0 1 u6 values0 1 1 fT12 338 3 1.570796326794895 .00494673283212748 1.3
99817151244764 .0076543710779635 1.331334224341054 .01032930825466868 1.36228498
2027858 .0133138587469257 1.496388620068232 .01607676195955385 1.570796326794895
 .0170532671678725 14 255 351 371 354 ?355 356 357 6 334 +0 0 355 356 25 51 352
 392 0 356 334 358 0 +126161707343768e-32 .008 .008 -1 0 15770213417971e-29 .007
 -15770213417971e-29 0 -1 141 255 353 349 359 359 334 56 255 349 1025 0 360 343
 333 361 +E362 334 332 .002 .002 1 1 0 0 0 0 141 359 328 353 353 334 14 360 992
 363 ?364 365 366 6 349 -0 0 364 365 25 54 255 343 1023 0 1 344 349 367 +0 0 0 0
 1 0 .0083 .002 -1 0 0 141 361 333 361 361 349 56 362 1024 0 1 368 344 369 +R368
 370 341 0 0 1 1 0 0 0 0 51 368 77 0 1 371 362 372 -0 .001 0 0 -1 0 .0083 1 0 0
 51 344 1022 0 1 362 343 373 +-.011 .008 .008 1 0 -15770213417971e-29 .009 15770
213417971e-29 0 1 141 369 349 369 369 362 50 255 370 78 0 374 375 376 377 +0 0 0
 0 1 0 -1 0 0 31 341 1033 0 1 378 332 379 +0 0 0 0 1 0 -1 0 0 .0083 38 378 956 0
 340 380 341 0 +381 371 382 383 384 385 141 379 362 379 379 341 16 340 954 35 ?3
86 331 201 378 0 0 1 38 380 1036 0 1 387 378 388 +389 390 391 392 393 394 59 381
 957 0 1 395 371 396 +0 395 51 371 430 0 355 381 368 397 +.011 .008 -.008 -1 0 1
5770213417971e-29 .007 -15770213417971e-29 0 -1 40 6 382 0 1 6 .0003912618454429
51 .262040443266906 ??.00605326716787252 .001 -.008 .0033456289220365 .001102069
55335833 -.0091910312982008 .00067069174533132 .00119974014210571 -.009660260782
26028 -.00231385874692569 .00115161890921744 -.009449026029929 -.005076761959553
85 .00101936883508949 -.00852037346154477 -.00605326716787252 .001 -.008 41 1 38
3 L?.00605326716787252 .001 -.008 41 1 384 L?-.00605326716787252 .001 -.008 204
 12 385 3 1.570796326794895 .00494673283212748 1.399817151244764 .00765437107796
35 1.331334224341054 .01032930825466868 1.362284982027858 .0133138587469257 1.49
6388620068232 .01607676195955385 1.570796326794895 .0170532671678725 14 355 407
 398 ?399 351 400 6 371 +0 0 399 351 25 141 397 395 401 401 371 56 395 1031 0 40
2 389 381 403 +E404 371 380 .002 .002 1 1 0 0 0 0 141 401 378 397 397 371 14 402
 998 405 ?0 406 407 6 395 -0 0 0 406 25 54 389 1029 0 1 390 395 408 +0 0 0 0 1 0
 .0083 .002 -1 0 0 141 403 381 403 403 395 56 404 1030 0 1 409 390 410 +R368 370
 387 0 0 1 1 0 0 0 0 51 409 431 0 399 411 404 0 +-126161707343768e-32 .008 -.008
 1 0 -15770213417971e-29 .007 15770213417971e-29 0 1 51 390 1028 0 1 404 389 412
 +.011 .008 -.008 -1 0 15770213417971e-29 .009 -15770213417971e-29 0 -1 141 410
 395 410 410 404 31 387 1037 0 1 413 380 414 +0 0 0 0 1 0 -1 0 0 .0083 30 413 43
2 0 201 141 387 0 +.011 .008 -.015 -1 0 15770213417971e-29 141 414 404 414 414 3
87 16 201 418 415 ?416 340 198 413 0 0 1 30 141 654 0 119 417 413 0 +-.0027 0 -.
0052 1 0 0 30 417 656 0 196 418 141 0 +-.0027 0 .0052 -1 0 0 16 196 719 419 ?131
 209 193 417 0 0 1 31 418 1035 0 154 420 417 0 +.00605326716787253 -.00100000000
000002 .008 -.797444127173303 180302926872489e-30 .603392794153865 -.60339279415
3865 0 -.797444127173303 .002 16 154 1008 421 ?422 146 423 418 0 0 1 31 420 1034
 0 423 424 418 0 --.00605326716787252 -.001 .008 -.797444127173304 -523014387395
005e-31 -.603392794153865 .603392794153864 0 -.797444127173304 .002 16 423 1005
 425 ?426 154 427 420 0 0 1 31 424 1038 0 427 428 420 0 +-.00605326716787258 -.0
01 -.008 -.797444127173304 -343261990286559e-31 .603392794153864 -.6033927941538
64 0 -.797444127173304 .002 16 427 1011 429 ?430 423 431 424 0 0 1 31 428 1039 0
 431 0 424 0 +.00605326716787252 -.001 -.008 .797444127173304 0 .603392794153865
 -.603392794153865 0 .797444127173304 .002 16 431 1013 432 ?433 427 0 428 0 0 1
 81 1 432 1294 33 431 434 0 429 435 436 17 433 0 407 437 438 439 440 431 0 0 +15
 407 999 0 430 402 0 17 437 0 407 430 433 441 442 266 0 0 +17 438 0 407 433 430
 31 386 340 0 0 -18 439 942 443 442 441 444 445 ?1 17 440 0 446 447 265 31 433 4
31 0 438 -15 446 997 0 422 406 0 17 447 0 446 422 440 12 39 28 0 0 -17 265 0 446
 440 422 439 448 262 0 433 +17 422 0 446 265 447 444 449 154 0 0 +17 448 0 450 4
51 442 444 265 262 0 452 -15 450 62 0 451 374 176 17 451 0 450 453 448 98 452 19
2 0 454 -17 442 0 450 448 453 439 437 266 0 265 -18 444 939 455 448 439 456 457
 ?1 17 452 0 366 449 454 444 451 192 0 422 +15 366 993 0 449 360 0 17 449 0 366
 458 452 12 422 154 0 447 -17 454 0 366 452 458 98 426 423 0 459 -16 192 54 174
 ?452 188 460 259 460 262 1 81 1 174 1174 33 192 461 0 163 462 463 16 460 946 46
4 ?459 192 266 259 266 192 1 81 1 464 1276 33 460 465 0 466 43 467 17 459 0 468
 426 469 98 453 460 0 0 +16 266 943 470 ?437 460 262 259 262 460 1 81 1 470 1274
 33 266 471 0 443 466 472 80 255 1 33 473 474 9000 0 0 0 0 3 6 0 0 0 FFTFTFTTFFF
FFF1 81 1 471 1093 475 266 0 470 465 476 477 81 1 443 1273 33 439 478 0 264 470
 479 81 1 466 1275 33 441 480 0 470 464 481 82 255 3 472 4 50 1 18 441 945 466 4
53 98 439 482 ?1 81 1 480 1054 475 441 0 466 483 478 484 82 3 481 4 31 0 80 1 47
5 485 486 9000 0 0 0 0 3 5 0 0 0 FFTFTFTTFFFFFF2 81 1 483 1053 475 98 0 487 488
 480 489 81 1 478 1055 475 439 0 443 480 490 491 83 255 1 484 13 81 1 490 1056 4
75 444 0 455 478 492 493 83 1 491 14 81 1 455 1271 33 444 490 0 487 264 494 81 1
 492 1057 475 456 0 495 490 496 497 83 1 493 15 18 456 951 495 270 444 498 499 ?
1 81 1 495 1279 33 456 492 0 254 35 500 81 1 496 1058 475 498 0 501 492 502 503
 83 1 497 16 18 498 969 501 274 456 504 505 ?1 81 1 501 1283 33 498 496 0 36 277
 506 81 1 502 1059 475 504 0 507 496 508 509 83 1 503 17 18 504 273 507 278 498
 510 511 ?1 81 1 507 1194 33 504 502 0 280 269 512 81 1 508 1060 475 510 0 513 5
02 514 515 83 1 509 18 18 510 270 513 516 504 517 518 ?1 81 1 513 1192 33 510 50
8 0 305 280 519 81 1 514 1061 475 517 0 520 508 521 522 83 1 515 19 18 517 304 5
20 284 510 523 524 ?1 81 1 520 1198 33 517 514 0 26 525 526 81 1 521 1062 475 52
3 0 527 514 528 529 83 1 522 20 18 523 310 527 288 517 530 531 ?1 81 1 527 1201
 33 523 521 0 291 532 533 81 1 528 1063 475 530 0 525 521 534 535 83 1 529 21 18
 530 307 525 536 523 537 538 ?1 81 1 525 1199 33 530 528 0 520 291 539 81 1 534
 1064 475 537 0 532 528 540 541 83 1 535 22 18 537 313 532 296 530 542 543 ?1 81
 1 532 1202 33 537 534 0 527 298 544 81 1 540 1065 475 542 0 545 534 546 547 83
 1 541 23 18 542 247 545 302 537 548 549 ?1 81 1 545 1187 33 542 540 0 550 309 5
51 81 1 546 1066 475 548 0 552 540 553 554 83 1 547 24 18 548 238 552 310 542 55
5 556 ?1 81 1 552 1183 33 548 546 0 557 558 559 81 1 553 1067 475 555 0 550 546
 560 561 83 1 554 25 18 555 244 550 314 548 562 563 ?1 81 1 550 1186 33 555 553
 0 317 545 564 81 1 560 1068 475 562 0 558 553 565 566 83 1 561 26 18 562 241 55
8 567 555 23 568 ?1 81 1 558 1184 33 562 560 0 552 317 569 81 1 565 1069 475 23
 0 570 560 571 572 83 1 566 27 18 23 734 570 573 562 58 9 ?1 81 1 570 1242 33 23
 565 0 211 200 574 81 1 571 1070 475 58 0 86 565 575 576 83 1 572 28 81 1 86 124
4 33 58 571 0 200 56 577 81 1 575 1071 475 54 0 56 571 108 578 83 1 576 29 81 1
 56 1245 33 54 575 0 86 109 579 81 1 108 1072 475 59 0 106 575 580 581 83 1 578
 30 81 1 580 1073 475 52 0 83 108 582 583 83 1 581 31 81 1 83 1229 33 52 580 0 6
7 226 584 81 1 582 1074 475 48 0 50 580 585 586 83 1 583 32 81 1 50 1231 33 48 5
82 0 226 229 587 81 1 585 1075 475 53 0 79 582 588 589 83 1 586 33 81 1 79 1239
 33 53 585 0 419 194 590 81 1 588 1076 475 81 0 89 585 591 592 83 1 589 34 81 1
 89 1237 33 81 588 0 75 419 593 81 1 591 1077 475 11 0 26 588 594 595 83 1 592 3
5 81 1 26 1197 33 11 591 0 596 520 597 81 1 594 1078 475 28 0 36 591 598 599 83
 1 595 36 81 1 36 1282 33 28 594 0 30 501 600 81 1 598 1079 475 169 0 254 594 60
1 602 83 1 599 37 81 1 254 1278 33 169 598 0 43 495 603 81 1 601 1080 475 160 0
 167 598 161 604 83 1 602 38 81 1 167 1181 33 160 601 0 605 557 606 81 1 161 108
1 475 157 0 158 601 173 607 83 1 604 39 81 1 173 1082 475 21 0 163 161 182 608 8
3 1 607 40 81 1 182 1083 475 172 0 178 173 609 610 83 1 608 41 81 1 609 1084 475
 180 0 186 182 611 612 83 1 610 42 81 1 186 1264 33 180 609 0 222 190 613 81 1 6
11 1085 475 121 0 258 609 614 615 83 1 612 43 81 1 258 1253 33 121 611 0 62 104
 616 81 1 614 1086 475 220 0 222 611 617 618 83 1 615 44 81 1 222 1263 33 220 61
4 0 215 186 619 81 1 617 1087 475 216 0 218 614 620 621 83 1 618 45 81 1 218 122
7 33 216 617 0 71 67 622 81 1 620 1088 475 213 0 215 617 623 624 83 1 621 46 81
 1 215 1262 33 213 620 0 205 222 625 81 1 623 1089 475 191 0 260 620 626 627 83
 1 624 47 81 1 260 1235 33 191 623 0 92 75 628 81 1 626 1090 475 188 0 190 623 4
61 629 83 1 627 48 81 1 190 1265 33 188 626 0 186 630 631 81 1 461 1091 475 192
 0 174 626 465 632 83 1 629 49 81 1 465 1092 475 460 0 464 461 471 633 83 1 632
 50 83 1 633 51 81 1 630 1266 33 634 635 636 190 637 638 82 3 631 4 48 1 14 634
 833 636 ?639 132 640 6 641 -0 0 639 132 25 81 1 635 1158 475 634 0 630 642 643
 644 81 1 636 1474 645 634 630 0 646 647 648 81 1 637 1267 33 639 643 647 630 64
9 650 82 3 638 4 19 2 14 639 854 647 ?142 634 651 6 652 -0 0 142 634 25 81 1 643
 1159 475 639 0 637 635 653 654 81 1 647 1475 645 639 637 0 636 655 656 81 1 649
 1268 33 142 653 655 637 657 658 82 3 650 4 20 2 14 142 875 655 ?365 639 122 6 6
59 -0 0 365 639 25 81 1 653 1160 475 142 0 649 643 660 661 81 1 655 1476 645 142
 649 0 647 662 663 81 1 657 1269 33 365 660 662 649 487 664 82 3 658 4 21 2 14 3
65 896 662 ?360 142 665 6 20 -0 0 360 142 25 81 1 660 1161 475 365 0 657 653 666
 667 81 1 662 1477 645 365 657 0 655 363 668 81 1 487 1270 33 98 483 0 657 455 6
69 82 3 664 4 22 2 18 98 937 487 451 94 441 670 ?1 82 3 669 4 28 0 29 670 69 0 9
8 482 671 -.00500816019147707 0 .00661878625553842 29 482 72 0 441 445 670 -.005
00816019147708 0 -.00661878625553842 29 671 23 0 103 670 47 .011 .001 .008 18 10
3 232 605 40 44 99 671 ?1 29 47 20 0 44 671 45 .011 .001 -.008 18 44 235 557 255
 31 103 47 ?1 81 1 557 1182 33 44 672 0 167 552 673 17 255 0 38 40 39 44 674 169
 0 168 +15 38 295 0 27 17 0 17 40 0 38 27 255 103 168 160 0 306 -17 39 0 38 255
 27 31 447 28 0 674 +17 674 0 400 386 675 31 255 169 0 440 -17 168 0 676 310 306
 44 40 160 0 675 +15 676 148 0 302 677 0 17 310 0 676 314 168 548 675 307 0 678
 +17 306 0 676 168 302 103 679 303 0 41 +17 675 0 400 674 678 44 310 307 0 0 -15
 400 408 0 674 355 0 17 678 0 400 675 680 548 416 201 0 681 -17 680 0 400 678 68
2 537 299 237 0 416 -17 416 0 683 684 681 537 678 201 0 0 +17 681 0 683 416 685
 548 314 311 0 0 -15 683 410 0 681 399 0 17 685 0 683 681 684 555 326 323 0 0 -1
7 314 0 676 567 310 555 681 311 0 318 +17 567 0 676 302 314 562 318 315 0 322 -1
7 318 0 686 326 322 555 567 315 0 685 +15 686 155 0 292 687 0 17 326 0 686 292 3
18 530 685 323 0 684 +17 322 0 686 318 292 562 688 319 0 689 +17 292 0 686 322 3
26 523 536 289 0 688 +17 688 0 690 691 689 523 322 319 0 0 -17 689 0 690 688 692
 562 302 248 0 0 -15 690 370 0 688 356 0 17 692 0 690 689 691 542 330 327 0 679
 -17 302 0 676 306 567 542 689 248 0 692 +17 691 0 690 692 688 517 288 285 0 330
 -17 330 0 357 693 679 517 692 327 0 0 +17 679 0 357 330 41 542 306 303 0 0 -15
 357 372 0 694 351 0 17 41 0 357 679 42 103 27 11 0 0 -17 42 0 357 41 694 12 458
 331 0 449 +17 694 0 357 42 693 498 278 275 0 458 -17 458 0 366 454 449 498 42 3
31 0 426 -17 426 0 468 695 459 498 454 423 0 0 +15 468 995 0 426 364 0 17 695 0
 468 469 426 456 274 271 0 430 -17 469 0 468 459 695 441 430 427 0 437 -17 274 0
 696 278 270 498 695 271 0 694 +17 430 0 407 438 437 456 469 427 0 0 +15 696 136
 0 270 697 0 17 278 0 696 516 274 504 694 275 0 281 +17 270 0 696 274 516 456 68
2 267 0 386 +17 516 0 696 270 278 510 281 243 0 299 -17 682 0 400 680 386 510 27
0 267 0 0 -17 386 0 400 682 674 456 438 340 0 695 +17 281 0 698 284 299 504 516
 243 0 693 +17 299 0 698 281 296 510 680 237 0 682 +15 698 140 0 281 699 0 17 29
6 0 698 299 536 537 684 293 0 680 +17 536 0 698 296 288 530 292 289 0 326 -17 68
4 0 683 685 416 530 296 293 0 0 -17 288 0 698 536 284 523 691 285 0 292 +17 284
 0 698 288 281 517 693 251 0 691 +17 693 0 357 694 330 504 284 251 0 0 -14 699 1
37 700 ?677 697 701 6 375 -0 0 677 697 25 81 1 700 1460 645 699 702 0 703 704 70
5 14 677 145 704 ?687 699 706 6 707 -0 0 687 699 25 14 697 133 703 ?699 374 696
 6 708 -17 17 699 374 25 15 701 520 0 242 699 709 50 375 161 0 699 707 370 0 +-.
011 .015 .015 1 0 -115648231731787e-30 115648231731787e-30 0 1 13 25 9 0 0 0 0 0
 0 10 17 14 17 297 710 ?19 0 38 6 708 -697 697 19 0 25 81 1 710 1455 645 17 596
 0 0 711 712 14 19 25 711 ?713 17 714 6 7 -0 0 713 17 25 50 708 165 0 697 376 71
5 0 +0 .001 0 0 1 0 -1 0 0 50 376 2 0 713 370 708 0 +0 -.005 0 0 -1 0 1 0 0 51 7
15 1297 0 716 708 717 0 +.011 .008 -.008 1 0 0 .0026 0 1 0 14 716 498 718 ?719 3
99 720 6 715 -0 0 719 399 25 51 717 1298 0 719 715 721 0 +.011 .008 .008 1 0 0 .
0026 0 1 0 14 719 538 722 ?723 716 724 6 717 -0 0 723 716 25 50 721 1402 0 725 7
17 726 0 +-.00205 0 -.0052 -1 0 0 0 -1 0 14 725 624 727 ?728 117 729 6 721 -0 0
 728 117 25 50 726 1403 0 723 721 641 0 +.00205 0 -.0052 1 0 0 0 1 0 14 723 616
 730 ?117 719 184 6 726 -0 0 117 719 25 51 641 1440 0 634 726 652 0 +-.00165 0 .
0048 0 1 0 4e-4 -1 0 0 51 652 1441 0 639 641 659 0 +-.00165 0 -.0048 0 1 0 4e-4
 -1 0 0 51 659 1442 0 142 652 20 0 +.00165 0 -.0048 0 1 0 4e-4 -1 0 0 51 20 1443
 0 365 659 7 0 +.00165 0 .0048 0 1 0 4e-4 -1 0 0 81 1 730 1469 645 723 731 0 722
 732 733 14 117 620 732 ?725 723 112 6 411 -0 0 725 723 25 15 184 619 0 573 723
 0 17 573 0 184 143 87 23 133 198 0 130 -17 143 0 184 179 573 99 135 144 0 123 +
17 87 0 184 573 179 58 185 140 0 133 +17 133 0 129 153 130 58 573 198 0 734 +17
 153 0 129 131 133 81 734 146 0 735 +17 734 0 665 185 735 58 153 146 0 0 -15 665
 897 0 734 365 0 17 185 0 665 736 734 94 87 140 0 0 -17 735 0 665 734 736 81 195
 193 0 0 -17 736 0 665 735 185 77 97 188 0 0 -17 195 0 737 261 90 77 735 193 0 7
36 +15 737 631 0 261 728 0 17 261 0 737 80 195 73 93 191 0 738 +17 90 0 737 195
 80 81 131 196 0 153 -17 80 0 737 90 261 53 738 209 0 131 +17 131 0 129 208 153
 53 90 196 0 739 +17 208 0 129 136 131 52 739 151 0 740 +17 739 0 640 738 740 53
 208 151 0 0 -15 640 834 0 739 634 0 17 738 0 640 741 739 73 80 209 0 0 -17 740
 0 640 739 741 52 232 227 0 0 -17 741 0 640 740 738 69 76 213 0 0 -17 232 0 729
 219 84 69 740 227 0 741 +15 729 627 0 84 725 0 17 219 0 729 51 232 65 72 216 0
 742 +17 84 0 729 232 51 52 136 127 0 208 -17 51 0 729 84 219 48 742 212 0 136 +
17 136 0 129 120 208 48 84 127 0 137 +17 137 0 651 742 139 48 120 138 0 0 -15 65
1 855 0 137 639 0 17 742 0 651 743 137 65 51 212 0 0 -17 139 0 651 137 743 54 11
8 126 0 0 -17 743 0 651 139 742 60 68 220 0 0 -17 118 0 112 113 57 60 139 126 0
 743 +17 68 0 744 72 63 65 743 220 0 219 +15 744 575 0 102 713 165 17 72 0 744 7
6 68 69 219 216 0 232 -17 63 0 744 68 105 60 113 121 0 118 -17 105 0 744 63 102
 64 123 180 0 113 +17 102 0 744 105 97 99 179 172 0 143 -17 123 0 122 135 114 99
 105 180 0 0 -17 97 0 744 102 93 94 736 188 0 179 +17 93 0 744 97 76 77 261 191
 0 195 -17 76 0 744 93 72 73 741 213 0 261 +14 713 1 745 ?374 19 744 6 376 +0 0
 374 19 25 15 165 3 0 159 713 0 81 1 745 1457 645 713 162 0 711 746 747 14 374 6
0 746 ?697 713 450 6 370 -0 0 697 713 25 81 1 746 1458 645 374 462 0 745 703 748
 80 1 645 0 749 8001 0 0 0 0 3 5 0 0 0 FFFFTFTFFFFFFF2 81 1 462 1175 33 374 750
 746 174 751 752 81 1 703 1459 645 697 751 0 746 700 753 83 3 748 .2823529411764
705 .662745098039216 .3254901960784315 81 1 751 1176 33 697 754 703 462 702 755
 83 3 753 .2823529411764705 .662745098039216 .3254901960784315 81 1 754 1143 475
 697 0 751 750 756 757 81 1 702 1177 33 699 756 700 751 758 759 82 3 755 4 3 2 8
1 1 756 1144 475 699 0 702 754 760 761 81 1 758 1178 33 677 760 704 702 762 763
 82 3 759 4 4 2 81 1 760 1145 475 677 0 758 756 764 765 81 1 704 1461 645 677 75
8 0 700 766 767 81 1 762 1179 33 687 764 766 758 605 768 82 3 763 4 5 2 14 687 1
53 766 ?356 677 686 6 358 +0 0 356 677 25 81 1 764 1146 475 687 0 762 760 769 77
0 81 1 766 1462 645 687 762 0 704 771 772 81 1 605 1180 33 103 773 0 762 167 774
 82 3 768 4 6 2 81 1 773 1044 475 103 0 605 672 775 776 82 3 774 4 0 0 81 1 672
 1043 475 44 0 557 777 773 778 81 1 775 1045 475 99 0 101 773 779 780 83 1 776 3
 81 1 101 1257 33 99 775 0 223 178 781 81 1 779 1046 475 64 0 104 775 782 783 83
 1 780 4 81 1 104 1254 33 64 779 0 258 125 784 81 1 782 1047 475 60 0 62 779 785
 786 83 1 783 5 81 1 62 1252 33 60 782 0 207 258 787 81 1 785 1048 475 65 0 67 7
82 788 789 83 1 786 6 81 1 67 1228 33 65 785 0 218 83 790 81 1 788 1049 475 69 0
 71 785 791 792 83 1 789 7 81 1 71 1226 33 69 788 0 793 218 794 81 1 791 1050 47
5 73 0 75 788 795 796 83 1 792 8 81 1 75 1236 33 73 791 0 260 89 797 81 1 795 10
51 475 77 0 92 791 488 798 83 1 796 9 81 1 92 1234 33 77 795 0 231 260 799 81 1
 488 1052 475 94 0 96 795 483 800 83 1 798 10 81 1 96 1259 33 94 488 0 178 203 8
01 83 1 800 11 81 1 203 1260 33 140 802 0 96 205 803 82 3 801 4 27 0 81 1 802 11
21 475 140 0 203 804 805 806 81 1 205 1261 33 144 804 0 203 215 807 82 3 803 4 4
3 1 81 1 804 1120 475 144 0 205 808 802 809 82 3 807 4 44 1 81 1 808 1119 475 19
8 0 200 810 804 811 83 1 809 79 81 1 200 1243 33 198 808 0 570 86 812 81 1 810 1
118 475 201 0 415 813 808 814 83 1 811 78 81 1 415 1214 33 201 810 0 815 246 816
 81 1 813 1117 475 340 0 35 817 810 818 83 1 814 77 81 1 35 1280 33 340 813 0 49
5 30 819 81 1 817 1116 475 331 0 339 820 813 821 83 1 818 76 81 1 339 1285 33 33
1 817 0 277 273 822 81 1 820 1115 475 327 0 329 823 817 824 83 1 821 75 81 1 329
 1211 33 327 820 0 825 826 827 81 1 823 1114 475 323 0 325 828 820 829 83 1 824
 74 81 1 325 1207 33 323 823 0 283 321 830 81 1 828 1113 475 319 0 321 831 823 8
32 83 1 829 73 81 1 321 1208 33 319 828 0 325 833 834 81 1 831 1112 475 315 0 31
7 835 828 836 83 1 832 72 81 1 317 1185 33 315 831 0 558 550 837 81 1 835 1111 4
75 311 0 313 838 831 839 83 1 836 71 81 1 313 1189 33 311 835 0 309 301 840 81 1
 838 1110 475 307 0 309 841 835 842 83 1 839 70 81 1 309 1188 33 307 838 0 545 3
13 843 81 1 841 1109 475 303 0 305 844 838 845 83 1 842 69 81 1 305 1191 33 303
 841 0 301 513 846 81 1 844 1108 475 248 0 301 847 841 848 83 1 845 68 81 1 301
 1190 33 248 844 0 313 305 849 81 1 847 1107 475 238 0 246 850 844 851 83 1 848
 67 81 1 246 1215 33 238 847 0 415 249 852 81 1 850 1106 475 233 0 235 853 847 8
54 83 1 851 66 81 1 235 1218 33 233 850 0 249 241 855 81 1 853 1105 475 237 0 29
8 856 850 857 83 1 854 65 81 1 298 1203 33 237 853 0 532 295 858 81 1 856 1104 4
75 293 0 295 859 853 860 83 1 857 64 81 1 295 1204 33 293 856 0 298 287 861 81 1
 859 1103 475 289 0 291 862 856 863 83 1 860 63 81 1 291 1200 33 289 859 0 525 5
27 864 81 1 862 1102 475 285 0 287 865 859 866 83 1 863 62 81 1 287 1205 33 285
 862 0 295 283 867 81 1 865 1101 475 251 0 283 868 862 869 83 1 866 61 81 1 283
 1206 33 251 865 0 287 325 870 81 1 868 1100 475 244 0 249 871 865 872 83 1 869
 60 81 1 249 1216 33 244 868 0 246 235 873 81 1 871 1099 475 239 0 241 874 868 8
75 83 1 872 59 81 1 241 1219 33 239 871 0 235 876 877 81 1 874 1098 475 243 0 28
0 878 871 879 83 1 875 58 81 1 280 1193 33 243 874 0 513 507 880 81 1 878 1097 4
75 275 0 277 881 874 882 83 1 879 57 81 1 277 1284 33 275 878 0 501 339 883 81 1
 881 1096 475 271 0 273 884 878 885 83 1 882 56 81 1 273 1286 33 271 881 0 339 8
86 887 81 1 884 1095 475 267 0 269 476 881 888 83 1 885 55 81 1 269 1195 33 267
 884 0 507 596 889 81 1 476 1094 475 262 0 264 471 884 890 83 1 888 54 81 1 264
 1272 33 262 476 0 455 443 891 83 1 890 53 82 3 891 4 49 1 81 1 596 1196 33 17 8
92 710 269 26 893 82 3 889 4 10 1 81 1 892 1139 475 17 0 596 434 894 895 82 3 89
3 4 7 2 81 1 434 1138 475 431 0 432 896 892 897 81 1 894 1140 475 19 0 898 892 8
99 900 83 1 895 98 81 1 898 1451 33 19 894 711 901 0 902 81 1 899 1141 475 713 0
 162 894 750 903 83 1 900 99 81 1 162 1170 33 713 899 745 904 158 905 81 1 750 1
142 475 374 0 462 899 754 906 83 1 903 1e2 83 1 906 101 81 1 904 1169 33 1 907 9
08 0 162 909 82 3 905 4 0 2 81 1 907 1167 910 1 911 904 0 0 912 81 1 908 1452 91
3 1 904 14 0 0 914 82 3 909 4 0 3 80 1 913 915 916 8038 0 0 0 0 0 0 0 0 0 TTTTTT
TTTTTTTF10 81 1 14 1453 915 1 908 2 0 0 917 98 255 13 914 67 111 114 101 32 80 1
11 116 32 83 105 100 101 80 1 915 918 919 8017 0 0 0 0 0 0 0 0 0 TTTTTTTTTTTTTF3
 84 255 13 917 Core Pot Side79 255 13 919 SDL/TYSA_NAME79 14 916 SDL/TYSA_UNAME8
0 1 910 475 920 9000 0 0 0 0 3 5 0 0 0 FFTFTFTTFFFFFF2 81 1 911 1166 475 1 921 9
07 922 0 923 83 1 912 124 81 1 921 1040 924 1 0 911 0 0 925 81 1 922 1165 475 40
2 0 926 927 911 928 83 1 923 -1 81 1 926 1290 33 402 922 405 929 425 930 81 1 92
7 1164 475 406 0 929 931 922 932 83 1 928 124 14 406 996 933 ?402 364 446 6 934
 -0 0 402 364 25 81 1 929 1289 33 406 927 933 935 926 936 81 1 931 1163 475 364
 0 935 666 927 937 83 1 932 123 14 364 994 938 ?406 360 468 6 939 -0 0 406 360 2
5 81 1 935 1288 33 364 931 938 886 929 940 81 1 666 1162 475 360 0 886 660 931 9
41 83 1 937 122 81 1 886 1287 33 360 666 363 273 935 942 83 1 941 121 81 1 363 1
478 645 360 886 0 662 938 943 82 3 942 4 23 2 81 1 938 1479 645 364 935 0 363 93
3 944 83 3 943 .2823529411764705 .662745098039216 .3254901960784315 81 1 933 148
0 645 406 929 0 938 405 945 83 3 944 .2823529411764705 .662745098039216 .3254901
960784315 81 1 405 1481 645 402 926 0 933 0 946 83 3 945 .2823529411764705 .6627
45098039216 .3254901960784315 83 3 946 .2823529411764705 .662745098039216 .32549
01960784315 82 3 940 4 24 2 54 939 1026 0 364 934 947 0 +0 -.001 0 0 1 0 .010032
0508075689 .002 -1 0 0 54 934 1027 0 406 0 939 0 +0 -.001 0 0 1 0 .0100320508075
689 .002 -1 0 0 50 947 645 0 132 939 948 0 +0 0 0 0 1 0 -1 0 0 14 132 632 646 ?6
34 728 129 6 947 -0 0 634 728 25 50 948 641 0 728 947 411 0 +-.0027 0 .0052 0 0
 1 0 -1 0 14 728 628 949 ?132 725 737 6 948 -0 0 132 725 25 50 411 643 0 117 948
 409 0 +-.0027 0 -.0052 0 0 -1 0 1 0 81 1 949 1472 645 728 950 0 727 646 951 81
 1 950 1224 33 728 952 949 876 793 953 81 1 727 1471 645 725 901 0 732 949 954 8
1 1 646 1473 645 132 793 0 949 636 955 83 3 951 .2823529411764705 .6627450980392
16 .3254901960784315 81 1 793 1225 33 132 642 646 950 71 956 83 3 955 .282352941
1764705 .662745098039216 .3254901960784315 81 1 642 1157 475 132 0 793 952 635 9
57 82 3 956 4 18 2 81 1 952 1156 475 728 0 950 958 642 959 83 1 957 116 81 1 958
 1155 475 725 0 901 960 952 961 83 1 959 115 81 1 901 1445 33 725 958 727 731 89
8 962 81 1 960 1154 475 117 0 876 963 958 964 83 1 961 114 81 1 876 1222 33 117
 960 732 241 950 965 81 1 963 1153 475 723 0 731 966 960 967 83 1 964 113 81 1 7
31 1444 33 723 963 730 968 901 969 81 1 966 1152 475 719 0 968 970 963 971 83 1
 967 112 81 1 968 1304 33 719 966 722 435 731 972 81 1 970 1151 475 716 0 435 97
3 966 974 83 1 971 111 81 1 435 1303 33 716 970 718 432 968 975 81 1 973 1150 47
5 399 0 815 976 970 977 83 1 974 110 14 399 409 978 ?716 355 683 6 409 +0 0 716
 355 25 81 1 815 1213 33 399 973 978 826 415 979 81 1 976 1149 475 355 0 826 980
 973 981 83 1 977 109 81 1 826 1212 33 355 976 398 329 815 982 81 1 980 1148 475
 351 0 825 769 976 983 83 1 981 108 81 1 825 1210 33 351 980 354 833 329 984 81
 1 769 1147 475 356 0 833 764 980 985 83 1 983 107 14 356 369 771 ?351 687 690 6
 352 +0 0 351 687 25 81 1 833 1209 33 356 769 771 321 825 986 83 1 985 106 81 1
 771 1463 645 356 833 0 766 354 987 82 3 986 4 8 2 81 1 354 1464 645 351 825 0 7
71 398 988 83 3 987 .2823529411764705 .662745098039216 .3254901960784315 81 1 39
8 1465 645 355 826 0 354 978 989 83 3 988 .2823529411764705 .662745098039216 .32
54901960784315 81 1 978 1466 645 399 815 0 398 718 990 83 3 989 .282352941176470
5 .662745098039216 .3254901960784315 81 1 718 1467 645 716 435 0 978 722 991 83
 3 990 .2823529411764705 .662745098039216 .3254901960784315 81 1 722 1468 645 71
9 968 0 718 730 992 83 3 991 .2823529411764705 .662745098039216 .325490196078431
5 83 3 992 .2823529411764705 .662745098039216 .3254901960784315 82 3 984 4 9 2 8
2 3 982 4 10 2 82 3 979 4 11 2 82 3 975 5 0 2 82 3 972 5 1 2 82 3 969 9 0 2 81 1
 732 1470 645 117 876 0 730 727 993 82 3 965 4 15 2 83 3 993 .2823529411764705 .
662745098039216 .3254901960784315 82 3 962 9 1 2 83 3 954 .2823529411764705 .662
745098039216 .3254901960784315 82 3 953 4 17 2 82 3 936 4 25 2 81 1 425 1291 33
 423 994 0 926 421 995 82 3 930 4 26 2 81 1 994 1136 475 423 0 425 996 896 997 8
1 1 421 1292 33 154 996 0 425 429 998 82 3 995 4 58 1 81 1 996 1135 475 154 0 42
1 999 994 1000 81 1 429 1293 33 427 896 0 421 432 1001 82 3 998 4 59 1 81 1 896
 1137 475 427 0 429 994 434 1002 82 3 1001 4 60 1 83 1 1002 96 81 1 999 1134 475
 146 0 110 148 996 1003 83 1 1000 94 81 1 110 1248 33 146 999 0 106 145 1004 81
 1 148 1133 475 134 0 145 1005 999 1006 83 1 1003 93 81 1 1005 1132 475 138 0 14
9 1007 148 1008 83 1 1006 92 81 1 149 1250 33 138 1005 0 145 207 1009 81 1 1007
 1131 475 151 0 207 1010 1005 1011 83 1 1008 91 81 1 207 1251 33 151 1007 0 149
 62 1012 81 1 1010 1130 475 193 0 194 1013 1007 1014 83 1 1011 90 81 1 194 1240
 33 193 1010 0 79 211 1015 81 1 1013 1129 475 196 0 419 1016 1010 1017 83 1 1014
 89 81 1 419 1238 33 196 1013 0 89 79 1018 81 1 1016 1128 475 209 0 211 1019 101
3 1020 83 1 1017 88 81 1 211 1241 33 209 1016 0 194 570 1021 81 1 1019 1127 475
 212 0 229 1022 1016 1023 83 1 1020 87 81 1 229 1232 33 212 1019 0 50 231 1024 8
1 1 1022 1126 475 227 0 231 1025 1019 1026 83 1 1023 86 81 1 231 1233 33 227 102
2 0 229 92 1027 81 1 1025 1125 475 127 0 226 1028 1022 1029 83 1 1026 85 81 1 22
6 1230 33 127 1025 0 83 50 1030 81 1 1028 1124 475 115 0 125 1031 1025 1032 83 1
 1029 84 81 1 125 1255 33 115 1028 0 104 223 1033 81 1 1031 1123 475 126 0 223 8
05 1028 1034 83 1 1032 83 81 1 223 1256 33 126 1031 0 125 101 1035 81 1 805 1122
 475 119 0 109 802 1031 1036 83 1 1034 82 81 1 109 1246 33 119 805 0 56 106 1037
 83 1 1036 81 82 3 1037 4 34 1 82 3 1035 4 41 1 82 3 1033 4 40 1 82 3 1030 4 26
 1 82 3 1027 4 28 1 82 3 1024 4 27 1 82 3 1021 4 32 1 82 3 1018 4 30 1 82 3 1015
 4 31 1 82 3 1012 4 38 1 82 3 1009 4 37 1 82 3 1004 4 35 1 83 1 997 95 80 1 924
 1038 1039 9000 0 0 0 0 3 5 0 0 0 TTTFFFFFFFFFFF1 82 1 925 469 79 23 1039 ONSHAP
E_ORIGINALBODY_ID79 18 920 BTI/importMaxCount81 1 711 1456 645 19 898 0 710 745
 1040 82 3 902 10 0 2 83 3 1040 .2823529411764705 .662745098039216 .325490196078
4315 83 1 897 97 82 3 887 4 57 1 82 3 883 4 55 1 82 3 880 4 9 1 82 3 877 4 24 1
 82 3 873 4 22 1 82 3 870 4 16 1 82 3 867 4 15 1 82 3 864 4 12 1 82 3 861 4 14 1
 82 3 858 4 13 1 82 3 855 4 23 1 82 3 852 4 21 1 82 3 849 4 7 1 82 3 846 4 8 1 8
2 3 843 4 5 1 82 3 840 4 6 1 82 3 837 4 4 1 82 3 834 4 18 1 82 3 830 4 17 1 82 3
 827 4 19 1 82 3 822 4 56 1 82 3 819 4 53 1 82 3 816 4 20 1 82 3 812 4 33 1 83 1
 806 80 82 3 799 4 16 0 82 3 797 4 17 0 82 3 794 4 12 0 82 3 790 4 13 0 82 3 787
 4 24 0 82 3 784 4 25 0 82 3 781 4 26 0 81 1 777 1042 475 31 0 43 34 672 1041 83
 1 778 2 81 1 43 1277 33 31 777 0 464 254 1042 81 1 34 1041 475 12 0 30 0 777 10
43 83 1 1041 1 83 1 1043 0 82 3 1042 4 32 0 83 3 772 .2823529411764705 .66274509
8039216 .3254901960784315 83 1 770 105 50 358 166 0 687 352 707 0 +0 .015 0 0 1
 0 -1 0 0 50 707 163 0 677 358 375 0 +.011 .015 .015 -1 0 115648231731787e-30 -1
15648231731787e-30 0 -1 83 3 767 .2823529411764705 .662745098039216 .32549019607
84315 83 1 765 104 83 1 761 103 83 1 757 102 82 3 752 4 2 2 79 15 749 SDL/TYSA_C
OLOUR83 3 747 .2823529411764705 .662745098039216 .3254901960784315 83 3 733 .282
3529411764705 .662745098039216 .3254901960784315 15 724 541 0 1044 719 1045 17 1
044 0 724 1044 1044 0 242 239 0 0 -15 1045 542 0 236 719 0 17 236 0 1045 236 236
 0 1046 233 0 0 +17 1046 0 706 1046 1046 0 236 233 0 0 -15 706 512 0 1046 677 10
47 15 1047 480 0 1048 677 676 17 1048 0 1047 1048 1048 0 247 238 0 0 -17 247 0 1
049 247 247 0 1048 238 0 0 +15 1049 502 0 247 716 0 17 242 0 701 242 242 0 1044
 239 0 0 +15 720 501 0 1050 716 1049 17 1050 0 720 1050 1050 0 250 244 0 0 -17 2
50 0 709 250 250 0 1050 244 0 0 +15 709 472 0 250 699 698 15 714 24 0 166 19 105
1 17 166 0 714 166 166 0 159 157 0 0 -15 1051 26 0 177 19 0 17 177 0 1051 177 17
7 0 171 21 0 0 -83 3 712 .2823529411764705 .662745098039216 .3254901960784315 83
 3 705 .2823529411764705 .662745098039216 .3254901960784315 82 3 673 4 1 0 29 44
5 75 0 439 457 482 .00500816019147708 0 -.00661878625553842 29 457 82 0 444 499
 445 .00500816019147708 0 .00661878625553842 29 499 87 0 456 505 457 -.006053267
16787252 .001 -.008 29 505 90 0 498 511 499 -.00605326716787252 .001 .008 29 511
 93 0 504 518 505 -.011 .001 .008 29 518 96 0 510 524 511 -.011 .001 -.008 29 52
4 103 0 517 531 518 -.011 .008 .015 29 531 106 0 523 538 524 -.011 .015 .008 29
 538 109 0 530 543 531 -.011 .015 -.008 29 543 112 0 537 549 538 -.011 .008 -.01
5 29 549 120 0 542 556 543 .011 .008 .015 29 556 124 0 548 563 549 .011 .008 -.0
15 29 563 127 0 555 568 556 .011 .015 -.008 29 568 130 0 562 0 563 .011 .015 .00
8 83 3 668 .2823529411764705 .662745098039216 .3254901960784315 83 1 667 120 83
 3 663 .2823529411764705 .662745098039216 .3254901960784315 83 1 661 119 83 3 65
6 .2823529411764705 .662745098039216 .3254901960784315 83 1 654 118 83 3 648 .28
23529411764705 .662745098039216 .3254901960784315 83 1 644 117 82 3 628 4 29 1 8
2 3 625 4 45 1 82 3 622 4 25 1 82 3 619 4 46 1 82 3 616 4 39 1 82 3 613 4 47 1 8
2 3 606 4 3 1 82 3 603 4 52 1 82 3 600 4 54 1 82 3 597 4 11 1 82 3 593 4 18 0 82
 3 590 4 19 0 82 3 587 4 15 0 82 3 584 4 14 0 82 3 579 4 22 0 82 3 577 4 21 0 82
 3 574 4 20 0 82 3 569 4 3 0 82 3 564 4 4 0 82 3 559 4 2 0 82 3 551 4 5 0 82 3 5
44 4 11 0 82 3 539 4 9 0 82 3 533 4 10 0 82 3 526 4 8 0 82 3 519 4 6 0 82 3 512
 4 7 0 82 3 506 4 35 0 82 3 500 4 33 0 82 3 494 4 29 0 83 1 489 12 79 13 486 BTI
/importTag17 453 0 450 442 451 441 459 460 0 469 -82 3 479 4 30 0 83 1 477 52 79
 9 474 BTI/DetId82 3 467 4 51 1 82 3 463 4 2 1 15 176 63 0 171 374 0 82 3 436 4
 61 1 141 412 380 412 412 390 141 408 380 408 408 389 141 396 378 396 396 381 14
1 388 395 388 388 380 40 7 391 .00190394425087698 1.00470563545692 7 .0005389174
41796599 .334554935185582 ??.00851750372505815 -.000669578364928156 -.0055837195
9939049 .00626606275908309 -.000998497494135432 -.00783555290200688 .00334562892
20365 -.000868767717110716 -.00953132595482961 .00067069174533132 -.000743191245
864088 -.0101346210057632 -.00231385874692569 -.000805061402434726 -.00986303346
705158 -.00507676195955385 -.000975097212027803 -.00866905159341471 -.0077032362
6884187 -.000878652327830979 -.00652706658619557 41 1 392 L?.00851750372505815 -
.000669578364928156 -.00558371959939049 41 1 393 L?-.00770323626884187 -.0008786
52327830979 -.00652706658619557 204 28 394 4 3.72186531753977 -.3413814930002395
 1.84260650942827 .00248249627494185 4.037833241137335 -.522731520445863 1.58906
924344117 .00473393724091691 4.37481109915508 -.4493541154519875 1.3998171512447
62 .0076543710779635 4.6463070620514 -.380727121079515 1.331334224341056 .010329
30825466868 4.9428209852451 -.414279736764347 1.362284982027856 .013313858746925
7 5.24216715472586 -.509279841549742 1.496388620068232 .01607676195955385 5.5802
5217014461 -.454848435099635 1.73519512838972 .01870323626884185 141 377 362 105
2 1052 370 141 1052 404 377 377 370 141 373 332 373 373 344 141 372 362 1053 105
3 368 141 1053 404 372 372 368 141 367 332 367 367 343 141 350 328 350 350 333 1
41 342 349 342 342 332 40 7 345 .00190394425087698 1.00470563545692 7 .000538917
441796599 .334554935185582 ??-.00851750372505815 -.000669578364928156 .005583719
59939049 -.00626606275908309 -.000998497494135432 .00783555290200688 -.003345628
9220365 -.000868767717110716 .00953132595482961 -.00067069174533132 -.0007431912
45864088 .0101346210057632 .00231385874692569 -.000805061402434726 .009863033467
05158 .00507676195955385 -.000975097212027803 .00866905159341471 .00770323626884
187 -.000878652327830979 .00652706658619557 41 1 346 L?-.00851750372505815 -.000
669578364928156 .00558371959939049 41 1 347 L?.00770323626884187 -.0008786523278
30979 .00652706658619557 204 28 348 4 .580272663949975 -.3413814930002395 1.8426
0650942827 .00248249627494185 .89624058754754 -.522731520445863 1.58906924344117
 .00473393724091691 1.233218445565288 -.4493541154519875 1.399817151244762 .0076
543710779635 1.504714408461605 -.380727121079515 1.331334224341056 .010329308254
66868 1.80122833165531 -.414279736764347 1.362284982027856 .0133138587469257 2.1
0057450113606 -.509279841549742 1.496388620068232 .01607676195955385 2.438659516
554815 -.454848435099635 1.73519512838972 .01870323626884185 82 3 183 4 42 1 82
 3 175 4 1 1 82 3 164 4 0 1 82 3 150 4 36 1 82 3 111 4 23 0 82 3 37 4 34 0 19 18
 30 0 1 0 10 6 S0 74 4 CI16 index_map_offset0 0 1 dCCZ20 16 8 0 0 921 911 907 89
8 908 14 2 405 0 0 0 0 0 0 0 0 0 0 0 0 80 1 13 645 1054 8040 0 0 0 0 3 5 0 0 0 T
TTFFFFFFFFFFF2 83 3 15 .2823529411764705 .662745098039216 .3254901960784315 79 1
7 1054 SDL/TYSA_COLOUR_21 0 
