**ABCDEFGHIJKLMNOPQRSTUVWXYZabcdefghijklmnopqrstuvwxyz**************************
**PARASOLID !"#$%&'()*+,-./:;<=>?@[\]^_`{|}~0123456789**************************
**PART1;
MC=unknown;
MC_MODEL=unknown;
MC_ID=unknown;
OS=unknown;
OS_RELEASE=unknown;
FRU=Parasolid 33.1.200;
APPL=Onshape;
SITE=unknown;
USER=unknown;
FORMAT=text;
GUISE=transmit;
KEY=BTGapi::writeModels_.xmt;
FILE=BTGapi::writeModels_.xmt;
DATE=2021-07-17T17:06:35 (UTC);
**PART2;
SCH=SCH_3301200_33103;
USFLD_SIZE=0;
**PART3;
**END_OF_HEADER*****************************************************************
T51 : TRANSMIT FILE created by modeller version 330120023 SCH_3301200_33103_1300
6230 0 12 35 CCCI7 lattice222 0 CCCI4 mesh1006 0 I8 polyline1008 0 CCCCCCCDI5 ow
ner1040 0 CCCCCCI13 boundary_mesh1006 0 I17 boundary_polyline1008 0 CCCA16 index
_map_offset0 0 1 dA9 index_map82 0 A17 node_id_index_map82 0 A20 schema_embeddin
g_map82 0 A5 child12 0 A14 lowest_node_id0 0 1 dA16 mesh_offset_data206 0 Z1 444
7 2 3 0 0 0 0 0 0 0 1e3 1e-8 0 4 5 1 0 1 1 6 7 8 9 0 0 10 11 12 0 0 0 0 0 0 0 81
 255 1 2 4422 13 1 14 0 0 0 15 70 11 CI9 list_type0 0 1 uI10 notransmit0 0 1 lCC
CDCCDI12 finger_index0 0 1 dI12 finger_block1012 0 CZ3 0 4 T1 0 0 7 20 1 16 16 1
3 255 6 29 0 1 0 17 0 0 18 0 52 255 7 4373 19 20 21 0 22 -0 .027 459242549680257
e-33 0 1 0 .0075 .242535625036333 .970142500145332 0 0 1 137 255 8 4377 0 1 23 0
 24 +21 25 0 ?29 255 9 4334 0 12 26 0 -.002872281323269015 .031 .008 19 8 CCCCCC
CA5 owner12 0 Z10 437 0 1 18 0 27 V0 16 255 11 4341 28 1e-5 29 0 30 0 0 0 1 18 2
55 12 4330 31 32 0 33 9 1e-5 1 81 1 31 4412 34 12 0 0 35 36 37 17 255 32 0 38 39
 40 12 41 30 0 42 +18 33 4324 36 43 12 44 26 1e-5 1 81 1 36 4413 34 33 0 0 31 45
 46 17 43 0 47 48 49 33 50 51 52 41 +18 44 4310 53 54 33 55 56 1e-5 1 29 26 4327
 0 33 56 9 .002872281323269015 .031 .008 29 56 4312 0 44 57 26 .0025343658734726
6 .027 .00705882352941176 29 57 4309 0 55 58 56 -.00253436587347266 .027 .007058
82352941177 18 55 4307 59 60 44 61 57 1e-5 1 29 58 3824 0 61 62 57 .007 .045 -.0
245 18 61 3821 63 64 55 65 58 ?1 29 62 3654 0 65 66 58 .007 .031 -.0188431457505
076 18 65 3651 67 68 61 69 62 ?1 29 66 3650 0 69 70 62 -.007 .031 -.018843145750
5076 18 69 3647 71 72 65 73 66 ?1 29 70 3640 0 73 74 66 -.007 .029 -.0245 18 73
 3638 75 76 69 77 70 ?1 29 74 3636 0 77 78 70 .007 .029 -.0245 18 77 3634 79 80
 73 81 74 ?1 29 78 3391 0 82 83 74 -.011 .045 -.00919352098699916 18 82 3382 84
 85 81 86 78 ?1 29 83 3390 0 86 87 78 .011 .031 -.00919352098699916 18 86 3374 8
8 89 82 90 83 ?1 29 87 3389 0 81 91 83 -.011 .031 -.00919352098699916 18 81 3386
 92 93 77 82 87 ?1 29 91 3369 0 90 94 87 .011 .045 -.00919352098699916 18 90 336
6 95 96 86 97 91 ?1 29 94 3328 0 97 98 91 -.007 .045 -.01774679434480895 18 97 3
325 99 100 90 101 94 ?1 29 98 3324 0 101 102 94 -.007 .031 -.01774679434480895 1
8 101 3321 103 104 97 105 98 ?1 29 102 3315 0 105 106 98 .007 .045 -.01774679434
480895 18 105 3312 107 108 101 109 102 ?1 29 106 3311 0 109 110 102 .007 .031 -.
01774679434480895 18 109 3308 111 112 105 113 106 ?1 29 110 20 0 113 114 106 -.0
11 .031 .008 18 113 662 115 39 109 116 110 ?1 29 114 47 0 116 117 110 .011 .031
 .008 18 116 696 118 119 113 120 114 ?1 29 117 84 0 120 121 114 -.011 .038 .015
 18 120 665 122 123 116 124 117 ?1 29 121 87 0 124 125 117 -.011 .045 .008 18 12
4 624 126 127 120 128 121 ?1 29 125 100 0 128 129 121 .011 .045 .008 18 128 627
 130 131 124 132 125 ?1 29 129 103 0 132 133 125 .011 .038 .015 18 132 733 134 1
35 128 136 129 ?1 29 133 3248 0 136 0 129 -.007 .045 -.0245 18 136 3108 137 138
 132 0 133 ?1 81 1 137 3833 34 136 0 0 139 63 140 17 138 0 141 142 64 136 143 14
4 0 145 -15 255 141 2268 0 142 146 147 17 142 0 141 148 138 97 149 150 0 0 +17 6
4 0 141 138 108 61 151 152 0 153 -17 143 0 154 80 145 61 138 144 0 0 +16 144 305
5 155 ?143 156 157 158 0 0 1 17 145 0 154 143 159 136 76 160 0 149 +15 154 3179
 0 159 161 162 17 159 0 154 145 80 73 163 164 0 0 +17 76 0 165 72 149 73 145 160
 0 166 -16 160 3045 167 ?145 168 169 170 0 0 1 17 149 0 165 76 171 136 142 150 0
 0 -15 165 3189 0 172 173 0 17 171 0 165 149 172 97 174 175 0 142 +16 150 3072 1
76 ?142 152 177 178 0 0 1 81 1 176 3484 34 150 0 0 179 180 181 16 152 3094 180 ?
151 169 150 182 0 0 1 16 177 3601 183 ?184 150 185 186 0 0 1 30 255 178 3235 0 1
50 186 182 0 +-.007 .045 -.01625 0 0 1 31 255 186 3626 0 177 187 178 0 +0 .02 0
 0 -1 0 0 0 -1 .0059 30 182 3233 0 152 178 188 0 +.007 .045 -.01625 0 0 1 30 188
 3232 0 169 182 170 0 +.007 .030998 -.0245 0 1 0 16 169 3089 189 ?153 160 152 18
8 0 0 1 30 170 3229 0 160 188 190 0 +-.007 .030998 -.0245 0 1 0 30 190 3228 0 16
8 170 191 0 +.007 .031 -.01625 0 0 -1 16 168 3309 192 ?193 194 160 190 0 0 1 30
 191 3226 0 194 190 195 0 +-.007 .031 -.01625 0 0 -1 16 194 3322 196 ?197 198 16
8 191 0 0 1 31 195 3224 0 198 191 199 0 +-303576608295941e-32 .0370255051255226
 -.0245 0 1 0 -1 0 0 .00525 16 198 3032 200 ?201 202 194 195 0 0 1 31 199 3223 0
 203 195 204 0 +-303576608295941e-32 .0220255051255226 -.0245 0 -1 0 1 0 0 .0045
 16 203 3022 205 ?206 207 202 199 0 0 1 31 204 3222 0 207 199 208 0 --3035766082
95941e-32 .02452550512552265 -.0245 0 -1 0 1 0 0 .007 16 207 3058 209 ?210 211 2
03 204 0 0 1 31 208 3220 0 202 204 212 0 --303576608295941e-32 .0370255051255226
 -.0245 0 -1 0 0 0 -1 .0026 16 202 3028 213 ?214 203 198 208 0 0 1 31 212 3219 0
 157 208 215 0 +-303576608295941e-32 .0220255051255226 -.0245 0 -1 0 0 0 -1 .002
6 16 157 3025 216 ?217 144 211 212 0 0 1 30 215 1073 0 156 212 218 0 +-.011 .038
 .015 1 0 -15770213417971e-29 16 156 1059 219 ?220 221 144 215 0 0 1 30 218 635
 0 221 215 222 0 +.011 .045 .008 1 0 -15770213417971e-29 16 221 633 223 ?224 225
 156 218 0 0 1 31 222 738 0 225 218 226 0 -.011 .038 .008 -1 0 115648231731787e-
30 -115648231731787e-30 0 -1 .007 16 225 736 227 ?228 229 221 222 0 0 1 31 226 7
43 0 229 222 230 0 -.011 .038 .008 -1 0 115648231731787e-30 -115648231731787e-30
 0 -1 .007 16 229 741 231 ?135 232 225 226 0 0 1 30 230 177 0 232 226 233 0 +.01
1 .045 .015 -115648231731787e-30 0 -1 16 232 628 234 ?96 235 229 230 0 0 1 31 23
3 678 0 236 230 237 0 --.011 .038 .008 1 0 -115648231731787e-30 115648231731787e
-30 0 1 .007 16 236 676 238 ?127 239 240 233 0 0 1 31 237 673 0 239 233 241 0 --
.011 .038 .008 1 0 -115648231731787e-30 115648231731787e-30 0 1 .007 16 239 671
 242 ?123 243 236 237 0 0 1 30 241 179 0 243 237 244 0 +-.011 .045 .015 11564823
1731787e-30 0 1 16 243 622 245 ?246 247 239 241 0 0 1 30 244 173 0 248 241 249 0
 +.011 .031 .015 -115648231731787e-30 0 -1 16 248 697 179 ?89 250 251 244 0 0 1
 30 249 175 0 250 244 252 0 +-.011 .031 .015 115648231731787e-30 0 1 16 250 660
 253 ?254 255 248 249 0 0 1 30 252 706 0 1 249 256 257 -126161707343768e-32 .031
 .008 1 0 -15770213417971e-29 31 256 1813 0 247 252 258 0 +-.011 .038 .008 1 0 -
115648231731787e-30 -115648231731787e-30 0 -1 .0026 141 255 257 259 260 260 252
 133 255 259 4333 0 255 261 262 0 +252 -.002872281323269015 .031 .008 -.011 .031
 .008 -.002872281323269015 -.011 141 260 261 257 257 252 133 261 4329 0 263 264
 259 0 +252 .011 .031 .008 .002872281323269015 .031 .008 .011 .00287228132326901
5 16 263 704 265 ?40 266 255 261 0 0 1 31 264 4321 0 1 267 261 268 -0 .027 45924
2549680257e-33 0 1 0 0 0 1 .0075 133 267 4320 0 269 270 264 0 +264 -.00253436587
347266 .027 .00705882352941177 .00253436587347266 .027 .00705882352941176 5.9384
8412738094 .3447011797986465 141 268 267 268 268 264 16 269 4311 271 ?54 272 273
 267 0 0 1 137 270 4317 0 1 274 267 275 +276 277 0 ?133 274 4316 0 278 279 270 0
 +270 .00253436587347266 .027 .00705882352941177 -.00253436587347266 .027 .00705
882352941177 0 1 141 275 274 275 275 270 51 255 276 3976 0 280 281 282 283 -0 .0
267 459242549680257e-33 0 1 0 .0075 0 0 1 134 255 277 0 0 0 0 0 0 +284 285 136 2
55 284 2 5 2 3 5 FFF1 286 287 288 135 255 285 1 0 45 255 10 286 .344701179798646
 3e-4 .1721289525661735 .0003097281347029735 0 .000309729032364072 -.17210285437
73305 .0003097299298890675 -.344701179798646 3e-4 127 255 3 287 3 2 3 128 255 3
 288 0 .49981689453125 1 14 255 280 3958 289 ?290 291 292 6 276 -0 0 290 291 27
 50 255 281 3978 0 290 0 276 0 +-.0001068639270094228 .0267 -.00542157287525381
 0 -1 0 1 0 0 50 282 3624 0 293 276 294 0 +0 .02 0 0 -1 0 1 0 0 141 283 270 283
 283 276 14 293 3610 295 ?296 290 297 6 282 +0 0 296 290 27 50 294 3214 0 298 28
2 299 300 +.007 .030998 -.01625 -1 0 0 0 0 1 14 298 3198 301 ?173 302 303 6 294
 -0 0 173 302 27 50 299 3212 0 173 294 304 305 +-.007 .030998 -.01625 -1 0 0 0 0
 1 141 300 306 300 300 294 38 12 CCCCCCCCCCCA17 intersection_data204 0 Z306 3767
 0 273 307 158 0 +294 308 309 310 311 312 16 273 3664 313 ?314 269 315 306 0 0 1
 38 307 3766 0 315 316 306 0 -299 308 317 318 319 320 31 158 3816 0 144 306 279
 0 --3443596037044645e-33 .045 -.0245 0 1 0 0 0 1 .007 54 255 308 3786 0 291 321
 21 322 +-3443596037044645e-33 .029 -.0245 0 1 0 .009 .002 0 0 1 40 255 3 309 0
 1 3 .000542621207265719 .2919056000731995 ??.007 .031 -.0188431457505076 .007 .
03068242925271195 -.0207980838575227 .007 .0290078880911973 -.0244852426961014 4
1 3 CI8 term_use0 0 1 cCZ1 310 L?.007 .031 -.0188431457505076 41 2 311 TF.007 .0
29 -.0245 .007 .0290078880911973 -.0244852426961014 204 2 17 INTERSECTION_DATA17
 Intersection data7 uv_type0 0 1 u6 values0 1 1 fT16 312 4 -.00259314575050762 2
000000000002e-18 .891122507886653 1.570796326794895 -.00454808385752271 -.000315
5707472880625 1.084339760378192 2.142066950685065 -.00823524269610139 -.00199011
1908802715 1.5686881436469 3.137648597765815 -.00825 -.001998 1.570796326794895
 -3.141592653589795 14 291 3774 323 ?280 324 325 6 308 -0 0 280 324 27 54 321 34
48 0 324 326 308 327 +-.012 .038 -.008 -1 0 0 .012 .005 0 0 1 124 255 21 4375 32
8 329 308 7 330 -331 332 141 322 307 333 333 308 141 333 306 322 322 308 81 2 32
8 4376 334 21 0 0 19 0 335 336 14 329 4359 337 ?0 20 47 6 21 -0 0 0 20 27 141 33
0 338 339 340 21 126 255 331 FF1 3 2 4 5 5 2 2 FFF9 3 341 342 343 344 345 125 25
5 332 0 1 0 .00583479752643093 0 1 0 .00583479752643093 2 BBBBBBBB????0 0 0 0 45
 24 341 -.002872281323269015 .031 .008 -.001034560369298952 .03100824890499015 .
00842350440181052 .001031650909625384 .0310082609659227 .00842385203352569 .0028
72281323269015 .031 .008 -.00253436587347266 .027 .00705882352941177 -.000912847
384675553 .0270129625649845 .00764603551511543 .000910280214375342 .027012981517
87855 .0076465175254768 .00253436587347266 .027 .00705882352941177 127 2 342 2 2
 127 2 343 4 4 128 2 344 0 1 128 2 345 0 .00583479752643093 137 338 4387 0 1 346
 347 348 +21 349 0 ?141 339 8 350 330 21 141 340 351 330 350 21 137 351 4383 0 1
 352 52 353 +21 354 0 ?141 350 355 340 339 21 137 355 4381 0 1 52 356 357 +21 35
8 0 ?133 52 4382 0 43 351 355 0 +355 .00253436587347266 .027 .00705882352941177
 .002872281323269015 .031 .008 0 1 133 356 4380 0 50 355 359 0 +359 .00287228132
3269015 .031 .008 .00253436587347266 .027 .00705882352941176 0 1 141 357 52 357
 357 355 134 358 0 0 0 0 0 0 +360 361 136 360 1 2 2 2 5 FFF1 362 363 364 135 361
 1 0 45 4 362 1 .00583479752643093 0 .00583479752643093 127 2 363 2 2 128 2 364
 0 1 17 50 0 365 366 41 44 43 51 356 49 -137 359 4379 0 1 356 23 367 +7 368 0 ?1
33 23 4378 0 48 359 8 0 +8 .002872281323269015 .031 .008 -.002872281323269015 .0
31 .008 0 1 141 367 356 367 367 359 134 368 0 0 0 0 0 0 +369 370 136 369 1 2 2 2
 5 FFF1 371 372 373 135 370 1 0 45 4 371 .3447011797986465 .004 .344701179798646
5 0 127 2 372 2 2 128 2 373 0 1 17 48 0 47 60 43 12 29 11 23 374 -15 47 4360 0 4
3 329 0 17 60 0 47 49 48 55 374 375 346 366 +17 29 0 376 377 42 33 48 11 378 40
 +17 374 0 365 41 366 12 60 375 347 0 -15 365 4358 0 374 20 0 17 41 0 365 50 374
 33 32 30 0 29 -17 366 0 365 374 50 55 54 269 0 278 -16 375 4368 379 1e-5 60 51
 0 0 0 0 1 133 347 4386 0 374 338 380 0 +380 -.00253436587347266 .027 .007058823
52941177 -.002872281323269015 .031 .008 0 1 137 380 4385 0 1 347 352 381 +7 382
 0 ?133 352 4384 0 49 380 351 0 +351 -.00253436587347266 .027 .00705882352941177
 .00253436587347266 .027 .00705882352941177 0 1 141 381 347 381 381 380 134 382
 0 0 0 0 0 0 +383 384 136 383 1 2 2 2 5 FFF1 385 386 387 135 384 1 0 45 4 385 5.
93848412738094 0 5.93848412738094 .004 127 2 386 2 2 128 2 387 0 1 17 49 0 47 43
 60 44 278 272 352 0 -17 278 0 292 54 54 55 49 272 274 0 +16 272 4314 45 1e-5 27
8 30 269 0 0 0 1 81 1 45 4414 34 272 0 0 36 271 388 16 30 4335 389 ?32 11 272 26
2 0 0 1 81 1 389 4404 34 30 0 0 28 390 391 133 262 4337 0 30 259 392 0 +392 .002
87228132326902 .031 .008 -.002872281323269015 .031 .008 .3447011797986465 5.9384
8412738094 31 392 4338 0 1 262 378 393 +0 .031 459242549680257e-33 0 1 0 0 0 1 .
0085 133 378 4343 0 29 392 394 0 +394 -.002872281323269015 .031 .008 .0028722813
23269015 .031 .008 0 1 141 393 262 393 393 392 137 394 4344 0 1 378 346 395 +396
 397 0 ?133 346 4388 0 60 394 338 0 +338 -.002872281323269015 .031 .008 -.002534
36587347266 .027 .00705882352941177 0 1 141 395 378 395 395 394 51 396 1071 0 39
8 399 400 401 +-.011 .038 .008 1 0 -15770213417971e-29 .007 15770213417971e-29 0
 1 134 397 0 0 0 0 0 0 +402 403 136 402 2 5 2 3 5 FFF1 404 405 406 135 403 1 0 4
5 10 404 1.570796326794895 .00812771867673099 1.52541395895831 .0095062188663458
2 1.52539327162738 .0109989089526224 1.5253725860372 .01249147343540242 1.570796
326794895 .01387228132326902 127 3 405 3 2 3 128 3 406 0 .5 1 14 398 1048 407 ?4
08 146 376 6 396 +0 0 408 146 27 51 399 1072 0 408 409 396 0 +126161707343768e-3
2 .038 .008 -1 0 15770213417971e-29 .007 -15770213417971e-29 0 -1 50 400 166 0 1
46 396 410 411 +0 .045 0 0 1 0 -1 0 0 141 401 394 401 401 396 14 146 153 412 ?39
8 413 141 6 400 +0 0 398 413 27 50 410 163 0 413 400 414 0 +.011 .045 .015 -1 0
 115648231731787e-30 -115648231731787e-30 0 -1 141 411 415 416 416 400 38 415 33
93 0 417 418 419 0 +326 400 420 421 422 423 141 416 424 411 411 400 38 424 3395
 0 425 419 426 0 +321 400 427 428 429 430 16 425 3350 431 ?148 432 433 424 0 0 1
 38 419 3394 0 433 415 424 0 +434 326 435 436 437 438 31 426 3396 0 432 424 439
 0 +-.011 .038 -.008 -1 0 0 0 0 1 .00710102051443365 40 4 427 0 1 4 .00070826167
2578356 .3046322421992025 ??-.007 .045 -.01774679434480895 -.00738520180232872 .
045 -.01524679434480895 -.00924972909825529 .045 -.01149578795305672 -.010999999
99999938 .045 -.00919352098699874 41 1 428 L?-.007 .045 -.01774679434480895 41 1
 429 L?-.01099999999999938 .045 -.00919352098699874 204 16 430 4 2.5187660681777
9 -1.570796326794895 .007 -.01774679434480895 2.37351555606294 -1.96589227220785
5 .00738520180232872 -.01524679434480895 2.033962443149695 -2.55916354048224 .00
924972909825529 -.01149578795305672 1.739675313083245 -2.940234732799345 .010999
99999999938 -.00919352098699874 16 432 3357 440 ?441 442 425 426 0 0 1 38 439 33
97 0 442 426 443 0 +434 321 444 445 446 447 16 442 3362 448 ?104 164 432 439 0 0
 1 31 443 3641 0 164 439 316 0 --3443596037044645e-33 .029 -.0245 0 1 0 0 0 1 .0
07 50 434 165 0 17 414 449 450 +0 .031 0 0 1 0 -1 0 0 40 4 444 0 1 4 .0009219895
265972 .3208033669026815 ??-.011 .031 -.00919352098699916 -.0078909806126943 .03
1 -.01389436200382126 -.0070393915292527 .031 -.0169643192458648 -.007 .031 -.01
774679434480895 41 1 445 L?-.011 .031 -.00919352098699916 41 1 446 L?-.007 .031
 -.01774679434480895 204 16 447 4 .011 -.00919352098699916 4.54350999409628 -2.9
4023473279946 .0078909806126943 -.01389436200382126 4.0125274420363 -2.177022853
145515 .0070393915292527 -.0169643192458648 3.804561849124065 -1.69640422667164
 .007 -.01774679434480895 3.764419239001795 -1.570796326794895 14 17 448 451 ?45
2 0 38 6 434 -0 0 452 0 27 50 414 161 0 452 410 434 0 +-.011 .045 .015 1 0 -1156
48231731787e-30 115648231731787e-30 0 1 51 449 1811 0 453 434 454 0 +.011 .038 .
008 1 0 0 .0026 0 1 0 141 450 419 455 455 434 141 455 439 450 450 434 14 453 114
8 456 ?302 408 457 6 449 -0 0 302 408 27 51 454 1812 0 302 449 458 0 +.011 .038
 -.008 1 0 0 .0026 0 1 0 14 302 1188 459 ?298 453 460 6 454 -0 0 298 453 27 51 4
58 2783 0 296 454 326 0 -0 .025 0 0 1 0 .0059 -1 0 0 14 296 25 461 ?20 293 462 6
 458 -0 0 20 293 27 54 326 3427 0 463 458 321 464 +.012 .038 -.008 -1 0 0 .012 .
005 0 0 1 14 463 3415 465 ?324 466 467 6 326 -0 0 324 466 27 141 464 415 468 468
 326 141 468 419 464 464 326 81 1 465 4439 469 463 470 0 471 472 473 14 324 3436
 472 ?291 463 474 6 321 -0 0 291 463 27 14 466 3141 471 ?463 475 476 6 477 +0 0
 463 475 27 15 467 3416 0 112 463 0 13 27 2833 0 0 0 0 0 0 10 17 17 112 0 467 47
8 479 109 480 433 0 481 -17 478 0 467 482 112 105 481 266 0 0 -17 479 0 467 112
 482 86 483 484 0 0 -17 480 0 38 119 485 86 112 433 0 479 +16 433 3341 486 ?480
 425 417 419 0 0 1 17 481 0 303 193 151 109 478 266 0 485 +15 303 3201 0 151 298
 0 17 193 0 303 314 481 65 485 168 0 487 +17 151 0 303 481 153 105 64 152 0 478
 +16 266 3316 488 ?481 175 263 489 0 0 1 17 485 0 38 480 68 109 193 168 0 0 -15
 38 2825 0 40 17 0 17 68 0 38 485 197 65 490 491 0 193 +17 197 0 38 68 104 69 17
2 194 0 490 +17 490 0 325 166 487 69 68 491 0 0 -16 491 3655 492 ?68 315 164 316
 0 0 1 81 1 492 3802 34 491 0 0 493 494 495 16 315 3660 494 ?72 273 491 307 0 0
 1 16 164 3639 493 ?159 491 442 443 0 0 1 31 316 3657 0 491 443 307 0 +-34435960
37044645e-33 .031 -.0245 0 1 0 0 0 1 .009 81 1 493 3801 34 164 0 0 67 492 496 80
 255 1 34 497 498 9000 0 0 0 0 3 6 0 0 0 FFTFTFTTFFFFFF1 81 1 67 3800 34 65 0 0
 71 493 499 82 255 3 496 35 0 1 81 1 71 3799 34 69 0 0 79 67 500 82 3 499 35 3 0
 81 1 79 3798 34 77 0 0 75 71 501 82 3 500 35 2 0 81 1 75 3797 34 73 0 0 502 79
 503 82 3 501 35 1 0 81 1 502 3612 34 293 504 295 183 75 505 82 3 503 35 0 0 81
 1 504 3613 506 293 0 502 507 0 508 81 1 295 4444 469 293 502 0 509 461 510 81 1
 183 3603 34 177 507 0 511 502 512 82 3 505 33 2 2 81 1 507 3604 506 177 0 183 5
13 504 514 81 1 511 3491 34 413 515 516 517 183 518 82 3 512 33 1 1 14 413 145 5
16 ?146 452 519 6 410 -0 0 146 452 27 81 1 515 1675 506 413 0 511 520 521 522 81
 1 516 4425 469 413 511 0 523 412 524 81 1 517 3490 34 452 520 523 470 511 525 8
2 3 518 32 3 2 14 452 137 523 ?413 17 526 6 414 -0 0 413 17 27 81 1 520 1674 506
 452 0 517 527 515 528 81 1 523 4424 469 452 517 0 451 516 529 81 1 470 3489 34
 463 0 465 530 517 531 82 3 525 32 2 2 81 1 530 3488 34 324 0 472 180 470 532 82
 3 531 32 1 2 81 1 472 4440 469 324 530 0 465 323 533 81 1 180 3486 34 152 0 0 1
76 530 534 82 3 532 32 0 2 82 3 534 32 14 1 80 1 469 0 535 8001 0 0 0 0 3 5 0 0
 0 FFFFTFTFFFFFFF2 81 1 323 4441 469 291 536 0 472 289 537 83 255 3 533 .2823529
411764705 .662745098039216 .3254901960784315 81 1 536 3809 34 291 0 323 192 538
 539 81 1 289 4442 469 280 540 0 323 509 541 83 3 537 .2823529411764705 .6627450
98039216 .3254901960784315 81 1 540 4406 34 280 0 289 390 542 543 81 1 509 4443
 469 290 544 0 289 295 545 83 3 541 .2823529411764705 .662745098039216 .32549019
60784315 14 290 3963 509 ?293 280 546 6 281 +0 0 293 280 27 81 1 544 3965 34 290
 0 509 547 548 549 83 3 545 .2823529411764705 .662745098039216 .3254901960784315
 81 1 547 3947 34 185 0 0 550 544 551 81 1 548 3991 34 1 0 552 544 553 554 82 3
 549 39 2 2 81 1 552 4420 555 1 548 14 0 0 556 81 1 553 3992 34 557 0 0 548 558
 559 82 3 554 13 0 3 16 557 3935 553 ?560 185 51 561 0 0 1 81 1 558 3994 34 296
 0 461 553 562 563 82 3 559 40 0 1 81 1 461 4445 469 296 558 0 295 564 565 81 1
 562 4302 34 240 566 0 558 567 568 82 3 563 40 0 2 16 240 1178 562 ?569 236 235
 570 0 0 1 81 1 566 1636 506 240 0 562 571 572 573 81 1 567 4303 34 302 0 459 56
2 28 574 82 3 568 42 0 1 81 1 459 4430 469 302 567 0 456 301 575 81 1 28 4403 34
 11 0 0 567 389 576 82 3 574 42 0 2 82 3 576 43 0 1 81 1 456 4429 469 453 577 0
 578 459 579 81 1 301 4431 469 298 139 0 459 580 581 83 3 575 .2823529411764705
 .662745098039216 .3254901960784315 81 1 139 3813 34 298 0 301 538 137 582 81 1
 580 4432 469 173 538 0 301 583 584 83 3 581 .2823529411764705 .662745098039216
 .3254901960784315 14 173 3186 580 ?161 298 165 6 299 +0 0 161 298 27 81 1 538 3
812 34 173 0 580 536 139 585 81 1 583 4433 469 161 550 0 580 586 587 83 3 584 .2
823529411764705 .662745098039216 .3254901960784315 14 161 3176 583 ?588 173 154
 6 409 +0 0 588 173 27 81 1 550 3837 34 161 0 583 589 547 590 81 1 586 4434 469
 588 591 0 583 592 593 83 3 587 .2823529411764705 .662745098039216 .325490196078
4315 14 588 3170 586 ?594 161 595 6 596 -0 0 594 161 27 81 1 591 3172 34 588 513
 586 597 84 598 81 1 592 4435 469 594 597 0 586 599 600 83 3 593 .28235294117647
05 .662745098039216 .3254901960784315 14 594 3164 592 ?601 588 602 6 603 -0 0 60
1 588 27 81 1 597 3166 34 594 604 592 605 591 606 81 1 599 4436 469 601 605 0 59
2 607 608 83 3 600 .2823529411764705 .662745098039216 .3254901960784315 14 601 3
158 599 ?475 594 609 6 610 -0 0 475 594 27 81 1 605 3160 34 601 611 599 612 597
 613 81 1 607 4437 469 475 612 0 599 471 614 83 3 608 .2823529411764705 .6627450
98039216 .3254901960784315 14 475 3146 607 ?466 601 615 6 304 +0 0 466 601 27 81
 1 612 3148 34 475 616 607 617 605 618 81 1 471 4438 469 466 617 0 607 465 619 8
3 3 614 .2823529411764705 .662745098039216 .3254901960784315 81 1 617 3143 34 46
6 0 471 209 612 620 83 3 619 .2823529411764705 .662745098039216 .325490196078431
5 81 1 209 3060 34 207 0 0 621 617 622 82 3 620 27 6 2 81 1 621 3038 34 211 623
 0 200 209 624 82 3 622 27 4 1 16 211 3036 621 ?625 157 207 279 0 0 1 81 1 623 3
039 506 211 0 621 626 616 627 81 1 200 3034 34 198 626 0 213 621 628 82 3 624 27
 0 1 81 1 626 3035 506 198 0 200 629 623 630 81 1 213 3030 34 202 629 0 216 200
 631 82 3 628 27 2 1 81 1 629 3031 506 202 0 213 632 626 633 81 1 216 3027 34 15
7 0 0 205 213 634 82 3 631 27 1 1 81 1 205 3024 34 203 0 0 577 216 635 82 3 634
 27 6 1 81 1 577 2098 34 453 632 456 636 205 637 82 3 635 27 5 1 81 1 632 1687 5
06 453 0 577 638 629 639 81 1 636 2090 34 408 638 578 640 577 641 82 3 637 13 22
 2 14 408 1050 578 ?453 398 642 6 399 +0 0 453 398 27 81 1 638 1686 506 408 0 63
6 521 632 643 81 1 578 4428 469 408 636 0 407 456 644 81 1 640 2052 34 251 645 0
 646 636 647 82 3 641 13 14 2 16 251 1179 640 ?648 248 247 649 0 0 1 81 1 645 16
29 506 251 0 640 650 651 652 81 1 646 2050 34 247 651 0 653 640 654 82 3 647 13
 31 1 16 247 1139 646 ?655 251 243 256 0 0 1 81 1 651 1630 506 247 0 646 645 656
 657 81 1 653 2049 34 235 572 0 219 646 658 82 3 654 13 29 1 16 235 1138 653 ?65
9 240 232 258 0 0 1 81 1 572 1637 506 235 0 653 566 660 661 81 1 219 2048 34 156
 527 0 231 653 662 82 3 658 13 28 1 81 1 527 1665 506 156 0 219 663 520 664 81 1
 231 2045 34 229 660 0 227 219 665 82 3 662 13 27 1 81 1 660 1641 506 229 0 231
 572 666 667 81 1 227 2044 34 225 666 0 238 231 668 82 3 665 13 24 1 81 1 666 16
42 506 225 0 227 660 663 669 81 1 238 2039 34 236 571 0 242 227 670 82 3 668 13
 23 1 81 1 571 1635 506 236 0 238 656 566 671 81 1 242 2038 34 239 656 0 223 238
 672 82 3 670 13 18 1 81 1 656 1634 506 239 0 242 651 571 673 81 1 223 2036 34 2
21 663 0 134 242 674 82 3 672 13 17 1 81 1 663 1646 506 221 0 223 666 527 675 81
 1 134 2006 34 132 650 0 118 223 676 82 3 674 13 15 1 81 1 650 1606 506 132 0 13
4 677 645 678 81 1 118 2003 34 116 679 0 122 134 680 82 3 676 13 13 0 81 1 679 1
596 506 116 0 118 681 682 683 81 1 122 2001 34 120 682 0 115 118 684 82 3 680 13
 10 0 81 1 682 1601 506 120 0 122 679 685 686 81 1 115 2000 34 113 681 0 130 122
 687 82 3 684 13 8 0 81 1 681 1589 506 113 0 115 0 679 688 81 1 130 1997 34 128
 677 0 126 115 689 82 3 687 13 7 0 81 1 677 1605 506 128 0 130 685 650 690 81 1
 126 1996 34 124 685 0 0 130 691 82 3 689 13 4 0 81 1 685 1602 506 124 0 126 682
 677 692 82 3 691 13 3 0 80 1 506 693 694 9000 0 0 0 0 3 5 0 0 0 FFTFTFTTFFFFFF2
 83 1 692 15 79 255 13 694 BTI/importTag83 1 690 18 83 1 688 2 83 1 686 14 83 1
 683 9 83 1 678 19 83 1 675 59 83 1 673 47 83 1 671 48 83 1 669 55 83 1 667 54 8
3 1 664 78 83 1 661 50 17 659 0 695 659 659 0 696 235 0 0 +31 258 1814 0 235 256
 649 0 -.011 .038 .008 -1 0 115648231731787e-30 115648231731787e-30 0 1 .0026 31
 649 1815 0 251 258 570 0 +-.011 .038 -.008 1 0 -115648231731787e-30 -1156482317
31787e-30 0 -1 .0026 31 570 1816 0 240 649 489 0 -.011 .038 -.008 -1 0 115648231
731787e-30 115648231731787e-30 0 1 .0026 31 489 3318 0 266 570 697 0 +.007 .038
 -.008 -1 0 0 0 0 1 .012 31 697 3331 0 175 489 418 0 --.007 .038 -.008 -1 0 0 0
 0 1 .012 16 175 3329 698 ?171 484 266 697 0 0 1 31 418 3392 0 484 697 415 0 -.0
11 .038 -.008 -1 0 0 0 0 1 .00710102051443365 16 484 3335 699 ?483 417 175 418 0
 0 1 81 1 699 3473 34 484 0 0 440 431 700 17 483 0 701 131 89 90 479 484 0 482 +
16 417 3337 702 ?108 433 484 415 0 0 1 81 1 702 3477 34 417 0 0 698 486 703 17 1
08 0 141 64 96 105 482 417 0 151 +17 96 0 141 108 224 90 131 232 0 483 +17 482 0
 467 479 478 90 108 417 0 0 -17 224 0 141 96 246 128 704 221 0 705 +17 131 0 701
 135 483 128 96 232 0 224 -15 701 148 0 89 413 0 17 135 0 701 228 131 132 705 22
9 0 706 +17 228 0 701 89 135 116 706 225 0 377 +17 705 0 642 704 220 128 135 229
 0 0 -17 706 0 376 707 377 132 228 225 0 220 -15 376 1049 0 42 398 0 17 707 0 37
6 708 706 120 220 156 0 709 -17 377 0 376 706 29 116 40 263 0 0 -17 220 0 642 70
5 709 132 707 156 0 0 +15 642 1051 0 709 408 0 17 709 0 642 220 704 120 127 236
 0 0 -17 704 0 642 709 705 124 224 221 0 0 -17 127 0 710 85 123 124 709 236 0 24
6 +15 710 140 0 85 452 0 17 85 0 710 441 127 82 246 243 0 148 -17 123 0 710 127
 254 120 708 239 0 707 +17 246 0 141 224 148 124 85 243 0 704 +17 148 0 141 246
 142 82 100 425 0 711 +17 100 0 474 174 711 97 148 425 0 171 -17 711 0 474 100 7
12 82 441 432 0 0 -15 474 3437 0 712 324 0 17 712 0 474 711 174 81 104 442 0 0 -
17 441 0 710 254 85 81 711 432 0 712 +17 254 0 710 123 441 113 93 250 0 708 +17
 93 0 38 104 39 81 254 250 0 441 -17 708 0 376 42 707 113 123 239 0 0 -17 42 0 3
76 29 708 12 39 255 0 48 -17 39 0 38 93 32 113 42 255 0 254 +16 255 4331 713 ?39
 263 250 259 0 0 1 81 1 713 4408 34 255 0 0 542 265 714 81 1 542 4407 34 17 0 45
1 540 713 715 81 1 265 4409 34 263 0 0 713 716 717 82 3 714 43 2 1 81 1 716 4410
 34 329 0 337 265 35 718 82 3 717 43 3 1 81 1 337 4447 469 329 716 0 564 0 719 8
1 1 35 4411 34 20 0 564 716 31 720 82 3 718 43 3 2 14 20 4357 564 ?329 296 365 6
 7 -0 0 329 296 27 81 1 564 4446 469 20 35 0 461 337 721 82 3 720 43 4 2 83 3 72
1 .2823529411764705 .662745098039216 .3254901960784315 83 3 719 .282352941176470
5 .662745098039216 .3254901960784315 81 1 451 4423 469 17 542 0 0 523 722 82 3 7
15 43 2 2 83 3 722 .2823529411764705 .662745098039216 .3254901960784315 17 104 0
 38 197 93 101 712 442 0 172 +17 172 0 165 171 72 101 197 194 0 174 -17 72 0 165
 172 76 69 166 315 0 197 +17 174 0 474 712 100 101 171 175 0 0 -17 166 0 325 163
 490 73 72 315 0 159 -15 325 3775 0 487 291 0 17 163 0 325 487 166 77 159 164 0
 0 -17 487 0 325 490 163 65 314 273 0 0 -17 314 0 303 153 193 77 487 273 0 163 +
17 153 0 303 151 314 61 80 169 0 143 +17 80 0 154 159 143 77 153 169 0 314 -17 4
0 0 38 32 119 33 377 263 0 0 +17 119 0 38 40 480 116 89 248 0 228 -17 89 0 701 4
83 228 86 119 248 0 480 +81 1 698 3476 34 175 0 0 448 702 723 81 1 486 3478 34 4
33 0 0 702 488 724 82 3 703 32 5 1 81 1 488 3479 34 266 0 0 486 245 725 82 3 724
 32 6 1 81 1 245 3480 34 243 0 0 488 234 726 82 3 725 32 7 1 81 1 234 3481 34 23
2 0 0 245 253 727 82 3 726 32 8 1 81 1 253 3482 34 250 0 0 234 179 728 82 3 727
 32 9 1 81 1 179 3483 34 248 0 0 253 176 729 82 3 728 32 10 1 82 3 729 32 11 1 8
1 1 448 3475 34 442 0 0 431 698 730 82 3 723 32 4 1 81 1 431 3474 34 425 0 0 699
 448 731 82 3 730 32 3 1 82 3 731 32 2 1 81 1 440 3472 34 432 0 0 111 699 732 82
 3 700 32 1 1 81 1 111 3471 34 109 0 0 107 440 733 82 3 732 32 0 1 81 1 107 3470
 34 105 0 0 103 111 734 82 3 733 32 7 0 81 1 103 3469 34 101 0 0 99 107 735 82 3
 734 32 6 0 81 1 99 3468 34 97 0 0 88 103 736 82 3 735 32 5 0 81 1 88 3467 34 86
 0 0 95 99 737 82 3 736 32 4 0 81 1 95 3466 34 90 0 0 92 88 738 82 3 737 32 3 0
 81 1 92 3465 34 81 0 0 84 95 739 82 3 738 32 2 0 81 1 84 3464 34 82 0 0 591 92
 740 82 3 739 32 1 0 82 3 740 32 0 0 15 695 1152 0 659 453 0 17 696 0 741 696 69
6 0 659 235 0 0 -15 741 1122 0 696 413 701 83 1 657 43 17 655 0 742 655 655 0 74
3 247 0 0 +15 742 1130 0 655 452 710 17 743 0 457 743 743 0 655 247 0 0 -15 457
 1151 0 743 453 695 83 1 652 42 17 648 0 526 648 648 0 744 251 0 0 +15 526 1162
 0 648 452 742 17 744 0 745 744 744 0 648 251 0 0 -15 745 1191 0 744 302 0 81 1
 407 4427 469 398 390 0 412 578 746 83 3 644 .2823529411764705 .662745098039216
 .3254901960784315 81 1 390 4405 34 398 521 407 389 540 747 81 1 412 4426 469 14
6 589 0 516 407 748 83 3 746 .2823529411764705 .662745098039216 .325490196078431
5 81 1 589 3836 34 146 0 412 155 550 749 83 3 748 .2823529411764705 .66274509803
9216 .3254901960784315 81 1 155 3835 34 144 0 0 63 589 750 82 3 749 36 0 2 81 1
 63 3834 34 61 0 0 137 155 751 82 3 750 36 0 1 82 3 751 36 1 0 81 1 521 1685 506
 398 0 390 515 638 752 82 3 747 43 0 2 83 1 752 98 83 1 643 99 83 1 639 1e2 83 1
 633 75 83 1 630 76 81 1 616 3149 506 475 0 612 623 611 753 83 1 627 56 81 1 611
 3161 506 601 0 605 616 604 754 83 1 753 97 81 1 604 3167 506 594 0 597 611 513
 755 83 1 754 94 81 1 513 3173 506 588 0 591 604 507 756 83 1 755 95 83 1 756 96
 17 625 0 757 625 625 0 758 211 0 0 +31 279 3817 0 211 158 274 0 +-3035766082959
41e-32 .045 -.0245 0 1 0 0 0 1 .00525 15 757 3175 0 625 588 0 17 758 0 147 758 7
58 0 625 211 0 0 -15 147 3157 0 758 146 0 82 3 618 27 2 2 15 615 3150 0 759 475
 760 52 304 3210 0 475 299 596 0 +-303576608295941e-32 .0220255051255226 -.0245
 0 1 0 .0045 .707106781186546 .707106781186549 -1 0 0 51 596 3209 0 588 304 603
 0 +-303576608295941e-32 .0450255051255226 -.0245 0 1 0 .00525 -1 0 0 50 603 320
8 0 594 596 610 0 +.00275 .0370255051255226 -.0245 0 -1 0 1 0 0 51 610 3206 0 60
1 603 477 0 +-303576608295941e-32 .0450255051255226 -.0245 0 1 0 .0026 -1 0 0 50
 477 3205 0 466 610 409 0 +-3443596037044645e-33 .0220255051255226 -.0245 0 -1 0
 1 0 0 51 409 3204 0 161 477 399 0 +-3443596037044645e-33 .0470255051255226 -.02
45 0 -1 0 .007 0 0 -1 17 759 0 615 759 759 0 210 207 0 0 -15 760 3151 0 761 475
 0 17 761 0 760 761 761 0 206 203 0 0 -17 206 0 762 206 206 0 761 203 0 0 +15 76
2 3145 0 206 466 0 17 210 0 162 210 210 0 759 207 0 0 +15 162 3181 0 210 161 0 8
2 3 613 27 3 2 15 609 3162 0 217 601 763 17 217 0 609 217 217 0 764 157 0 0 +15
 763 3163 0 214 601 0 17 214 0 763 214 214 0 765 202 0 0 +17 765 0 602 765 765 0
 214 202 0 0 -15 602 3168 0 765 594 766 15 766 3169 0 201 594 0 17 201 0 766 201
 201 0 767 198 0 0 +17 767 0 595 767 767 0 201 198 0 0 -15 595 3174 0 767 588 75
7 17 764 0 476 764 764 0 217 157 0 0 -15 476 3144 0 764 466 762 82 3 606 27 0 2
 82 3 598 27 1 2 82 3 590 36 1 2 82 3 585 35 3 2 82 3 582 35 4 2 83 3 579 .28235
29411764705 .662745098039216 .3254901960784315 83 1 573 49 17 569 0 460 569 569
 0 768 240 0 0 +15 460 4298 0 569 302 745 17 768 0 519 768 768 0 569 240 0 0 -15
 519 1170 0 768 413 741 83 3 565 .2823529411764705 .662745098039216 .32549019607
84315 17 560 0 462 560 560 0 769 557 0 0 +16 185 3945 547 ?770 177 557 187 0 0 1
 16 51 4366 771 1e-5 43 557 375 0 0 0 1 31 561 3982 0 557 0 187 0 -0 .0267 0 0 1
 0 0 0 1 .0059 31 187 3981 0 185 561 186 0 +0 .0267 459242549680257e-33 0 -1 0 0
 0 -1 .0075 81 1 771 4417 34 51 0 0 379 59 772 81 1 379 4416 34 375 0 0 271 771
 773 81 1 59 4418 34 55 0 0 771 53 774 82 3 772 43 7 1 81 1 53 4419 34 44 0 0 59
 0 775 82 3 774 43 2 0 82 3 775 43 3 0 81 1 271 4415 34 269 0 0 45 379 776 82 3
 773 43 6 1 82 3 776 43 5 1 17 770 0 777 770 770 0 778 185 0 0 +15 777 3967 0 77
0 290 0 17 778 0 779 778 778 0 770 185 0 0 -15 779 3961 0 778 280 0 15 462 3914
 0 560 296 780 17 769 0 546 769 769 0 560 557 0 0 -15 546 3966 0 769 290 777 15
 780 3608 0 781 296 0 17 781 0 780 781 781 0 184 177 0 0 -17 184 0 297 184 184 0
 781 177 0 0 +15 297 3614 0 184 293 0 80 1 555 782 783 8038 0 0 0 0 0 0 0 0 0 TT
TTTTTTTTTTTF10 81 1 14 4421 782 1 552 2 0 0 784 98 255 13 556 67 111 114 101 32
 67 97 109 32 83 105 100 101 80 1 782 785 786 8017 0 0 0 0 0 0 0 0 0 TTTTTTTTTTT
TTF3 84 255 13 784 Core Cam Side79 13 786 SDL/TYSA_NAME79 14 783 SDL/TYSA_UNAME8
2 3 551 39 3 1 82 3 543 43 1 2 81 1 192 3808 34 168 0 0 196 536 787 82 3 539 35
 0 2 81 1 196 3807 34 194 0 0 189 192 788 82 3 787 35 7 1 81 1 189 3806 34 169 0
 0 167 196 789 82 3 788 35 6 1 81 1 167 3805 34 160 0 0 313 189 790 82 3 789 35
 5 1 81 1 313 3804 34 273 0 0 494 167 791 82 3 790 35 4 1 81 1 494 3803 34 315 0
 0 492 313 792 82 3 791 35 3 1 82 3 792 35 2 1 79 15 535 SDL/TYSA_COLOUR83 3 529
 .2823529411764705 .662745098039216 .3254901960784315 83 1 528 87 83 3 524 .2823
529411764705 .662745098039216 .3254901960784315 83 1 522 88 83 1 514 38 83 3 510
 .2823529411764705 .662745098039216 .3254901960784315 83 1 508 85 79 9 498 BTI/D
etId82 3 495 35 1 1 83 3 473 .2823529411764705 .662745098039216 .325490196078431
5 40 4 435 0 1 4 .000708261672578357 .3046322421992025 ??.007 .031 -.01774679434
480895 .00738520180232872 .031 -.01524679434480895 .00924972909825529 .031 -.011
49578795305672 .01099999999999938 .031 -.00919352098699874 41 1 436 L?.007 .031
 -.01774679434480895 41 1 437 L?.01099999999999938 .031 -.00919352098699874 204
 16 438 4 -.007 -.01774679434480895 3.764419239001795 1.570796326794895 -.007385
20180232872 -.01524679434480895 3.90966975111665 1.965892272207855 -.00924972909
825529 -.01149578795305672 4.249222864029895 2.559163540482245 -.010999999999999
38 -.00919352098699874 4.54350999409634 2.940234732799345 40 4 420 0 1 4 .000921
989526597201 .320803366902682 ??.011 .045 -.00919352098699916 .00789098061269429
 .045 -.01389436200382128 .00703939152925269 .045 -.0169643192458648 .007 .045 -
.01774679434480895 41 1 421 L?.011 .045 -.00919352098699916 41 1 422 L?.007 .045
 -.01774679434480895 204 16 423 4 1.739675313083305 2.94023473279946 -.011 -.009
19352098699916 2.27065786514329 2.177022853145515 -.00789098061269429 -.01389436
200382128 2.47862345805552 1.69640422667164 -.00703939152925269 -.01696431924586
48 2.51876606817779 1.570796326794895 -.007 -.01774679434480895 82 3 391 43 1 1
 82 3 388 43 4 1 15 292 4308 0 54 280 779 17 54 0 292 278 278 44 366 269 0 50 +1
41 353 352 353 353 351 134 354 0 0 0 0 0 0 +793 794 136 793 1 2 2 2 5 FFF1 795 7
96 797 135 794 1 0 45 4 795 1 0 1 .00583479752643093 127 2 796 2 2 128 2 797 0 1
 141 348 346 348 348 338 134 349 0 0 0 0 0 0 +798 799 136 798 1 2 2 2 5 FFF1 800
 801 802 135 799 1 0 45 4 800 0 0 1 0 127 2 801 2 2 128 2 802 0 1 80 2 334 803 8
04 8044 0 0 0 0 3 5 0 0 0 FFFFTFFFTTFFFF3 2 81 2 19 4374 334 7 0 0 0 328 805 806
 84 6 335 HACAAB83 2 336 .004 .001 84 6 805 BACAAB83 4 806 0 .004 .001 .004 79 1
7 804 SDL/TYSA_BLEND_ID141 327 424 807 807 321 141 807 439 327 327 321 40 3 317
 0 1 3 .000542621207265719 .2919056000731995 ??-.007 .031 -.0188431457505076 -.0
07 .03068242925271195 -.0207980838575227 -.007 .0290078880911973 -.0244852426961
014 41 1 318 L?-.007 .031 -.0188431457505076 41 2 319 TF-.007 .029 -.0245 -.007
 .0290078880911973 -.0244852426961014 204 16 320 4 -.00259314575050762 200000000
0002e-18 5.39206279929293 1.570796326794895 -.00454808385752271 -.00031557074728
80625 5.19884554680139 2.142066950685065 -.00823524269610139 -.00199011190880271
5 4.71449716353269 3.137648597765815 -.00825 -.001998 4.71238898038469 -3.141592
653589795 141 305 307 305 305 299 82 3 181 32 12 1 82 3 140 36 0 0 82 3 46 43 1
 0 82 3 37 43 0 0 19 18 30 0 1 0 10 6 S0 141 24 23 24 24 8 134 25 0 0 0 0 0 0 +8
08 809 136 808 1 2 2 2 5 FFF1 810 811 812 135 809 1 0 45 4 810 0 .00583479752643
093 0 0 127 2 811 2 2 128 2 812 0 1 141 22 380 813 813 7 141 813 359 22 22 7 74
 4 CI16 index_map_offset0 0 1 dCCZ20 16 7 0 0 504 53 328 552 14 2 337 0 0 0 0 0
 0 0 0 0 0 0 0 0 80 1 13 469 814 8040 0 0 0 0 3 5 0 0 0 TTTFFFFFFFFFFF2 83 3 15
 .2823529411764705 .662745098039216 .3254901960784315 79 17 814 SDL/TYSA_COLOUR_
21 0 
