**ABCDEFGHIJKLMNOPQRSTUVWXYZabcdefghijklmnopqrstuvwxyz**************************
**PARASOLID !"#$%&'()*+,-./:;<=>?@[\]^_`{|}~0123456789**************************
**PART1;
MC=unknown;
MC_MODEL=unknown;
MC_ID=unknown;
OS=unknown;
OS_RELEASE=unknown;
FRU=Parasolid 33.1.200;
APPL=Onshape;
SITE=unknown;
USER=unknown;
FORMAT=text;
GUISE=transmit;
KEY=BTGapi::writeModels_.xmt;
FILE=BTGapi::writeModels_.xmt;
DATE=2021-07-17T16:44:48 (UTC);
**PART2;
SCH=SCH_3301200_33103;
USFLD_SIZE=0;
**PART3;
**END_OF_HEADER*****************************************************************
T51 : TRANSMIT FILE created by modeller version 330120023 SCH_3301200_33103_1300
6230 0 12 35 CCCI7 lattice222 0 CCCI4 mesh1006 0 I8 polyline1008 0 CCCCCCCDI5 ow
ner1040 0 CCCCCCI13 boundary_mesh1006 0 I17 boundary_polyline1008 0 CCCA16 index
_map_offset0 0 1 dA9 index_map82 0 A17 node_id_index_map82 0 A20 schema_embeddin
g_map82 0 A5 child12 0 A14 lowest_node_id0 0 1 dA16 mesh_offset_data206 0 Z1 182
4 2 3 0 0 0 0 0 0 0 1e3 1e-8 0 4 5 1 0 1 1 6 7 8 9 0 0 10 11 12 0 0 0 0 0 0 0 81
 255 1 2 1781 13 1 14 0 0 0 15 70 11 CI9 list_type0 0 1 uI10 notransmit0 0 1 lCC
CDCCDI12 finger_index0 0 1 dI12 finger_block1012 0 CZ3 0 4 T1 0 0 6 20 1 16 16 1
3 255 6 5 0 1 0 17 0 0 18 0 51 255 7 1610 0 19 20 0 0 -.057000001726193 .0070000
0359005714 -.01799999978393315 0 0 1 .00249999758457961 1 0 0 31 255 8 1622 0 21
 22 0 0 -.0569941128707756 .03499410926469455 0 0 0 -1 -1 0 0 .00250609933409724
 29 255 9 361 0 12 23 0 .04159166663885115 .0419999994337559 .00700000021606684
 19 8 CCCCCCCA5 owner12 0 Z10 1 0 1 18 0 24 V0 16 255 11 1569 25 ?26 0 27 28 0 0
 1 18 255 12 216 29 30 0 31 9 ?1 81 1 29 472 32 12 0 0 33 34 35 17 255 30 0 36 3
7 38 12 39 40 0 41 +18 31 220 42 43 12 44 23 ?1 81 1 42 468 32 31 0 0 45 46 47 1
7 43 0 48 49 50 31 51 52 0 37 +18 44 224 45 53 31 54 55 ?1 29 23 360 0 31 55 9 .
0570000037550926 .0419999994337559 .00700000021606684 29 55 359 0 44 56 23 .0640
000030398369 .0350000001490116 .00700000021606684 29 56 358 0 54 57 55 .06400000
30398369 .00700000114738941 .00700000021606684 18 54 228 58 59 44 60 56 ?1 29 57
 357 0 60 61 56 .0512136742472649 .003060659393668175 .00700000021606684 18 60 2
32 62 63 54 64 57 ?1 29 61 356 0 64 65 57 .0477500036358833 .00814658030867577 .
00700000021606684 18 64 236 66 67 60 68 61 ?1 29 65 355 0 68 69 61 .040672633796
9303 .01134948432445526 .00700000021606684 18 68 240 70 71 64 72 65 ?1 29 69 354
 0 72 73 65 .03869695961475375 .01083210855722426 .00700000021606684 18 72 244 3
4 74 68 75 69 ?1 29 73 353 0 75 76 69 .02482354268431665 .01101180352270602 .007
00000021606684 18 75 248 77 78 72 79 73 ?1 29 76 352 0 79 80 73 .022817170247435
55 .01139316242188214 .00700000021606684 18 79 252 81 82 75 83 76 ?1 29 80 351 0
 83 84 76 .0162332784384489 .00812373496592045 .00700000021606684 18 83 256 85 8
6 79 87 80 ?1 29 84 350 0 87 88 80 .01278633065521716 .003060659393668175 .00700
000021606684 18 87 260 89 90 83 91 84 ?1 29 88 349 0 91 92 84 0 .007000001147389
41 .00700000021606684 18 91 264 93 94 87 95 88 ?1 29 92 348 0 95 96 88 0 .035000
0001490116 .00700000021606684 18 95 268 97 98 91 99 92 ?1 29 96 347 0 99 100 92
 .00700000114738941 .0419999994337559 .00700000021606684 18 99 272 101 102 95 10
3 96 ?1 29 100 346 0 103 104 96 .02240833826363085 .0419999994337559 .0070000002
1606684 18 103 276 46 105 99 106 100 ?1 29 104 345 0 106 107 100 .02520590648055
075 .04258333519101145 .00700000021606684 18 106 280 108 109 103 110 104 ?1 29 1
07 344 0 110 111 104 .0392400063574314 .0424068458378315 .00700000021606684 18 1
10 284 33 112 106 113 107 ?1 29 111 343 0 113 114 107 .02240833826363085 .041999
9994337559 -8470329472543e-34 18 113 288 115 116 110 117 111 ?1 29 114 342 0 117
 118 111 0 .00700000114738941 -8470329472543e-34 18 117 289 119 120 113 121 114
 ?1 29 118 341 0 121 122 114 .0162332784384489 .00812373496592045 -8470329472543
e-34 18 121 290 123 124 117 125 118 ?1 29 122 340 0 125 126 118 .022817170247435
55 .01139316242188214 -8470329472543e-34 18 125 291 127 128 121 129 122 ?1 29 12
6 339 0 129 130 122 .02482354268431665 .01101180352270602 -8470329472543e-34 18
 129 292 131 132 125 133 126 ?1 29 130 338 0 133 134 126 .0406726337969303 .0113
4948432445526 -8470329472543e-34 18 133 293 135 136 129 137 130 ?1 29 134 337 0
 137 138 130 .0477500036358833 .00814658030867577 -8470329472543e-34 18 137 294
 139 140 133 141 134 ?1 29 138 336 0 141 142 134 .0512136742472649 .003060659393
668175 -8470329472543e-34 18 141 295 143 144 137 145 138 ?1 29 142 335 0 145 146
 138 .0640000030398369 .0350000001490116 -8470329472543e-34 18 145 296 147 148 1
41 149 142 ?1 29 146 334 0 149 150 142 .04159166663885115 .0419999994337559 -847
0329472543e-34 18 149 297 151 39 145 152 146 ?1 29 150 333 0 152 153 146 .057000
0037550926 .0419999994337559 -8470329472543e-34 18 152 298 154 51 149 155 150 ?1
 29 153 332 0 155 156 150 .0640000030398369 .00700000114738941 -8470329472543e-3
4 18 155 299 157 158 152 159 153 ?1 29 156 331 0 159 160 153 .03869695961475375
 .01083210855722426 -8470329472543e-34 18 159 300 161 162 155 163 156 ?1 29 160
 330 0 163 164 156 .01278633065521716 .003060659393668175 -8470329472543e-34 18
 163 301 165 166 159 167 160 ?1 29 164 329 0 167 168 160 0 .0350000001490116 -84
70329472543e-34 18 167 302 169 170 163 171 164 ?1 29 168 328 0 171 172 164 .0070
0000114738941 .0419999994337559 -8470329472543e-34 18 171 303 173 174 167 175 16
8 ?1 29 172 327 0 175 176 168 .02520590648055075 .04258333519101145 -84703294725
43e-34 18 175 304 177 178 171 179 172 ?1 29 176 326 0 179 0 172 .039240006357431
4 .0424068458378315 -8470329472543e-34 18 179 305 180 181 175 0 176 ?1 81 1 180
 489 32 179 0 0 177 151 182 17 181 0 183 184 185 179 112 186 0 187 -15 255 183 1
02 0 184 188 0 17 184 0 183 109 181 175 189 190 0 0 -17 185 0 183 181 109 110 19
1 192 0 193 +17 112 0 194 195 187 110 181 186 0 185 +16 186 179 196 ?112 192 197
 198 0 0 1 17 187 0 194 112 39 179 199 200 0 189 +15 194 57 0 39 201 0 17 39 0 1
94 187 195 149 30 40 0 199 -17 199 0 202 203 189 149 187 200 0 38 -16 200 207 20
4 ?187 205 206 207 0 0 1 17 189 0 202 199 208 179 184 190 0 0 +15 202 9 0 199 17
 0 17 208 0 202 189 209 175 116 210 0 184 -16 190 215 211 ?189 212 213 214 0 0 1
 81 1 211 536 32 190 0 0 215 216 217 16 212 214 218 ?209 219 190 220 0 0 1 16 21
3 651 221 ?222 190 21 223 0 0 1 31 214 400 0 190 220 224 0 +.0320264957912193 .0
268729126190061 0 0 0 -1 -1 0 0 .01712710763485125 30 255 220 399 0 212 225 214
 0 +.01470416970551014 .0419999994337559 0 1 0 0 30 224 401 0 40 214 226 0 +.041
59166663885115 .0419999994337559 -2000000000000265e-21 0 0 1 16 40 196 227 ?30 5
2 210 224 0 0 1 30 226 402 0 52 224 228 0 +.0570000037550926 .0419999994337559 -
2000000000000265e-21 0 0 1 16 52 195 229 ?43 230 40 226 0 0 1 30 228 403 0 230 2
26 231 0 +.0640000030398369 .0350000001490116 -2000000000000265e-21 0 0 1 16 230
 194 232 ?53 233 52 228 0 0 1 30 231 404 0 233 228 234 0 +.0640000030398369 .007
00000114738941 -2000000000000265e-21 0 0 1 16 233 193 235 ?59 236 230 231 0 0 1
 30 234 405 0 236 231 237 0 +.0512136742472649 .003060659393668175 -200000000000
0265e-21 0 0 1 16 236 192 238 ?63 239 233 234 0 0 1 30 237 406 0 239 234 240 0 +
.0477500036358833 .00814658030867577 -2000000000000265e-21 0 0 1 16 239 191 241
 ?67 242 236 237 0 0 1 30 240 407 0 242 237 243 0 +.0406726337969303 .0113494843
2445526 -2000000000000265e-21 0 0 1 16 242 190 244 ?71 245 239 240 0 0 1 30 243
 408 0 245 240 246 0 +.03869695961475375 .01083210855722426 -2000000000000265e-2
1 0 0 1 16 245 189 247 ?74 248 242 243 0 0 1 30 246 409 0 248 243 249 0 +.024823
54268431665 .01101180352270602 -2000000000000265e-21 0 0 1 16 248 188 250 ?78 25
1 245 246 0 0 1 30 249 410 0 251 246 252 0 +.02281717024743555 .0113931624218821
4 -2000000000000265e-21 0 0 1 16 251 187 253 ?82 254 248 249 0 0 1 30 252 411 0
 254 249 255 0 +.0162332784384489 .00812373496592045 -2000000000000265e-21 0 0 1
 16 254 186 256 ?86 257 251 252 0 0 1 30 255 412 0 257 252 258 0 +.0127863306552
1716 .003060659393668175 -2000000000000265e-21 0 0 1 16 257 185 259 ?90 260 254
 255 0 0 1 30 258 413 0 260 255 261 0 +0 .00700000114738941 -2000000000000265e-2
1 0 0 1 16 260 184 262 ?94 263 257 258 0 0 1 30 261 414 0 263 258 264 0 +0 .0350
000001490116 -2000000000000265e-21 0 0 1 16 263 183 265 ?98 266 260 261 0 0 1 30
 264 415 0 266 261 267 0 +.00700000114738941 .0419999994337559 -2000000000000265
e-21 0 0 1 16 266 182 268 ?102 269 263 264 0 0 1 30 267 416 0 269 264 270 0 +.02
240833826363085 .0419999994337559 -2000000000000265e-21 0 0 1 16 269 181 271 ?10
5 197 266 267 0 0 1 30 270 417 0 197 267 198 0 +.02520590648055075 .042583335191
01145 -2000000000000265e-21 0 0 1 16 197 180 272 ?109 186 269 270 0 0 1 30 198 4
18 0 186 270 28 0 +.0392400063574314 .0424068458378315 -2000000000000265e-21 0 0
 1 31 28 1572 0 11 198 273 0 +.0320264957912193 .0268729126190061 .0070000002160
6684 0 0 -1 -1 0 0 .0131 31 273 1600 0 274 28 275 0 +.0320264957912193 .02687291
26190061 .00612500021606684 0 0 -1 -1 0 0 .0105 16 274 1431 276 ?277 278 279 273
 0 0 1 31 275 1601 0 27 273 280 0 +.0320264957912193 .0268729126190061 .00612500
021606684 0 0 -1 -1 0 0 .0121 16 27 1418 281 ?282 11 283 275 0 0 1 31 280 1611 0
 284 275 285 0 +.00700000429228915 .03499999514146565 .00350000010803342 0 0 -1
 -1 0 0 .002500004616091855 16 284 1039 286 ?287 288 289 280 0 0 1 31 285 1612 0
 290 280 291 0 -.00700000429228915 .03499999514146565 0 0 0 -1 -1 0 0 .002500004
616091855 16 290 741 292 ?293 294 288 285 0 0 1 31 291 1613 0 295 285 296 0 -.05
7000001726193 .00700000359005714 0 0 0 -1 -1 0 0 .00249999758457961 16 295 1214
 297 ?298 299 300 291 0 0 1 31 296 1615 0 301 291 223 0 +.00700000142949238 .018
999999612232 .00350000010803342 0 0 -1 -1 0 0 .002500000495722955 16 301 922 302
 ?303 304 305 296 0 0 1 31 223 1616 0 213 296 306 0 -.00700000142949238 .0189999
99612232 0 0 0 -1 -1 0 0 .002500000495722955 31 306 1617 0 300 223 307 0 -.00700
18242649864 .00700591779659562 0 0 0 -1 -1 0 0 .00249415013219922 16 300 1244 30
8 ?309 295 278 306 0 0 1 31 307 1619 0 310 306 311 0 +.0570000025184193 .0190000
0027355195 .00350000010803342 0 0 -1 -1 0 0 .002500001069464115 16 310 1000 312
 ?313 314 299 307 0 0 1 31 311 1620 0 294 307 22 0 -.0570000025184193 .019000000
27355195 0 0 0 -1 -1 0 0 .002500001069464115 16 294 711 315 ?316 21 290 311 0 0
 1 31 22 1621 0 317 311 8 0 +.0569941128707756 .03499410926469455 .0035000001080
3342 0 0 -1 -1 0 0 .00250609933409724 16 317 961 318 ?319 320 321 22 0 0 1 81 1
 318 1130 32 317 0 0 286 312 322 17 319 0 323 319 319 0 324 317 0 0 +16 320 966
 325 ?326 305 317 327 0 0 1 16 321 958 328 ?329 317 314 330 0 0 1 81 1 328 1138
 32 321 0 0 331 332 333 17 329 0 334 329 329 0 335 321 0 0 +16 314 1005 336 ?337
 321 310 338 0 0 1 31 330 1102 0 321 327 339 0 +.0569941128707756 .0349941092646
9455 .00350000010803342 0 0 -1 -1 0 0 .00510609656670086 31 327 1104 0 320 340 3
30 0 +.0569941128707756 .03499410926469455 .00700000021606684 0 0 -1 -1 0 0 .005
10609656670086 31 339 1100 0 288 330 341 0 +.00700000429228915 .0349999951414656
5 .00700000021606684 0 0 -1 -1 0 0 .00510000434330884 16 288 1044 342 ?343 290 2
84 339 0 0 1 31 341 1098 0 289 339 344 0 +.00700000429228915 .03499999514146565
 .00350000010803342 0 0 -1 -1 0 0 .00510000434330884 16 289 1036 331 ?345 284 30
4 341 0 0 1 31 344 308 0 192 341 346 0 +.0320264957912193 .0268729126190061 .007
00000021606684 0 0 -1 -1 0 0 .01712710763485125 16 192 171 215 ?185 347 186 344
 0 0 1 31 346 309 0 347 344 348 0 +.0224083065705567 .0490001239413894 .00700000
021606684 0 0 -1 -1 0 0 .00700012450770529 16 347 167 349 ?350 351 192 346 0 0 1
 30 348 310 0 351 346 352 0 +.01470416970551014 .0419999994337559 .0070000002160
6684 1 0 0 16 351 163 353 ?354 355 347 348 0 0 1 31 352 311 0 355 348 356 0 +.00
700000429228914 .03499999514146565 .00700000021606684 0 0 -1 -1 0 0 .00700000429
229093 16 355 159 357 ?358 359 351 352 0 0 1 30 356 312 0 359 352 360 0 +0 .0210
000006482005 .00700000021606684 0 -1 0 16 359 155 361 ?362 363 355 356 0 0 1 31
 360 313 0 363 356 364 0 +.00700182426498641 .00700591779659561 .007000000216066
84 0 0 -1 -1 0 0 .00700182676481575 16 363 151 365 ?366 367 359 360 0 0 1 30 364
 314 0 367 360 368 0 +.01450980454683304 .00559219717979431 .00700000021606684 .
562762797791545 .826618432786151 0 16 367 147 369 ?370 371 363 364 0 0 1 31 368
 315 0 371 364 372 0 +.02243291375241875 .003903015978542715 .00700000021606684
 0 0 -1 -1 0 0 .00749999645310804 16 371 143 373 ?374 375 367 368 0 0 1 31 372 3
16 0 375 368 376 0 +.02243289940352045 .003902913948782785 .00700000021606684 0
 0 -1 -1 0 0 .00750009908402886 16 375 139 377 ?378 379 371 372 0 0 1 31 376 317
 0 379 372 380 0 +.0319704271678128 .0271486740369171 .00700000021606684 0 0 -1
 -1 0 0 .0176486981903157 16 379 135 381 ?382 383 375 376 0 0 1 31 380 318 0 383
 376 384 0 +.04156708927226625 .00390299008746074 .00700000021606684 0 0 -1 -1 0
 0 .00750002180123172 16 383 131 385 ?386 387 379 380 0 0 1 31 384 319 0 387 380
 388 0 +.04156743226334495 .00390590837269116 .00700000021606684 0 0 -1 -1 0 0 .
00749716528063633 16 387 127 389 ?390 391 383 384 0 0 1 30 388 320 0 391 384 392
 0 +.0494818389415741 .00560361985117197 .00700000021606684 .562892679348666 -.8
26529994335161 0 16 391 123 393 ?394 395 387 388 0 0 1 31 392 321 0 395 388 396
 0 +.057000001726193 .00700000359005714 .00700000021606684 0 0 -1 -1 0 0 .007000
00131364432 16 395 119 397 ?398 399 391 392 0 0 1 30 396 322 0 399 392 400 0 +.0
640000030398369 .0210000006482005 .00700000021606684 0 1 0 16 399 115 401 ?402 4
03 395 396 0 0 1 31 400 323 0 403 396 404 0 +.0569941128707756 .0349941092646945
5 .00700000021606684 0 0 -1 -1 0 0 .00700589264572818 16 403 111 405 ?49 406 399
 400 0 0 1 30 404 324 0 406 400 407 0 +.0492958351969719 .0419999994337559 .0070
0000021606684 1 0 0 16 406 107 408 ?37 283 403 404 0 0 1 31 407 325 0 283 404 40
9 0 +.0415916814379523 .0490000609109792 .00700000021606684 0 0 -1 -1 0 0 .00700
006147723901 16 283 103 216 ?193 27 406 407 0 0 1 31 409 383 0 210 407 410 0 +.0
224083065705567 .0490001239413894 0 0 0 -1 -1 0 0 .00700012450770529 16 210 198
 411 ?116 40 412 409 0 0 1 30 410 384 0 412 409 413 0 +0 .0210000006482005 0 0 -
1 0 16 412 199 414 ?120 210 415 410 0 0 1 30 413 385 0 415 410 416 0 +.014509804
54683304 .00559219717979431 0 .562762797791545 .826618432786151 0 16 415 200 417
 ?124 412 418 413 0 0 1 31 416 386 0 418 413 419 0 +.02243291375241875 .00390301
5978542715 0 0 0 -1 -1 0 0 .00749999645310804 16 418 201 420 ?128 415 421 416 0
 0 1 31 419 387 0 421 416 422 0 +.02243289940352045 .003902913948782785 0 0 0 -1
 -1 0 0 .00750009908402886 16 421 202 423 ?132 418 424 419 0 0 1 31 422 388 0 42
4 419 425 0 +.04156708927226625 .00390299008746074 0 0 0 -1 -1 0 0 .007500021801
23172 16 424 203 426 ?136 421 427 422 0 0 1 31 425 389 0 427 422 428 0 +.0415674
3226334495 .00390590837269116 0 0 0 -1 -1 0 0 .00749716528063633 16 427 204 429
 ?140 424 430 425 0 0 1 30 428 390 0 430 425 431 0 +.0494818389415741 .005603619
85117197 0 .562892679348666 -.826529994335161 0 16 430 205 432 ?144 427 205 428
 0 0 1 30 431 391 0 205 428 207 0 +.0640000030398369 .0210000006482005 0 0 1 0 1
6 205 206 433 ?148 430 200 431 0 0 1 31 207 392 0 200 431 434 0 +.04159168143795
23 .0490000609109792 0 0 0 -1 -1 0 0 .00700006147723901 30 434 393 0 206 207 435
 0 +.0492958351969719 .0419999994337559 0 1 0 0 16 206 208 436 ?203 200 437 434
 0 0 1 31 435 394 0 437 434 438 0 +.0569941128707756 .03499410926469455 0 0 0 -1
 -1 0 0 .00700589264572818 16 437 209 439 ?440 206 441 435 0 0 1 31 438 395 0 44
1 435 442 0 +.057000001726193 .00700000359005714 0 0 0 -1 -1 0 0 .00700000131364
432 16 441 210 443 ?444 437 445 438 0 0 1 31 442 396 0 445 438 446 0 +.031970427
1678128 .0271486740369171 0 0 0 -1 -1 0 0 .0176486981903157 16 445 211 447 ?448
 441 449 442 0 0 1 31 446 397 0 449 442 225 0 +.00700182426498641 .0070059177965
9561 0 0 0 -1 -1 0 0 .00700182676481575 16 449 212 450 ?451 445 219 446 0 0 1 31
 225 398 0 219 446 220 0 +.00700000429228914 .03499999514146565 0 0 0 -1 -1 0 0
 .00700000429229093 16 219 213 452 ?453 449 212 225 0 0 1 81 1 452 512 32 219 0
 0 357 361 454 17 453 0 202 209 455 171 456 219 0 457 +17 209 0 202 208 453 113
 457 212 0 458 +17 455 0 202 453 451 167 120 412 0 456 -17 456 0 459 98 174 167
 453 219 0 0 -17 457 0 460 102 458 171 209 212 0 0 -15 460 54 0 457 461 0 17 102
 0 460 354 457 99 174 266 0 358 +17 458 0 460 457 354 113 105 269 0 0 -17 354 0
 460 458 102 103 462 351 0 350 +17 105 0 463 464 116 103 458 269 0 354 +15 463 9
9 0 178 465 0 17 464 0 463 178 105 106 350 347 0 0 -17 116 0 463 105 178 113 208
 210 0 209 +17 178 0 463 116 464 175 109 197 0 208 -17 109 0 183 185 184 106 178
 197 0 191 +17 191 0 466 350 193 106 185 192 0 464 -15 466 91 0 193 467 0 17 350
 0 466 462 191 103 464 347 0 0 +17 193 0 466 191 41 110 195 283 0 0 +17 41 0 466
 193 468 12 37 406 0 195 -17 195 0 194 39 112 12 193 283 0 0 -17 468 0 466 41 40
2 31 49 403 0 0 -17 37 0 36 51 30 31 41 406 0 468 +15 36 12 0 38 469 0 17 51 0 3
6 38 37 152 43 52 0 203 -17 38 0 36 30 51 149 203 206 0 0 -17 203 0 202 440 199
 152 38 206 0 50 +17 440 0 202 470 203 145 50 437 0 471 +17 50 0 48 43 471 152 4
40 437 0 0 -15 48 15 0 50 472 0 17 471 0 48 50 49 145 53 230 0 0 -17 49 0 48 471
 43 44 468 403 0 402 +17 53 0 473 474 148 44 471 230 0 49 +15 473 18 0 158 475 0
 17 474 0 473 158 53 54 402 399 0 0 -17 148 0 473 53 158 145 470 205 0 440 +17 1
58 0 473 148 474 155 59 233 0 470 -17 470 0 202 444 440 155 148 205 0 476 -17 44
4 0 202 477 470 141 476 441 0 478 +17 476 0 479 59 478 155 444 441 0 0 -15 479 2
1 0 476 480 0 17 59 0 479 398 476 54 158 233 0 481 +17 478 0 479 476 398 141 63
 236 0 0 -17 398 0 479 478 59 60 481 395 0 394 +17 63 0 482 483 144 60 478 236 0
 398 +15 482 24 0 484 485 0 17 483 0 482 484 63 64 394 391 0 390 -17 144 0 482 6
3 484 141 477 430 0 444 +17 484 0 482 144 483 137 67 239 0 0 -17 477 0 202 486 4
44 137 144 430 0 484 -17 486 0 202 487 477 133 140 427 0 488 -17 487 0 202 448 4
86 159 136 424 0 489 -17 140 0 490 67 488 137 486 427 0 477 +17 488 0 490 140 49
1 133 71 242 0 0 -15 490 27 0 488 492 0 17 491 0 490 488 67 68 390 387 0 386 -17
 71 0 493 494 136 68 488 242 0 491 +15 493 30 0 162 495 0 17 494 0 493 162 71 72
 386 383 0 0 -17 136 0 493 71 162 133 487 424 0 486 +17 162 0 493 136 494 159 74
 245 0 487 -17 74 0 496 382 489 72 162 245 0 497 +15 496 33 0 489 498 0 17 382 0
 496 499 74 75 497 379 0 378 +17 489 0 496 74 499 159 448 445 0 0 -17 497 0 466
 386 378 72 382 379 0 494 -17 386 0 466 390 497 68 494 383 0 0 +17 378 0 466 497
 374 75 500 375 0 0 +17 374 0 466 378 370 79 501 371 0 0 +17 500 0 502 503 78 79
 378 375 0 374 -15 502 36 0 503 504 0 17 503 0 502 132 500 125 82 251 0 0 -17 78
 0 502 500 132 75 499 248 0 382 +17 132 0 502 78 503 129 505 421 0 448 +17 499 0
 496 489 382 129 78 248 0 0 -17 505 0 202 506 448 125 132 421 0 503 -17 448 0 20
2 505 487 129 489 445 0 499 +17 506 0 202 507 505 121 128 418 0 508 -17 507 0 20
2 451 506 163 124 415 0 509 -17 128 0 510 82 508 125 506 418 0 505 +17 508 0 510
 128 501 121 86 254 0 0 -15 510 39 0 508 511 0 17 501 0 510 508 82 83 374 371 0
 370 -17 86 0 512 513 124 83 508 254 0 501 +15 512 42 0 166 514 0 17 513 0 512 1
66 86 87 370 367 0 0 -17 124 0 512 86 166 121 507 415 0 506 +17 166 0 512 124 51
3 163 90 257 0 507 -17 90 0 515 366 509 87 166 257 0 516 +15 515 45 0 509 517 0
 17 366 0 515 518 90 91 516 363 0 362 +17 509 0 515 90 518 163 451 449 0 0 -17 5
16 0 466 370 362 87 366 363 0 513 -17 370 0 466 374 516 83 513 367 0 0 +17 362 0
 466 516 519 91 520 359 0 0 +17 519 0 466 362 462 95 358 355 0 520 -17 520 0 521
 170 94 95 362 359 0 0 -15 521 48 0 170 522 0 17 170 0 521 120 520 167 98 263 0
 455 -17 94 0 521 520 120 91 518 260 0 366 +17 120 0 521 94 170 117 455 412 0 45
1 +17 518 0 515 509 366 117 94 260 0 0 -17 451 0 202 455 507 117 509 449 0 518 +
17 98 0 459 358 456 95 170 263 0 519 +15 459 51 0 456 523 0 17 358 0 459 174 98
 99 519 355 0 462 +17 174 0 459 456 358 171 102 266 0 453 -17 462 0 466 519 350
 99 354 351 0 0 -14 255 523 49 524 ?461 522 459 6 525 -0 0 461 522 24 81 1 524 1
796 526 523 527 0 528 529 530 14 461 52 529 ?201 523 460 6 531 -0 0 201 523 24 1
4 522 46 528 ?523 517 521 6 532 +0 0 523 517 24 51 525 377 0 523 532 531 0 -.007
00000429228914 .03499999514146565 -2000000000000265e-21 0 0 1 .00700000429229093
 1 0 0 13 24 3 0 0 0 0 0 0 10 469 14 469 10 533 ?472 17 36 6 534 -0 0 472 0 24 8
1 1 533 1783 526 469 535 0 536 537 538 14 472 13 537 ?475 469 48 6 539 -0 0 475
 469 24 14 17 6 536 ?469 0 540 6 541 +0 0 542 188 24 50 255 534 364 0 469 543 53
9 0 +.0492958351969719 .0419999994337559 -2000000000000265e-21 0 -1 0 0 0 -1 51
 543 363 0 201 541 534 0 -.0415916814379523 .0490000609109792 -2000000000000265e
-21 0 0 1 .00700006147723901 1 0 0 51 539 365 0 472 534 544 0 -.0569941128707756
 .03499410926469455 -2000000000000265e-21 0 0 1 .00700589264572818 1 0 0 50 544
 366 0 475 539 545 0 +.0640000030398369 .0210000006482005 -2000000000000265e-21
 1 0 0 0 0 -1 14 475 16 546 ?480 472 473 6 544 +0 0 480 472 24 51 545 367 0 480
 544 547 0 -.057000001726193 .00700000359005714 -2000000000000265e-21 0 0 1 .007
00000131364432 1 0 0 14 480 19 548 ?485 475 479 6 545 -0 0 485 475 24 50 547 368
 0 485 545 549 0 +.0494818389415741 .00560361985117197 -2000000000000265e-21 -.8
26529994335161 -.562892679348666 0 .562892679348666 -.826529994335161 0 14 485 2
2 550 ?492 480 482 6 547 +0 0 492 480 24 51 549 369 0 492 547 551 0 -.0415674322
6334495 .00390590837269116 -2000000000000265e-21 0 0 1 .00749716528063633 1 0 0
 14 492 25 552 ?495 485 490 6 549 +0 0 495 485 24 51 551 370 0 495 549 553 0 -.0
4156708927226625 .00390299008746074 -2000000000000265e-21 0 0 1 .007500021801231
72 1 0 0 14 495 28 554 ?498 492 493 6 551 +0 0 498 492 24 51 553 371 0 498 551 5
55 0 -.0319704271678128 .0271486740369171 -2000000000000265e-21 0 0 1 .017648698
1903157 1 0 0 14 498 31 556 ?504 495 496 6 553 -0 0 504 495 24 51 555 372 0 504
 553 557 0 -.02243289940352045 .003902913948782785 -2000000000000265e-21 0 0 1 .
00750009908402886 1 0 0 14 504 34 558 ?511 498 502 6 555 +0 0 511 498 24 51 557
 373 0 511 555 559 0 -.02243291375241875 .003903015978542715 -2000000000000265e-
21 0 0 1 .00749999645310804 1 0 0 14 511 37 560 ?514 504 510 6 557 +0 0 514 504
 24 50 559 374 0 514 557 561 0 +.01450980454683304 .00559219717979431 -200000000
0000265e-21 .826618432786151 -.562762797791545 0 .562762797791545 .8266184327861
51 0 14 514 40 562 ?517 511 512 6 559 +0 0 517 511 24 51 561 375 0 517 559 532 0
 -.00700182426498641 .00700591779659561 -2000000000000265e-21 0 0 1 .00700182676
481575 1 0 0 14 517 43 563 ?522 514 515 6 561 -0 0 522 514 24 50 532 376 0 522 5
61 525 0 +0 .0210000006482005 -2000000000000265e-21 -1 0 0 0 0 1 81 1 563 1794 5
26 517 564 0 562 528 565 80 255 1 526 0 566 8001 0 0 0 0 3 5 0 0 0 FFFFTFTFFFFFF
F2 81 1 564 553 32 517 0 563 567 568 569 81 1 562 1793 526 514 568 0 560 563 570
 81 1 528 1795 526 522 567 0 563 524 571 83 255 3 565 .2823529411764705 .6627450
98039216 .3254901960784315 81 1 567 552 32 522 0 528 527 564 572 83 3 571 .28235
29411764705 .662745098039216 .3254901960784315 80 1 32 573 574 9000 0 0 0 0 3 6
 0 0 0 FFTFTFTTFFFFFF1 81 1 527 549 32 523 0 524 423 567 575 82 255 3 572 63 3 2
 81 1 423 548 32 421 0 0 377 527 576 82 3 575 63 0 2 81 1 377 547 32 375 0 0 447
 423 577 82 3 576 63 55 1 81 1 447 546 32 445 0 0 381 377 578 82 3 577 63 54 1 8
1 1 381 545 32 379 0 0 426 447 579 82 3 578 63 53 1 81 1 426 544 32 424 0 0 385
 381 580 82 3 579 63 52 1 81 1 385 543 32 383 0 0 436 426 581 82 3 580 63 51 1 8
1 1 436 540 32 206 0 0 408 385 582 82 3 581 63 50 1 81 1 408 539 32 406 0 0 204
 436 583 82 3 582 63 47 1 81 1 204 538 32 200 0 0 216 408 584 82 3 583 63 46 1 8
1 1 216 537 32 283 0 0 211 204 585 82 3 584 63 45 1 82 3 585 63 44 1 79 255 9 57
4 BTI/DetId81 1 568 554 32 514 0 562 564 586 587 81 1 560 1792 526 511 586 0 558
 562 588 83 3 570 .2823529411764705 .662745098039216 .3254901960784315 81 1 586
 555 32 511 0 560 568 589 590 81 1 558 1791 526 504 591 0 556 560 592 83 3 588 .
2823529411764705 .662745098039216 .3254901960784315 81 1 591 569 32 504 0 558 59
3 292 594 81 1 556 1790 526 498 593 0 554 558 595 83 3 592 .2823529411764705 .66
2745098039216 .3254901960784315 81 1 593 568 32 498 0 556 596 591 597 81 1 554 1
789 526 495 596 0 552 556 598 83 3 595 .2823529411764705 .662745098039216 .32549
01960784315 81 1 596 567 32 495 0 554 535 593 599 81 1 552 1788 526 492 589 0 55
0 554 600 83 3 598 .2823529411764705 .662745098039216 .3254901960784315 81 1 589
 556 32 492 0 552 586 601 602 81 1 550 1787 526 485 601 0 548 552 603 83 3 600 .
2823529411764705 .662745098039216 .3254901960784315 81 1 601 557 32 485 0 550 58
9 604 605 81 1 548 1786 526 480 604 0 546 550 606 83 3 603 .2823529411764705 .66
2745098039216 .3254901960784315 81 1 604 558 32 480 0 548 601 607 608 81 1 546 1
785 526 475 607 0 537 548 609 83 3 606 .2823529411764705 .662745098039216 .32549
01960784315 81 1 607 559 32 475 0 546 604 610 611 81 1 537 1784 526 472 610 0 53
3 546 612 83 3 609 .2823529411764705 .662745098039216 .3254901960784315 81 1 610
 560 32 472 0 537 607 613 614 83 3 612 .2823529411764705 .662745098039216 .32549
01960784315 81 1 613 561 32 461 0 529 610 615 616 82 3 614 63 11 2 81 1 529 1797
 526 461 613 0 524 617 618 81 1 615 562 32 465 0 619 613 620 621 82 3 616 63 12
 2 14 465 97 619 ?188 467 463 6 622 +0 0 188 467 24 81 1 619 1800 526 465 615 0
 623 624 625 81 1 620 563 32 188 0 624 615 626 627 82 3 621 63 13 2 14 188 100 6
24 ?542 465 183 6 628 -0 0 17 465 24 81 1 624 1801 526 188 620 0 619 629 630 81
 1 626 564 32 201 0 617 620 535 631 82 3 627 63 14 2 14 201 55 617 ?467 461 194
 6 543 +0 0 467 461 24 81 1 617 1798 526 201 626 0 529 623 632 81 1 535 565 32 4
69 0 533 626 596 633 82 3 631 63 15 2 82 3 633 63 16 2 81 1 623 1799 526 467 634
 0 617 619 635 83 3 632 .2823529411764705 .662745098039216 .3254901960784315 14
 467 58 623 ?465 201 636 6 637 -0 0 465 201 24 81 1 634 1778 32 467 0 623 638 0
 639 83 3 635 .2823529411764705 .662745098039216 .3254901960784315 81 1 638 1777
 32 19 0 640 641 634 642 82 3 639 89 1 2 14 19 1230 640 ?643 644 645 6 7 +0 0 64
3 644 24 81 1 640 1815 526 19 638 0 646 647 648 81 1 641 1776 32 649 0 0 650 638
 651 82 3 642 89 0 2 16 649 1733 641 ?652 653 0 654 0 0 1 81 1 650 1775 32 1 0 6
55 656 641 657 82 3 651 89 0 1 81 1 655 1779 658 1 650 14 0 0 659 81 1 656 1750
 32 660 0 661 662 650 663 82 3 657 63 0 3 14 660 1748 661 ?0 664 665 6 666 -0 0
 0 664 24 81 1 661 1824 526 660 656 0 667 0 668 81 1 662 1740 32 664 0 667 669 6
56 670 82 3 663 88 2 2 14 664 1738 667 ?660 671 672 6 673 +0 0 660 671 24 81 1 6
67 1823 526 664 662 0 674 661 675 81 1 669 1732 32 676 0 0 677 662 678 82 3 670
 88 3 2 16 676 1730 669 ?679 680 653 681 0 0 1 81 1 677 1724 32 653 0 0 682 669
 683 82 3 678 88 1 1 16 653 1722 677 ?684 676 649 685 0 0 1 81 1 682 1702 32 644
 0 646 686 677 687 82 3 683 88 3 1 14 644 1260 646 ?19 688 689 6 690 +0 0 19 691
 24 81 1 646 1814 526 644 682 0 692 640 693 81 1 686 1701 32 680 0 0 694 682 695
 82 3 687 87 0 2 16 680 1658 686 ?696 697 676 698 0 0 1 81 1 694 1675 32 671 0 6
74 699 686 700 82 3 695 87 0 1 14 671 1673 674 ?664 701 702 6 703 -0 0 664 701 2
4 81 1 674 1822 526 671 694 0 704 667 705 81 1 699 1665 32 701 0 704 706 694 707
 82 3 700 86 2 2 14 701 1663 704 ?671 708 709 6 710 +0 0 671 708 24 81 1 704 182
1 526 701 699 0 711 674 712 81 1 706 1657 32 713 0 0 714 699 715 82 3 707 86 3 2
 16 713 1655 706 ?716 717 697 718 0 0 1 81 1 714 1649 32 697 0 0 719 706 720 82
 3 715 86 1 1 16 697 1647 714 ?721 713 680 722 0 0 1 81 1 719 1626 32 723 0 724
 725 714 726 82 3 720 86 3 1 14 723 667 724 ?727 728 729 6 20 +0 0 730 728 24 81
 1 724 1805 526 723 719 0 731 732 733 81 1 725 1625 32 734 0 735 736 719 737 82
 3 726 83 3 2 14 734 727 735 ?728 542 738 6 739 +0 0 728 542 24 81 1 735 1803 52
6 734 725 0 629 731 740 81 1 736 1624 32 728 0 731 741 725 742 82 3 737 83 2 2 1
4 728 697 731 ?723 734 743 6 744 +0 0 723 734 24 81 1 731 1804 526 728 736 0 735
 724 745 81 1 741 1623 32 542 0 629 746 736 747 82 3 742 83 1 2 14 542 757 629 ?
734 188 748 6 749 +0 0 734 17 24 81 1 629 1802 526 542 741 0 624 735 750 81 1 74
6 1602 32 751 0 752 753 741 754 82 3 747 83 0 2 14 751 1457 752 ?755 756 757 6 7
58 +0 0 755 756 24 81 1 752 1818 526 751 746 0 759 760 761 81 1 753 1595 32 708
 0 711 25 746 762 82 3 754 82 0 2 14 708 1581 711 ?701 755 763 6 764 -0 0 701 75
5 24 81 1 711 1820 526 708 753 0 760 704 765 81 1 25 1594 32 11 0 0 766 753 767
 82 3 762 81 0 2 81 1 766 1593 32 279 0 0 768 25 769 82 3 767 81 1 1 16 279 1516
 766 ?770 274 717 771 0 0 1 81 1 768 1566 32 756 0 759 772 766 773 82 3 769 81 0
 1 14 756 1447 759 ?751 643 774 6 775 +0 0 751 643 24 81 1 759 1817 526 756 768
 0 647 752 776 81 1 772 1539 32 755 0 760 777 768 778 82 3 773 80 0 2 14 755 153
7 760 ?708 751 779 6 780 -0 0 708 751 24 81 1 760 1819 526 755 772 0 752 711 781
 81 1 777 1521 32 717 0 0 782 772 783 82 3 778 79 2 2 16 717 1519 777 ?784 279 7
13 785 0 0 1 81 1 782 1489 32 643 0 647 281 777 786 82 3 783 79 3 1 14 643 1364
 647 ?756 19 787 6 788 +0 0 756 19 24 81 1 647 1816 526 643 782 0 640 759 789 81
 1 281 1487 32 27 0 0 276 782 790 82 3 786 77 1 2 81 1 276 1433 32 274 0 0 791 2
81 792 82 3 790 77 0 1 81 1 791 1413 32 17 0 536 793 276 794 82 3 792 76 3 1 81
 1 536 1782 526 17 791 0 0 533 795 81 1 793 1410 32 278 0 0 297 791 796 82 3 794
 75 1 2 16 278 1333 793 ?797 300 274 798 0 0 1 81 1 297 1293 32 295 0 0 308 793
 799 82 3 796 75 0 1 81 1 308 1292 32 300 0 0 800 297 801 82 3 799 73 1 1 81 1 8
00 1148 32 730 0 802 803 308 804 82 3 801 73 0 1 14 730 947 802 ?805 727 806 6 8
07 +0 0 727 723 24 81 1 802 1807 526 730 800 0 732 808 809 81 1 803 1147 32 727
 0 732 810 800 811 82 3 804 70 7 2 14 727 937 732 ?730 723 812 6 813 -0 0 814 73
0 24 81 1 732 1806 526 727 803 0 724 802 815 81 1 810 1146 32 816 0 817 818 803
 819 82 3 811 70 6 2 14 816 1025 817 ?691 820 821 6 822 +0 0 820 805 24 81 1 817
 1811 526 816 810 0 823 824 825 81 1 818 1145 32 820 0 823 826 810 827 82 3 819
 70 5 2 14 820 1015 823 ?816 814 828 6 829 -0 0 688 816 24 81 1 823 1810 526 820
 818 0 830 817 831 81 1 826 1144 32 814 0 830 832 818 833 82 3 827 70 4 2 14 814
 986 830 ?820 805 834 6 835 +0 0 805 727 24 81 1 830 1809 526 814 826 0 808 823
 836 81 1 832 1143 32 805 0 808 837 826 838 82 3 833 70 3 2 14 805 976 808 ?814
 730 839 6 840 -0 0 816 814 24 81 1 808 1808 526 805 832 0 802 830 841 81 1 837
 1142 32 691 0 824 842 832 843 82 3 838 70 2 2 14 691 1054 824 ?688 816 844 6 84
5 -0 0 644 688 24 81 1 824 1812 526 691 837 0 817 692 846 81 1 842 1141 32 688 0
 692 847 837 848 82 3 843 70 1 2 14 688 1064 692 ?644 691 849 6 850 +0 0 691 820
 24 81 1 692 1813 526 688 842 0 824 646 851 81 1 847 1140 32 305 0 0 332 842 852
 82 3 848 70 0 2 16 305 919 847 ?853 301 320 340 0 0 1 81 1 332 1139 32 299 0 0
 328 847 854 82 3 852 70 11 1 16 299 997 332 ?855 310 295 856 0 0 1 82 3 854 70
 10 1 17 855 0 857 855 855 0 858 299 0 0 +31 856 1110 0 299 338 859 0 +.05700000
25184193 .01900000027355195 .00350000010803342 0 0 -1 -1 0 0 .00510000029237873
 31 338 1112 0 314 798 856 0 +.0570000025184193 .01900000027355195 .007000000216
06684 0 0 -1 -1 0 0 .00510000029237873 31 859 1109 0 304 856 340 0 +.00700000142
949238 .018999999612232 .00700000021606684 0 0 -1 -1 0 0 .00510000028865265 16 3
04 927 860 ?861 289 301 859 0 0 1 31 340 1106 0 305 859 327 0 +.0070000014294923
8 .018999999612232 .00350000010803342 0 0 -1 -1 0 0 .00510000028865265 81 1 860
 1136 32 304 0 0 336 331 862 17 861 0 863 861 861 0 864 304 0 0 +15 863 889 0 86
1 467 865 17 864 0 806 864 864 0 861 304 0 0 -15 806 950 0 864 730 866 15 866 95
1 0 853 730 0 17 853 0 866 853 853 0 867 305 0 0 +17 867 0 812 867 867 0 853 305
 0 0 -15 812 940 0 867 727 868 15 868 941 0 303 727 0 17 303 0 868 303 303 0 869
 301 0 0 +17 869 0 729 869 869 0 303 301 0 0 -15 729 840 0 869 723 870 15 870 67
0 0 871 723 0 17 871 0 870 871 871 0 222 213 0 0 -17 222 0 872 222 222 0 871 213
 0 0 +15 872 629 0 222 17 873 15 873 623 0 874 17 875 17 874 0 873 874 874 0 876
 21 0 0 +15 875 617 0 316 17 877 17 316 0 875 316 316 0 878 294 0 0 +15 877 611
 0 293 17 202 17 293 0 877 293 293 0 879 290 0 0 +17 879 0 880 879 879 0 293 290
 0 0 -15 880 760 0 879 542 0 17 878 0 881 878 878 0 316 294 0 0 -15 881 730 0 87
8 734 0 17 876 0 882 876 876 0 874 21 0 0 -16 21 681 883 ?874 213 294 8 0 0 1 81
 1 883 814 32 21 0 0 292 315 884 81 1 292 813 32 290 0 0 591 883 885 81 1 315 81
5 32 294 0 0 883 221 886 82 3 884 66 5 1 81 1 221 816 32 213 0 0 315 286 887 82
 3 886 66 6 1 81 1 286 1129 32 284 0 0 221 318 888 82 3 887 66 7 1 82 3 888 70 0
 1 82 3 885 66 4 1 15 882 700 0 876 728 0 15 865 882 0 326 467 889 17 326 0 865
 326 326 0 890 320 0 0 +15 889 875 0 337 467 891 17 337 0 889 337 337 0 892 314
 0 0 +15 891 868 0 343 467 466 17 343 0 891 343 343 0 893 288 0 0 +17 893 0 849
 893 893 0 343 288 0 0 -15 849 1067 0 893 688 894 15 894 1068 0 345 688 0 17 345
 0 894 345 345 0 895 289 0 0 +17 895 0 844 895 895 0 345 289 0 0 -15 844 1057 0
 895 691 896 15 896 1058 0 287 691 0 17 287 0 896 287 287 0 897 284 0 0 +17 897
 0 748 897 897 0 287 284 0 0 -15 748 861 0 897 542 880 17 892 0 821 892 892 0 33
7 314 0 0 -15 821 1028 0 892 816 857 15 857 1029 0 855 816 0 17 890 0 834 890 89
0 0 326 320 0 0 -15 834 989 0 890 814 334 15 334 990 0 329 814 0 81 1 336 1135 3
2 314 0 0 325 860 898 81 1 331 1137 32 289 0 0 860 328 899 82 3 862 70 7 1 82 3
 899 70 8 1 81 1 325 1134 32 320 0 0 342 336 900 82 3 898 70 6 1 81 1 342 1133 3
2 288 0 0 302 325 901 82 3 900 70 5 1 81 1 302 1132 32 301 0 0 312 342 902 82 3
 901 70 4 1 81 1 312 1131 32 310 0 0 318 302 903 82 3 902 70 3 1 82 3 903 70 2 1
 31 798 1386 0 278 771 338 0 -.0320264957912193 .0268729126190061 0 0 0 -1 -1 0
 0 .0121 31 771 1555 0 279 785 798 0 +.0320264957912193 .0268729126190061 .00800
000021606684 0 0 -1 -1 0 0 .0121 31 785 1556 0 717 698 771 0 +.0320264957912193
 .0268729126190061 .00800000021606684 0 0 -1 -1 0 0 .0105 31 698 1690 0 680 718
 785 0 +.0070018242649864 .00700591779659562 .00700000021606684 0 0 -1 -1 0 0 .0
035 31 718 1691 0 713 722 698 0 +.0070018242649864 .00700591779659562 .007400000
21606684 0 0 -1 -1 0 0 .00249415013219922 31 722 1692 0 697 654 718 0 +.00700182
42649864 .00700591779659562 .00740000021606684 0 0 -1 -1 0 0 .0035 31 654 1765 0
 649 681 722 0 +.057000001726193 .00700000359005714 .00700000021606684 0 0 -1 -1
 0 0 .0035 31 681 1766 0 676 685 654 0 +.057000001726193 .00700000359005714 .007
40000021606684 0 0 -1 -1 0 0 .00249999758457961 31 685 1767 0 653 0 681 0 +.0570
00001726193 .00700000359005714 .00740000021606684 0 0 -1 -1 0 0 .0035 17 858 0 8
28 858 858 0 855 299 0 0 -15 828 1018 0 858 820 904 15 904 1019 0 313 820 0 17 3
13 0 904 313 313 0 905 310 0 0 +17 905 0 738 905 905 0 313 310 0 0 -15 738 854 0
 905 734 881 83 3 851 .2823529411764705 .662745098039216 .3254901960784315 51 85
0 1083 0 688 845 637 0 -.00700000429228915 .03499999514146565 .00349800010803342
 0 0 1 .00510000434330884 1 0 0 50 845 1084 0 691 835 850 0 +.0111259873956442 .
02199770510196685 .00350000010803342 0 0 -1 1 0 0 50 637 306 0 467 850 541 0 +.0
3200000151991775 .0220000112651351 .00700000021606684 0 0 -1 1 0 0 50 541 362 0
 17 637 543 0 +0 .01232500094920396 0 0 0 -1 1 0 0 51 835 1087 0 814 840 845 0 -
.0569941128707756 .03499410926469455 .00349800010803342 0 0 1 .00510609656670086
 1 0 0 50 840 1088 0 805 807 835 0 +.0111259873956442 .02199770510196685 .003500
00010803342 0 0 -1 1 0 0 51 807 1091 0 730 813 840 0 -.00700000142949238 .018999
999612232 .00349800010803342 0 0 1 .00510000028865265 1 0 0 50 813 1092 0 727 82
2 807 0 +.0111259873956442 .02199770510196685 .00350000010803342 0 0 -1 1 0 0 51
 822 1095 0 816 829 813 0 -.0570000025184193 .01900000027355195 .003498000108033
42 0 0 1 .00510000029237873 1 0 0 50 829 1096 0 820 788 822 0 +.0111259873956442
 .02199770510196685 .00350000010803342 0 0 -1 1 0 0 51 788 1382 0 643 775 829 0
 -.0320264957912193 .0268729126190061 -.01799999978393315 0 0 1 .0121 1 0 0 51 7
75 1469 0 756 780 788 0 -.0320264957912193 .0268729126190061 .00500000021606684
 0 0 1 .0105 1 0 0 50 780 1552 0 755 710 775 0 +.03200000151991775 .022000011265
1351 .00800000021606684 0 0 -1 1 0 0 51 710 1685 0 701 703 780 0 +.0070018242649
864 .00700591779659562 .00740000021606684 0 0 -1 .0035 -1 0 0 50 703 1688 0 671
 673 710 0 +.03200000151991775 .0220000112651351 .00740000021606684 0 0 -1 1 0 0
 51 673 1760 0 664 666 703 0 +.057000001726193 .00700000359005714 .0074000002160
6684 0 0 -1 .0035 -1 0 0 50 666 1763 0 660 0 673 0 +.03200000151991775 .02200001
12651351 .00740000021606684 0 0 -1 1 0 0 83 3 846 .2823529411764705 .66274509803
9216 .3254901960784315 83 3 841 .2823529411764705 .662745098039216 .325490196078
4315 15 839 979 0 335 805 323 17 335 0 839 335 335 0 329 321 0 0 -15 323 980 0 3
19 805 0 83 3 836 .2823529411764705 .662745098039216 .3254901960784315 83 3 831
 .2823529411764705 .662745098039216 .3254901960784315 83 3 825 .2823529411764705
 .662745098039216 .3254901960784315 83 3 815 .2823529411764705 .662745098039216
 .3254901960784315 83 3 809 .2823529411764705 .662745098039216 .3254901960784315
 17 797 0 540 797 797 0 906 278 0 0 +15 540 1313 0 797 17 907 17 906 0 908 906 9
06 0 797 278 0 0 -15 908 1367 0 906 643 0 15 907 1200 0 298 17 909 17 298 0 907
 298 298 0 910 295 0 0 +15 909 1194 0 309 17 872 17 309 0 909 309 309 0 911 300
 0 0 +17 911 0 689 911 911 0 309 300 0 0 -15 689 1263 0 911 644 912 15 912 1671
 0 913 644 0 17 913 0 912 913 913 0 716 713 0 0 -17 716 0 914 716 716 0 913 713
 0 0 +15 914 1677 0 716 671 0 17 910 0 645 910 910 0 298 295 0 0 -15 645 1233 0
 910 19 915 15 915 1746 0 916 19 0 17 916 0 915 916 916 0 679 676 0 0 -17 679 0
 917 679 679 0 916 676 0 0 +15 917 1752 0 679 660 0 83 3 795 .2823529411764705 .
662745098039216 .3254901960784315 83 3 789 .2823529411764705 .662745098039216 .3
254901960784315 15 787 1420 0 918 643 908 17 918 0 787 918 918 0 282 27 0 0 -17
 282 0 919 282 282 0 918 27 0 0 +15 919 1461 0 282 751 0 17 784 0 779 784 784 0
 920 717 0 0 +15 779 1540 0 784 755 921 17 920 0 922 920 920 0 784 717 0 0 -15 9
22 1530 0 920 756 0 15 921 1541 0 923 755 0 17 923 0 921 923 923 0 770 279 0 0 -
17 770 0 763 770 770 0 923 279 0 0 +15 763 1582 0 770 708 924 15 924 1583 0 925
 708 0 17 925 0 924 925 925 0 26 11 0 0 -17 26 0 926 26 26 0 925 11 0 0 +15 926
 1570 0 26 467 863 83 3 781 .2823529411764705 .662745098039216 .3254901960784315
 83 3 776 .2823529411764705 .662745098039216 .3254901960784315 15 774 1450 0 277
 756 922 17 277 0 774 277 277 0 927 274 0 0 +17 927 0 757 927 927 0 277 274 0 0
 -15 757 1460 0 927 751 919 83 3 765 .2823529411764705 .662745098039216 .3254901
960784315 52 255 764 1588 928 708 628 758 0 -.0320264957912193 .0268729126190061
 .00700000021606684 0 0 -1 .0131 .707106781186548 .707106781186548 -1 0 0 81 2 9
28 1589 929 764 0 0 0 0 930 931 51 628 380 0 188 622 764 0 -.0320264957912193 .0
268729126190061 -2000000000000265e-21 0 0 1 .01712710763485125 1 0 0 50 758 1599
 0 751 764 749 0 +.03200000151991775 .0220000112651351 .00612500021606684 0 0 -1
 1 0 0 51 749 1605 0 542 758 744 0 -.00700000429228915 .03499999514146565 -.0179
9999978393315 0 0 1 .002500004616091855 1 0 0 51 744 1606 0 728 749 739 0 -.0569
941128707756 .03499410926469455 -.01799999978393315 0 0 1 .00250609933409724 1 0
 0 51 739 1607 0 734 744 690 0 -.0570000025184193 .01900000027355195 -.017999999
78393315 0 0 1 .002500001069464115 1 0 0 51 690 1608 0 644 739 20 0 -.0070018242
649864 .00700591779659562 -.01799999978393315 0 0 1 .00249415013219922 1 0 0 51
 20 1609 0 723 690 7 0 -.00700000142949238 .018999999612232 -.01799999978393315
 0 0 1 .002500000495722955 1 0 0 51 622 379 0 465 531 628 0 -.0224083065705567 .
0490001239413894 -2000000000000265e-21 0 0 1 .00700012450770529 1 0 0 50 531 378
 0 461 525 622 0 +.01470416970551014 .0419999994337559 -2000000000000265e-21 0 -
1 0 0 0 -1 80 2 929 932 933 8044 0 0 0 0 3 5 0 0 0 FFFFTFFFTTFFFF3 2 84 255 6 93
0 BAAAAB83 3 931 -.001 0 .001 79 17 933 SDL/TYSA_BLEND_ID83 3 761 .2823529411764
705 .662745098039216 .3254901960784315 83 3 750 .2823529411764705 .6627450980392
16 .3254901960784315 83 3 745 .2823529411764705 .662745098039216 .32549019607843
15 15 743 847 0 324 728 882 17 324 0 743 324 324 0 319 317 0 0 -83 3 740 .282352
9411764705 .662745098039216 .3254901960784315 83 3 733 .2823529411764705 .662745
098039216 .3254901960784315 17 721 0 709 721 721 0 934 697 0 0 +15 709 1666 0 72
1 701 935 17 934 0 702 934 934 0 721 697 0 0 -15 702 1676 0 934 671 914 15 935 1
667 0 936 701 0 17 936 0 935 936 936 0 696 680 0 0 -17 696 0 937 696 696 0 936 6
80 0 0 +15 937 1635 0 696 467 926 83 3 712 .2823529411764705 .662745098039216 .3
254901960784315 83 3 705 .2823529411764705 .662745098039216 .3254901960784315 83
 3 693 .2823529411764705 .662745098039216 .3254901960784315 17 684 0 672 684 684
 0 938 653 0 0 +15 672 1741 0 684 664 939 17 938 0 665 938 938 0 684 653 0 0 -15
 665 1751 0 938 660 917 15 939 1742 0 940 664 0 17 940 0 939 940 940 0 652 649 0
 0 -17 652 0 636 652 652 0 940 649 0 0 +15 636 1710 0 652 467 937 83 3 675 .2823
529411764705 .662745098039216 .3254901960784315 83 3 668 .2823529411764705 .6627
45098039216 .3254901960784315 80 1 658 941 942 8038 0 0 0 0 0 0 0 0 0 TTTTTTTTTT
TTTF10 81 1 14 1780 941 1 655 2 0 0 943 98 255 33 659 67 111 114 101 32 66 101 9
7 114 105 110 103 32 67 97 114 114 105 101 114 32 78 111 110 32 80 111 116 32 83
 105 100 101 80 1 941 944 945 8017 0 0 0 0 0 0 0 0 0 TTTTTTTTTTTTTF3 84 33 943 C
ore Bearing Carrier Non Pot Side79 13 945 SDL/TYSA_NAME79 14 942 SDL/TYSA_UNAME8
3 3 648 .2823529411764705 .662745098039216 .3254901960784315 83 3 630 .282352941
1764705 .662745098039216 .3254901960784315 83 3 625 .2823529411764705 .662745098
039216 .3254901960784315 83 3 618 .2823529411764705 .662745098039216 .3254901960
784315 82 3 611 63 10 2 82 3 608 63 9 2 82 3 605 63 8 2 82 3 602 63 7 2 82 3 599
 63 18 2 82 3 597 63 19 2 82 3 594 63 20 2 82 3 590 63 6 2 82 3 587 63 5 2 82 3
 569 63 4 2 79 15 566 SDL/TYSA_COLOUR83 3 538 .2823529411764705 .662745098039216
 .3254901960784315 83 3 530 .2823529411764705 .662745098039216 .3254901960784315
 17 82 0 510 501 128 79 503 251 0 500 +17 390 0 466 394 386 64 491 387 0 0 +17 3
94 0 466 481 390 60 483 391 0 0 +17 481 0 466 402 394 54 398 395 0 474 -17 402 0
 466 468 481 44 474 399 0 0 +17 67 0 490 491 140 64 484 239 0 483 +81 1 357 511
 32 355 0 0 250 452 946 81 1 361 513 32 359 0 0 452 414 947 82 3 454 63 19 1 81
 1 414 514 32 412 0 0 361 365 948 82 3 947 63 20 1 81 1 365 515 32 363 0 0 414 4
50 949 82 3 948 63 21 1 81 1 450 516 32 449 0 0 365 369 950 82 3 949 63 22 1 81
 1 369 517 32 367 0 0 450 417 951 82 3 950 63 23 1 81 1 417 518 32 415 0 0 369 3
73 952 82 3 951 63 24 1 81 1 373 519 32 371 0 0 417 420 953 82 3 952 63 25 1 81
 1 420 520 32 418 0 0 373 389 954 82 3 953 63 26 1 81 1 389 521 32 387 0 0 420 4
29 955 82 3 954 63 27 1 81 1 429 522 32 427 0 0 389 393 956 82 3 955 63 28 1 81
 1 393 523 32 391 0 0 429 432 957 82 3 956 63 29 1 81 1 432 524 32 430 0 0 393 3
97 958 82 3 957 63 30 1 81 1 397 525 32 395 0 0 432 443 959 82 3 958 63 31 1 81
 1 443 526 32 441 0 0 397 401 960 82 3 959 63 32 1 81 1 401 527 32 399 0 0 443 4
33 961 82 3 960 63 33 1 81 1 433 528 32 205 0 0 401 405 962 82 3 961 63 34 1 81
 1 405 529 32 403 0 0 433 439 963 82 3 962 63 35 1 81 1 439 530 32 437 0 0 405 3
53 964 82 3 963 63 36 1 81 1 353 531 32 351 0 0 439 218 965 82 3 964 63 37 1 81
 1 218 532 32 212 0 0 353 349 966 82 3 965 63 38 1 81 1 349 533 32 347 0 0 218 4
11 967 82 3 966 63 39 1 81 1 411 534 32 210 0 0 349 215 968 82 3 967 63 40 1 81
 1 215 535 32 192 0 0 411 211 969 82 3 968 63 41 1 82 3 969 63 42 1 81 1 250 510
 32 248 0 0 247 357 970 82 3 946 63 18 1 81 1 247 509 32 245 0 0 227 250 971 82
 3 970 63 17 1 81 1 227 508 32 40 0 0 196 247 972 82 3 971 63 16 1 81 1 196 507
 32 186 0 0 272 227 973 82 3 972 63 15 1 81 1 272 506 32 197 0 0 271 196 974 82
 3 973 63 14 1 81 1 271 505 32 269 0 0 229 272 975 82 3 974 63 13 1 81 1 229 504
 32 52 0 0 232 271 976 82 3 975 63 12 1 81 1 232 503 32 230 0 0 235 229 977 82 3
 976 63 11 1 81 1 235 502 32 233 0 0 238 232 978 82 3 977 63 10 1 81 1 238 501 3
2 236 0 0 241 235 979 82 3 978 63 9 1 81 1 241 500 32 239 0 0 244 238 980 82 3 9
79 63 8 1 81 1 244 499 32 242 0 0 253 241 981 82 3 980 63 7 1 81 1 253 498 32 25
1 0 0 256 244 982 82 3 981 63 6 1 81 1 256 497 32 254 0 0 259 253 983 82 3 982 6
3 5 1 81 1 259 496 32 257 0 0 262 256 984 82 3 983 63 4 1 81 1 262 495 32 260 0
 0 268 259 985 82 3 984 63 3 1 81 1 268 494 32 266 0 0 265 262 986 82 3 985 63 2
 1 81 1 265 493 32 263 0 0 131 268 987 82 3 986 63 1 1 81 1 131 492 32 129 0 0 1
61 265 988 82 3 987 63 0 1 81 1 161 491 32 159 0 0 151 131 989 82 3 988 63 35 0
 81 1 151 490 32 149 0 0 180 161 990 82 3 989 63 34 0 82 3 990 63 33 0 82 3 333
 70 9 1 82 3 322 70 1 1 82 3 217 63 43 1 81 1 177 488 32 175 0 0 115 180 991 82
 3 182 63 32 0 81 1 115 487 32 113 0 0 154 177 992 82 3 991 63 31 0 81 1 154 486
 32 152 0 0 147 115 993 82 3 992 63 30 0 81 1 147 485 32 145 0 0 157 154 994 82
 3 993 63 29 0 81 1 157 484 32 155 0 0 143 147 995 82 3 994 63 28 0 81 1 143 483
 32 141 0 0 135 157 996 82 3 995 63 27 0 81 1 135 482 32 133 0 0 139 143 997 82
 3 996 63 26 0 81 1 139 481 32 137 0 0 127 135 998 82 3 997 63 25 0 81 1 127 480
 32 125 0 0 123 139 999 82 3 998 63 24 0 81 1 123 479 32 121 0 0 165 127 1000 82
 3 999 63 23 0 81 1 165 478 32 163 0 0 119 123 1001 82 3 1000 63 22 0 81 1 119 4
77 32 117 0 0 173 165 1002 82 3 1001 63 21 0 81 1 173 476 32 171 0 0 169 119 100
3 82 3 1002 63 20 0 81 1 169 475 32 167 0 0 77 173 1004 82 3 1003 63 19 0 81 1 7
7 474 32 75 0 0 34 169 1005 82 3 1004 63 18 0 81 1 34 473 32 72 0 0 29 77 1006 8
2 3 1005 63 17 0 82 3 1006 63 16 0 81 1 33 471 32 110 0 0 108 29 1007 81 1 108 4
70 32 106 0 0 46 33 1008 82 3 1007 63 14 0 81 1 46 469 32 103 0 0 42 108 1009 82
 3 1008 63 13 0 82 3 1009 63 12 0 81 1 101 458 32 99 0 0 97 93 1010 81 1 97 457
 32 95 0 0 0 101 1011 81 1 93 459 32 91 0 0 101 89 1012 82 3 1010 63 1 0 81 1 89
 460 32 87 0 0 93 85 1013 82 3 1012 63 2 0 81 1 85 461 32 83 0 0 89 81 1014 82 3
 1013 63 3 0 81 1 81 462 32 79 0 0 85 70 1015 82 3 1014 63 4 0 81 1 70 463 32 68
 0 0 81 66 1016 82 3 1015 63 5 0 81 1 66 464 32 64 0 0 70 62 1017 82 3 1016 63 6
 0 81 1 62 465 32 60 0 0 66 58 1018 82 3 1017 63 7 0 81 1 58 466 32 54 0 0 62 45
 1019 82 3 1018 63 8 0 81 1 45 467 32 44 0 0 58 42 1020 82 3 1019 63 9 0 82 3 10
20 63 10 0 82 3 1011 63 0 0 82 3 47 63 11 0 82 3 35 63 15 0 19 18 4 0 1 0 10 6 S
0 74 4 CI16 index_map_offset0 0 1 dCCZ20 16 6 0 0 634 928 655 14 2 661 0 0 0 0 0
 0 0 0 0 0 0 0 0 0 80 1 13 526 1021 8040 0 0 0 0 3 5 0 0 0 TTTFFFFFFFFFFF2 83 3
 15 .2823529411764705 .662745098039216 .3254901960784315 79 17 1021 SDL/TYSA_COL
OUR_21 0 
